<svg width="auto" height="auto" viewBox="0 0 320 180" fill="none" xmlns="http://www.w3.org/2000/svg">
<circle opacity="0.3" cx="58.984" cy="90.984" r="41.984" fill="url(#paint0_radial_701_4704)"/>
<circle opacity="0.6" cx="58.984" cy="90.9845" r="27.9893" fill="url(#paint1_radial_701_4704)"/>
<g filter="url(#filter0_i_701_4704)">
<path d="M29.849 72.6933C29.849 71.2646 31.0072 70.1064 32.4359 70.1064H86.1133C87.5419 70.1064 88.7001 71.2646 88.7001 72.6933V110.85H29.849V72.6933Z" fill="#3B3747"/>
<path d="M29.849 72.6933C29.849 71.2646 31.0072 70.1064 32.4359 70.1064H86.1133C87.5419 70.1064 88.7001 71.2646 88.7001 72.6933V110.85H29.849V72.6933Z" fill="url(#paint2_linear_701_4704)" fill-opacity="0.2"/>
</g>
<path d="M31.1421 72.6919C31.1421 71.9775 31.7212 71.3984 32.4355 71.3984H86.1129C86.8273 71.3984 87.4063 71.9775 87.4063 72.6919V110.848H31.1421V72.6919Z" fill="url(#paint3_linear_701_4704)"/>
<g filter="url(#filter1_i_701_4704)">
<path d="M94.2743 113.676H24.4884C23.8674 113.676 23.3813 113.192 23.3813 112.574V111.955C23.3813 111.337 23.8674 110.853 24.4884 110.853H94.2743C94.8953 110.853 95.3813 111.337 95.3813 111.955V112.574C95.3813 113.192 94.8683 113.676 94.2743 113.676Z" fill="#3B3747"/>
<path d="M94.2743 113.676H24.4884C23.8674 113.676 23.3813 113.192 23.3813 112.574V111.955C23.3813 111.337 23.8674 110.853 24.4884 110.853H94.2743C94.8953 110.853 95.3813 111.337 95.3813 111.955V112.574C95.3813 113.192 94.8683 113.676 94.2743 113.676Z" fill="url(#paint4_linear_701_4704)" fill-opacity="0.2"/>
</g>
<path d="M62.6487 112.394H55.9408C55.0752 112.394 54.399 111.691 54.399 110.853H64.1904C64.1904 111.691 63.5142 112.394 62.6487 112.394Z" fill="#9D99A9"/>
<path d="M48.3813 85.8238C48.3813 83.2185 50.4934 81.1064 53.0987 81.1064H63.6947C66.3 81.1064 68.4121 83.2185 68.4121 85.8238V96.4198C68.4121 99.0251 66.3 101.137 63.6947 101.137H53.0987C50.4934 101.137 48.3813 99.0251 48.3813 96.4198V85.8238Z" fill="white"/>
<path fill-rule="evenodd" clip-rule="evenodd" d="M57.2224 96.3372C57.6977 97.1985 58.9185 97.2451 59.4583 96.4226L64.4908 88.7533C65.0245 87.94 64.5139 86.8496 63.5475 86.7387L53.6558 85.6045C52.6012 85.4835 51.8503 86.6042 52.3633 87.5336L57.2224 96.3372Z" fill="url(#paint5_linear_701_4704)"/>
<path fill-rule="evenodd" clip-rule="evenodd" d="M57.2224 96.3372C57.6977 97.1985 58.9185 97.2451 59.4583 96.4226L64.4908 88.7533C65.0245 87.94 64.5139 86.8496 63.5475 86.7387L53.6558 85.6045C52.6012 85.4835 51.8503 86.6042 52.3633 87.5336L57.2224 96.3372Z" fill="url(#paint6_linear_701_4704)"/>
<path fill-rule="evenodd" clip-rule="evenodd" d="M57.9524 94.8623L57.5058 95.5337C57.3248 95.8057 56.9199 95.789 56.762 95.5029L57.2224 96.337C57.3044 96.4858 57.4088 96.6102 57.528 96.71L57.528 96.71C58.0991 97.1884 59.0117 97.1028 59.4583 96.4223L64.4908 88.7531C65.0245 87.9397 64.5139 86.8493 63.5475 86.7385L53.6558 85.6042C52.6012 85.4833 51.8503 86.604 52.3633 87.5333L52.4023 87.6041L60.8218 88.5782C61.3585 88.6403 61.6416 89.2461 61.345 89.6976L57.9524 94.8623Z" fill="url(#paint7_linear_701_4704)"/>
<rect x="242.585" y="77.7588" width="57.0106" height="33.5955" fill="#353145"/>
<g filter="url(#filter2_i_701_4704)">
<rect x="240.04" y="105.741" width="62.1009" height="14.2527" rx="2.06436" fill="url(#paint8_linear_701_4704)"/>
</g>
<rect x="244.112" y="111.851" width="32.0685" height="2.03609" rx="1.01805" fill="#8A8798"/>
<rect x="292.469" y="111.851" width="2.03609" height="2.03609" rx="1.01805" fill="#2DDCCC"/>
<rect x="288.397" y="111.851" width="2.03609" height="2.03609" rx="1.01805" fill="#8A8798"/>
<rect x="296.542" y="111.851" width="2.03609" height="2.03609" rx="1.01805" fill="#8A8798"/>
<path opacity="0.8" d="M271.132 70.8665L302.141 70.8665L298.065 61.832C297.22 60.0363 296.177 58.6211 293.834 58.6211L271.029 58.6211L248.203 58.6211C245.88 58.6211 244.99 60.0363 243.971 61.832L240.04 70.6919L271.132 70.8665Z" fill="url(#paint9_linear_701_4704)"/>
<g filter="url(#filter3_i_701_4704)">
<rect x="240.04" y="87.2092" width="62.1009" height="14.2527" rx="2.06436" fill="url(#paint10_linear_701_4704)"/>
</g>
<rect x="244.112" y="93.3184" width="32.0685" height="2.03609" rx="1.01805" fill="#8A8798"/>
<rect x="292.47" y="93.3184" width="2.03609" height="2.03609" rx="1.01805" fill="#8A8798"/>
<rect x="288.397" y="93.3184" width="2.03609" height="2.03609" rx="1.01805" fill="#8A8798"/>
<rect x="296.542" y="93.3184" width="2.03609" height="2.03609" rx="1.01805" fill="#2DDCCC"/>
<g filter="url(#filter4_i_701_4704)">
<rect x="240.041" y="69.1416" width="62.1009" height="14.2527" rx="2.06436" fill="url(#paint11_linear_701_4704)"/>
</g>
<rect x="244.113" y="75.25" width="32.0685" height="2.03609" rx="1.01805" fill="#8A8798"/>
<rect x="292.47" y="75.25" width="2.03609" height="2.03609" rx="1.01805" fill="#8A8798"/>
<rect x="288.397" y="75.25" width="2.03609" height="2.03609" rx="1.01805" fill="#2DDCCC"/>
<rect x="296.542" y="75.25" width="2.03609" height="2.03609" rx="1.01805" fill="#2DDCCC"/>
<path fill-rule="evenodd" clip-rule="evenodd" d="M126.817 46.833C117.33 48.9505 109.84 51.9134 105.107 55.2599C103.924 56.0966 102.286 55.8156 101.45 54.6323C100.613 53.449 100.894 51.8115 102.077 50.9748C107.613 47.0608 115.863 43.901 125.674 41.711C135.531 39.5106 147.152 38.248 159.571 38.248C171.99 38.248 183.611 39.5106 193.468 41.711C203.279 43.901 211.529 47.0608 217.064 50.9748C218.248 51.8115 218.529 53.449 217.692 54.6323C216.855 55.8156 215.218 56.0966 214.035 55.2599C209.301 51.9134 201.811 48.9505 192.325 46.833C182.885 44.7258 171.651 43.496 159.571 43.496C147.49 43.496 136.257 44.7258 126.817 46.833Z" fill="url(#paint12_linear_701_4704)" fill-opacity="0.5"/>
<path d="M103.592 53.1176C113.861 45.857 135.072 40.8723 159.571 40.8723C167.428 40.8723 174.947 41.385 181.875 42.321" stroke="url(#paint13_linear_701_4704)" stroke-opacity="0.3" stroke-width="3.49867" stroke-linecap="round"/>
<path d="M103.592 53.1175C111.047 47.8466 124.268 43.7751 140.328 41.9395" stroke="url(#paint14_linear_701_4704)" stroke-opacity="0.3" stroke-width="1.74933" stroke-linecap="round"/>
<circle cx="215.549" cy="53.1172" r="2.624" fill="#2DDCCC"/>
<circle opacity="0.5" cx="215.549" cy="53.1171" r="7.872" fill="url(#paint15_radial_701_4704)"/>
<path fill-rule="evenodd" clip-rule="evenodd" d="M200.197 137.759C209.683 135.641 217.173 132.678 221.906 129.332C223.09 128.495 224.727 128.776 225.564 129.96C226.4 131.143 226.119 132.78 224.936 133.617C219.4 137.531 211.151 140.691 201.34 142.881C191.482 145.081 179.861 146.344 167.443 146.344C155.024 146.344 143.403 145.081 133.545 142.881C123.734 140.691 115.485 137.531 109.949 133.617C108.766 132.78 108.485 131.143 109.321 129.96C110.158 128.776 111.795 128.495 112.979 129.332C117.712 132.678 125.202 135.641 134.688 137.759C144.128 139.866 155.362 141.096 167.443 141.096C179.523 141.096 190.757 139.866 200.197 137.759Z" fill="url(#paint16_linear_701_4704)" fill-opacity="0.5"/>
<path d="M223.421 131.474C213.152 138.735 191.942 143.72 167.442 143.72C159.585 143.72 152.067 143.207 145.139 142.271" stroke="url(#paint17_linear_701_4704)" stroke-opacity="0.3" stroke-width="3.49867" stroke-linecap="round"/>
<path d="M223.421 131.475C215.966 136.745 202.745 140.817 186.685 142.653" stroke="url(#paint18_linear_701_4704)" stroke-opacity="0.3" stroke-width="1.74933" stroke-linecap="round"/>
<circle cx="111.464" cy="131.474" r="2.624" transform="rotate(180 111.464 131.474)" fill="#2DDCCC"/>
<circle opacity="0.5" cx="111.464" cy="131.474" r="7.872" transform="rotate(180 111.464 131.474)" fill="url(#paint19_radial_701_4704)"/>
<defs>
<filter id="filter0_i_701_4704" x="29.849" y="70.1064" width="58.8511" height="41.1932" filterUnits="userSpaceOnUse" color-interpolation-filters="sRGB">
<feFlood flood-opacity="0" result="BackgroundImageFix"/>
<feBlend mode="normal" in="SourceGraphic" in2="BackgroundImageFix" result="shape"/>
<feColorMatrix in="SourceAlpha" type="matrix" values="0 0 0 0 0 0 0 0 0 0 0 0 0 0 0 0 0 0 127 0" result="hardAlpha"/>
<feOffset dy="0.45"/>
<feGaussianBlur stdDeviation="0.225"/>
<feComposite in2="hardAlpha" operator="arithmetic" k2="-1" k3="1"/>
<feColorMatrix type="matrix" values="0 0 0 0 1 0 0 0 0 1 0 0 0 0 1 0 0 0 0.45 0"/>
<feBlend mode="normal" in2="shape" result="effect1_innerShadow_701_4704"/>
</filter>
<filter id="filter1_i_701_4704" x="23.3813" y="110.853" width="72" height="3.29102" filterUnits="userSpaceOnUse" color-interpolation-filters="sRGB">
<feFlood flood-opacity="0" result="BackgroundImageFix"/>
<feBlend mode="normal" in="SourceGraphic" in2="BackgroundImageFix" result="shape"/>
<feColorMatrix in="SourceAlpha" type="matrix" values="0 0 0 0 0 0 0 0 0 0 0 0 0 0 0 0 0 0 127 0" result="hardAlpha"/>
<feOffset dy="0.467532"/>
<feGaussianBlur stdDeviation="0.233766"/>
<feComposite in2="hardAlpha" operator="arithmetic" k2="-1" k3="1"/>
<feColorMatrix type="matrix" values="0 0 0 0 1 0 0 0 0 1 0 0 0 0 1 0 0 0 0.4 0"/>
<feBlend mode="normal" in2="shape" result="effect1_innerShadow_701_4704"/>
</filter>
<filter id="filter2_i_701_4704" x="240.04" y="105.741" width="62.1009" height="15.1274" filterUnits="userSpaceOnUse" color-interpolation-filters="sRGB">
<feFlood flood-opacity="0" result="BackgroundImageFix"/>
<feBlend mode="normal" in="SourceGraphic" in2="BackgroundImageFix" result="shape"/>
<feColorMatrix in="SourceAlpha" type="matrix" values="0 0 0 0 0 0 0 0 0 0 0 0 0 0 0 0 0 0 127 0" result="hardAlpha"/>
<feOffset dy="0.874667"/>
<feGaussianBlur stdDeviation="0.437333"/>
<feComposite in2="hardAlpha" operator="arithmetic" k2="-1" k3="1"/>
<feColorMatrix type="matrix" values="0 0 0 0 1 0 0 0 0 1 0 0 0 0 1 0 0 0 0.4 0"/>
<feBlend mode="normal" in2="shape" result="effect1_innerShadow_701_4704"/>
</filter>
<filter id="filter3_i_701_4704" x="240.04" y="87.2092" width="62.1009" height="15.1274" filterUnits="userSpaceOnUse" color-interpolation-filters="sRGB">
<feFlood flood-opacity="0" result="BackgroundImageFix"/>
<feBlend mode="normal" in="SourceGraphic" in2="BackgroundImageFix" result="shape"/>
<feColorMatrix in="SourceAlpha" type="matrix" values="0 0 0 0 0 0 0 0 0 0 0 0 0 0 0 0 0 0 127 0" result="hardAlpha"/>
<feOffset dy="0.874667"/>
<feGaussianBlur stdDeviation="0.437333"/>
<feComposite in2="hardAlpha" operator="arithmetic" k2="-1" k3="1"/>
<feColorMatrix type="matrix" values="0 0 0 0 1 0 0 0 0 1 0 0 0 0 1 0 0 0 0.4 0"/>
<feBlend mode="normal" in2="shape" result="effect1_innerShadow_701_4704"/>
</filter>
<filter id="filter4_i_701_4704" x="240.041" y="69.1416" width="62.1009" height="15.1274" filterUnits="userSpaceOnUse" color-interpolation-filters="sRGB">
<feFlood flood-opacity="0" result="BackgroundImageFix"/>
<feBlend mode="normal" in="SourceGraphic" in2="BackgroundImageFix" result="shape"/>
<feColorMatrix in="SourceAlpha" type="matrix" values="0 0 0 0 0 0 0 0 0 0 0 0 0 0 0 0 0 0 127 0" result="hardAlpha"/>
<feOffset dy="0.874667"/>
<feGaussianBlur stdDeviation="0.437333"/>
<feComposite in2="hardAlpha" operator="arithmetic" k2="-1" k3="1"/>
<feColorMatrix type="matrix" values="0 0 0 0 1 0 0 0 0 1 0 0 0 0 1 0 0 0 0.4 0"/>
<feBlend mode="normal" in2="shape" result="effect1_innerShadow_701_4704"/>
</filter>
<radialGradient id="paint0_radial_701_4704" cx="0" cy="0" r="1" gradientUnits="userSpaceOnUse" gradientTransform="translate(58.984 90.984) rotate(90) scale(41.984)">
<stop offset="0.689803" stop-color="#2DDCCC" stop-opacity="0"/>
<stop offset="1" stop-color="#2DDCCC"/>
</radialGradient>
<radialGradient id="paint1_radial_701_4704" cx="0" cy="0" r="1" gradientUnits="userSpaceOnUse" gradientTransform="translate(58.984 90.9845) rotate(90) scale(27.9893)">
<stop offset="0.689803" stop-color="#2DDCCC" stop-opacity="0"/>
<stop offset="1" stop-color="#2DDCCC"/>
</radialGradient>
<linearGradient id="paint2_linear_701_4704" x1="74.4219" y1="128.243" x2="32.6531" y2="91.8687" gradientUnits="userSpaceOnUse">
<stop stop-color="white"/>
<stop offset="0.553424" stop-color="white" stop-opacity="0"/>
</linearGradient>
<linearGradient id="paint3_linear_701_4704" x1="71.9424" y1="59.3136" x2="50.7919" y2="111.134" gradientUnits="userSpaceOnUse">
<stop stop-color="#2DDCCC"/>
<stop offset="1" stop-color="#4A4658"/>
</linearGradient>
<linearGradient id="paint4_linear_701_4704" x1="77.913" y1="114.881" x2="77.5344" y2="109.061" gradientUnits="userSpaceOnUse">
<stop stop-color="white"/>
<stop offset="0.553424" stop-color="white" stop-opacity="0"/>
</linearGradient>
<linearGradient id="paint5_linear_701_4704" x1="59.0706" y1="78.676" x2="59.4962" y2="93.1462" gradientUnits="userSpaceOnUse">
<stop offset="0.988738" stop-color="#6D4AFF"/>
</linearGradient>
<linearGradient id="paint6_linear_701_4704" x1="59.1538" y1="80.6792" x2="55.617" y2="95.9068" gradientUnits="userSpaceOnUse">
<stop offset="0.47989" stop-color="#24ECC6" stop-opacity="0"/>
<stop offset="0.994421" stop-color="#24ECC6"/>
</linearGradient>
<linearGradient id="paint7_linear_701_4704" x1="60.3237" y1="97.575" x2="52.4819" y2="84.1648" gradientUnits="userSpaceOnUse">
<stop offset="0.0660125" stop-color="#ABFFEF"/>
<stop offset="0.44988" stop-color="#CAC9FF"/>
<stop offset="1" stop-color="#6D4AFF"/>
</linearGradient>
<linearGradient id="paint8_linear_701_4704" x1="246.395" y1="105.741" x2="250.81" y2="128.707" gradientUnits="userSpaceOnUse">
<stop stop-color="#3C3848"/>
<stop offset="0.385417" stop-color="#646072"/>
<stop offset="1" stop-color="#3B3747"/>
</linearGradient>
<linearGradient id="paint9_linear_701_4704" x1="287.86" y1="46.795" x2="247.363" y2="57.7995" gradientUnits="userSpaceOnUse">
<stop stop-color="#504C5B"/>
<stop offset="1" stop-color="#B1AFBC"/>
</linearGradient>
<linearGradient id="paint10_linear_701_4704" x1="246.396" y1="87.2092" x2="250.81" y2="110.175" gradientUnits="userSpaceOnUse">
<stop stop-color="#3C3848"/>
<stop offset="0.385417" stop-color="#646072"/>
<stop offset="1" stop-color="#3B3747"/>
</linearGradient>
<linearGradient id="paint11_linear_701_4704" x1="246.396" y1="69.1416" x2="250.81" y2="92.1073" gradientUnits="userSpaceOnUse">
<stop stop-color="#3C3848"/>
<stop offset="0.385417" stop-color="#646072"/>
<stop offset="1" stop-color="#3B3747"/>
</linearGradient>
<linearGradient id="paint12_linear_701_4704" x1="215.112" y1="51.368" x2="113.266" y2="63.2283" gradientUnits="userSpaceOnUse">
<stop stop-color="#2DDCCC"/>
<stop offset="1" stop-color="#2DDCCC" stop-opacity="0"/>
</linearGradient>
<linearGradient id="paint13_linear_701_4704" x1="183.187" y1="53.1177" x2="112.339" y2="53.1177" gradientUnits="userSpaceOnUse">
<stop stop-color="#2DDCCC"/>
<stop offset="1" stop-color="#2DDCCC" stop-opacity="0"/>
</linearGradient>
<linearGradient id="paint14_linear_701_4704" x1="144.701" y1="53.1175" x2="112.339" y2="53.1175" gradientUnits="userSpaceOnUse">
<stop stop-color="#2DDCCC"/>
<stop offset="1" stop-color="#2DDCCC" stop-opacity="0"/>
</linearGradient>
<radialGradient id="paint15_radial_701_4704" cx="0" cy="0" r="1" gradientUnits="userSpaceOnUse" gradientTransform="translate(215.549 53.1171) rotate(90) scale(7.872)">
<stop offset="0.385417" stop-color="#2DDCCC" stop-opacity="0"/>
<stop offset="1" stop-color="#2DDCCC"/>
</radialGradient>
<linearGradient id="paint16_linear_701_4704" x1="111.901" y1="133.224" x2="213.748" y2="121.364" gradientUnits="userSpaceOnUse">
<stop stop-color="#2DDCCC"/>
<stop offset="1" stop-color="#2DDCCC" stop-opacity="0"/>
</linearGradient>
<linearGradient id="paint17_linear_701_4704" x1="143.827" y1="131.474" x2="214.675" y2="131.474" gradientUnits="userSpaceOnUse">
<stop stop-color="#2DDCCC"/>
<stop offset="1" stop-color="#2DDCCC" stop-opacity="0"/>
</linearGradient>
<linearGradient id="paint18_linear_701_4704" x1="182.312" y1="131.475" x2="214.675" y2="131.475" gradientUnits="userSpaceOnUse">
<stop stop-color="#2DDCCC"/>
<stop offset="1" stop-color="#2DDCCC" stop-opacity="0"/>
</linearGradient>
<radialGradient id="paint19_radial_701_4704" cx="0" cy="0" r="1" gradientUnits="userSpaceOnUse" gradientTransform="translate(111.464 131.474) rotate(90) scale(7.872)">
<stop offset="0.385417" stop-color="#2DDCCC" stop-opacity="0"/>
<stop offset="1" stop-color="#2DDCCC"/>
</radialGradient>
</defs>
</svg>
