<svg width="auto" height="auto" viewBox="0 0 24 16" fill="none" xmlns="http://www.w3.org/2000/svg">
<g id="AD">
<g clip-path="url(#clip0_2253_2451)">
<path id="Vector" d="M24 -0.00256348H0V15.9949H24V-0.00256348Z" fill="#FFDA44"/>
<path id="Vector_2" d="M8.0025 -0.00256348H0V15.9949H8.0025V-0.00256348Z" fill="#0052B4"/>
<path id="Vector_3" d="M24 -0.00256348H15.9975V15.9949H24V-0.00256348ZM12 10.7824V7.99994H14.085V9.04244C13.8727 9.64298 13.4414 10.1412 12.8775 10.4374C12.6011 10.5898 12.3062 10.7058 12 10.7824ZM12 5.91494H9.91504V7.99994H12V5.91494Z" fill="#D80027"/>
<path id="Vector_4" d="M13.7403 8.69752C13.7403 8.87752 13.7403 9.44752 12.8778 9.97252C12.6033 10.1473 12.3078 10.2875 12.0003 10.3925C11.6921 10.288 11.3975 10.147 11.1228 9.97252C10.2603 9.42502 10.2603 8.87752 10.2603 8.69752V6.26002H13.7403V8.69752ZM13.0428 5.21752C13.0428 5.03253 12.9693 4.85512 12.8385 4.72431C12.7077 4.59351 12.5303 4.52002 12.3453 4.52002C12.2236 4.52119 12.1045 4.55486 12.0003 4.61752C11.8956 4.55583 11.7768 4.52225 11.6553 4.52002C11.4703 4.52002 11.2929 4.59351 11.1621 4.72431C11.0313 4.85512 10.9578 5.03253 10.9578 5.21752H9.21777V8.69752C9.25921 9.23599 9.4544 9.75124 9.78014 10.182C10.1059 10.6128 10.5485 10.941 11.0553 11.1275C10.9942 11.2352 10.9607 11.3563 10.9578 11.48C10.958 11.5712 10.9762 11.6615 11.0114 11.7456C11.0466 11.8297 11.0981 11.906 11.163 11.9701C11.2278 12.0343 11.3047 12.085 11.3892 12.1193C11.4736 12.1536 11.5641 12.1708 11.6553 12.17C11.7761 12.1704 11.895 12.1394 12.0003 12.08C12.1051 12.1404 12.2243 12.1715 12.3453 12.17C12.4365 12.171 12.527 12.1539 12.6116 12.1197C12.6962 12.0854 12.7732 12.0348 12.838 11.9706C12.9029 11.9064 12.9544 11.83 12.9895 11.7458C13.0247 11.6616 13.0428 11.5713 13.0428 11.48C13.0399 11.3563 13.0064 11.2351 12.9453 11.1275C13.4521 10.941 13.8947 10.6128 14.2204 10.182C14.5461 9.75124 14.7413 9.23599 14.7828 8.69752V5.21752H13.0428V5.21752Z" fill="#FF9811"/>
</g>
</g>
<defs>
<clipPath id="clip0_2253_2451">
<rect width="24" height="16" rx="4" fill="white"/>
</clipPath>
</defs>
</svg>
