<svg width="auto" height="auto" viewBox="0 0 24 16" fill="none" xmlns="http://www.w3.org/2000/svg">
<g id="AF">
<g clip-path="url(#clip0_2253_2461)">
<path id="Vector" d="M24 -0.00256348H0V15.9949H24V-0.00256348Z" fill="#D80027"/>
<path id="Vector_2" d="M24 -0.00256348H15.48V15.9949H24V-0.00256348Z" fill="#496E2D"/>
<path id="Vector_3" d="M8.52 -0.00256348H0V15.9949H8.52V-0.00256348Z" fill="black"/>
<path id="Vector_4" d="M12.0002 9.74003C11.7687 9.74484 11.5386 9.70339 11.3233 9.61813C11.108 9.53286 10.9119 9.40549 10.7465 9.24348C10.5811 9.08146 10.4497 8.88806 10.36 8.67461C10.2703 8.46116 10.2241 8.23194 10.2241 8.0004C10.2241 7.76886 10.2703 7.53965 10.36 7.3262C10.4497 7.11275 10.5811 6.91935 10.7465 6.75733C10.9119 6.59532 11.108 6.46795 11.3233 6.38268C11.5386 6.29742 11.7687 6.25597 12.0002 6.26078C12.4553 6.27023 12.8886 6.45766 13.2071 6.78288C13.5257 7.10809 13.7041 7.54518 13.7041 8.0004C13.7041 8.45562 13.5257 8.89272 13.2071 9.21793C12.8886 9.54315 12.4553 9.73058 12.0002 9.74003V9.74003ZM12.0002 5.21753C11.4489 5.21753 10.9097 5.40353 10.4522 5.71028C10.052 5.9782 9.72829 6.34537 9.51258 6.7759C9.29686 7.20642 9.19657 7.68556 9.22151 8.16647C9.24645 8.64737 9.39576 9.11356 9.65486 9.51947C9.91395 9.92537 10.2739 10.2571 10.6996 10.4822C11.1254 10.7073 11.6022 10.818 12.0835 10.8036C12.5648 10.7892 13.0342 10.6501 13.4457 10.4C13.8572 10.1498 14.1967 9.7972 14.431 9.37652C14.6654 8.95585 14.7865 8.48156 14.7827 8.00003C14.7827 7.26206 14.4895 6.55432 13.9677 6.0325C13.4459 5.51068 12.7381 5.21753 12.0002 5.21753V5.21753Z" fill="#FFDA44"/>
<path id="Vector_5" d="M12.0002 6.95752C11.8152 6.95752 11.6378 7.03101 11.507 7.16181C11.3762 7.29262 11.3027 7.47003 11.3027 7.65502V8.69752H12.6977V7.65502C12.6977 7.47003 12.6242 7.29262 12.4934 7.16181C12.3626 7.03101 12.1852 6.95752 12.0002 6.95752Z" fill="#FFDA44"/>
</g>
</g>
<defs>
<clipPath id="clip0_2253_2461">
<rect width="24" height="16" rx="4" fill="white"/>
</clipPath>
</defs>
</svg>
