<svg width="auto" height="auto" viewBox="0 0 24 16" fill="none" xmlns="http://www.w3.org/2000/svg">
<g id="AR">
<g clip-path="url(#clip0_2253_2494)">
<path id="Vector" d="M24 -0.00256348H0V15.9949H24V-0.00256348Z" fill="#F0F0F0"/>
<path id="Vector_2" d="M24 -0.00256348H0V5.32994H24V-0.00256348ZM24 10.6699H0V16.0024H24V10.6699Z" fill="#338AF3"/>
<path id="Vector_3" d="M13.9124 7.99999L13.1324 8.36749L13.5449 9.12499L12.6974 8.95999L12.5924 9.82249L11.9999 9.19249L11.4074 9.82249L11.3024 8.95999L10.4549 9.12499L10.8674 8.36749L10.0874 7.99999L10.8674 7.63249L10.4549 6.87499L11.3024 7.03999L11.4074 6.17749L11.9999 6.80749L12.5924 6.17749L12.6974 7.03999L13.5449 6.87499L13.1324 7.63249L13.9124 7.99999V7.99999Z" fill="#FFDA44"/>
</g>
</g>
<defs>
<clipPath id="clip0_2253_2494">
<rect width="24" height="16" rx="4" fill="white"/>
</clipPath>
</defs>
</svg>
