<svg width="auto" height="auto" viewBox="0 0 24 16" fill="none" xmlns="http://www.w3.org/2000/svg">
<g id="AS">
<g clip-path="url(#clip0_2253_2498)">
<g id="Group">
<path id="Vector" d="M24 -0.0625H0V15.935H24V-0.0625Z" fill="#0052B4"/>
<path id="Vector_2" d="M24 1.08496L2.7975 8.10496L24 15.125V16.0625L0 8.10496L24 0.147461V1.08496Z" fill="#D80027"/>
<path id="Vector_3" d="M23.9999 13.5425V15.125L2.79736 8.10496L23.9999 1.08496V2.67496" fill="#F0F0F0"/>
<path id="Vector_4" d="M23.1226 7.87993H21.7501C21.9245 7.67223 22.0145 7.40647 22.002 7.1355C21.9895 6.86453 21.8754 6.60818 21.6826 6.41743C21.7846 6.31632 21.8656 6.196 21.9209 6.0634C21.9762 5.93081 22.0046 5.78858 22.0046 5.64493C22.0046 5.50128 21.9762 5.35905 21.9209 5.22646C21.8656 5.09387 21.7846 4.97354 21.6826 4.87243C21.8882 4.66341 22.0035 4.38192 22.0035 4.08868C22.0035 3.79545 21.8882 3.51396 21.6826 3.30493L15.5176 9.49993C15.718 9.69599 15.9872 9.80578 16.2676 9.80578C16.5479 9.80578 16.8172 9.69599 17.0176 9.49993L17.1376 9.39493L20.0851 9.12493V10.3924H21.0901V9.02743L22.5901 8.89243L23.1226 7.87993V7.87993Z" fill="#A2001D"/>
<path id="Vector_5" d="M15.6074 10.8126L14.6099 10.3176L15.6074 9.81506H22.1249V10.8126H15.6074V10.8126Z" fill="#FFDA44"/>
</g>
</g>
</g>
<defs>
<clipPath id="clip0_2253_2498">
<rect width="24" height="16" rx="4" fill="white"/>
</clipPath>
</defs>
</svg>
