<svg width="auto" height="auto" viewBox="0 0 24 16" fill="none" xmlns="http://www.w3.org/2000/svg">
<g id="AU">
<g clip-path="url(#clip0_2253_2508)">
<path id="Vector" d="M24 -0.00256348H0V15.9949H24V-0.00256348Z" fill="#0052B4"/>
<path id="Vector_2" d="M8.8725 9.96494L9.3825 11.0374L10.545 10.7749L10.0275 11.8399L10.9575 12.5824L9.795 12.8449V14.0374L8.8725 13.2874L7.9425 14.0374V12.8449L6.78 12.5824L7.7175 11.8399L7.2 10.7749L8.355 11.0374L8.8725 9.96494V9.96494ZM18.1425 11.2999L18.39 11.8099L18.945 11.6824L18.6975 12.1924L19.14 12.5449L18.585 12.6724V13.2424L18.1425 12.8824L17.7 13.2424V12.6724L17.145 12.5449L17.595 12.1924L17.3475 11.6824L17.895 11.8099L18.1425 11.2999V11.2999ZM15.8625 5.86244L16.11 6.37994L16.665 6.24494L16.4175 6.76244L16.86 7.11494L16.305 7.23494V7.80494L15.8625 7.45244L15.42 7.80494L15.4275 7.23494L14.8725 7.11494L15.315 6.76244L15.0675 6.24494L15.6225 6.37994L15.8625 5.86244V5.86244ZM18.1425 2.75744L18.39 3.27494L18.945 3.14744L18.6975 3.65744L19.14 4.00994L18.585 4.12994V4.69994L18.1425 4.34744L17.7 4.69994V4.12994L17.145 4.00994L17.595 3.65744L17.3475 3.14744L17.895 3.27494L18.1425 2.75744V2.75744ZM20.1375 5.08994L20.3775 5.59994L20.9325 5.47244L20.685 5.98244L21.1275 6.33494L20.5725 6.46244L20.58 7.03244L20.1375 6.67244L19.695 7.03244V6.46244L19.14 6.33494L19.5825 5.98244L19.335 5.47244L19.89 5.59994L20.1375 5.08994V5.08994ZM18.7125 7.80494L18.9 8.39744H19.53L19.02 8.76494L19.215 9.35744L18.7125 8.98994L18.2025 9.35744L18.3975 8.76494L17.895 8.39744H18.5175L18.7125 7.80494V7.80494ZM12 -0.00256348V1.42994L9.885 2.60744H12V5.38994H9.2325L12 6.92744V7.99994H10.7475L7.305 6.08744V7.99994H4.695V5.71994L0.6 7.99994H0V6.56744L2.115 5.38994H0V2.60744H2.7675L0 1.06994V-0.00256348H1.2525L4.695 1.90994V-0.00256348H7.305V2.27744L11.4 -0.00256348H12V-0.00256348Z" fill="#F0F0F0"/>
<path id="Vector_3" d="M6.75 -0.00256348H5.25V3.25244H0V4.75244H5.25V7.99994H6.75V4.75244H12V3.25244H6.75V-0.00256348Z" fill="#D80027"/>
<path id="Vector_4" d="M7.30469 5.39001L11.9997 8.00001V7.26501L8.63219 5.39001H7.30469Z" fill="#0052B4"/>
<path id="Vector_5" d="M7.30469 5.39001L11.9997 8.00001V7.26501L8.63219 5.39001H7.30469Z" fill="#F0F0F0"/>
<path id="Vector_6" d="M7.305 5.39001L12 8.00001V7.26501L8.6325 5.39001H7.305ZM3.3675 5.39001L0 7.26501V8.00001L4.695 5.39001H3.3675Z" fill="#D80027"/>
<path id="Vector_7" d="M4.695 2.60744L0 -0.00256348V0.739937L3.3675 2.60744H4.695Z" fill="#0052B4"/>
<path id="Vector_8" d="M4.695 2.60744L0 -0.00256348V0.739937L3.3675 2.60744H4.695Z" fill="#F0F0F0"/>
<path id="Vector_9" d="M4.695 2.60744L0 -0.00256348V0.739937L3.3675 2.60744H4.695ZM8.6325 2.60744L12 0.739937V-0.00256348L7.305 2.60744H8.6325Z" fill="#D80027"/>
</g>
</g>
<defs>
<clipPath id="clip0_2253_2508">
<rect width="24" height="16" rx="4" fill="white"/>
</clipPath>
</defs>
</svg>
