<svg width="auto" height="auto" viewBox="0 0 24 16" fill="none" xmlns="http://www.w3.org/2000/svg">
<g id="AZ">
<g clip-path="url(#clip0_2253_2523)">
<path id="Vector" d="M24 -0.00256348H0V15.9949H24V-0.00256348Z" fill="#D80027"/>
<path id="Vector_2" d="M24 -0.00256348H0V5.32994H24V-0.00256348Z" fill="#338AF3"/>
<path id="Vector_3" d="M24 10.67H0V16.0025H24V10.67Z" fill="#6DA544"/>
<path id="Vector_4" d="M12.1503 9.9501C11.7791 9.9483 11.4162 9.84071 11.1041 9.63995C10.7919 9.43918 10.5435 9.15358 10.3879 8.81662C10.2324 8.47967 10.1761 8.10534 10.2258 7.73755C10.2754 7.36975 10.4289 7.02374 10.6683 6.7401C10.957 6.39899 11.3542 6.16742 11.7932 6.08413C12.2323 6.00085 12.6867 6.07092 13.0803 6.2826C12.7424 5.95278 12.3146 5.72996 11.8507 5.64206C11.3868 5.55415 10.9072 5.60505 10.472 5.78839C10.0369 5.97174 9.6655 6.27937 9.40435 6.67278C9.1432 7.06619 9.00391 7.5279 9.00391 8.0001C9.00391 8.4723 9.1432 8.934 9.40435 9.32741C9.6655 9.72083 10.0369 10.0285 10.472 10.2118C10.9072 10.3951 11.3868 10.4461 11.8507 10.3581C12.3146 10.2702 12.7424 10.0474 13.0803 9.7176C12.7946 9.87158 12.4748 9.95151 12.1503 9.9501V9.9501Z" fill="#F0F0F0"/>
<path id="Vector_5" d="M13.6498 6.6499L13.9048 7.3774L14.6023 7.0474L14.2723 7.7374L14.9998 7.9999L14.2723 8.2549L14.6023 8.9524L13.9048 8.6224L13.6498 9.3499L13.3948 8.6224L12.6973 8.9524L13.0273 8.2549L12.2998 7.9999L13.0273 7.7374L12.6973 7.0474L13.3948 7.3774L13.6498 6.6499Z" fill="#F0F0F0"/>
</g>
</g>
<defs>
<clipPath id="clip0_2253_2523">
<rect width="24" height="16" rx="4" fill="white"/>
</clipPath>
</defs>
</svg>
