<svg width="auto" height="auto" viewBox="0 0 24 16" fill="none" xmlns="http://www.w3.org/2000/svg">
<g id="BB">
<g clip-path="url(#clip0_2253_2544)">
<path id="Vector" d="M24 -0.00256348H0V15.9949H24V-0.00256348Z" fill="#FFDA44"/>
<path id="Vector_2" d="M8.0025 -0.00256348H0V15.9949H8.0025V-0.00256348ZM24 -0.00256348H15.9975V15.9949H24V-0.00256348Z" fill="#0052B4"/>
<path id="Vector_3" d="M14.4375 4.87255L14.9025 5.10505L14.4375 4.87255L13.965 4.63255C13.5182 5.64153 13.2638 6.72513 13.215 7.82755H12.525V4.87255L12 4.17505L11.475 4.87255V7.82755H10.77C10.7212 6.72513 10.4669 5.64153 10.02 4.63255L9.08252 5.10505C9.53252 6.12505 9.76052 7.2298 9.75002 8.34505V8.87005H11.475V11.825H12.525V8.87005H14.25V8.34505C14.253 7.55155 14.361 6.76255 14.5725 5.99755C14.6543 5.69155 14.7623 5.39305 14.895 5.10505L14.4375 4.87255V4.87255Z" fill="black"/>
</g>
</g>
<defs>
<clipPath id="clip0_2253_2544">
<rect width="24" height="16" rx="4" fill="white"/>
</clipPath>
</defs>
</svg>
