<svg width="auto" height="auto" viewBox="0 0 24 16" fill="none" xmlns="http://www.w3.org/2000/svg">
<g id="BN">
<g clip-path="url(#clip0_2253_2605)">
<path id="Vector" d="M24 -0.00256348H0V15.9949H24V-0.00256348Z" fill="#FFDA44"/>
<path id="Vector_2" d="M0 5.32996L24 15.0425V12.8525L12.81 8.42746L0 3.14746V5.32996Z" fill="black"/>
<path id="Vector_3" d="M24 12.8525V10.67L0 0.95752V3.14752" fill="#F0F0F0"/>
<path id="Vector_4" d="M14.2503 7.13C14.2497 7.47223 14.171 7.80983 14.0203 8.11709C13.8696 8.42435 13.6508 8.69318 13.3805 8.90312C13.1102 9.11306 12.7956 9.25857 12.4606 9.32859C12.1256 9.39861 11.779 9.39128 11.4473 9.30717C11.1156 9.22306 10.8074 9.06438 10.5462 8.8432C10.285 8.62203 10.0778 8.34419 9.94016 8.03084C9.80255 7.71748 9.73825 7.37686 9.75213 7.03491C9.76601 6.69295 9.85772 6.35867 10.0203 6.0575C9.50636 6.57336 9.2178 7.27184 9.21777 8C9.21777 8.73796 9.51093 9.4457 10.0327 9.96752C10.5546 10.4893 11.2623 10.7825 12.0003 10.7825C12.7382 10.7825 13.446 10.4893 13.9678 9.96752C14.4896 9.4457 14.7828 8.73796 14.7828 8C14.7847 7.27291 14.4989 6.57458 13.9878 6.0575C14.1633 6.3875 14.2533 6.7565 14.2503 7.13V7.13Z" fill="#D80027"/>
<path id="Vector_5" d="M12.5249 4.52002H11.4824V9.74002H12.5249V4.52002Z" fill="#D80027"/>
<path id="Vector_6" d="M13.74 5.5625H10.26C10.2639 5.67923 10.313 5.78987 10.397 5.87104C10.481 5.95222 10.5932 5.99756 10.71 5.9975C10.71 6.11287 10.7558 6.22351 10.8374 6.30509C10.919 6.38667 11.0296 6.4325 11.145 6.4325C11.145 6.48962 11.1563 6.54619 11.1781 6.59897C11.2 6.65174 11.232 6.6997 11.2724 6.74009C11.3128 6.78048 11.3608 6.81253 11.4135 6.83439C11.4663 6.85625 11.5229 6.8675 11.58 6.8675H12.45C12.5654 6.8675 12.676 6.82167 12.7576 6.74009C12.8392 6.65851 12.885 6.54787 12.885 6.4325C13.0004 6.4325 13.111 6.38667 13.1926 6.30509C13.2742 6.22351 13.32 6.11287 13.32 5.9975C13.4315 5.9901 13.5363 5.94146 13.6139 5.86105C13.6916 5.78064 13.7365 5.67422 13.74 5.5625V5.5625ZM14.43 10.085H9.5625V11.1275H14.43V10.085Z" fill="#D80027"/>
<path id="Vector_7" d="M15.1276 10.4375H13.0426V11.48H15.1276V10.4375ZM10.9576 10.4375H8.87256V11.48H10.9576V10.4375Z" fill="#D80027"/>
</g>
</g>
<defs>
<clipPath id="clip0_2253_2605">
<rect width="24" height="16" rx="4" fill="white"/>
</clipPath>
</defs>
</svg>
