<svg width="auto" height="auto" viewBox="0 0 24 16" fill="none" xmlns="http://www.w3.org/2000/svg">
<g id="BQ">
<g clip-path="url(#clip0_2253_2617)">
<path id="Vector" d="M24 -0.00256348H0V15.9949H24V-0.00256348Z" fill="#F0F0F0"/>
<path id="Vector_2" d="M0 16.0024H24V-0.00256348L0 16.0024Z" fill="#0052B4"/>
<path id="Vector_3" d="M11.7375 -0.00256348H0V7.82744L11.7375 -0.00256348Z" fill="#FFDA44"/>
<path id="Vector_4" d="M6.40494 8.75C6.12904 8.75 5.85933 8.66818 5.62992 8.5149C5.40051 8.36162 5.22171 8.14375 5.11613 7.88884C5.01055 7.63394 4.98292 7.35345 5.03675 7.08285C5.09057 6.81225 5.22343 6.56368 5.41853 6.36859C5.61362 6.17349 5.86219 6.04063 6.13279 5.9868C6.40339 5.93298 6.68388 5.9606 6.93878 6.06619C7.19369 6.17177 7.41156 6.35057 7.56484 6.57998C7.71813 6.80939 7.79994 7.0791 7.79994 7.355C7.80084 7.53844 7.76536 7.72025 7.69557 7.8899C7.62579 8.05955 7.52307 8.21369 7.39335 8.34341C7.26363 8.47312 7.10949 8.57584 6.93984 8.64563C6.77019 8.71542 6.58839 8.75089 6.40494 8.75ZM8.81244 7.73L9.50244 7.355L8.81244 6.98C8.7311 6.46523 8.48691 5.99009 8.11571 5.62429C7.74451 5.25849 7.26584 5.02129 6.74994 4.9475L6.40494 4.25L6.03744 4.94C5.52698 5.01966 5.05504 5.25946 4.68972 5.62478C4.3244 5.99009 4.0846 6.46204 4.00494 6.9725L3.31494 7.3475L4.00494 7.7225C4.0835 8.23342 4.32293 8.70597 4.68845 9.07149C5.05397 9.43701 5.52652 9.67645 6.03744 9.755L6.40494 10.445L6.77994 9.755C7.28979 9.67687 7.76155 9.43853 8.12695 9.07448C8.49235 8.71043 8.73243 8.23956 8.81244 7.73V7.73Z" fill="black"/>
<path id="Vector_5" d="M6.40488 6.3125L6.71238 6.8375H7.31238L7.01238 7.355L7.31238 7.88H6.71238L6.40488 8.3975L6.10488 7.88H5.50488L5.80488 7.355L5.50488 6.8375H6.10488L6.40488 6.3125Z" fill="#D80027"/>
</g>
</g>
<defs>
<clipPath id="clip0_2253_2617">
<rect width="24" height="16" rx="4" fill="white"/>
</clipPath>
</defs>
</svg>
