<svg width="auto" height="auto" viewBox="0 0 24 16" fill="none" xmlns="http://www.w3.org/2000/svg">
<g id="BY">
<g clip-path="url(#clip0_2253_2640)">
<path id="Vector" d="M24 0.0124512H0.0224609V15.995H24V0.0124512Z" fill="#6DA544"/>
<path id="Vector_2" d="M0 10.7825H23.97V0.00500488H0" fill="#A2001D"/>
<path id="Vector_3" d="M4.6875 10.7825V0.00500488H0V15.995H23.97H4.6875V10.7825Z" fill="#F0F0F0"/>
<path id="Vector_4" d="M3.21742 7.4225L2.34742 5.8475L3.21742 4.29501L4.07992 5.8475L3.21742 7.4225V7.4225ZM1.47742 7.4225L0.607422 5.8475L1.47742 4.29501L2.34742 5.8475L1.47742 7.4225ZM3.21742 11.705L2.34742 10.13L3.21742 8.57751L4.07992 10.13L3.21742 11.705V11.705ZM1.47742 11.705L0.607422 10.13L1.47742 8.57751L2.34742 10.13L1.47742 11.705ZM3.21742 15.995L2.34742 14.4125L3.21742 12.8675L4.07992 14.4125L3.21742 15.995V15.995ZM1.47742 15.995L0.607422 14.4125L1.47742 12.8675L2.34742 14.4125L1.47742 15.995ZM3.21742 3.1325L2.34742 1.5575L3.21742 0.00500488L4.07992 1.5575L3.21742 3.1325V3.1325ZM1.47742 3.1325L0.607422 1.5575L1.47742 0.00500488L2.34742 1.5575L1.47742 3.1325Z" fill="#A2001D"/>
</g>
</g>
<defs>
<clipPath id="clip0_2253_2640">
<rect width="24" height="16" rx="4" fill="white"/>
</clipPath>
</defs>
</svg>
