<svg width="auto" height="auto" viewBox="0 0 24 16" fill="none" xmlns="http://www.w3.org/2000/svg">
<g id="DM">
<g clip-path="url(#clip0_2253_2737)">
<path id="Vector" d="M24 -0.00256348H0V15.9949H24V-0.00256348Z" fill="#496E2D"/>
<path id="Vector_2" d="M0 6.5V9.5H24V6.5H0Z" fill="black"/>
<path id="Vector_3" d="M24 6.5H0V7.4975H24V6.5Z" fill="#FFDA44"/>
<path id="Vector_4" d="M24 8.50256H0V9.50006H24V8.50256Z" fill="#F0F0F0"/>
<path id="Vector_5" d="M13.5 -0.00256348H10.5V15.9949H13.5V-0.00256348Z" fill="black"/>
<path id="Vector_6" d="M11.4975 -0.00256348H10.5V15.9949H11.4975V-0.00256348Z" fill="#FFDA44"/>
<path id="Vector_7" d="M13.4999 -0.00256348H12.5024V15.9949H13.4999V-0.00256348Z" fill="#F0F0F0"/>
<path id="Vector_8" d="M11.9998 11.825C12.5021 11.825 12.9995 11.7261 13.4636 11.5339C13.9276 11.3417 14.3493 11.0599 14.7045 10.7047C15.0597 10.3495 15.3414 9.92788 15.5336 9.46381C15.7259 8.99974 15.8248 8.50236 15.8248 8.00005C15.8248 7.49774 15.7259 7.00036 15.5336 6.53628C15.3414 6.07221 15.0597 5.65055 14.7045 5.29537C14.3493 4.94018 13.9276 4.65843 13.4636 4.46621C12.9995 4.27399 12.5021 4.17505 11.9998 4.17505C10.9854 4.17505 10.0124 4.57804 9.29512 5.29537C8.57779 6.01269 8.1748 6.9856 8.1748 8.00005C8.1748 9.0145 8.57779 9.98741 9.29512 10.7047C10.0124 11.4221 10.9854 11.825 11.9998 11.825V11.825Z" fill="#D80027"/>
<path id="Vector_9" d="M12.87 8.42744C12.585 7.85744 12.2175 7.27994 12.2175 7.27994V6.85994C12.2173 6.74662 12.1722 6.638 12.092 6.55787C12.0119 6.47774 11.9033 6.43263 11.79 6.43244C11.6836 6.43216 11.5811 6.47227 11.5031 6.54466C11.4251 6.61705 11.3776 6.71633 11.37 6.82244C11.2959 6.82653 11.2252 6.8549 11.1689 6.90318C11.1126 6.95145 11.0738 7.01694 11.0584 7.0895C11.043 7.16207 11.052 7.23768 11.0839 7.30464C11.1158 7.3716 11.1689 7.42617 11.235 7.45994C11.2608 7.39739 11.2995 7.341 11.3486 7.29447C11.3977 7.24794 11.4561 7.21231 11.52 7.18994C11.5388 7.20986 11.5618 7.22524 11.5875 7.23494H11.64C11.5372 7.51769 11.469 7.81244 11.4375 8.11244C11.4106 8.33967 11.4493 8.56984 11.549 8.77581C11.6487 8.98178 11.8051 9.15496 12 9.27494L11.715 9.55994H12.285V8.98994L12.57 9.27494C12.7141 9.19399 12.824 9.06344 12.8792 8.90756C12.9344 8.75168 12.9311 8.58107 12.87 8.42744V8.42744ZM12 4.87244L12.1275 5.26994H12.5475L12.21 5.51744L12.3375 5.91494L12 5.66744L11.6625 5.91494L11.79 5.51744L11.4525 5.26994H11.8725L12 4.87244V4.87244ZM10.1625 5.46494L10.5 5.71244L10.8375 5.46494L10.71 5.86244L11.0475 6.10994H10.6275L10.5 6.51494L10.3725 6.10994H9.95246L10.29 5.86244L10.1625 5.46494V5.46494ZM9.02246 7.03244H9.44246L9.56996 6.63494L9.69746 7.03244H10.1175L9.77996 7.27994L9.90746 7.67744L9.56996 7.42994L9.23246 7.67744L9.35996 7.27994L9.02246 7.03244V7.03244ZM9.02246 8.96744L9.35996 8.71994L9.23246 8.32244L9.56996 8.56994L9.90746 8.32244L9.77996 8.71994L10.1175 8.96744H9.69746L9.56996 9.36494L9.44246 8.96744H9.02246V8.96744ZM10.1625 10.5349L10.29 10.1374L9.95246 9.88994H10.3725L10.5 9.49244L10.6275 9.88994H11.0475L10.71 10.1374L10.8375 10.5349L10.5 10.2874L10.1625 10.5349V10.5349ZM12 11.1349L11.8725 10.7299H11.4525L11.79 10.4899L11.6625 10.0849L12 10.3324L12.3375 10.0849L12.21 10.4899L12.5475 10.7299H12.1275L12 11.1349V11.1349ZM13.8375 10.5349L13.5 10.2874L13.1625 10.5349L13.29 10.1374L12.9525 9.88994H13.3725L13.5 9.49244L13.6275 9.88994H14.0475L13.71 10.1374L13.8375 10.5349V10.5349ZM14.9775 8.96744H14.5575L14.43 9.36494L14.3025 8.96744H13.8825L14.22 8.71994L14.0925 8.32244L14.43 8.56994L14.7675 8.32244L14.64 8.71994L14.9775 8.96744V8.96744ZM14.9775 7.03244L14.64 7.27994L14.7675 7.67744L14.43 7.42994L14.0925 7.67744L14.22 7.27994L13.8825 7.03244H14.3025L14.43 6.63494L14.5575 7.03244H14.9775V7.03244ZM13.8375 5.46494L13.71 5.86244L14.0475 6.10994H13.6275L13.5 6.51494L13.3725 6.10994H12.9525L13.29 5.86244L13.1625 5.46494L13.5 5.71244L13.8375 5.46494V5.46494Z" fill="#496E2D"/>
</g>
</g>
<defs>
<clipPath id="clip0_2253_2737">
<rect width="24" height="16" rx="4" fill="white"/>
</clipPath>
</defs>
</svg>
