<svg width="auto" height="auto" viewBox="0 0 24 16" fill="none" xmlns="http://www.w3.org/2000/svg">
<g id="DO">
<g clip-path="url(#clip0_2253_2747)">
<path id="Vector" d="M24 -0.00256348H0V15.9949H24V-0.00256348Z" fill="#F0F0F0"/>
<path id="Vector_2" d="M9.915 10.085H0V15.995H9.915V10.085Z" fill="#D80027"/>
<path id="Vector_3" d="M9.915 -0.00256348H0V5.90744H9.915V-0.00256348Z" fill="#0052B4"/>
<path id="Vector_4" d="M24 -0.00256348H14.085V5.90744H24V-0.00256348Z" fill="#D80027"/>
<path id="Vector_5" d="M24 10.085H14.085V15.995H24V10.085Z" fill="#0052B4"/>
<path id="Vector_6" d="M14.085 8.00004C14.085 8.55302 13.8654 9.08334 13.4744 9.47436C13.0833 9.86537 12.553 10.085 12 10.085C11.4471 10.085 10.9167 9.86537 10.5257 9.47436C10.1347 9.08334 9.91504 8.55302 9.91504 8.00004C9.91504 6.84504 12 5.91504 12 5.91504C12 5.91504 14.085 6.84504 14.085 8.00004V8.00004Z" fill="#496E2D"/>
<path id="Vector_7" d="M9.91504 8.00004C9.91504 7.44706 10.1347 6.91673 10.5257 6.52572C10.9167 6.13471 11.4471 5.91504 12 5.91504C12.553 5.91504 13.0833 6.13471 13.4744 6.52572C13.8654 6.91673 14.085 7.44706 14.085 8.00004" fill="#0052B4"/>
<path id="Vector_8" d="M10.8223 6.95752V8.26252C10.8223 8.57481 10.9463 8.87431 11.1671 9.09514C11.388 9.31596 11.6875 9.44002 11.9998 9.44002C12.3121 9.44002 12.6116 9.31596 12.8324 9.09514C13.0532 8.87431 13.1773 8.57481 13.1773 8.26252V6.95752H10.8223V6.95752Z" fill="#D80027"/>
</g>
</g>
<defs>
<clipPath id="clip0_2253_2747">
<rect width="24" height="16" rx="4" fill="white"/>
</clipPath>
</defs>
</svg>
