<svg width="auto" height="auto" viewBox="0 0 24 16" fill="none" xmlns="http://www.w3.org/2000/svg">
<g id="DZ">
<g clip-path="url(#clip0_2253_2756)">
<path id="Vector" d="M24 -0.00256348H0V15.9949H24V-0.00256348Z" fill="#496E2D"/>
<path id="Vector_2" d="M24 -0.00256348H12V15.9949H24V-0.00256348Z" fill="#F0F0F0"/>
<path id="Vector_3" d="M13.7175 6.4624L13.065 7.3699L12 7.0249L12.66 7.9249L12 8.8324L13.065 8.4874L13.725 9.3949L13.7175 8.2699L14.7825 7.9249L13.7175 7.5799V6.4624V6.4624Z" fill="#D80027"/>
<path id="Vector_4" d="M12.6676 10.25C12.328 10.2451 11.9939 10.1633 11.6904 10.0109C11.3869 9.85846 11.1218 9.63928 10.915 9.3698C10.7083 9.10032 10.5652 8.78753 10.4966 8.45488C10.4279 8.12224 10.4355 7.77837 10.5187 7.44906C10.6019 7.11975 10.7586 6.81356 10.977 6.55343C11.1954 6.2933 11.4699 6.086 11.7798 5.94706C12.0897 5.80812 12.4271 5.74116 12.7666 5.75119C13.1061 5.76122 13.4389 5.84798 13.7401 6.00497C13.2231 5.49381 12.5247 5.20801 11.7976 5.20997C11.0597 5.20997 10.3519 5.50313 9.83011 6.02495C9.30829 6.54677 9.01514 7.25451 9.01514 7.99247C9.01514 8.73044 9.30829 9.43818 9.83011 9.96C10.3519 10.4818 11.0597 10.775 11.7976 10.775C12.5247 10.7769 13.2231 10.4911 13.7401 9.97997C13.4107 10.1578 13.042 10.2506 12.6676 10.25Z" fill="#D80027"/>
</g>
</g>
<defs>
<clipPath id="clip0_2253_2756">
<rect width="24" height="16" rx="4" fill="white"/>
</clipPath>
</defs>
</svg>
