<svg width="auto" height="auto" viewBox="0 0 24 16" fill="none" xmlns="http://www.w3.org/2000/svg">
<g id="EC">
<g clip-path="url(#clip0_2253_2761)">
<path id="Vector" d="M24 -0.00256348H0V15.9949H24V-0.00256348Z" fill="#FFDA44"/>
<path id="Vector_2" d="M24 8H0V11.9975H24V8Z" fill="#0052B4"/>
<path id="Vector_3" d="M24 11.9974H0V15.9949H24V11.9974Z" fill="#D80027"/>
<path id="Vector_4" d="M12.0003 10.7825C12.3657 10.7825 12.7275 10.7106 13.0651 10.5707C13.4027 10.4309 13.7094 10.2259 13.9678 9.96755C14.2262 9.70917 14.4311 9.40244 14.571 9.06485C14.7108 8.72726 14.7828 8.36543 14.7828 8.00003C14.7828 7.63463 14.7108 7.2728 14.571 6.93521C14.4311 6.59762 14.2262 6.29088 13.9678 6.0325C13.7094 5.77413 13.4027 5.56917 13.0651 5.42933C12.7275 5.2895 12.3657 5.21753 12.0003 5.21753C11.2623 5.21753 10.5546 5.51068 10.0327 6.0325C9.51093 6.55432 9.21777 7.26206 9.21777 8.00003C9.21777 8.73799 9.51093 9.44573 10.0327 9.96755C10.5546 10.4894 11.2623 10.7825 12.0003 10.7825V10.7825Z" fill="#FFDA44"/>
<path id="Vector_5" d="M12 9.84493C11.5252 9.84296 11.0704 9.65347 10.7347 9.31774C10.399 8.98201 10.2095 8.52722 10.2075 8.05243V6.97243C10.2075 6.49703 10.3964 6.0411 10.7325 5.70494C11.0687 5.36878 11.5246 5.17993 12 5.17993C12.4754 5.17993 12.9313 5.36878 13.2675 5.70494C13.6037 6.0411 13.7925 6.49703 13.7925 6.97243V8.05243C13.7905 8.52722 13.6011 8.98201 13.2653 9.31774C12.9296 9.65347 12.4748 9.84296 12 9.84493V9.84493Z" fill="#338AF3"/>
<path id="Vector_6" d="M14.8724 3.74745H12.7499C12.7821 3.63588 12.7878 3.51838 12.7668 3.40421C12.7457 3.29003 12.6984 3.18232 12.6286 3.08956C12.5587 2.9968 12.4683 2.92154 12.3644 2.8697C12.2606 2.81787 12.146 2.79089 12.0299 2.79089C11.9138 2.79089 11.7993 2.81787 11.6954 2.8697C11.5916 2.92154 11.5011 2.9968 11.4313 3.08956C11.3615 3.18232 11.3142 3.29003 11.2931 3.40421C11.2721 3.51838 11.2778 3.63588 11.3099 3.74745H9.12744C9.13707 3.93979 9.22032 4.12106 9.35994 4.2537C9.49956 4.38634 9.68486 4.46019 9.87744 4.45995C9.87744 4.65886 9.95646 4.84963 10.0971 4.99028C10.2378 5.13093 10.4285 5.20995 10.6274 5.20995C10.6272 5.40253 10.701 5.58783 10.8337 5.72745C10.9663 5.86707 11.1476 5.95032 11.3399 5.95995H12.7499C12.9423 5.95032 13.1236 5.86707 13.2562 5.72745C13.3888 5.58783 13.4627 5.40253 13.4624 5.20995C13.6614 5.20995 13.8521 5.13093 13.9928 4.99028C14.1334 4.84963 14.2124 4.65886 14.2124 4.45995C14.3891 4.43876 14.5524 4.35547 14.6733 4.22496C14.7942 4.09444 14.8648 3.92519 14.8724 3.74745V3.74745Z" fill="black"/>
</g>
</g>
<defs>
<clipPath id="clip0_2253_2761">
<rect width="24" height="16" rx="4" fill="white"/>
</clipPath>
</defs>
</svg>
