<svg width="auto" height="auto" viewBox="0 0 24 16" fill="none" xmlns="http://www.w3.org/2000/svg">
<g id="EG">
<g clip-path="url(#clip0_2253_2772)">
<path id="Vector" d="M24 -0.00256348H0V15.9949H24V-0.00256348Z" fill="#F0F0F0"/>
<path id="Vector_2" d="M24 -0.00256348H0V5.32994H24V-0.00256348Z" fill="#D80027"/>
<path id="Vector_3" d="M24 10.67H0V16.0025H24V10.67Z" fill="black"/>
<path id="Vector_4" d="M15 7.07751H12.75C12.75 6.8786 12.671 6.68784 12.5303 6.54718C12.3897 6.40653 12.1989 6.32751 12 6.32751C11.8011 6.32751 11.6103 6.40653 11.4697 6.54718C11.329 6.68784 11.25 6.8786 11.25 7.07751H9C9 7.27643 9.07902 7.46719 9.21967 7.60784C9.36032 7.7485 9.55109 7.82751 9.75 7.82751C9.75 8.02643 9.82902 8.21719 9.96967 8.35784C10.1103 8.4985 10.3011 8.57751 10.5 8.57751C10.5 8.77643 10.579 8.96719 10.7197 9.10784C10.8603 9.2485 11.0511 9.32751 11.25 9.32751H12.75C12.9489 9.32751 13.1397 9.2485 13.2803 9.10784C13.421 8.96719 13.5 8.77643 13.5 8.57751C13.6989 8.57751 13.8897 8.4985 14.0303 8.35784C14.171 8.21719 14.25 8.02643 14.25 7.82751C14.4489 7.82751 14.6397 7.7485 14.7803 7.60784C14.921 7.46719 15 7.27643 15 7.07751Z" fill="#FF9811"/>
</g>
</g>
<defs>
<clipPath id="clip0_2253_2772">
<rect width="24" height="16" rx="4" fill="white"/>
</clipPath>
</defs>
</svg>
