<svg width="auto" height="auto" viewBox="0 0 24 16" fill="none" xmlns="http://www.w3.org/2000/svg">
<g id="EH">
<g clip-path="url(#clip0_2253_2777)">
<path id="Vector" d="M24 -0.00256348H0V15.9949H24V-0.00256348Z" fill="#F0F0F0"/>
<path id="Vector_2" d="M24 -0.00256348H0V5.32994H24V-0.00256348Z" fill="black"/>
<path id="Vector_3" d="M24 10.6626H0V15.9951H24V10.6626Z" fill="#496E2D"/>
<path id="Vector_4" d="M12 7.99994L0 16.0024V-0.00256348L12 7.99994ZM14.3325 7.99994C14.3308 7.5597 14.4781 7.13184 14.7504 6.78596C15.0228 6.44008 15.4041 6.19653 15.8325 6.09494C15.694 6.06845 15.5535 6.0534 15.4125 6.04994C15.07 6.05103 14.7337 6.14228 14.4376 6.31449C14.1415 6.48671 13.896 6.73383 13.7256 7.03102C13.5553 7.32821 13.4662 7.66501 13.4673 8.00755C13.4683 8.35009 13.5596 8.68632 13.7318 8.98244C13.9395 9.33851 14.2547 9.6196 14.6321 9.78535C15.0095 9.95109 15.4298 9.99296 15.8325 9.90494C15.4041 9.80335 15.0228 9.5598 14.7504 9.21392C14.4781 8.86803 14.3308 8.44017 14.3325 7.99994V7.99994Z" fill="#D80027"/>
<path id="Vector_5" d="M15.9449 6.74744L16.2224 7.60244H17.1149L16.3874 8.12744L16.6649 8.97494L15.9449 8.44994L15.2174 8.97494L15.4949 8.12744L14.7749 7.60244H15.6674L15.9449 6.74744V6.74744Z" fill="#D80027"/>
</g>
</g>
<defs>
<clipPath id="clip0_2253_2777">
<rect width="24" height="16" rx="4" fill="white"/>
</clipPath>
</defs>
</svg>
