<svg width="auto" height="auto" viewBox="0 0 24 16" fill="none" xmlns="http://www.w3.org/2000/svg">
<g id="ER">
<g clip-path="url(#clip0_2253_2783)">
<path id="Vector" d="M24 -0.00256348H0V15.9949H24V-0.00256348Z" fill="#338AF3"/>
<path id="Vector_2" d="M24 -0.00256348H0V7.99994H24V-0.00256348Z" fill="#6DA544"/>
<path id="Vector_3" d="M0 16.0024L24 7.99994L0 -0.00256348V16.0024Z" fill="#D80027"/>
<path id="Vector_4" d="M8.19008 8.4725C8.18789 8.80789 8.0792 9.13391 7.87969 9.40351C7.68018 9.67312 7.40018 9.87236 7.08008 9.9725V8.945L7.75508 8.2775L7.08008 7.61V7.055H6.13508V8L5.46758 8.6675L6.13508 9.3425V9.98C5.81638 9.87856 5.53801 9.67875 5.33994 9.40926C5.14186 9.13977 5.03426 8.81445 5.03258 8.48V7.5275C5.01765 7.31102 5.0474 7.09379 5.11998 6.8893C5.19256 6.68481 5.30642 6.49743 5.45448 6.3388C5.60254 6.18018 5.78164 6.0537 5.98065 5.96722C6.17967 5.88075 6.39434 5.83612 6.61133 5.83612C6.82832 5.83612 7.04299 5.88075 7.242 5.96722C7.44101 6.0537 7.62012 6.18018 7.76818 6.3388C7.91624 6.49743 8.0301 6.68481 8.10268 6.8893C8.17526 7.09379 8.20501 7.31102 8.19008 7.5275V8.4725V8.4725ZM6.60758 5C5.93724 5 5.29436 5.26629 4.82037 5.74029C4.34637 6.21429 4.08008 6.85717 4.08008 7.5275V8.4725C4.08008 8.80442 4.14545 9.13308 4.27247 9.43973C4.39949 9.74638 4.58567 10.025 4.82037 10.2597C5.05507 10.4944 5.3337 10.6806 5.64035 10.8076C5.947 10.9346 6.27566 11 6.60758 11C6.93949 11 7.26816 10.9346 7.57481 10.8076C7.88146 10.6806 8.16009 10.4944 8.39479 10.2597C8.62949 10.025 8.81567 9.74638 8.94268 9.43973C9.0697 9.13308 9.13508 8.80442 9.13508 8.4725V7.5275C9.13508 6.85717 8.86879 6.21429 8.39479 5.74029C7.92079 5.26629 7.27791 5 6.60758 5V5Z" fill="#FFDA44"/>
</g>
</g>
<defs>
<clipPath id="clip0_2253_2783">
<rect width="24" height="16" rx="4" fill="white"/>
</clipPath>
</defs>
</svg>
