<svg width="auto" height="auto" viewBox="0 0 24 16" fill="none" xmlns="http://www.w3.org/2000/svg">
<g id="FJ">
<g clip-path="url(#clip0_2253_2801)">
<path id="Vector" d="M24 -0.00256348H0V15.9949H24V-0.00256348Z" fill="#2E52B2"/>
<path id="Vector_2" d="M12 -0.00256348V1.06244L9.84 2.50244H12V5.50244H9.84L12 6.94244V7.99994H10.9425L7.5 5.70494V7.99994H4.5V5.70494L1.0575 7.99994H0V6.94244L2.16 5.50244H0V2.50244H2.16L0 1.06244V-0.00256348H1.0575L4.5 2.29244V-0.00256348H7.5V2.29244L10.9425 -0.00256348H12Z" fill="#F0F0F0"/>
<path id="Vector_3" d="M6.75 -0.00256348H5.25V3.25244H0V4.75244H5.25V7.99994H6.75V4.75244H12V3.25244H6.75V-0.00256348Z" fill="#D80027"/>
<path id="Vector_4" d="M0 -0.00256348V0.709937L2.6925 2.50244H3.75L0 -0.00256348ZM12 -0.00256348V0.709937L9.3075 2.50244H8.25L12 -0.00256348Z" fill="#D80027"/>
<path id="Vector_5" d="M0 -0.00256348V0.709937L2.6925 2.50244H3.75L0 -0.00256348ZM12 -0.00256348V0.709937L9.3075 2.50244H8.25L12 -0.00256348ZM0 7.99994V7.29494L2.6925 5.50244H3.75L0 7.99994ZM12 7.99994V7.29494L9.3075 5.50244H8.25L12 7.99994Z" fill="#D80027"/>
<path id="Vector_6" d="M15.5625 5.75004V8.52504C15.5625 10.385 18 10.955 18 10.955C18 10.955 20.4375 10.385 20.4375 8.52504V5.75004L18 5.04504L15.5625 5.75004Z" fill="#F3F3F3"/>
<path id="Vector_7" d="M20.4375 5.91494V4.87244H15.5625V5.91494H17.655V7.99994H15.5625V8.69744H17.655V10.9999C17.7675 11.0412 17.883 11.0764 18 11.1049C18.1169 11.0764 18.2321 11.0414 18.345 10.9999V8.67494H20.4375V7.99994H18.345V5.91494H20.4375Z" fill="#D80027"/>
</g>
</g>
<defs>
<clipPath id="clip0_2253_2801">
<rect width="24" height="16" rx="4" fill="white"/>
</clipPath>
</defs>
</svg>
