<svg width="auto" height="auto" viewBox="0 0 24 16" fill="none" xmlns="http://www.w3.org/2000/svg">
<g id="FM">
<g clip-path="url(#clip0_2253_2822)">
<path id="Vector" d="M24 -0.00256348H0V15.9949H24V-0.00256348Z" fill="#338AF3"/>
<path id="Vector_2" d="M12 3.47754L12.345 4.54254H13.4625L12.5625 5.19504L12.9 6.26004L12 5.60004L11.0925 6.26004L11.445 5.19504L10.5375 4.54254H11.655L12 3.47754ZM7.47754 8.00004L8.54254 7.65504V6.53754L9.20254 7.44504L10.26 7.09254L9.60754 8.00004L10.26 8.90004L9.20254 8.56254L8.54254 9.46254V8.34504L7.47754 8.00004ZM12 12.5225L11.655 11.4575H10.5375L11.445 10.7975L11.0925 9.74004L12 10.3925L12.9 9.74004L12.5625 10.7975L13.4625 11.4575H12.345L12 12.5225ZM16.5225 8.00004L15.4575 8.34504V9.46254L14.805 8.56254L13.74 8.90004L14.4 8.00004L13.74 7.09254L14.805 7.44504L15.4575 6.53754V7.65504L16.5225 8.00004Z" fill="#F0F0F0"/>
</g>
</g>
<defs>
<clipPath id="clip0_2253_2822">
<rect width="24" height="16" rx="4" fill="white"/>
</clipPath>
</defs>
</svg>
