<svg width="auto" height="auto" viewBox="0 0 24 16" fill="none" xmlns="http://www.w3.org/2000/svg">
<g id="GD">
<g clip-path="url(#clip0_2253_2850)">
<path id="Vector" d="M24 -0.00256348H0V15.9949H24V-0.00256348Z" fill="#A2001D"/>
<path id="Vector_2" d="M12 7.99997L2.08496 13.91V2.08997L12 7.99997Z" fill="#496E2D"/>
<path id="Vector_3" d="M12 7.99997L21.915 13.91H2.08496L12 7.99997ZM21.915 2.08997L12 7.99997L2.08496 2.08997H21.915V2.08997Z" fill="#FFDA44"/>
<path id="Vector_4" d="M21.915 2.08997V13.91L12 7.99997L21.915 2.08997V2.08997Z" fill="#496E2D"/>
<path id="Vector_5" d="M12 0.484985L12.1575 0.964985H12.66L12.255 1.25749L12.405 1.73749L12 1.44499L11.595 1.73749L11.745 1.25749L11.34 0.964985H11.8425L12 0.484985V0.484985ZM7.9725 0.484985L8.13 0.964985H8.6325L8.2275 1.25749L8.3775 1.73749L7.9725 1.44499L7.5675 1.73749L7.725 1.25749L7.3125 0.964985H7.815L7.9725 0.484985V0.484985ZM16.0275 0.484985L16.185 0.964985H16.6875L16.275 1.25749L16.4325 1.73749L16.0275 1.44499L15.6225 1.73749L15.7725 1.25749L15.3675 0.964985H15.87L16.0275 0.484985V0.484985ZM12 14.2625L12.1575 14.7425H12.66L12.255 15.035L12.405 15.515L12 15.215L11.595 15.515L11.745 15.035L11.34 14.7425H11.8425L12 14.2625V14.2625ZM7.9725 14.2625L8.13 14.7425H8.6325L8.2275 15.035L8.3775 15.515L7.9725 15.215L7.5675 15.515L7.725 15.035L7.3125 14.7425H7.815L7.9725 14.2625V14.2625ZM16.0275 14.2625L16.185 14.7425H16.6875L16.275 15.035L16.4325 15.515L16.0275 15.215L15.6225 15.515L15.7725 15.035L15.3675 14.7425H15.87L16.0275 14.2625V14.2625Z" fill="#FFDA44"/>
<path id="Vector_6" d="M12.0002 9.77753C12.4716 9.77753 12.9237 9.59026 13.257 9.25692C13.5904 8.92357 13.7777 8.47146 13.7777 8.00003C13.7777 7.52861 13.5904 7.0765 13.257 6.74315C12.9237 6.40981 12.4716 6.22253 12.0002 6.22253C11.5287 6.22253 11.0766 6.40981 10.7433 6.74315C10.4099 7.0765 10.2227 7.52861 10.2227 8.00003C10.2227 8.47146 10.4099 8.92357 10.7433 9.25692C11.0766 9.59026 11.5287 9.77753 12.0002 9.77753V9.77753Z" fill="#A2001D"/>
<path id="Vector_7" d="M12 6.22253L12.3975 7.44503H13.6875L12.645 8.21003L13.0425 9.43253L12 8.67503L10.9575 9.43253L11.355 8.21003L10.305 7.44503H11.6025L12 6.22253V6.22253ZM5.04749 7.86503C5.09674 7.94235 5.13027 8.02861 5.14618 8.11888C5.16209 8.20916 5.16007 8.30169 5.14022 8.39118C5.12037 8.48067 5.08309 8.56538 5.0305 8.64046C4.97792 8.71555 4.91106 8.77954 4.83374 8.82878C4.75643 8.87803 4.67017 8.91157 4.57989 8.92747C4.48962 8.94338 4.39709 8.94136 4.3076 8.92151C4.21811 8.90166 4.1334 8.86438 4.05831 8.81179C3.98323 8.75921 3.91924 8.69235 3.86999 8.61503C3.66453 8.1238 3.62246 7.57951 3.74999 7.06253C4.25661 7.18577 4.71096 7.46679 5.04749 7.86503V7.86503Z" fill="#FFDA44"/>
<path id="Vector_8" d="M4.64236 8.8775C4.73386 8.8775 4.82162 8.84115 4.88632 8.77645C4.95102 8.71175 4.98736 8.624 4.98736 8.5325C4.98736 8.441 4.95102 8.35325 4.88632 8.28855C4.82162 8.22385 4.73386 8.1875 4.64236 8.1875C4.55086 8.1875 4.46311 8.22385 4.39841 8.28855C4.33371 8.35325 4.29736 8.441 4.29736 8.5325C4.29736 8.624 4.33371 8.71175 4.39841 8.77645C4.46311 8.84115 4.55086 8.8775 4.64236 8.8775Z" fill="#A2001D"/>
</g>
</g>
<defs>
<clipPath id="clip0_2253_2850">
<rect width="24" height="16" rx="4" fill="white"/>
</clipPath>
</defs>
</svg>
