<svg width="auto" height="auto" viewBox="0 0 24 16" fill="none" xmlns="http://www.w3.org/2000/svg">
<g id="GP">
<g clip-path="url(#clip0_2253_2894)">
<path id="Vector" d="M24 5.59998H0V15.995H24V5.59998Z" fill="#040404"/>
<path id="Vector_2" d="M24 -0.00250244H0V5.6H24V-0.00250244Z" fill="#003087"/>
<path id="Vector_3" d="M16.7176 13.295L7.3426 6.49999L6.9076 7.10749L16.2826 13.91L16.7176 13.295V13.295ZM7.3426 6.49999C7.2722 6.45016 7.18677 6.42613 7.10071 6.43194C7.01465 6.43776 6.93323 6.47306 6.87016 6.5319C6.80709 6.59073 6.76624 6.66952 6.75448 6.75496C6.74272 6.84041 6.76078 6.9273 6.8056 7.00099C6.83206 7.04302 6.86676 7.07925 6.9076 7.10749L7.3426 6.49999V6.49999ZM16.2826 13.91C16.3223 13.9386 16.3673 13.9589 16.415 13.9699C16.4627 13.9809 16.5121 13.9822 16.5603 13.9738C16.6085 13.9654 16.6545 13.9475 16.6957 13.9211C16.7369 13.8947 16.7724 13.8603 16.8001 13.82C16.8301 13.7811 16.8518 13.7366 16.8639 13.689C16.876 13.6414 16.8783 13.5919 16.8706 13.5434C16.8628 13.495 16.8453 13.4486 16.819 13.4072C16.7927 13.3657 16.7582 13.3301 16.7176 13.3025L16.2826 13.91V13.91Z" fill="#43B02A"/>
<path id="Vector_4" d="M17.3699 12.0425L7.99494 8.83998L7.75494 9.55248L17.1299 12.7475L17.3699 12.0425V12.0425ZM7.99494 8.83998C7.90046 8.80815 7.7972 8.81516 7.70789 8.85947C7.61857 8.90378 7.55052 8.98175 7.51869 9.07623C7.48687 9.17071 7.49388 9.27397 7.53818 9.36328C7.58249 9.4526 7.66046 9.52065 7.75494 9.55248L7.99494 8.83998ZM17.1299 12.7475C17.2197 12.7666 17.3134 12.7521 17.3932 12.7067C17.473 12.6614 17.5334 12.5884 17.5629 12.5015C17.5925 12.4147 17.5892 12.3199 17.5536 12.2353C17.5181 12.1507 17.4527 12.0821 17.3699 12.0425L17.1299 12.7475Z" fill="#43B02A"/>
<path id="Vector_5" d="M12.375 13.9475C13.2701 13.9475 14.1285 13.592 14.7615 12.959C15.3944 12.3261 15.75 11.4677 15.75 10.5725C15.75 9.67744 15.3944 8.819 14.7615 8.18606C14.1285 7.55313 13.2701 7.19755 12.375 7.19755C11.4799 7.19755 10.6215 7.55313 9.98851 8.18606C9.35558 8.819 9 9.67744 9 10.5725C9 11.4677 9.35558 12.3261 9.98851 12.959C10.6215 13.592 11.4799 13.9475 12.375 13.9475V13.9475ZM11.25 2.39755C11.25 1.95505 11.5875 0.800049 12 0.800049C12.4125 0.800049 12.75 1.95505 12.75 2.39755C12.75 2.39755 12.51 3.14755 12.375 3.59755C12.2025 4.21255 12.375 5.19505 12 5.19505C11.625 5.19505 11.7975 4.21255 11.625 3.59755C11.49 3.12505 11.25 2.39755 11.25 2.39755Z" fill="#FEDD00"/>
<path id="Vector_6" d="M12.2477 4.03995L12.0002 5.07495C11.9963 5.08431 11.9942 5.09435 11.9941 5.1045C11.9941 5.11466 11.996 5.12472 11.9998 5.13413C12.0037 5.14353 12.0093 5.15209 12.0165 5.15931C12.0236 5.16653 12.0321 5.17227 12.0415 5.1762C12.0508 5.18015 12.0609 5.18221 12.071 5.18228C12.0812 5.18234 12.0912 5.1804 12.1006 5.17657C12.11 5.17274 12.1186 5.16709 12.1258 5.15995C12.133 5.15281 12.1388 5.14431 12.1427 5.13495L12.6602 4.24995C12.6823 4.2157 12.715 4.18959 12.7533 4.17558C12.7915 4.16156 12.8333 4.1604 12.8723 4.17226C12.9113 4.18413 12.9454 4.20839 12.9694 4.24135C12.9934 4.27431 13.0059 4.3142 13.0052 4.35495C13.0026 4.39339 13.0118 4.4317 13.0318 4.46469C13.0517 4.49767 13.0813 4.52372 13.1165 4.53929C13.1517 4.55486 13.1909 4.5592 13.2287 4.55172C13.2665 4.54423 13.3011 4.52528 13.3277 4.49745L13.5827 4.21995C13.634 4.16419 13.6671 4.09422 13.6778 4.01925C13.6885 3.94428 13.6763 3.86783 13.6427 3.79995L13.5002 3.41745C13.4704 3.35294 13.4228 3.29823 13.363 3.25973C13.3033 3.22122 13.2338 3.20049 13.1627 3.19995H12.8777C12.8066 3.20049 12.7372 3.22122 12.6774 3.25973C12.6177 3.29823 12.5701 3.35294 12.5402 3.41745L12.2852 3.95745L12.2477 4.03995V4.03995Z" fill="#FEDD00"/>
<path id="Vector_7" d="M11.7524 4.04005L11.9999 5.07505C12.0079 5.09395 12.008 5.11523 12.0002 5.13422C11.9925 5.15321 11.9775 5.16834 11.9587 5.1763C11.9398 5.18425 11.9185 5.18438 11.8995 5.17664C11.8805 5.16891 11.8654 5.15395 11.8574 5.13505L11.3399 4.25005C11.3178 4.2158 11.2851 4.18969 11.2469 4.17567C11.2086 4.16166 11.1668 4.16049 11.1278 4.17236C11.0888 4.18423 11.0547 4.20848 11.0307 4.24145C11.0068 4.27441 10.9942 4.31429 10.9949 4.35505C10.9975 4.39349 10.9883 4.4318 10.9684 4.46479C10.9485 4.49777 10.9189 4.52382 10.8836 4.53939C10.8484 4.55496 10.8092 4.5593 10.7714 4.55181C10.7336 4.54433 10.699 4.52538 10.6724 4.49755L10.4174 4.22005C10.3667 4.16409 10.3333 4.09462 10.3213 4.02006C10.3094 3.94551 10.3193 3.86908 10.3499 3.80005L10.4999 3.41755C10.5298 3.35303 10.5773 3.29833 10.6371 3.25982C10.6968 3.22131 10.7663 3.20058 10.8374 3.20005H11.1224C11.1935 3.20058 11.263 3.22131 11.3227 3.25982C11.3825 3.29833 11.43 3.35303 11.4599 3.41755L11.7149 3.95755L11.7524 4.04005V4.04005ZM18.5624 2.39755C18.5624 1.95505 18.8999 0.800049 19.3124 0.800049C19.7249 0.800049 20.0624 1.95505 20.0624 2.39755C20.0624 2.39755 19.8224 3.14755 19.6874 3.59755C19.5149 4.21255 19.6874 5.19505 19.3124 5.19505C18.9374 5.19505 19.1099 4.21255 18.9374 3.59755C18.8099 3.12505 18.5624 2.39755 18.5624 2.39755Z" fill="#FEDD00"/>
<path id="Vector_8" d="M19.5601 4.03999L19.3201 5.07499C19.3169 5.08778 19.3172 5.10118 19.3208 5.11384C19.3245 5.12649 19.3314 5.13796 19.3409 5.14708C19.3504 5.1562 19.3622 5.16266 19.375 5.16581C19.3878 5.16895 19.4012 5.16867 19.4138 5.16499C19.4306 5.16012 19.4452 5.14951 19.4551 5.13499L19.9726 4.24999C19.9947 4.21575 20.0273 4.18964 20.0656 4.17562C20.1039 4.1616 20.1457 4.16044 20.1847 4.17231C20.2237 4.18418 20.2577 4.20843 20.2817 4.24139C20.3057 4.27436 20.3183 4.31424 20.3176 4.35499C20.3149 4.39343 20.3242 4.43175 20.3441 4.46473C20.364 4.49771 20.3936 4.52376 20.4288 4.53934C20.4641 4.55491 20.5033 4.55924 20.5411 4.55176C20.5788 4.54427 20.6134 4.52532 20.6401 4.49749L20.8951 4.21999C20.9458 4.16404 20.9791 4.09456 20.9911 4.02001C21.0031 3.94545 20.9932 3.86902 20.9626 3.79999L20.7976 3.45499C20.7685 3.38991 20.7211 3.3347 20.6611 3.29608C20.6012 3.25746 20.5313 3.2371 20.4601 3.23749H20.1751C20.104 3.23803 20.0345 3.25876 19.9747 3.29727C19.915 3.33578 19.8674 3.39048 19.8376 3.45499L19.5901 3.99499C19.5786 4.00895 19.5685 4.02403 19.5601 4.03999V4.03999Z" fill="#FEDD00"/>
<path id="Vector_9" d="M19.0722 4.04005L19.3122 5.07505C19.3166 5.09217 19.3147 5.11029 19.3071 5.12621C19.2994 5.14213 19.2863 5.15482 19.2702 5.16205C19.254 5.16926 19.2358 5.17051 19.2187 5.16557C19.2017 5.16063 19.187 5.14981 19.1772 5.13505L18.6522 4.25005C18.6301 4.2158 18.5974 4.18969 18.5591 4.17567C18.5209 4.16166 18.4791 4.16049 18.4401 4.17236C18.4011 4.18423 18.367 4.20848 18.343 4.24145C18.319 4.27441 18.3065 4.31429 18.3072 4.35505C18.3079 4.3826 18.3025 4.40996 18.2914 4.43519C18.2803 4.46042 18.2638 4.48289 18.243 4.50101C18.2222 4.51913 18.1977 4.53245 18.1712 4.54002C18.1447 4.54758 18.1169 4.54922 18.0897 4.5448C18.0532 4.53899 18.0193 4.52255 17.9922 4.49755L17.7297 4.22005C17.6784 4.16429 17.6453 4.09432 17.6346 4.01935C17.6239 3.94438 17.6361 3.86793 17.6697 3.80005L17.8272 3.45505C17.857 3.39053 17.9046 3.33583 17.9644 3.29732C18.0241 3.25882 18.0936 3.23808 18.1647 3.23755H18.4497C18.521 3.23716 18.5908 3.25752 18.6508 3.29613C18.7107 3.33475 18.7581 3.38997 18.7872 3.45505L19.0422 3.99505C19.0422 3.99505 19.0647 4.01005 19.0722 4.04005V4.04005ZM3.92969 2.39755C3.92969 1.95505 4.26719 0.800049 4.67969 0.800049C5.09219 0.800049 5.42969 1.95505 5.42969 2.39755C5.42969 2.39755 5.18969 3.14755 5.05469 3.59755C4.88219 4.21255 5.05469 5.19505 4.67969 5.19505C4.30469 5.19505 4.49969 4.25005 4.30469 3.59755C4.17719 3.12505 3.92969 2.39755 3.92969 2.39755V2.39755Z" fill="#FEDD00"/>
<path id="Vector_10" d="M4.92777 4.03999L4.68777 5.07499C4.68351 5.09211 4.68541 5.11018 4.69315 5.12603C4.70089 5.14188 4.71397 5.15449 4.73009 5.16166C4.7462 5.16882 4.76433 5.17008 4.78128 5.1652C4.79823 5.16032 4.81292 5.14963 4.82277 5.13499L5.34027 4.24999C5.36238 4.21575 5.39504 4.18964 5.43332 4.17562C5.4716 4.1616 5.5134 4.16044 5.55239 4.17231C5.59139 4.18418 5.62546 4.20843 5.64943 4.24139C5.67341 4.27436 5.68599 4.31424 5.68527 4.35499C5.68263 4.39343 5.6919 4.43175 5.71181 4.46473C5.73172 4.49771 5.76131 4.52376 5.79655 4.53934C5.83179 4.55491 5.87097 4.55924 5.90877 4.55176C5.94656 4.54427 5.98113 4.52532 6.00777 4.49749L6.26277 4.21999C6.31348 4.16404 6.34684 4.09456 6.35883 4.02001C6.37081 3.94545 6.36089 3.86902 6.33027 3.79999L6.16527 3.45499C6.13617 3.38991 6.08877 3.3347 6.02885 3.29608C5.96892 3.25746 5.89906 3.2371 5.82777 3.23749H5.54277C5.47168 3.23803 5.40221 3.25876 5.34246 3.29727C5.2827 3.33578 5.23513 3.39048 5.20527 3.45499L4.95777 3.99499C4.94629 4.00895 4.93624 4.02402 4.92777 4.03999V4.03999Z" fill="#FEDD00"/>
<path id="Vector_11" d="M4.43991 4.03999L4.67991 5.07499C4.68417 5.09211 4.68227 5.11018 4.67453 5.12603C4.66679 5.14188 4.65371 5.15449 4.63759 5.16166C4.62148 5.16882 4.60335 5.17008 4.5864 5.1652C4.56945 5.16032 4.55476 5.14963 4.54491 5.13499L4.01991 4.24999C3.9978 4.21575 3.96514 4.18964 3.92686 4.17562C3.88859 4.1616 3.84678 4.16044 3.80779 4.17231C3.76879 4.18418 3.73473 4.20843 3.71075 4.24139C3.68677 4.27436 3.67419 4.31424 3.67491 4.35499C3.67591 4.3919 3.66599 4.42829 3.6464 4.45958C3.6268 4.49088 3.5984 4.51569 3.56476 4.53091C3.53112 4.54613 3.49373 4.55108 3.45729 4.54513C3.42085 4.53919 3.38697 4.52262 3.35991 4.49749L3.09741 4.21999C3.04617 4.16423 3.01301 4.09426 3.0023 4.01929C2.99159 3.94433 3.00383 3.86787 3.03741 3.79999L3.19491 3.45499C3.22477 3.39048 3.27234 3.33578 3.3321 3.29727C3.39185 3.25876 3.46132 3.23803 3.53241 3.23749H3.81741C3.8887 3.2371 3.95856 3.25746 4.01849 3.29608C4.07841 3.3347 4.12581 3.38991 4.15491 3.45499L4.40991 3.99499C4.40991 3.99499 4.43241 4.00999 4.43991 4.03999V4.03999Z" fill="#FEDD00"/>
</g>
</g>
<defs>
<clipPath id="clip0_2253_2894">
<rect width="24" height="16" rx="4" fill="white"/>
</clipPath>
</defs>
</svg>
