<svg width="auto" height="auto" viewBox="0 0 24 16" fill="none" xmlns="http://www.w3.org/2000/svg">
<g id="GT">
<g clip-path="url(#clip0_2253_2920)">
<path id="Vector" d="M24 -0.00250244H0V15.995H24V-0.00250244Z" fill="#F0F0F0"/>
<path id="Vector_2" d="M8.0025 -0.00250244H0V15.995H8.0025V-0.00250244ZM24 -0.00250244H15.9975V15.995H24V-0.00250244Z" fill="#338AF3"/>
<path id="Vector_3" d="M14.2497 9.43997L12.7947 7.98497L14.1822 6.59747L14.1222 5.86247L13.7247 5.46497L11.9997 7.18997L10.2747 5.46497L9.87719 5.86247L9.81719 6.59747L11.2047 7.98497L9.74219 9.43997L10.5372 10.235L11.9997 8.77997L13.4547 10.235L14.2497 9.43997Z" fill="#ACABB1"/>
<path id="Vector_4" d="M14.1225 5.86255L13.3275 6.65755C13.5893 6.91996 13.7674 7.25406 13.8393 7.61765C13.9113 7.98123 13.8739 8.35799 13.7318 8.70032C13.5898 9.04266 13.3494 9.33521 13.0412 9.54103C12.733 9.74685 12.3706 9.8567 12 9.8567C11.6294 9.8567 11.267 9.74685 10.9588 9.54103C10.6506 9.33521 10.4102 9.04266 10.2682 8.70032C10.1261 8.35799 10.0887 7.98123 10.1607 7.61765C10.2326 7.25406 10.4108 6.91996 10.6725 6.65755L9.8775 5.86255C9.45828 6.28224 9.17289 6.81679 9.0574 7.39865C8.94192 7.9805 9.00152 8.58353 9.22868 9.13151C9.45584 9.67949 9.84036 10.1478 10.3336 10.4773C10.8269 10.8068 11.4068 10.9827 12 10.9827C12.5932 10.9827 13.1731 10.8068 13.6664 10.4773C14.1596 10.1478 14.5442 9.67949 14.7713 9.13151C14.9985 8.58353 15.0581 7.9805 14.9426 7.39865C14.8271 6.81679 14.5417 6.28224 14.1225 5.86255V5.86255Z" fill="#6DA544"/>
</g>
</g>
<defs>
<clipPath id="clip0_2253_2920">
<rect width="24" height="16" rx="4" fill="white"/>
</clipPath>
</defs>
</svg>
