<svg width="auto" height="auto" viewBox="0 0 24 16" fill="none" xmlns="http://www.w3.org/2000/svg">
<g id="HN">
<g clip-path="url(#clip0_2253_2948)">
<path id="Vector" d="M24 -0.00250244H0V15.995H24V-0.00250244Z" fill="#F0F0F0"/>
<path id="Vector_2" d="M24 -0.00250244H0V5.33H24V-0.00250244ZM24 10.67H0V16.0025H24V10.67ZM9.54 5.7725L9.7425 6.41H10.4175L9.8775 6.8075L10.08 7.445L9.54 7.0475L8.9925 7.445L9.2025 6.8075L8.6625 6.41H9.33L9.54 5.7725V5.7725ZM9.54 8.555L9.7425 9.1925H10.4175L9.8775 9.59L10.08 10.2275L9.54 9.83L8.9925 10.2275L9.2025 9.59L8.6625 9.1925H9.33L9.54 8.555V8.555ZM14.46 5.7725L14.67 6.41H15.3375L14.7975 6.8075L15 7.445L14.46 7.0475L13.92 7.445L14.13 6.8075L13.5825 6.41H14.25L14.46 5.7725ZM14.46 8.555L14.67 9.1925H15.3375L14.7975 9.59L15 10.2275L14.46 9.83L13.92 10.2275L14.13 9.59L13.5825 9.1925H14.25L14.46 8.555ZM12 7.1675L12.21 7.805H12.8775L12.3375 8.195L12.54 8.8325L12 8.4425L11.46 8.8325L11.6625 8.195L11.1225 7.805H11.79L12 7.1675V7.1675Z" fill="#338AF3"/>
</g>
</g>
<defs>
<clipPath id="clip0_2253_2948">
<rect width="24" height="16" rx="4" fill="white"/>
</clipPath>
</defs>
</svg>
