<svg width="auto" height="auto" viewBox="0 0 24 16" fill="none" xmlns="http://www.w3.org/2000/svg">
<g id="IO">
<g clip-path="url(#clip0_2253_2992)">
<g id="Group">
<path id="Vector" d="M24 -0.00250244H0V15.995H24V-0.00250244Z" fill="#F0F0F0"/>
<path id="Vector_2" d="M21.6375 9.28252C21.3004 9.19142 20.9809 9.04438 20.6925 8.84752C20.2571 8.54558 19.7555 8.35266 19.23 8.28502C18.7048 8.3538 18.2035 8.54661 17.7675 8.84752C17.4791 9.04438 17.1596 9.19142 16.8225 9.28252C16.483 9.19167 16.161 9.04464 15.87 8.84752C15.4346 8.54558 14.933 8.35266 14.4075 8.28502C13.8825 8.35552 13.3815 8.54752 12.945 8.84752C12.657 9.04552 12.3375 9.19252 12 9.28252C11.6624 9.19283 11.3427 9.04568 11.055 8.84752C10.6081 8.54102 10.0933 8.34796 9.555 8.28502C9.03 8.35252 8.5275 8.54527 8.0925 8.84752C7.80149 9.04464 7.47955 9.19167 7.14 9.28252C6.80288 9.19142 6.48344 9.04438 6.195 8.84752C5.75905 8.54661 5.25773 8.3538 4.7325 8.28502C4.2075 8.35252 3.705 8.54527 3.27 8.84752C2.98156 9.04438 2.66212 9.19142 2.325 9.28252C1.98545 9.19167 1.66351 9.04464 1.3725 8.84752C0.960184 8.56459 0.492282 8.37283 0 8.28502L0 9.33502C0.3165 9.43552 0.6195 9.57727 0.9 9.75502C1.3443 10.0678 1.86012 10.2638 2.4 10.325C2.92625 10.2554 3.42794 10.0599 3.8625 9.75502C4.15198 9.56176 4.47123 9.41734 4.8075 9.32752C5.1435 9.41752 5.463 9.56152 5.7525 9.75502C6.1974 10.0667 6.71292 10.2625 7.2525 10.325C7.77935 10.2578 8.28159 10.062 8.715 9.75502C9.0075 9.56302 9.32925 9.41827 9.6675 9.32752C10.0033 9.41871 10.3223 9.56304 10.6125 9.75502C11.024 10.0509 11.4993 10.2462 12 10.325C12.5399 10.2638 13.0557 10.0678 13.5 9.75502C13.7902 9.56304 14.1092 9.41871 14.445 9.32752C14.7833 9.41827 15.105 9.56302 15.3975 9.75502C15.8309 10.062 16.3331 10.2578 16.86 10.325C17.3865 10.2566 17.8885 10.0609 18.3225 9.75502C18.612 9.56176 18.9312 9.41734 19.2675 9.32752C19.6035 9.41752 19.923 9.56152 20.2125 9.75502C20.658 10.0655 21.1732 10.2613 21.7125 10.325C22.2394 10.2578 22.7416 10.062 23.175 9.75502C23.4558 9.57703 23.7582 9.43587 24.075 9.33502V8.28502C23.5697 8.36765 23.0885 8.55962 22.665 8.84752C22.352 9.05414 22.0037 9.20158 21.6375 9.28252V9.28252ZM0 1.50502C0.315 1.61227 0.61725 1.75552 0.9 1.93252C1.3443 2.24529 1.86012 2.4413 2.4 2.50252C2.9132 2.42715 3.4014 2.23187 3.825 1.93252C4.11445 1.73745 4.43358 1.59055 4.77 1.49752C5.10675 1.59052 5.4255 1.73752 5.715 1.93252C6.1599 2.24415 6.67542 2.44005 7.215 2.50252C7.74185 2.43526 8.24409 2.23952 8.6775 1.93252C8.97019 1.73841 9.29163 1.59161 9.63 1.49752C9.96589 1.592 10.2848 1.7388 10.575 1.93252C10.9975 2.2339 11.4862 2.42939 12 2.50252C12.5399 2.4413 13.0557 2.24529 13.5 1.93252C13.7902 1.7388 14.1091 1.592 14.445 1.49752C14.7833 1.59127 15.105 1.73827 15.3975 1.93252C15.8309 2.23952 16.3331 2.43526 16.86 2.50252C17.3865 2.43407 17.8885 2.23844 18.3225 1.93252C18.6119 1.73745 18.9311 1.59055 19.2675 1.49752C19.6043 1.59052 19.923 1.73752 20.2125 1.93252C20.658 2.24304 21.1732 2.43883 21.7125 2.50252C22.2394 2.43526 22.7416 2.23952 23.175 1.93252C23.4337 1.76057 23.7103 1.61723 24 1.50502V0.500017C23.4927 0.575663 23.01 0.768235 22.59 1.06252C22.2975 1.25452 21.9758 1.39927 21.6375 1.49002C21.3017 1.39882 20.9827 1.2545 20.6925 1.06252C20.2591 0.755517 19.7569 0.559773 19.23 0.492517C18.7031 0.559773 18.2009 0.755517 17.7675 1.06252C17.4773 1.2545 17.1583 1.39882 16.8225 1.49002C16.4843 1.3991 16.1627 1.25478 15.87 1.06252C15.4366 0.755517 14.9343 0.559773 14.4075 0.492517C13.881 0.56096 13.379 0.756596 12.945 1.06252C12.6531 1.24263 12.334 1.37433 12 1.45252C11.6637 1.36269 11.3445 1.21827 11.055 1.02502C10.6095 0.714495 10.0943 0.518707 9.555 0.455017C9.02815 0.522273 8.52591 0.718017 8.0925 1.02502C7.79976 1.21727 7.47822 1.36158 7.14 1.45252C6.81727 1.35765 6.51115 1.21345 6.2325 1.02502C5.79851 0.719096 5.29655 0.52346 4.77 0.455017C4.24315 0.522273 3.74091 0.718017 3.3075 1.02502C3.01731 1.217 2.69828 1.36132 2.3625 1.45252C2.02375 1.36308 1.70198 1.21866 1.41 1.02502C0.986573 0.744021 0.504091 0.564373 0 0.500017L0 1.50502ZM21.6375 4.06252C21.3017 3.97132 20.9827 3.827 20.6925 3.63502C20.2591 3.32802 19.7569 3.13227 19.23 3.06502C18.7035 3.13346 18.2015 3.3291 17.7675 3.63502C17.4773 3.827 17.1583 3.97132 16.8225 4.06252C16.4843 3.97156 16.1628 3.82725 15.87 3.63502C15.4366 3.32802 14.9343 3.13227 14.4075 3.06502C13.8813 3.13462 13.3796 3.33016 12.945 3.63502C12.6555 3.82827 12.3363 3.97269 12 4.06252C11.6637 3.97269 11.3445 3.82827 11.055 3.63502C10.6101 3.32338 10.0946 3.12748 9.555 3.06502C9.02815 3.13227 8.52591 3.32802 8.0925 3.63502C7.8 3.82702 7.47825 3.97177 7.14 4.06252C6.80422 3.97132 6.48519 3.827 6.195 3.63502C5.76101 3.3291 5.25905 3.13346 4.7325 3.06502C4.20565 3.13227 3.70341 3.32802 3.27 3.63502C2.97981 3.827 2.66078 3.97132 2.325 4.06252C1.98679 3.97156 1.66525 3.82725 1.3725 3.63502C0.962193 3.34692 0.493681 3.15235 0 3.06502L0 4.11502C0.3165 4.21927 0.6195 4.36252 0.9 4.54252C1.34458 4.85348 1.86057 5.04698 2.4 5.10502C2.92573 5.0382 3.4275 4.84522 3.8625 4.54252C4.1505 4.34452 4.47 4.19752 4.8075 4.10752C5.145 4.19752 5.4645 4.34452 5.7525 4.54252C6.19768 4.85234 6.71337 5.04572 7.2525 5.10502C7.77891 5.0409 8.2813 4.84767 8.715 4.54252C9.00599 4.34537 9.32794 4.19833 9.6675 4.10752C10.005 4.19827 10.3237 4.34527 10.6125 4.54252C11.0462 4.84767 11.5486 5.0409 12.075 5.10502C12.5884 5.03499 13.0772 4.84202 13.5 4.54252C13.7887 4.34527 14.1075 4.19827 14.445 4.10752C14.7848 4.19827 15.1065 4.34527 15.3975 4.54252C15.8312 4.84767 16.3336 5.0409 16.86 5.10502C17.3861 5.0397 17.8882 4.84658 18.3225 4.54252C18.6105 4.34452 18.93 4.19752 19.2675 4.10752C19.605 4.19752 19.9245 4.34452 20.2125 4.54252C20.6584 4.85093 21.1737 5.04418 21.7125 5.10502C22.2389 5.0409 22.7413 4.84767 23.175 4.54252C23.4555 4.36252 23.7577 4.21927 24.075 4.11502V3.06502C23.5682 3.14703 23.0864 3.34182 22.665 3.63502C22.3501 3.83639 22.0023 3.98108 21.6375 4.06252V4.06252ZM24 5.67502C23.4932 5.75703 23.0114 5.95182 22.59 6.24502C22.2975 6.43702 21.9758 6.58177 21.6375 6.67252C21.3017 6.58132 20.9827 6.437 20.6925 6.24502C20.2591 5.93802 19.7569 5.74227 19.23 5.67502C18.7035 5.74346 18.2015 5.9391 17.7675 6.24502C17.4773 6.437 17.1583 6.58132 16.8225 6.67252C16.4843 6.58163 16.1627 6.43731 15.87 6.24502C15.4366 5.93802 14.9343 5.74227 14.4075 5.67502C13.8813 5.74462 13.3796 5.94015 12.945 6.24502C12.6555 6.43852 12.336 6.58252 12 6.67252C11.6637 6.58272 11.3445 6.4383 11.055 6.24502C10.6101 5.93338 10.0946 5.73748 9.555 5.67502C9.02815 5.74227 8.52591 5.93802 8.0925 6.24502C7.8 6.43702 7.47825 6.58177 7.14 6.67252C6.80422 6.58132 6.48519 6.437 6.195 6.24502C5.76101 5.9391 5.25905 5.74346 4.7325 5.67502C4.20565 5.74227 3.70341 5.93802 3.27 6.24502C2.97981 6.437 2.66078 6.58132 2.325 6.67252C1.98677 6.58162 1.66522 6.4373 1.3725 6.24502C0.962182 5.95695 0.493675 5.76237 0 5.67502L0 6.72502C0.318 6.82552 0.621 6.96952 0.9 7.15252C1.34635 7.4601 1.86146 7.65327 2.4 7.71502C2.92488 7.64485 3.42588 7.45216 3.8625 7.15252C4.1505 6.95452 4.47 6.80752 4.8075 6.71752C5.145 6.80752 5.4645 6.95452 5.7525 7.15252C6.19942 7.45902 6.71425 7.65208 7.2525 7.71502C7.77802 7.64737 8.27959 7.45446 8.715 7.15252C9.00601 6.95539 9.32795 6.80836 9.6675 6.71752C10.005 6.80902 10.3237 6.95602 10.6125 7.15252C11.0475 7.45477 11.55 7.64752 12.075 7.71502C12.5875 7.64165 13.0756 7.44898 13.5 7.15252C13.7884 6.95565 14.1079 6.80861 14.445 6.71752C14.7845 6.80836 15.1065 6.95539 15.3975 7.15252C15.8325 7.45477 16.335 7.64752 16.86 7.71502C17.3852 7.64624 17.8865 7.45342 18.3225 7.15252C18.6105 6.95452 18.93 6.80752 19.2675 6.71752C19.605 6.80752 19.9245 6.95452 20.2125 7.15252C20.6601 7.45769 21.1746 7.65062 21.7125 7.71502C22.238 7.64737 22.7396 7.45446 23.175 7.15252C23.4306 6.97541 23.7079 6.83174 24 6.72502V5.67502ZM21.6375 11.8925C21.3004 11.8014 20.9809 11.6544 20.6925 11.4575C20.2588 11.1524 19.7564 10.9591 19.23 10.895C18.7039 10.9603 18.2018 11.1535 17.7675 11.4575C17.4791 11.6544 17.1596 11.8014 16.8225 11.8925C16.483 11.8017 16.161 11.6546 15.87 11.4575C15.4363 11.1524 14.9339 10.9591 14.4075 10.895C13.8818 10.9618 13.38 11.1548 12.945 11.4575C12.657 11.6555 12.3375 11.8025 12 11.8925C11.6624 11.8028 11.3427 11.6557 11.055 11.4575C10.6098 11.1477 10.0941 10.9543 9.555 10.895C9.02859 10.9591 8.5262 11.1524 8.0925 11.4575C7.80149 11.6546 7.47955 11.8017 7.14 11.8925C6.80288 11.8014 6.48344 11.6544 6.195 11.4575C5.76072 11.1535 5.25861 10.9603 4.7325 10.895C4.20609 10.9591 3.7037 11.1524 3.27 11.4575C2.98156 11.6544 2.66212 11.8014 2.325 11.8925C1.98545 11.8017 1.66351 11.6546 1.3725 11.4575C0.961777 11.1717 0.493209 10.9796 0 10.895L0 11.9375C0.315 12.0448 0.61725 12.188 0.9 12.365C1.3443 12.6778 1.86012 12.8738 2.4 12.935C2.92625 12.8654 3.42794 12.6699 3.8625 12.365C4.152 12.1715 4.4715 12.0275 4.8075 11.9375C5.1435 12.0275 5.463 12.1715 5.7525 12.365C6.1974 12.6767 6.71292 12.8725 7.2525 12.935C7.77935 12.8678 8.28159 12.672 8.715 12.365C9.0075 12.173 9.32925 12.0283 9.6675 11.9375C10.0033 12.0287 10.3223 12.173 10.6125 12.365C11.0459 12.672 11.5481 12.8678 12.075 12.935C12.5888 12.8619 13.0775 12.6664 13.5 12.365C13.7902 12.173 14.1092 12.0287 14.445 11.9375C14.7833 12.0283 15.105 12.173 15.3975 12.365C15.8309 12.672 16.3331 12.8678 16.86 12.935C17.3865 12.8666 17.8885 12.6709 18.3225 12.365C18.612 12.1715 18.9315 12.0275 19.2675 11.9375C19.6035 12.0275 19.923 12.1715 20.2125 12.365C20.658 12.6755 21.1732 12.8713 21.7125 12.935C22.2394 12.8678 22.7416 12.672 23.175 12.365C23.4577 12.188 23.76 12.0448 24.075 11.9375V10.895C23.5687 10.9743 23.0868 11.1665 22.665 11.4575C22.352 11.6641 22.0037 11.8115 21.6375 11.8925V11.8925ZM24 13.505C23.4937 13.5843 23.0118 13.7765 22.59 14.0675C22.2975 14.2618 21.9758 14.4088 21.6375 14.5025C21.3016 14.408 20.9827 14.2612 20.6925 14.0675C20.2591 13.7605 19.7569 13.5648 19.23 13.4975C18.7035 13.566 18.2015 13.7616 17.7675 14.0675C17.4773 14.2612 17.1584 14.408 16.8225 14.5025C16.4841 14.4084 16.1627 14.2616 15.87 14.0675C15.4366 13.7605 14.9343 13.5648 14.4075 13.4975C13.8813 13.5671 13.3796 13.7627 12.945 14.0675C12.6555 14.2625 12.3368 14.4095 12 14.5025C11.6636 14.4095 11.3444 14.2626 11.055 14.0675C10.6101 13.7559 10.0946 13.56 9.555 13.4975C9.02815 13.5648 8.52591 13.7605 8.0925 14.0675C7.8 14.2618 7.47825 14.4088 7.14 14.5025C6.80411 14.408 6.4852 14.2612 6.195 14.0675C5.76101 13.7616 5.25905 13.566 4.7325 13.4975C4.20565 13.5648 3.70341 13.7605 3.27 14.0675C2.9798 14.2612 2.66089 14.408 2.325 14.5025C1.98662 14.4084 1.66518 14.2616 1.3725 14.0675C0.961777 13.7817 0.493209 13.5896 0 13.505V14.5475C0.315 14.6548 0.61725 14.798 0.9 14.975C1.3443 15.2878 1.86012 15.4838 2.4 15.545C2.9132 15.4696 3.4014 15.2744 3.825 14.975C4.11448 14.7818 4.43373 14.6373 4.77 14.5475C5.106 14.6375 5.4255 14.7815 5.715 14.975C6.1599 15.2867 6.67542 15.4825 7.215 15.545C7.74185 15.4778 8.24409 15.282 8.6775 14.975C8.97 14.783 9.29175 14.6383 9.63 14.5475C9.96578 14.6387 10.2848 14.783 10.575 14.975C11.0084 15.282 11.5106 15.4778 12.0375 15.545C12.5643 15.4778 13.0666 15.282 13.5 14.975C13.7902 14.783 14.1092 14.6387 14.445 14.5475C14.7833 14.6383 15.105 14.783 15.3975 14.975C15.8309 15.282 16.3331 15.4778 16.86 15.545C17.3865 15.4766 17.8885 15.2809 18.3225 14.975C18.612 14.7818 18.9312 14.6373 19.2675 14.5475C19.6035 14.6375 19.923 14.7815 20.2125 14.975C20.658 15.2855 21.1732 15.4813 21.7125 15.545C22.2394 15.4778 22.7416 15.282 23.175 14.975C23.4577 14.798 23.76 14.6548 24.075 14.5475V13.505H24Z" fill="#0052B4"/>
<path id="Vector_3" d="M16.4326 3.91248H19.5676L18.0001 5.47998L16.4326 3.91248Z" fill="#6DA544"/>
<path id="Vector_4" d="M18.3528 5.12756H17.6553V7.04006H18.3528V5.12756V5.12756ZM18.3528 10.1751H17.6553V12.0876H18.3528V10.1751Z" fill="#A2001D"/>
<path id="Vector_5" d="M20.0849 9.13248C20.0773 8.93444 20.0137 8.74263 19.9016 8.57921C19.7894 8.4158 19.6334 8.28745 19.4514 8.209C19.2694 8.13055 19.0689 8.10521 18.8731 8.13591C18.6773 8.16661 18.4942 8.25209 18.3449 8.38248V7.76748H18.6974V7.06998H18.3449V6.72498H17.6549V7.06998H17.3024V7.76748H17.6549V8.38248C17.462 8.21323 17.2141 8.11994 16.9574 8.11998C16.7471 8.12049 16.5418 8.18461 16.3686 8.30393C16.1954 8.42324 16.0623 8.59217 15.9869 8.78851C15.9114 8.98485 15.8971 9.19942 15.9459 9.40403C15.9946 9.60865 16.1041 9.79373 16.2599 9.93498V10.55H19.7399V9.93498C19.8525 9.83445 19.9417 9.71053 20.0013 9.5719C20.0609 9.43328 20.0894 9.2833 20.0849 9.13248V9.13248Z" fill="#FFDA44"/>
<path id="Vector_6" d="M19.0425 8.75C18.9568 8.75199 18.8746 8.78383 18.81 8.84L18.345 9.26H17.655L17.19 8.84C17.1409 8.79648 17.0806 8.76752 17.0159 8.75639C16.9513 8.74526 16.8848 8.7524 16.824 8.777C16.7602 8.80394 16.706 8.84934 16.6684 8.90735C16.6307 8.96536 16.6112 9.03333 16.6125 9.1025C16.611 9.15071 16.6203 9.19865 16.6397 9.24278C16.6592 9.28691 16.6883 9.32611 16.725 9.3575L16.9575 9.5675V9.7925H19.0425V9.5675L19.275 9.3575C19.3126 9.32653 19.3429 9.28759 19.3636 9.24349C19.3844 9.19939 19.3951 9.15124 19.395 9.1025C19.395 9.00901 19.3578 8.91935 19.2917 8.85324C19.2256 8.78714 19.136 8.75 19.0425 8.75V8.75Z" fill="#D80027"/>
<path id="Vector_7" d="M12 -0.00250244H0V8H12V-0.00250244Z" fill="#F0F0F0"/>
<path id="Vector_8" d="M6.75 -0.00250244H5.25V3.2525H0V4.7525H5.25V8H6.75V4.7525H12V3.2525H6.75V-0.00250244Z" fill="#D80027"/>
<path id="Vector_9" d="M0 -0.00250244V0.709998L2.6925 2.5025H3.75L0 -0.00250244Z" fill="#D80027"/>
<path id="Vector_10" d="M0 1.0625V2.5025H2.16L0 1.0625ZM4.5 -0.00250244V2.2925L1.0575 -0.00250244H4.5Z" fill="#2E52B2"/>
<path id="Vector_11" d="M12 -0.00250244V0.709998L9.3075 2.5025H8.25L12 -0.00250244Z" fill="#D80027"/>
<path id="Vector_12" d="M12 1.0625V2.5025H9.84L12 1.0625ZM7.5 -0.00250244V2.2925L10.9425 -0.00250244H7.5Z" fill="#2E52B2"/>
<path id="Vector_13" d="M0 -0.00250244V0.709998L2.6925 2.5025H3.75L0 -0.00250244Z" fill="#D80027"/>
<path id="Vector_14" d="M0 1.0625V2.5025H2.16L0 1.0625ZM4.5 -0.00250244V2.2925L1.0575 -0.00250244H4.5Z" fill="#2E52B2"/>
<path id="Vector_15" d="M12 -0.00250244V0.709998L9.3075 2.5025H8.25L12 -0.00250244Z" fill="#D80027"/>
<path id="Vector_16" d="M12 1.0625V2.5025H9.84L12 1.0625ZM7.5 -0.00250244V2.2925L10.9425 -0.00250244H7.5Z" fill="#2E52B2"/>
<path id="Vector_17" d="M0 8.00006V7.29506L2.6925 5.50256H3.75L0 8.00006Z" fill="#D80027"/>
<path id="Vector_18" d="M0 6.94256V5.50256H2.16L0 6.94256ZM4.5 8.00006V5.70506L1.0575 8.00006H4.5Z" fill="#2E52B2"/>
<path id="Vector_19" d="M12 8.00006V7.29506L9.3075 5.50256H8.25L12 8.00006Z" fill="#D80027"/>
<path id="Vector_20" d="M12 6.94256V5.50256H9.84L12 6.94256ZM7.5 8.00006V5.70506L10.9425 8.00006H7.5Z" fill="#2E52B2"/>
</g>
</g>
</g>
<defs>
<clipPath id="clip0_2253_2992">
<rect width="24" height="16" rx="4" fill="white"/>
</clipPath>
</defs>
</svg>
