<svg width="auto" height="auto" viewBox="0 0 24 16" fill="none" xmlns="http://www.w3.org/2000/svg">
<g id="KG">
<g clip-path="url(#clip0_2253_3061)">
<path id="Vector" d="M24 -0.00250244H0V15.995H24V-0.00250244Z" fill="#D80027"/>
<path id="Vector_2" d="M12.0001 16.0025C16.4198 16.0025 20.0026 12.4197 20.0026 8C20.0026 3.58025 16.4198 -0.00250244 12.0001 -0.00250244C7.58031 -0.00250244 3.99756 3.58025 3.99756 8C3.99756 12.4197 7.58031 16.0025 12.0001 16.0025Z" fill="#D80027"/>
<path id="Vector_3" d="M15.915 7.99997L14.3175 8.74997L15.165 10.3025L13.4325 9.96497L13.2075 11.72L12 10.43L10.7925 11.72L10.5675 9.96497L8.83496 10.3025L9.68246 8.74997L8.08496 7.99997L9.68246 7.24997L8.83496 5.69747L10.5675 6.03497L10.7925 4.27997L12 5.56997L13.2075 4.27997L13.4325 6.03497L15.165 5.69747L14.3175 7.24997L15.915 7.99997Z" fill="#FFDA44"/>
<path id="Vector_4" d="M12 10.4375C12.6465 10.4375 13.2665 10.1807 13.7236 9.72357C14.1807 9.26645 14.4375 8.64647 14.4375 8C14.4375 7.35353 14.1807 6.73355 13.7236 6.27643C13.2665 5.81931 12.6465 5.5625 12 5.5625C11.3535 5.5625 10.7335 5.81931 10.2764 6.27643C9.81931 6.73355 9.5625 7.35353 9.5625 8C9.5625 8.64647 9.81931 9.26645 10.2764 9.72357C10.7335 10.1807 11.3535 10.4375 12 10.4375V10.4375Z" fill="#D80027"/>
<path id="Vector_5" d="M10.7848 8.00003H10.6123C10.6116 8.32403 10.7256 8.63753 10.9348 8.88503C11.0453 8.60833 11.2054 8.35415 11.4073 8.13503C11.2099 8.05195 10.9989 8.00617 10.7848 8.00003ZM11.5348 9.31253C11.8371 9.41078 12.1626 9.41078 12.4648 9.31253C12.3889 9.00207 12.2279 8.71896 11.9998 8.49503C11.7717 8.71893 11.6107 9.00206 11.5348 9.31253V9.31253ZM13.2073 7.30253C13.0848 7.09075 12.9087 6.91491 12.6968 6.79267C12.4848 6.67043 12.2445 6.60608 11.9998 6.60608C11.7551 6.60608 11.5148 6.67043 11.3028 6.79267C11.0909 6.91491 10.9148 7.09075 10.7923 7.30253C11.2168 7.30484 11.6332 7.41864 11.9998 7.63253C12.3664 7.41864 12.7828 7.30484 13.2073 7.30253V7.30253ZM12.5923 8.11253C12.7948 8.33153 12.9546 8.58578 13.0648 8.86253C13.269 8.62106 13.383 8.31621 13.3873 8.00003H13.2148C13.0022 7.99904 12.7912 8.03718 12.5923 8.11253V8.11253Z" fill="#FFDA44"/>
</g>
</g>
<defs>
<clipPath id="clip0_2253_3061">
<rect width="24" height="16" rx="4" fill="white"/>
</clipPath>
</defs>
</svg>
