<svg width="auto" height="auto" viewBox="0 0 24 16" fill="none" xmlns="http://www.w3.org/2000/svg">
<g id="KI">
<g clip-path="url(#clip0_2253_3071)">
<g id="Group">
<path id="Vector" d="M24 -0.00250244H0V8.7875H24V-0.00250244Z" fill="#C81010"/>
<path id="Vector_2" d="M11.8125 11.1425C12.5584 11.1425 13.2738 10.8462 13.8012 10.3188C14.3287 9.79131 14.625 9.07594 14.625 8.33002C14.625 7.5841 14.3287 6.86873 13.8012 6.34128C13.2738 5.81383 12.5584 5.51752 11.8125 5.51752C11.0666 5.51752 10.3512 5.81383 9.82376 6.34128C9.29632 6.86873 9 7.5841 9 8.33002C9 9.07594 9.29632 9.79131 9.82376 10.3188C10.3512 10.8462 11.0666 11.1425 11.8125 11.1425V11.1425Z" fill="#F8D000"/>
<path id="Vector_3" d="M24 8.78003H0V15.9725H24V8.78003Z" fill="#183070"/>
<path id="Vector_4" d="M11.6626 2.96002H9.06005C9.01505 2.96002 9.00755 3.02002 9.06005 3.04252L9.60005 3.31252H9.64505L10.1026 3.26002L11.0176 3.34252C11.0345 3.34503 11.0502 3.35274 11.0626 3.36459C11.0749 3.37643 11.0833 3.39183 11.0865 3.40864C11.0897 3.42544 11.0876 3.44284 11.0805 3.45841C11.0734 3.47397 11.0616 3.48694 11.0468 3.49552C11.0335 3.50362 11.0181 3.50778 11.0026 3.50752H10.7626C10.7531 3.50339 10.7429 3.50126 10.7326 3.50126C10.7222 3.50126 10.712 3.50339 10.7026 3.50752L10.5301 3.74002L9.95255 3.89752C9.94453 3.90102 9.93769 3.90679 9.93289 3.91411C9.92809 3.92144 9.92554 3.93001 9.92554 3.93877C9.92554 3.94753 9.92809 3.9561 9.93289 3.96342C9.93769 3.97075 9.94453 3.97652 9.95255 3.98002H10.9801L11.5276 4.28002C11.5359 4.28357 11.5448 4.2854 11.5538 4.2854C11.5628 4.2854 11.5718 4.28357 11.5801 4.28002L14.1451 3.71752C14.1531 3.71402 14.1599 3.70825 14.1647 3.70092C14.1695 3.69359 14.1721 3.68503 14.1721 3.67627C14.1721 3.66751 14.1695 3.65894 14.1647 3.65162C14.1599 3.64429 14.1531 3.63852 14.1451 3.63502H13.1176C13.1021 3.63286 13.0875 3.62673 13.0752 3.61723C13.0628 3.60772 13.0531 3.59518 13.0471 3.58081C13.041 3.56645 13.0388 3.55076 13.0407 3.53528C13.0425 3.5198 13.0483 3.50507 13.0576 3.49252L13.6051 2.87002C13.6144 2.86539 13.6246 2.86299 13.6351 2.86299C13.6455 2.86299 13.6557 2.86539 13.6651 2.87002H14.8051C14.8576 2.87002 14.8651 2.79502 14.8051 2.78752L13.4401 2.41252C13.4309 2.40725 13.4206 2.40448 13.4101 2.40448C13.3995 2.40448 13.3892 2.40725 13.3801 2.41252L12.2176 3.32752C12.2042 3.33623 12.1885 3.34087 12.1726 3.34087C12.1566 3.34087 12.1409 3.33623 12.1276 3.32752L11.7076 2.98252L11.6626 2.96002V2.96002Z" fill="#F8D000"/>
<path id="Vector_5" d="M0 9.02001V8.00001C0.398208 8.02988 0.788604 8.12621 1.155 8.28501C1.47691 8.42968 1.82583 8.50448 2.17875 8.50448C2.53167 8.50448 2.88059 8.42968 3.2025 8.28501C3.63567 8.09207 4.10456 7.99237 4.57875 7.99237C5.05294 7.99237 5.52183 8.09207 5.955 8.28501C6.27691 8.42968 6.62583 8.50448 6.97875 8.50448C7.33167 8.50448 7.68059 8.42968 8.0025 8.28501C8.45498 8.09544 8.94066 7.99781 9.43125 7.99781C9.92184 7.99781 10.4075 8.09544 10.86 8.28501C11.6032 8.58501 12.4342 8.58501 13.1775 8.28501C13.63 8.09544 14.1157 7.99781 14.6063 7.99781C15.0968 7.99781 15.5825 8.09544 16.035 8.28501C16.3569 8.42968 16.7058 8.50448 17.0588 8.50448C17.4117 8.50448 17.7606 8.42968 18.0825 8.28501C18.5157 8.09207 18.9846 7.99237 19.4587 7.99237C19.9329 7.99237 20.4018 8.09207 20.835 8.28501C21.1569 8.42968 21.5058 8.50448 21.8588 8.50448C22.2117 8.50448 22.5606 8.42968 22.8825 8.28501C23.237 8.12982 23.6145 8.03355 24 8.00001V9.02751C23.741 9.06015 23.4883 9.13092 23.25 9.23751C22.8159 9.42685 22.3474 9.52458 21.8738 9.52458C21.4001 9.52458 20.9316 9.42685 20.4975 9.23751C20.1756 9.09284 19.8267 9.01804 19.4738 9.01804C19.1208 9.01804 18.7719 9.09284 18.45 9.23751C18.0159 9.42685 17.5474 9.52458 17.0737 9.52458C16.6001 9.52458 16.1316 9.42685 15.6975 9.23751C15.3524 9.09084 14.9812 9.01525 14.6063 9.01525C14.2313 9.01525 13.8601 9.09084 13.515 9.23751C12.5645 9.62002 11.503 9.62002 10.5525 9.23751C10.2074 9.09084 9.83624 9.01525 9.46125 9.01525C9.08626 9.01525 8.71512 9.09084 8.37 9.23751C7.93588 9.42685 7.46736 9.52458 6.99375 9.52458C6.52014 9.52458 6.05162 9.42685 5.6175 9.23751C5.29559 9.09284 4.94667 9.01804 4.59375 9.01804C4.24083 9.01804 3.89191 9.09284 3.57 9.23751C3.13587 9.42681 2.66736 9.52451 2.19375 9.52451C1.72014 9.52451 1.25163 9.42681 0.8175 9.23751C0.55935 9.11905 0.282885 9.0455 0 9.02001H0ZM0 11.2775V10.25C0.398208 10.2799 0.788604 10.3762 1.155 10.535C1.47691 10.6797 1.82583 10.7545 2.17875 10.7545C2.53167 10.7545 2.88059 10.6797 3.2025 10.535C3.63567 10.3421 4.10456 10.2424 4.57875 10.2424C5.05294 10.2424 5.52183 10.3421 5.955 10.535C6.27691 10.6797 6.62583 10.7545 6.97875 10.7545C7.33167 10.7545 7.68059 10.6797 8.0025 10.535C8.45498 10.3454 8.94066 10.2478 9.43125 10.2478C9.92184 10.2478 10.4075 10.3454 10.86 10.535C11.6032 10.835 12.4342 10.835 13.1775 10.535C13.63 10.3454 14.1157 10.2478 14.6063 10.2478C15.0968 10.2478 15.5825 10.3454 16.035 10.535C16.3569 10.6797 16.7058 10.7545 17.0588 10.7545C17.4117 10.7545 17.7606 10.6797 18.0825 10.535C18.5157 10.3421 18.9846 10.2424 19.4587 10.2424C19.9329 10.2424 20.4018 10.3421 20.835 10.535C21.1569 10.6797 21.5058 10.7545 21.8588 10.7545C22.2117 10.7545 22.5606 10.6797 22.8825 10.535C23.237 10.3798 23.6145 10.2836 24 10.25V11.2775C23.741 11.3102 23.4883 11.3809 23.25 11.4875C22.8168 11.6804 22.3479 11.7801 21.8738 11.7801C21.3996 11.7801 20.9307 11.6804 20.4975 11.4875C20.1756 11.3428 19.8267 11.268 19.4738 11.268C19.1208 11.268 18.7719 11.3428 18.45 11.4875C18.0168 11.6804 17.5479 11.7801 17.0737 11.7801C16.5996 11.7801 16.1307 11.6804 15.6975 11.4875C15.3524 11.3408 14.9812 11.2652 14.6063 11.2652C14.2313 11.2652 13.8601 11.3408 13.515 11.4875C12.5645 11.87 11.503 11.87 10.5525 11.4875C10.2074 11.3408 9.83624 11.2652 9.46125 11.2652C9.08626 11.2652 8.71512 11.3408 8.37 11.4875C7.93682 11.6804 7.46793 11.7801 6.99375 11.7801C6.51957 11.7801 6.05068 11.6804 5.6175 11.4875C5.29559 11.3428 4.94667 11.268 4.59375 11.268C4.24083 11.268 3.89191 11.3428 3.57 11.4875C3.13683 11.6804 2.66794 11.7801 2.19375 11.7801C1.71956 11.7801 1.25067 11.6804 0.8175 11.4875C0.558888 11.3716 0.282441 11.3006 0 11.2775H0ZM0 13.535V12.5C0.398208 12.5299 0.788604 12.6262 1.155 12.785C1.47691 12.9297 1.82583 13.0045 2.17875 13.0045C2.53167 13.0045 2.88059 12.9297 3.2025 12.785C3.63567 12.5921 4.10456 12.4924 4.57875 12.4924C5.05294 12.4924 5.52183 12.5921 5.955 12.785C6.27691 12.9297 6.62583 13.0045 6.97875 13.0045C7.33167 13.0045 7.68059 12.9297 8.0025 12.785C8.45498 12.5954 8.94066 12.4978 9.43125 12.4978C9.92184 12.4978 10.4075 12.5954 10.86 12.785C11.6032 13.085 12.4342 13.085 13.1775 12.785C13.63 12.5954 14.1157 12.4978 14.6063 12.4978C15.0968 12.4978 15.5825 12.5954 16.035 12.785C16.3569 12.9297 16.7058 13.0045 17.0588 13.0045C17.4117 13.0045 17.7606 12.9297 18.0825 12.785C18.5157 12.5921 18.9846 12.4924 19.4587 12.4924C19.9329 12.4924 20.4018 12.5921 20.835 12.785C21.1569 12.9297 21.5058 13.0045 21.8588 13.0045C22.2117 13.0045 22.5606 12.9297 22.8825 12.785C23.237 12.6298 23.6145 12.5336 24 12.5V13.5275C23.741 13.5602 23.4883 13.6309 23.25 13.7375C22.8168 13.9304 22.3479 14.0301 21.8738 14.0301C21.3996 14.0301 20.9307 13.9304 20.4975 13.7375C20.1756 13.5928 19.8267 13.518 19.4738 13.518C19.1208 13.518 18.7719 13.5928 18.45 13.7375C18.0168 13.9304 17.5479 14.0301 17.0737 14.0301C16.5996 14.0301 16.1307 13.9304 15.6975 13.7375C15.3524 13.5908 14.9812 13.5152 14.6063 13.5152C14.2313 13.5152 13.8601 13.5908 13.515 13.7375C12.5645 14.12 11.503 14.12 10.5525 13.7375C10.2074 13.5908 9.83624 13.5152 9.46125 13.5152C9.08626 13.5152 8.71512 13.5908 8.37 13.7375C7.93682 13.9304 7.46793 14.0301 6.99375 14.0301C6.51957 14.0301 6.05068 13.9304 5.6175 13.7375C5.29559 13.5928 4.94667 13.518 4.59375 13.518C4.24083 13.518 3.89191 13.5928 3.57 13.7375C3.13683 13.9304 2.66794 14.0301 2.19375 14.0301C1.71956 14.0301 1.25067 13.9304 0.8175 13.7375C0.558437 13.6242 0.282003 13.5557 0 13.535H0Z" fill="#F0F0F0"/>
</g>
</g>
</g>
<defs>
<clipPath id="clip0_2253_3071">
<rect width="24" height="16" rx="4" fill="white"/>
</clipPath>
</defs>
</svg>
