<svg width="auto" height="auto" viewBox="0 0 24 16" fill="none" xmlns="http://www.w3.org/2000/svg">
<g id="KM">
<g clip-path="url(#clip0_2253_3078)">
<path id="Vector" d="M24 -0.00250244H0V15.995H24V-0.00250244Z" fill="#0052B4"/>
<path id="Vector_2" d="M24 -0.00250244H0V3.995H24V-0.00250244Z" fill="#FFDA44"/>
<path id="Vector_3" d="M24 4.0025H0V8H24V4.0025Z" fill="#F0F0F0"/>
<path id="Vector_4" d="M24 8H0V11.9975H24V8Z" fill="#D80027"/>
<path id="Vector_5" d="M12 8L0 16.0025V-0.00250244L12 8Z" fill="#6DA544"/>
<path id="Vector_6" d="M3.21748 8C3.21812 7.44522 3.40798 6.90726 3.75571 6.47499C4.10344 6.04271 4.58823 5.74199 5.12998 5.6225C4.95773 5.58318 4.78166 5.56305 4.60498 5.5625C3.95852 5.5625 3.33853 5.81931 2.88141 6.27643C2.42429 6.73355 2.16748 7.35353 2.16748 8C2.16748 8.64647 2.42429 9.26645 2.88141 9.72357C3.33853 10.1807 3.95852 10.4375 4.60498 10.4375C4.78198 10.4375 4.95748 10.4165 5.12998 10.3775C4.58823 10.258 4.10344 9.95729 3.75571 9.52501C3.40798 9.09274 3.21812 8.55478 3.21748 8V8Z" fill="#F0F0F0"/>
<path id="Vector_7" d="M5.10023 5.91498L5.23523 6.31248H5.65523L5.31023 6.55998L5.44523 6.95748L5.10023 6.70998L4.76273 6.95748L4.89773 6.55998L4.55273 6.31248H4.97273L5.10023 5.91498V5.91498ZM5.10023 6.95748L5.23523 7.35498H5.65523L5.31023 7.60248L5.44523 7.99998L5.10023 7.75248L4.76273 7.99998L4.89773 7.60248L4.55273 7.35498H4.97273L5.10023 6.95748V6.95748ZM5.10023 7.99998L5.23523 8.39748H5.65523L5.31023 8.64498L5.44523 9.04248L5.10023 8.79498L4.76273 9.04248L4.89773 8.64498L4.55273 8.39748H4.97273L5.10023 7.99998ZM5.10023 9.04248L5.23523 9.43998H5.65523L5.31023 9.68748L5.44523 10.085L5.10023 9.83748L4.76273 10.085L4.89773 9.68748L4.55273 9.43998H4.97273L5.10023 9.04248V9.04248Z" fill="#F0F0F0"/>
</g>
</g>
<defs>
<clipPath id="clip0_2253_3078">
<rect width="24" height="16" rx="4" fill="white"/>
</clipPath>
</defs>
</svg>
