<svg width="auto" height="auto" viewBox="0 0 24 16" fill="none" xmlns="http://www.w3.org/2000/svg">
<g id="KR">
<g clip-path="url(#clip0_2253_3099)">
<path id="Vector" d="M24 -0.00250244H0V15.995H24V-0.00250244Z" fill="#F0F0F0"/>
<path id="Vector_2" d="M14.9252 7.99995C14.7606 8.67567 14.3912 9.28404 13.8676 9.74183C13.3441 10.1996 12.6918 10.4845 12.0002 10.5575C11.3085 10.4845 10.6563 10.1996 10.1328 9.74183C9.60918 9.28404 9.23982 8.67567 9.0752 7.99995C9.0752 7.22419 9.38336 6.48021 9.93191 5.93166C10.4805 5.38312 11.2244 5.07495 12.0002 5.07495C12.776 5.07495 13.5199 5.38312 14.0685 5.93166C14.617 6.48021 14.9252 7.22419 14.9252 7.99995V7.99995Z" fill="#D80027"/>
<path id="Vector_3" d="M14.9252 8C14.9252 8.77576 14.617 9.51974 14.0685 10.0683C13.5199 10.6168 12.776 10.925 12.0002 10.925C11.2244 10.925 10.4805 10.6168 9.93191 10.0683C9.38336 9.51974 9.0752 8.77576 9.0752 8" fill="#0052B4"/>
<path id="Vector_4" d="M15.8687 9.80827L15.0939 10.5823L15.6084 11.0968L16.3832 10.3228L15.8687 9.80827ZM14.5839 11.105L13.8099 11.8798L14.3237 12.3943L15.0984 11.6195L14.5839 11.1058V11.105ZM17.4264 11.3533L16.6524 12.1273L17.1669 12.6418L17.9409 11.8678L17.4264 11.3533ZM16.1289 12.6455L15.3549 13.4195L15.8694 13.934L16.6434 13.16L16.1289 12.6455ZM16.6494 10.5808L15.8747 11.3555L16.3892 11.8693L17.1632 11.0953L16.6494 10.5808ZM15.3542 11.8775L14.5794 12.6523L15.0939 13.1668L15.8679 12.3928L15.3542 11.8783V11.8775ZM15.1014 2.83777L14.5869 3.35227L16.6554 5.42077L17.1699 4.90627L15.1014 2.83777ZM14.3214 3.61552L13.8069 4.13002L14.5809 4.90402L15.0954 4.38952L14.3214 3.61552ZM15.6182 4.90027L15.1037 5.41402L15.8777 6.18877L16.3922 5.67427L15.6182 4.90027ZM15.8732 2.06452L15.3587 2.57902L16.1334 3.35377L16.6479 2.83927L15.8732 2.06452ZM17.1579 3.35452L16.6434 3.86902L17.4174 4.64377L17.9319 4.12927L17.1579 3.35452ZM6.58141 11.3548L6.06691 11.8693L8.13541 13.937L8.64991 13.4225L6.58141 11.3548V11.3548ZM8.63791 11.8715L8.12341 12.386L8.89741 13.16L9.41191 12.6455L8.63791 11.8715ZM7.34566 10.5815L6.83191 11.096L7.60591 11.87L8.12041 11.3555L7.34566 10.5815ZM8.12116 9.80903L7.60666 10.3235L9.67516 12.392L10.1897 11.8775L8.12116 9.80903ZM8.12416 2.05627L6.05566 4.12402L6.57016 4.63852L8.63866 2.57077L8.12416 2.05627ZM8.90491 2.82877L6.83641 4.89652L7.35091 5.41102L9.41866 3.34327L8.90491 2.82877V2.82877ZM9.67516 3.60877L7.60591 5.67652L8.12041 6.19102L10.1889 4.12327L9.67441 3.60877H9.67516Z" fill="black"/>
</g>
</g>
<defs>
<clipPath id="clip0_2253_3099">
<rect width="24" height="16" rx="4" fill="white"/>
</clipPath>
</defs>
</svg>
