<svg width="auto" height="auto" viewBox="0 0 24 16" fill="none" xmlns="http://www.w3.org/2000/svg">
<g id="KY">
<g clip-path="url(#clip0_2253_3109)">
<path id="Vector" d="M24 -0.00250244H0V15.995H24V-0.00250244Z" fill="#0052B4"/>
<path id="Vector_2" d="M18 5.915C18.1832 5.915 18.3646 5.87892 18.5338 5.80881C18.7031 5.73871 18.8569 5.63595 18.9864 5.50641C19.1159 5.37688 19.2187 5.22309 19.2888 5.05384C19.3589 4.88459 19.395 4.70319 19.395 4.52C19.395 4.33681 19.3589 4.15541 19.2888 3.98616C19.2187 3.81691 19.1159 3.66312 18.9864 3.53359C18.8569 3.40405 18.7031 3.30129 18.5338 3.23119C18.3646 3.16108 18.1832 3.125 18 3.125C17.63 3.125 17.2752 3.27197 17.0136 3.53359C16.752 3.7952 16.605 4.15002 16.605 4.52C16.605 4.88998 16.752 5.2448 17.0136 5.50641C17.2752 5.76803 17.63 5.915 18 5.915V5.915Z" fill="#6DA544"/>
<path id="Vector_3" d="M20.43 4.17505H15.5625V6.26005H20.43V4.17505V4.17505Z" fill="#D80027"/>
<path id="Vector_4" d="M15.5625 9.38745V10.7825H16.3125C16.7669 11.2286 17.3782 11.4786 18.015 11.4786C18.6518 11.4786 19.2631 11.2286 19.7175 10.7825H20.4675V9.38745H15.5625Z" fill="#FFDA44"/>
<path id="Vector_5" d="M15.5625 5.91498V7.99998C15.5625 9.85998 18 10.4375 18 10.4375C18 10.4375 20.4375 9.85998 20.4375 7.99998V5.91498H15.5625Z" fill="#338AF3"/>
<path id="Vector_6" d="M18 7.02495C17.3925 7.02495 17.3925 7.58745 16.785 7.58745C16.1775 7.58745 16.1775 7.02495 15.5625 7.02495V7.99995C16.1775 7.99995 16.1775 8.55495 16.785 8.55495C17.3925 8.55495 17.3925 7.99995 18 7.99995C18.6075 7.99995 18.6075 8.55495 19.215 8.55495C19.8225 8.55495 19.83 7.99995 20.4375 7.99995V7.02495C19.83 7.02495 19.83 7.58745 19.215 7.58745C18.6 7.58745 18.6075 7.02495 18 7.02495V7.02495ZM18 5.07495C17.3925 5.07495 17.3925 5.63745 16.785 5.63745C16.1775 5.63745 16.1775 5.07495 15.5625 5.07495V6.04995C16.1775 6.04995 16.1775 6.60495 16.785 6.60495C17.3925 6.60495 17.3925 6.04995 18 6.04995C18.6075 6.04995 18.6075 6.60495 19.215 6.60495C19.8225 6.60495 19.83 6.04995 20.4375 6.04995V5.07495C19.83 5.07495 19.83 5.63745 19.215 5.63745C18.6 5.63745 18.6075 5.07495 18 5.07495Z" fill="#F3F3F3"/>
<path id="Vector_7" d="M12 -0.00250244V1.0625L9.84 2.5025H12V5.5025H9.84L12 6.9425V8H10.9425L7.5 5.705V8H4.5V5.705L1.0575 8H0V6.9425L2.16 5.5025H0V2.5025H2.16L0 1.0625V-0.00250244H1.0575L4.5 2.2925V-0.00250244H7.5V2.2925L10.9425 -0.00250244H12Z" fill="#F0F0F0"/>
<path id="Vector_8" d="M6.75 -0.00250244H5.25V3.2525H0V4.7525H5.25V8H6.75V4.7525H12V3.2525H6.75V-0.00250244Z" fill="#D80027"/>
<path id="Vector_9" d="M0 -0.00250244V0.709998L2.6925 2.5025H3.75L0 -0.00250244ZM12 -0.00250244V0.709998L9.3075 2.5025H8.25L12 -0.00250244Z" fill="#D80027"/>
<path id="Vector_10" d="M0 -0.00250244V0.709998L2.6925 2.5025H3.75L0 -0.00250244ZM12 -0.00250244V0.709998L9.3075 2.5025H8.25L12 -0.00250244ZM0 8V7.295L2.6925 5.5025H3.75L0 8ZM12 8V7.295L9.3075 5.5025H8.25L12 8Z" fill="#D80027"/>
</g>
</g>
<defs>
<clipPath id="clip0_2253_3109">
<rect width="24" height="16" rx="4" fill="white"/>
</clipPath>
</defs>
</svg>
