<svg width="auto" height="auto" viewBox="0 0 24 16" fill="none" xmlns="http://www.w3.org/2000/svg">
<g id="LA">
<g clip-path="url(#clip0_2253_3125)">
<path id="Vector" d="M24 -0.00250244H0V15.995H24V-0.00250244Z" fill="#0052B4"/>
<path id="Vector_2" d="M24 -0.00250244H0V5.33H24V-0.00250244ZM24 10.67H0V16.0025H24V10.67Z" fill="#D80027"/>
<path id="Vector_3" d="M12 10.2275C12.5907 10.2275 13.1573 9.99284 13.575 9.5751C13.9928 9.15737 14.2275 8.59079 14.2275 8.00002C14.2275 7.40925 13.9928 6.84268 13.575 6.42494C13.1573 6.0072 12.5907 5.77252 12 5.77252C11.4092 5.77252 10.8426 6.0072 10.4249 6.42494C10.0071 6.84268 9.77246 7.40925 9.77246 8.00002C9.77246 8.59079 10.0071 9.15737 10.4249 9.5751C10.8426 9.99284 11.4092 10.2275 12 10.2275V10.2275Z" fill="#F0F0F0"/>
</g>
</g>
<defs>
<clipPath id="clip0_2253_3125">
<rect width="24" height="16" rx="4" fill="white"/>
</clipPath>
</defs>
</svg>
