<svg width="auto" height="auto" viewBox="0 0 24 16" fill="none" xmlns="http://www.w3.org/2000/svg">
<g id="LR">
<g clip-path="url(#clip0_2253_3151)">
<path id="Vector" d="M24 0.289978H0V16.2875H24V0.289978Z" fill="#F0F0F0"/>
<path id="Vector_2" d="M24 0.289978H0V1.74498H24V0.289978ZM24 3.19998H0V4.65498H24V3.19998ZM24 6.10248H0V7.55748H24V6.10248ZM24 9.01248H0V10.4675H24V9.01248ZM24 11.9225H0V13.3775H24V11.9225ZM24 14.8325H0V16.2875H24V14.8325Z" fill="#D80027"/>
<path id="Vector_3" d="M12 -0.287476H0V7.56502H12V-0.287476Z" fill="#0052B4"/>
<path id="Vector_4" d="M6.00023 1.55005L6.51773 3.14005H8.19773L6.84023 4.13005L7.35773 5.72005L6.00023 4.73755L4.64273 5.72005L5.16023 4.13005L3.80273 3.14005H5.48273L6.00023 1.55005Z" fill="#F0F0F0"/>
</g>
</g>
<defs>
<clipPath id="clip0_2253_3151">
<rect width="24" height="16" rx="4" fill="white"/>
</clipPath>
</defs>
</svg>
