<svg width="auto" height="auto" viewBox="0 0 24 16" fill="none" xmlns="http://www.w3.org/2000/svg">
<g id="LY">
<g clip-path="url(#clip0_2253_3172)">
<path id="Vector" d="M24 -0.00250244H0V15.995H24V-0.00250244Z" fill="black"/>
<path id="Vector_2" d="M24 -0.00250244H0V5.33H24V-0.00250244Z" fill="#D80027"/>
<path id="Vector_3" d="M24 10.6625H0V15.995H24V10.6625Z" fill="#496E2D"/>
<path id="Vector_4" d="M13.1923 7.0625L13.6123 7.64L14.2948 7.4225L13.8748 8L14.2873 8.5775L13.6123 8.36L13.1923 8.9375V8.2175L12.5098 8L13.1923 7.775V7.0625V7.0625Z" fill="#F0F0F0"/>
<path id="Vector_5" d="M12.0454 9.44754C11.8265 9.44405 11.6112 9.39092 11.4158 9.29216C11.2204 9.1934 11.05 9.05158 10.9173 8.87738C10.7847 8.70318 10.6933 8.50115 10.6501 8.28652C10.6069 8.07188 10.613 7.85024 10.6679 7.63829C10.7227 7.42634 10.825 7.22961 10.967 7.06293C11.1089 6.89624 11.2869 6.76395 11.4874 6.67602C11.6879 6.58809 11.9057 6.54682 12.1245 6.55531C12.3433 6.5638 12.5573 6.62183 12.7504 6.72503C12.4998 6.48161 12.183 6.31744 11.8396 6.25302C11.4963 6.1886 11.1415 6.22679 10.8198 6.36282C10.498 6.49885 10.2234 6.7267 10.0304 7.01788C9.83733 7.30906 9.73438 7.65068 9.73438 8.00003C9.73438 8.34939 9.83733 8.69101 10.0304 8.98219C10.2234 9.27337 10.498 9.50122 10.8198 9.63725C11.1415 9.77328 11.4963 9.81147 11.8396 9.74705C12.183 9.68263 12.4998 9.51846 12.7504 9.27504C12.5329 9.38754 12.2906 9.44754 12.0454 9.44754Z" fill="#F0F0F0"/>
</g>
</g>
<defs>
<clipPath id="clip0_2253_3172">
<rect width="24" height="16" rx="4" fill="white"/>
</clipPath>
</defs>
</svg>
