<svg width="auto" height="auto" viewBox="0 0 24 16" fill="none" xmlns="http://www.w3.org/2000/svg">
<g id="MH">
<g clip-path="url(#clip0_2253_3205)">
<path id="Vector" d="M24 -0.00250244H0V15.995H24V-0.00250244Z" fill="#0052B4"/>
<path id="Vector_2" d="M10.965 4.6775L9.9825 5.135L10.5075 6.08L9.4425 5.8775L9.3075 6.95L8.5725 6.1625L7.83 6.95L7.695 5.8775L6.6375 6.08L7.155 5.135L6.18 4.6775L7.155 4.22L6.6375 3.275L7.695 3.4775L7.83 2.405L8.5725 3.1925L9.3075 2.405L9.4425 3.4775L10.5075 3.275L9.9825 4.22L10.965 4.6775ZM20.01 -0.00250244L0 15.755V15.935L23.61 -0.00250244H20.01Z" fill="#F0F0F0"/>
<path id="Vector_3" d="M24 -0.00250244H23.61L0 15.935V16.0025H0.1725L24 2.42V-0.00250244Z" fill="#FF9811"/>
</g>
</g>
<defs>
<clipPath id="clip0_2253_3205">
<rect width="24" height="16" rx="4" fill="white"/>
</clipPath>
</defs>
</svg>
