<svg width="auto" height="auto" viewBox="0 0 24 16" fill="none" xmlns="http://www.w3.org/2000/svg">
<g id="MO">
<g clip-path="url(#clip0_2253_3228)">
<path id="Vector" d="M24 -0.00250244H0V15.995H24V-0.00250244Z" fill="#496E2D"/>
<path id="Vector_2" d="M13.3951 7.67002C13.2038 7.67002 13.0133 7.70377 12.8326 7.76752C12.9383 7.55002 12.9946 7.31152 12.9976 7.07002C12.9571 6.72774 12.8479 6.39717 12.6765 6.09816C12.5051 5.79915 12.275 5.53787 12.0001 5.33002C11.7251 5.53781 11.4949 5.79907 11.3235 6.09809C11.1521 6.39711 11.0429 6.72772 11.0026 7.07002C11.0056 7.31152 11.0626 7.55002 11.1676 7.76752C10.9869 7.70359 10.7967 7.67063 10.6051 7.67002C10.2643 7.70925 9.9351 7.81722 9.6373 7.98738C9.33951 8.15755 9.07935 8.38638 8.87256 8.66002C9.07833 8.93535 9.33811 9.16583 9.636 9.33734C9.93388 9.50885 10.2636 9.6178 10.6051 9.65752C11.1312 9.62416 11.6272 9.40018 12.0001 9.02752C12.373 9.40018 12.8689 9.62416 13.3951 9.65752C13.7365 9.6178 14.0662 9.50885 14.3641 9.33734C14.662 9.16583 14.9218 8.93535 15.1276 8.66002C14.9208 8.38635 14.6606 8.1575 14.3628 7.98733C14.065 7.81716 13.7358 7.70921 13.3951 7.67002V7.67002Z" fill="#F0F0F0"/>
<path id="Vector_3" d="M11.9999 3.13251L12.2024 3.76251H12.8699L12.3299 4.15251L12.5399 4.78251L11.9999 4.39251L11.4599 4.78251L11.6699 4.15251L11.1299 3.76251H11.7974L11.9999 3.13251V3.13251ZM9.47244 4.23501L9.86994 4.58751L10.3274 4.32501L10.1099 4.81251L10.5074 5.16501L9.98244 5.11251L9.76494 5.59251L9.65244 5.07501L9.11994 5.02251L9.58494 4.75251L9.47244 4.23501V4.23501ZM7.62744 6.08751L8.14494 6.19251L8.40744 5.73501L8.46744 6.26751L8.98494 6.37251L8.49744 6.59001L8.55744 7.11501L8.19744 6.72501L7.71744 6.94251L7.97994 6.47751L7.62744 6.08751V6.08751ZM14.5274 4.23501L14.1299 4.58751L13.6724 4.32501L13.8899 4.81251L13.4924 5.16501L14.0174 5.11251L14.2349 5.59251L14.3474 5.07501L14.8724 5.02251L14.4149 4.75251L14.5274 4.23501V4.23501ZM16.3724 6.08751L15.8549 6.19251L15.5924 5.73501L15.5324 6.26751L15.0149 6.37251L15.5024 6.59001L15.4424 7.11501L15.8024 6.72501L16.2824 6.94251L16.0199 6.47751L16.3724 6.08751V6.08751Z" fill="#FFDA44"/>
<path id="Vector_4" d="M12 12.44C12.7634 12.4277 13.5015 12.1641 14.1 11.69H9.9C10.4985 12.1641 11.2366 12.4277 12 12.44V12.44ZM8.8125 10.3475C8.922 10.6003 9.06 10.8395 9.225 11.06H14.775C14.94 10.8395 15.078 10.6003 15.1875 10.3475H8.8125V10.3475Z" fill="#F0F0F0"/>
</g>
</g>
<defs>
<clipPath id="clip0_2253_3228">
<rect width="24" height="16" rx="4" fill="white"/>
</clipPath>
</defs>
</svg>
