<svg width="auto" height="auto" viewBox="0 0 24 16" fill="none" xmlns="http://www.w3.org/2000/svg">
<g id="MP">
<g clip-path="url(#clip0_2253_3233)">
<path id="Vector" d="M24 -0.00250244H0V15.995H24V-0.00250244Z" fill="#338AF3"/>
<path id="Vector_2" d="M11.79 12.3125C11.703 12.3093 11.6189 12.2806 11.5482 12.2299C11.4775 12.1792 11.4234 12.1088 11.3925 12.0275C11.3385 12.0959 11.2659 12.1473 11.1833 12.1752C11.1008 12.2032 11.0119 12.2066 10.9275 12.185C10.8446 12.1627 10.77 12.1168 10.7127 12.0529C10.6555 11.989 10.618 11.9098 10.605 11.825C10.54 11.8886 10.4571 11.9307 10.3674 11.9455C10.2778 11.9603 10.1857 11.9472 10.1038 11.9078C10.0219 11.8685 9.95401 11.8049 9.90949 11.7257C9.86497 11.6464 9.84593 11.5554 9.85495 11.465C9.78239 11.5 9.70164 11.5146 9.6214 11.5072C9.54115 11.4997 9.46448 11.4704 9.39964 11.4226C9.3348 11.3747 9.28426 11.3101 9.25347 11.2356C9.22269 11.1611 9.21283 11.0797 9.22495 11C9.14244 11.0263 9.05402 11.0278 8.97064 11.0044C8.88726 10.981 8.8126 10.9336 8.7559 10.8681C8.69921 10.8026 8.66298 10.7219 8.6517 10.636C8.64042 10.5502 8.65459 10.4629 8.69245 10.385C8.60608 10.3926 8.51933 10.3754 8.44231 10.3356C8.3653 10.2958 8.30119 10.2349 8.25745 10.16C8.21511 10.084 8.19609 9.99728 8.20276 9.91058C8.20943 9.82388 8.2415 9.74106 8.29495 9.67248C8.21464 9.65917 8.13956 9.62397 8.07797 9.57074C8.01637 9.51752 7.97065 9.44833 7.94584 9.3708C7.92103 9.29326 7.91809 9.21039 7.93734 9.13129C7.95659 9.05219 7.99729 8.97994 8.05495 8.92248C7.97231 8.89625 7.89882 8.84707 7.84305 8.78068C7.78728 8.71429 7.75153 8.63341 7.73995 8.54748C7.73145 8.46099 7.74817 8.37389 7.7881 8.29669C7.82802 8.2195 7.88945 8.15552 7.96495 8.11248C7.88945 8.06944 7.82802 8.00546 7.7881 7.92827C7.74817 7.85108 7.73145 7.76397 7.73995 7.67748C7.74914 7.59183 7.78314 7.51072 7.83776 7.4441C7.89238 7.37749 7.96526 7.32827 8.04745 7.30248C7.98233 7.24472 7.93504 7.16959 7.91113 7.08589C7.88722 7.0022 7.88768 6.91342 7.91245 6.82998C7.93875 6.7467 7.9891 6.67306 8.05717 6.61834C8.12523 6.56362 8.20797 6.53027 8.29495 6.52248C8.2415 6.4539 8.20943 6.37108 8.20276 6.28438C8.19609 6.19768 8.21511 6.11093 8.25745 6.03498C8.29689 5.95804 8.35911 5.89513 8.43562 5.85487C8.51213 5.8146 8.5992 5.79892 8.68495 5.80998C8.64765 5.73095 8.63417 5.64276 8.64615 5.55619C8.65814 5.46961 8.69508 5.38841 8.75245 5.32248C8.80723 5.2556 8.88098 5.2069 8.964 5.1828C9.04701 5.1587 9.13539 5.16033 9.21745 5.18748C9.19418 5.10311 9.19645 5.01374 9.22397 4.93066C9.25149 4.84758 9.30303 4.77453 9.37207 4.72074C9.44111 4.66695 9.52455 4.63485 9.61184 4.62848C9.69913 4.62212 9.78634 4.64178 9.86245 4.68498C9.85343 4.59455 9.87248 4.50353 9.91699 4.42429C9.96151 4.34506 10.0294 4.28146 10.1113 4.24213C10.1932 4.2028 10.2853 4.18965 10.3749 4.20448C10.4646 4.2193 10.5475 4.26138 10.6125 4.32498C10.6257 4.23948 10.6638 4.15974 10.7219 4.09565C10.7801 4.03155 10.8557 3.98591 10.9395 3.96436C11.0233 3.94281 11.1116 3.9463 11.1934 3.9744C11.2753 4.00251 11.3471 4.05399 11.4 4.12248C11.4211 4.06109 11.4557 4.00522 11.5013 3.95896C11.5469 3.9127 11.6022 3.87723 11.6633 3.85515C11.7244 3.83307 11.7896 3.82494 11.8542 3.83135C11.9188 3.83777 11.9812 3.85857 12.0367 3.89223C12.111 3.93609 12.1712 4.0004 12.21 4.07748C12.245 4.02225 12.2918 3.97534 12.3468 3.94002C12.4019 3.9047 12.464 3.88181 12.5289 3.87296C12.5937 3.86411 12.6597 3.8695 12.7222 3.88876C12.7848 3.90802 12.8423 3.94069 12.891 3.98448C12.9551 4.04341 13 4.12023 13.02 4.20498C13.08 4.14675 13.1553 4.1067 13.2371 4.08943C13.3189 4.07217 13.404 4.07841 13.4824 4.10743C13.5608 4.13645 13.6294 4.18707 13.6803 4.25343C13.7312 4.3198 13.7623 4.39921 13.77 4.48248C13.8413 4.4326 13.9259 4.4049 14.0129 4.40284C14.1 4.40077 14.1857 4.42445 14.2594 4.47089C14.333 4.51733 14.3914 4.58448 14.4271 4.66392C14.4627 4.74336 14.4742 4.83156 14.46 4.91748C14.5192 4.88989 14.584 4.87602 14.6494 4.8769C14.7148 4.87779 14.7791 4.8934 14.8377 4.92259C14.8962 4.95178 14.9474 4.99379 14.9874 5.0455C15.0275 5.0972 15.0553 5.15727 15.069 5.22123C15.0875 5.30484 15.0818 5.39201 15.0525 5.47248C15.1379 5.45583 15.2264 5.46392 15.3074 5.49581C15.3885 5.52769 15.4587 5.58204 15.51 5.65248C15.5577 5.72481 15.5831 5.80957 15.5831 5.89623C15.5831 5.98289 15.5577 6.06765 15.51 6.13998C15.5965 6.14047 15.6809 6.1663 15.7529 6.21429C15.8249 6.26228 15.8812 6.33031 15.915 6.40998C15.9507 6.48909 15.9619 6.57707 15.9472 6.66261C15.9325 6.74815 15.8925 6.82733 15.8325 6.88998C15.8958 6.90374 15.9555 6.93104 16.0073 6.97001C16.0592 7.00897 16.102 7.05869 16.1329 7.11575C16.1637 7.1728 16.1818 7.23585 16.186 7.30057C16.1902 7.3653 16.1804 7.43016 16.1572 7.49073C16.1251 7.57232 16.0695 7.64254 15.9975 7.69248C16.0573 7.71781 16.1108 7.75601 16.1542 7.80436C16.1976 7.85271 16.2299 7.91003 16.2486 7.97225C16.2674 8.03446 16.2722 8.10004 16.2628 8.16434C16.2533 8.22863 16.2298 8.29005 16.194 8.34423C16.146 8.41741 16.0777 8.47501 15.9975 8.50998C16.068 8.55968 16.1224 8.6289 16.1541 8.70915C16.1858 8.78939 16.1934 8.87715 16.1758 8.96163C16.1583 9.0461 16.1165 9.12361 16.0555 9.18462C15.9944 9.24562 15.9169 9.28746 15.8325 9.30498C15.8921 9.36784 15.9323 9.44656 15.9482 9.53171C15.9642 9.61685 15.9552 9.7048 15.9225 9.78498C15.8874 9.86524 15.8297 9.93354 15.7565 9.9815C15.6832 10.0295 15.5975 10.055 15.51 10.055C15.5558 10.1285 15.579 10.2138 15.5768 10.3004C15.5746 10.387 15.5471 10.471 15.4976 10.5421C15.4481 10.6131 15.3788 10.6681 15.2983 10.7002C15.2179 10.7322 15.1298 10.74 15.045 10.7225C15.0759 10.8046 15.0818 10.8941 15.0617 10.9796C15.0417 11.0651 14.9967 11.1427 14.9325 11.2025C14.8698 11.2625 14.7906 11.3025 14.7051 11.3172C14.6195 11.3319 14.5316 11.3207 14.4525 11.285C14.4667 11.3709 14.4552 11.4591 14.4196 11.5385C14.3839 11.618 14.3255 11.6851 14.2519 11.7316C14.1782 11.778 14.0925 11.8017 14.0054 11.7996C13.9184 11.7976 13.8338 11.7699 13.7625 11.72C13.7593 11.8069 13.7306 11.891 13.6799 11.9617C13.6292 12.0324 13.5588 12.0866 13.4775 12.1175C13.3952 12.1475 13.3059 12.1528 13.2207 12.1328C13.1354 12.1128 13.0578 12.0684 12.9975 12.005C12.9756 12.0888 12.93 12.1645 12.8661 12.2231C12.8023 12.2816 12.7229 12.3205 12.6375 12.335C12.5513 12.3465 12.4637 12.3327 12.3851 12.2955C12.3066 12.2582 12.2406 12.199 12.195 12.125C12.1588 12.2001 12.1025 12.2638 12.0323 12.3088C11.9622 12.3538 11.8808 12.3785 11.7975 12.38L11.79 12.3125V12.3125Z" fill="#F3F3F3"/>
<path id="Vector_3" d="M11.9999 10.9925C12.388 10.9925 12.7722 10.9161 13.1308 10.7676C13.4893 10.6191 13.815 10.4014 14.0894 10.127C14.3638 9.85262 14.5815 9.52687 14.73 9.16835C14.8785 8.80983 14.9549 8.42558 14.9549 8.03752C14.9549 7.64946 14.8785 7.26521 14.73 6.90669C14.5815 6.54817 14.3638 6.22242 14.0894 5.94802C13.815 5.67362 13.4893 5.45596 13.1308 5.30746C12.7722 5.15895 12.388 5.08252 11.9999 5.08252C11.2162 5.08252 10.4646 5.39385 9.91042 5.94802C9.35625 6.50219 9.04492 7.2538 9.04492 8.03752C9.04492 8.82123 9.35625 9.57285 9.91042 10.127C10.4646 10.6812 11.2162 10.9925 11.9999 10.9925V10.9925Z" fill="#338AF3"/>
<path id="Vector_4" d="M12.6448 7.04005C12.7198 6.98461 12.7806 6.91224 12.8223 6.82882C12.864 6.7454 12.8854 6.65331 12.8848 6.56005V6.26755C12.8848 6.1117 12.8234 5.96212 12.7139 5.85122C12.6044 5.74032 12.4556 5.67702 12.2998 5.67505H11.7073C11.5501 5.67505 11.3994 5.73747 11.2883 5.84859C11.1772 5.9597 11.1148 6.11041 11.1148 6.26755V6.56005C11.1159 6.65299 11.1381 6.74447 11.1796 6.82761C11.2212 6.91075 11.2811 6.98338 11.3548 7.04005L10.8223 12.5C11.1664 12.7369 11.5848 12.8409 11.9998 12.7925C12.417 12.84 12.8375 12.7362 13.1848 12.5L12.6448 7.04005V7.04005Z" fill="#BDBCC1"/>
<path id="Vector_5" d="M12.0002 5.67505L12.5102 7.25755H14.1752L12.8327 8.23255L13.3427 9.80755L12.0002 8.83255L10.6577 9.80755L11.1677 8.23255L9.8252 7.25755H11.4902L12.0002 5.67505Z" fill="#F0F0F0"/>
</g>
</g>
<defs>
<clipPath id="clip0_2253_3233">
<rect width="24" height="16" rx="4" fill="white"/>
</clipPath>
</defs>
</svg>
