<svg width="auto" height="auto" viewBox="0 0 24 16" fill="none" xmlns="http://www.w3.org/2000/svg">
<g id="MV">
<g clip-path="url(#clip0_2253_3269)">
<path id="Vector" d="M24 -0.00250244H0V15.995H24V-0.00250244Z" fill="#D80027"/>
<path id="Vector_2" d="M17.2128 4.17505H6.78027V11.825H17.2128V4.17505Z" fill="#6DA544"/>
<path id="Vector_3" d="M13.2902 10.25C12.9506 10.2451 12.6165 10.1633 12.3129 10.0109C12.0094 9.85846 11.7443 9.63928 11.5376 9.3698C11.3308 9.10032 11.1878 8.78753 11.1191 8.45488C11.0505 8.12224 11.0581 7.77837 11.1413 7.44906C11.2245 7.11975 11.3811 6.81356 11.5995 6.55343C11.8179 6.2933 12.0924 6.086 12.4023 5.94706C12.7123 5.80812 13.0497 5.74116 13.3892 5.75119C13.7287 5.76122 14.0615 5.84798 14.3627 6.00497C13.8456 5.49381 13.1473 5.20801 12.4202 5.20997C11.6822 5.20997 10.9745 5.50313 10.4527 6.02495C9.93085 6.54677 9.6377 7.25451 9.6377 7.99247C9.6377 8.73044 9.93085 9.43818 10.4527 9.96C10.9745 10.4818 11.6822 10.775 12.4202 10.775C13.1473 10.7769 13.8456 10.4911 14.3627 9.97997C14.0332 10.1578 13.6646 10.2506 13.2902 10.25V10.25Z" fill="#F0F0F0"/>
</g>
</g>
<defs>
<clipPath id="clip0_2253_3269">
<rect width="24" height="16" rx="4" fill="white"/>
</clipPath>
</defs>
</svg>
