<svg width="auto" height="auto" viewBox="0 0 24 16" fill="none" xmlns="http://www.w3.org/2000/svg">
<g id="MX">
<g clip-path="url(#clip0_2253_3278)">
<path id="Vector" d="M15.9975 -0.00250244H0V16.0025H24V-0.00250244H15.9975Z" fill="#D80027"/>
<path id="Vector_2" d="M8.0025 -0.00250244H0V15.995H8.0025V-0.00250244Z" fill="#6DA544"/>
<path id="Vector_3" d="M16.0049 -0.00250244H8.00244V15.995H16.0049V-0.00250244Z" fill="#F0F0F0"/>
<path id="Vector_4" d="M9.75 8C9.75 8.59674 9.98705 9.16903 10.409 9.59099C10.831 10.0129 11.4033 10.25 12 10.25C12.5967 10.25 13.169 10.0129 13.591 9.59099C14.0129 9.16903 14.25 8.59674 14.25 8V7.25H9.75V8Z" fill="#6DA544"/>
<path id="Vector_5" d="M15 6.5H12.75C12.75 6.30109 12.671 6.11032 12.5303 5.96967C12.3897 5.82902 12.1989 5.75 12 5.75C11.8011 5.75 11.6103 5.82902 11.4697 5.96967C11.329 6.11032 11.25 6.30109 11.25 6.5H9C9 6.69891 9.07902 6.88968 9.21967 7.03033C9.36032 7.17098 9.55109 7.25 9.75 7.25C9.75 7.44891 9.82902 7.63968 9.96967 7.78033C10.1103 7.92098 10.3011 8 10.5 8C10.5 8.19891 10.579 8.38968 10.7197 8.53033C10.8603 8.67098 11.0511 8.75 11.25 8.75H12.75C12.9489 8.75 13.1397 8.67098 13.2803 8.53033C13.421 8.38968 13.5 8.19891 13.5 8C13.6989 8 13.8897 7.92098 14.0303 7.78033C14.171 7.63968 14.25 7.44891 14.25 7.25C14.4489 7.25 14.6397 7.17098 14.7803 7.03033C14.921 6.88968 15 6.69891 15 6.5Z" fill="#FF9811"/>
</g>
</g>
<defs>
<clipPath id="clip0_2253_3278">
<rect width="24" height="16" rx="4" fill="white"/>
</clipPath>
</defs>
</svg>
