<svg width="auto" height="auto" viewBox="0 0 24 16" fill="none" xmlns="http://www.w3.org/2000/svg">
<g id="NC">
<g clip-path="url(#clip0_2253_3305)">
<path id="Vector" d="M24 -0.00250244H0V15.995H24V-0.00250244Z" fill="#ED4135"/>
<path id="Vector_2" d="M24 -0.00250244H0V5.33H24V-0.00250244Z" fill="#0035AD"/>
<path id="Vector_3" d="M24 10.6625H0V15.995H24V10.6625Z" fill="#6DA544"/>
<path id="Vector_4" d="M9 11.75C9.99456 11.75 10.9484 11.3549 11.6517 10.6517C12.3549 9.94839 12.75 8.99456 12.75 8C12.75 7.00544 12.3549 6.05161 11.6517 5.34835C10.9484 4.64509 9.99456 4.25 9 4.25C8.00544 4.25 7.05161 4.64509 6.34835 5.34835C5.64509 6.05161 5.25 7.00544 5.25 8C5.25 8.99456 5.64509 9.94839 6.34835 10.6517C7.05161 11.3549 8.00544 11.75 9 11.75Z" fill="#FAE600"/>
</g>
</g>
<defs>
<clipPath id="clip0_2253_3305">
<rect width="24" height="16" rx="4" fill="white"/>
</clipPath>
</defs>
</svg>
