<svg width="auto" height="auto" viewBox="0 0 24 16" fill="none" xmlns="http://www.w3.org/2000/svg">
<g id="NP">
<g clip-path="url(#clip0_2253_3336)">
<path id="Vector" d="M24 -0.00250244H0V15.995H24V-0.00250244Z" fill="#F0F0F0"/>
<path id="Vector_2" d="M0 16.0025V-0.00250244L13.1475 8.1875H4.11L12.7125 16.0025H0Z" fill="#0052B4"/>
<path id="Vector_3" d="M11.475 7.71498L0.47998 0.859985V15.5225H11.475L2.86498 7.71498H11.475Z" fill="#D80027"/>
<path id="Vector_4" d="M4.59012 11.21L3.90762 10.8875L4.27512 10.22L3.53262 10.37L3.43512 9.61252L2.91762 10.1675L2.40012 9.61252L2.31012 10.37L1.56762 10.22L1.92762 10.8875L1.24512 11.21L1.92762 11.5325L1.56762 12.1925L2.31012 12.05L2.40012 12.8L2.91762 12.245L3.43512 12.8L3.53262 12.05L4.27512 12.1925L3.90762 11.5325L4.59012 11.21ZM4.14012 4.98502L3.63762 4.75252L3.90762 4.27252L3.36762 4.37002L3.29262 3.83002L2.91762 4.22752L2.54262 3.83002L2.47512 4.37002L1.93512 4.27252L2.19762 4.75252L1.70262 4.98502L2.91762 5.22502L4.14012 4.98502V4.98502ZM4.38012 5.00002C4.38012 5.3879 4.22603 5.75989 3.95176 6.03416C3.67749 6.30843 3.3055 6.46252 2.91762 6.46252C2.52974 6.46252 2.15775 6.30843 1.88347 6.03416C1.6092 5.75989 1.45512 5.3879 1.45512 5.00002" fill="#F0F0F0"/>
</g>
</g>
<defs>
<clipPath id="clip0_2253_3336">
<rect width="24" height="16" rx="4" fill="white"/>
</clipPath>
</defs>
</svg>
