<svg width="auto" height="auto" viewBox="0 0 24 16" fill="none" xmlns="http://www.w3.org/2000/svg">
<g id="NZ">
<g clip-path="url(#clip0_2253_3362)">
<path id="Vector" d="M24 -0.00250244H0V15.995H24V-0.00250244Z" fill="#0052B4"/>
<path id="Vector_2" d="M19.9351 6.95747L20.0926 7.44497H20.6101L20.1901 7.74497L20.3551 8.23997L19.9351 7.93247L19.5226 8.23997L19.6801 7.74497L19.2601 7.44497H19.7776L19.9351 6.95747V6.95747ZM18.0976 10.475L18.3376 11.21H19.1101L18.4876 11.66L18.7201 12.395L18.0976 11.945L17.4751 12.395L17.7151 11.66L17.0926 11.21H17.8576L18.0976 10.475V10.475ZM18.1651 4.71497L18.3676 5.32997H19.0051L18.4876 5.70497L18.6901 6.31997L18.1651 5.93747L17.6476 6.31997L17.8501 5.70497L17.3251 5.32997H17.9701L18.1651 4.71497ZM16.4026 6.93497L16.6351 7.66997H17.4076L16.7851 8.11997L17.0251 8.85497L16.4026 8.40497L15.7801 8.85497L16.0126 8.11997L15.3901 7.66997H16.1626L16.4026 6.93497V6.93497Z" fill="#D80027"/>
<path id="Vector_3" d="M12 -0.00250244V1.43L9.885 2.6075H12V5.39H9.225L12 6.9275V8H10.7475L7.305 6.0875V8H4.695V5.72L0.6 8H0V6.5675L2.115 5.39H0V2.6075H2.7675L0 1.07V-0.00250244H1.2525L4.695 1.9175V-0.00250244H7.305V2.2775L11.4 -0.00250244H12V-0.00250244Z" fill="#F0F0F0"/>
<path id="Vector_4" d="M6.75 -0.00250244H5.25V3.2525H0V4.7525H5.25V8H6.75V4.7525H12V3.2525H6.75V-0.00250244Z" fill="#D80027"/>
<path id="Vector_5" d="M7.30469 5.39001L11.9997 8.00001V7.26501L8.63219 5.39001H7.30469Z" fill="#0052B4"/>
<path id="Vector_6" d="M7.30469 5.39001L11.9997 8.00001V7.26501L8.63219 5.39001H7.30469Z" fill="#F0F0F0"/>
<path id="Vector_7" d="M7.305 5.39001L12 8.00001V7.26501L8.6325 5.39001H7.305ZM3.3675 5.39001L0 7.26501V8.00001L4.695 5.39001H3.3675Z" fill="#D80027"/>
<path id="Vector_8" d="M4.695 2.6075L0 -0.00250244V0.739998L3.3675 2.6075H4.695Z" fill="#0052B4"/>
<path id="Vector_9" d="M4.695 2.6075L0 -0.00250244V0.739998L3.3675 2.6075H4.695Z" fill="#F0F0F0"/>
<path id="Vector_10" d="M4.695 2.6075L0 -0.00250244V0.739998L3.3675 2.6075H4.695ZM8.6325 2.6075L12 0.739998V-0.00250244L7.305 2.6075H8.6325Z" fill="#D80027"/>
</g>
</g>
<defs>
<clipPath id="clip0_2253_3362">
<rect width="24" height="16" rx="4" fill="white"/>
</clipPath>
</defs>
</svg>
