<svg width="auto" height="auto" viewBox="0 0 24 16" fill="none" xmlns="http://www.w3.org/2000/svg">
<g id="PH">
<g clip-path="url(#clip0_2253_3398)">
<path id="Vector" d="M24 -0.00250244H0V15.995H24V-0.00250244Z" fill="#F0F0F0"/>
<path id="Vector_2" d="M24 -0.00250244V8H12L0 -0.00250244H24Z" fill="#0052B4"/>
<path id="Vector_3" d="M24 8V16.0025H0L12 8H24Z" fill="#D80027"/>
<path id="Vector_4" d="M7.58994 7.99995L6.30744 7.39995L6.98994 6.16245L5.60244 6.42495L5.42994 5.02245L4.46244 6.04995L3.49494 5.02245L3.31494 6.42495L1.92744 6.16245L2.60994 7.39995L1.32744 7.99995L2.60994 8.59995L1.92744 9.83745L3.31494 9.57495L3.49494 10.9775L4.46244 9.94245L5.42994 10.9775L5.60244 9.57495L6.98994 9.83745L6.30744 8.59995L7.58994 7.99995V7.99995ZM1.01994 1.51245L1.44744 2.10495L2.14494 1.88745L1.70994 2.47245L2.13744 3.07245L1.43994 2.83995L1.00494 3.42495L1.01244 2.69745L0.314941 2.46495L1.01244 2.24745L1.01994 1.51245V1.51245ZM1.01994 12.575L1.44744 13.1675L2.14494 12.9425L1.70994 13.535L2.13744 14.1275L1.43994 13.895L1.00494 14.4875L1.01244 13.7525L0.314941 13.5275L1.01244 13.3025L1.01994 12.575V12.575ZM9.86244 7.03995L9.43494 7.63995L8.73744 7.41495L9.17244 8.00745L8.74494 8.59995L9.44244 8.36745L9.87744 8.95995L9.86994 8.22495L10.5674 7.99245L9.86994 7.77495L9.86244 7.03995Z" fill="#FFDA44"/>
</g>
</g>
<defs>
<clipPath id="clip0_2253_3398">
<rect width="24" height="16" rx="4" fill="white"/>
</clipPath>
</defs>
</svg>
