<svg width="auto" height="auto" viewBox="0 0 24 16" fill="none" xmlns="http://www.w3.org/2000/svg">
<g id="PK">
<g clip-path="url(#clip0_2253_3403)">
<path id="Vector" d="M18.4426 3.995L19.2676 4.88L20.3626 4.37L19.7701 5.4275L20.5951 6.3125L19.4101 6.07999L18.8251 7.13L18.6826 5.93L17.4976 5.6975L18.5926 5.195L18.4426 3.995Z" fill="#F0F0F0"/>
<path id="Vector_2" d="M24 -0.00250244H0V15.995H24V-0.00250244Z" fill="#F0F0F0"/>
<path id="Vector_3" d="M24 -0.00250244H6V15.995H24V-0.00250244Z" fill="#496E2D"/>
<path id="Vector_4" d="M16.9653 10.0025C16.5644 10.29 16.1033 10.4825 15.6169 10.5652C15.1305 10.6478 14.6317 10.6186 14.1583 10.4798C13.6849 10.3409 13.2494 10.096 12.8848 9.76363C12.5202 9.43128 12.2361 9.02023 12.0541 8.56169C11.8721 8.10315 11.797 7.60917 11.8344 7.11724C11.8718 6.62532 12.0208 6.14839 12.2701 5.72266C12.5194 5.29693 12.8624 4.93359 13.2731 4.66023C13.6837 4.38686 14.1513 4.21066 14.6403 4.145C13.8624 4.03052 13.068 4.14809 12.3566 4.48298C11.6452 4.81787 11.0484 5.3552 10.6409 6.02767C10.2334 6.70015 10.0334 7.47789 10.0659 8.26351C10.0984 9.04913 10.3619 9.8077 10.8235 10.4442C11.2843 11.0811 11.9225 11.5679 12.6585 11.8439C13.3945 12.1199 14.1955 12.1728 14.9613 11.996C15.7272 11.8192 16.424 11.4205 16.9645 10.8499C17.505 10.2792 17.8653 9.56183 18.0003 8.7875C17.7594 9.27074 17.4041 9.68783 16.9653 10.0025V10.0025ZM16.9053 4.1075L17.7228 4.985L18.8178 4.4825L18.2253 5.5325L19.0503 6.4175L17.8653 6.185L17.2803 7.235L17.1378 6.0425L15.9528 5.81L17.0478 5.3L16.9053 4.1075V4.1075Z" fill="#F0F0F0"/>
</g>
</g>
<defs>
<clipPath id="clip0_2253_3403">
<rect width="24" height="16" rx="4" fill="white"/>
</clipPath>
</defs>
</svg>
