<svg width="auto" height="auto" viewBox="0 0 24 16" fill="none" xmlns="http://www.w3.org/2000/svg">
<g id="PW">
<g clip-path="url(#clip0_2253_3434)">
<path id="Vector" d="M24 -0.00250244H0V15.995H24V-0.00250244Z" fill="#338AF3"/>
<path id="Vector_2" d="M13.7442 8.00751C13.7451 7.55051 13.6559 7.09781 13.4819 6.67526C13.3078 6.2527 13.0522 5.86857 12.7297 5.5448C12.4072 5.22102 12.024 4.96395 11.6022 4.78824C11.1803 4.61254 10.7279 4.52164 10.2709 4.52076C9.81394 4.51987 9.36124 4.60901 8.93868 4.78307C8.51613 4.95714 8.132 5.21273 7.80823 5.53525C7.48445 5.85777 7.22737 6.24091 7.05167 6.66278C6.87596 7.08466 6.78507 7.53701 6.78419 7.99401C6.7824 8.91696 7.14732 9.80282 7.79868 10.4567C8.45004 11.1106 9.33448 11.479 10.2574 11.4808C11.1804 11.4825 12.0663 11.1176 12.7201 10.4663C13.374 9.8149 13.7424 8.93046 13.7442 8.00751V8.00751Z" fill="#FFDA44"/>
</g>
</g>
<defs>
<clipPath id="clip0_2253_3434">
<rect width="24" height="16" rx="4" fill="white"/>
</clipPath>
</defs>
</svg>
