<svg width="auto" height="auto" viewBox="0 0 24 16" fill="none" xmlns="http://www.w3.org/2000/svg">
<g id="RS">
<g clip-path="url(#clip0_2253_3456)">
<path id="Vector" d="M24 -0.00250244H0V15.995H24V-0.00250244Z" fill="#0052B4"/>
<path id="Vector_2" d="M24 -0.00250244H0V5.33H24V-0.00250244Z" fill="#D80027"/>
<path id="Vector_3" d="M24 10.67H0V16.0025H24V10.67Z" fill="#F0F0F0"/>
<path id="Vector_4" d="M6.06738 4.52002V8.51002C6.06738 10.76 9.06738 11.51 9.06738 11.51C9.06738 11.51 12.0299 10.8125 12.0299 8.51002V4.52002H6.06738Z" fill="#D80027"/>
<path id="Vector_5" d="M7.29777 5.21751H10.7778V3.83001L10.0803 4.17501L9.03777 3.13251L7.99527 4.17501L7.29777 3.83001V5.21751ZM11.3028 9.06501L9.04527 6.80751L6.78027 9.06501L7.52277 9.80751L9.04527 8.28501L10.5678 9.80751L11.3028 9.06501Z" fill="#FFDA44"/>
<path id="Vector_6" d="M11.3025 6.9575H10.2525C10.3128 6.8499 10.3439 6.72835 10.3425 6.605C10.3447 6.44914 10.2941 6.29712 10.1989 6.17371C10.1036 6.05029 9.96943 5.96276 9.81811 5.92536C9.66678 5.88797 9.50725 5.90291 9.3655 5.96776C9.22376 6.03261 9.10815 6.14355 9.0375 6.2825C8.97718 6.17188 8.88832 6.07944 8.78016 6.01481C8.672 5.95017 8.5485 5.91571 8.4225 5.915C8.2388 5.91499 8.06252 5.98745 7.93193 6.11663C7.80133 6.24582 7.72698 6.42131 7.725 6.605C7.72791 6.72875 7.76141 6.84985 7.8225 6.9575H6.75C6.76331 7.14718 6.84817 7.32472 6.9874 7.45421C7.12664 7.5837 7.30986 7.65547 7.5 7.655C7.50198 7.83869 7.57633 8.01418 7.70693 8.14337C7.83752 8.27255 8.0138 8.34501 8.1975 8.345C8.19679 8.50771 8.2536 8.66543 8.3579 8.79031C8.4622 8.9152 8.60727 8.9992 8.7675 9.0275L8.19 10.25C8.46 10.3647 8.751 10.4232 9.045 10.4225C9.3363 10.4233 9.62471 10.3646 9.8925 10.25L9.345 9.0125C9.50523 8.9842 9.6503 8.9002 9.7546 8.77531C9.8589 8.65043 9.91571 8.49271 9.915 8.33C10.0987 8.33001 10.275 8.25755 10.4056 8.12837C10.5362 7.99918 10.6105 7.82369 10.6125 7.64C10.7897 7.62646 10.9564 7.5504 11.0828 7.4254C11.2091 7.3004 11.287 7.13458 11.3025 6.9575V6.9575Z" fill="#F0F0F0"/>
</g>
</g>
<defs>
<clipPath id="clip0_2253_3456">
<rect width="24" height="16" rx="4" fill="white"/>
</clipPath>
</defs>
</svg>
