<svg width="auto" height="auto" viewBox="0 0 24 16" fill="none" xmlns="http://www.w3.org/2000/svg">
<g id="RW">
<g clip-path="url(#clip0_2253_3468)">
<path id="Vector" d="M24 -0.00250244H0V15.995H24V-0.00250244Z" fill="#338AF3"/>
<path id="Vector_2" d="M24 8H0V11.825H24V8Z" fill="#FFDA44"/>
<path id="Vector_3" d="M24 11.825H0V16.0025H24V11.825Z" fill="#496E2D"/>
<path id="Vector_4" d="M13.0425 4.68497L14.0175 5.14247L13.5 6.08747L14.5575 5.88497L14.6925 6.95747L15.435 6.16997L16.1775 6.95747L16.305 5.88497L17.37 6.08747L16.845 5.14247L17.8275 4.68497L16.845 4.21997L17.37 3.27497L16.305 3.47747L16.1775 2.40497L15.435 3.19247L14.6925 2.40497L14.5575 3.47747L13.5 3.27497L14.0175 4.21997L13.0425 4.68497V4.68497Z" fill="#FFDA44"/>
</g>
</g>
<defs>
<clipPath id="clip0_2253_3468">
<rect width="24" height="16" rx="4" fill="white"/>
</clipPath>
</defs>
</svg>
