<svg width="auto" height="auto" viewBox="0 0 24 16" fill="none" xmlns="http://www.w3.org/2000/svg">
<g id="SA">
<g clip-path="url(#clip0_2253_3473)">
<path id="Vector" d="M24 -0.00250244H0V15.995H24V-0.00250244Z" fill="#6DA544"/>
<path id="Vector_2" d="M8.6025 9.56752C8.60052 9.70308 8.62538 9.83769 8.67566 9.9636C8.72594 10.0895 8.80064 10.2042 8.89546 10.3011C8.99027 10.398 9.10333 10.4752 9.22811 10.5282C9.35289 10.5812 9.48693 10.609 9.6225 10.61H12.675C12.6728 10.8337 12.7577 11.0495 12.9116 11.2118C13.0655 11.3741 13.2765 11.4703 13.5 11.48H14.55C14.7774 11.4761 14.9941 11.3824 15.1528 11.2195C15.3116 11.0565 15.3995 10.8375 15.3975 10.61V9.56752H8.6025V9.56752ZM15.48 4.52002V6.95752C15.482 7.13924 15.4123 7.31443 15.2859 7.44502C15.1595 7.57562 14.9867 7.65108 14.805 7.65502V8.69752C15.2599 8.68963 15.6932 8.50235 16.0107 8.17646C16.3282 7.85057 16.504 7.41246 16.5 6.95752V4.52002H15.48ZM8.1825 6.95752C8.18349 7.04813 8.16662 7.13805 8.13286 7.22215C8.09909 7.30624 8.0491 7.38286 7.98572 7.44763C7.92234 7.5124 7.84683 7.56405 7.76349 7.59964C7.68015 7.63522 7.59061 7.65404 7.5 7.65502V8.69752C7.72561 8.69478 7.94846 8.64758 8.15581 8.55861C8.36315 8.46964 8.55092 8.34066 8.70836 8.17904C8.86579 8.01742 8.98981 7.82635 9.07332 7.61674C9.15682 7.40714 9.19817 7.18312 9.195 6.95752V4.52002H8.1825V6.95752Z" fill="#F0F0F0"/>
<path id="Vector_3" d="M14.9701 4.52002H13.9501V6.95752H14.9701V4.52002ZM12.4276 5.91502C12.4258 5.96018 12.407 6.00299 12.375 6.03495C12.3431 6.06691 12.3003 6.08567 12.2551 6.08752C12.2094 6.08752 12.1655 6.06935 12.1331 6.037C12.1008 6.00465 12.0826 5.96077 12.0826 5.91502V4.52002H11.0626V5.91502C11.0679 5.94015 11.0676 5.96615 11.0616 5.99113C11.0556 6.01611 11.0441 6.03943 11.0279 6.05939C11.0117 6.07935 10.9913 6.09544 10.9681 6.1065C10.9449 6.11755 10.9195 6.12329 10.8939 6.12329C10.8682 6.12329 10.8428 6.11755 10.8196 6.1065C10.7964 6.09544 10.776 6.07935 10.7598 6.05939C10.7437 6.03943 10.7321 6.01611 10.7261 5.99113C10.7201 5.96615 10.7198 5.94015 10.7251 5.91502V4.52002H9.7051V5.91502C9.7031 6.23398 9.82738 6.54078 10.0508 6.76843C10.2742 6.99607 10.5787 7.12606 10.8976 7.13002C11.1397 7.1291 11.3755 7.05311 11.5726 6.91252C11.7721 7.05352 12.0106 7.12927 12.2551 7.13002H12.4051C12.3701 7.27958 12.2861 7.41317 12.1666 7.50963C12.047 7.60609 11.8987 7.65989 11.7451 7.66252V8.70502C11.9707 8.70218 12.1935 8.65491 12.4008 8.56591C12.6081 8.47691 12.7958 8.34792 12.9532 8.18633C13.1107 8.02473 13.2347 7.83369 13.3182 7.62413C13.4018 7.41457 13.4432 7.1906 13.4401 6.96502V4.52002H12.4276V5.91502V5.91502Z" fill="#F0F0F0"/>
<path id="Vector_4" d="M11.2351 7.65497H9.70508V8.69747H11.2351V7.65497Z" fill="#F0F0F0"/>
</g>
</g>
<defs>
<clipPath id="clip0_2253_3473">
<rect width="24" height="16" rx="4" fill="white"/>
</clipPath>
</defs>
</svg>
