<svg width="auto" height="auto" viewBox="0 0 24 16" fill="none" xmlns="http://www.w3.org/2000/svg">
<g id="SG">
<g clip-path="url(#clip0_2253_3497)">
<path id="Vector" d="M24 -0.00250244H0V15.995H24V-0.00250244Z" fill="#F0F0F0"/>
<path id="Vector_2" d="M24 -0.00250244H0V8H24V-0.00250244Z" fill="#D80027"/>
<path id="Vector_3" d="M3.91491 4.00251C3.91278 3.44701 4.10163 2.90766 4.44981 2.47482C4.79799 2.04198 5.28436 1.74195 5.82741 1.62501C5.47348 1.55022 5.10731 1.5554 4.75563 1.64016C4.40396 1.72492 4.07564 1.88713 3.79464 2.11496C3.51365 2.34278 3.28706 2.63047 3.13143 2.95702C2.97579 3.28358 2.89502 3.64076 2.89502 4.00251C2.89502 4.36426 2.97579 4.72144 3.13143 5.048C3.28706 5.37455 3.51365 5.66224 3.79464 5.89006C4.07564 6.11788 4.40396 6.2801 4.75563 6.36486C5.10731 6.44962 5.47348 6.4548 5.82741 6.38001C5.28565 6.26052 4.80087 5.9598 4.45314 5.52752C4.10541 5.09525 3.91554 4.55729 3.91491 4.00251ZM7.04241 1.73751L7.21491 2.27001H7.77741L7.31991 2.60001L7.49241 3.13251L7.04241 2.80251L6.59241 3.13251L6.76491 2.60001L6.31491 2.27001H6.86991L7.04241 1.73751V1.73751Z" fill="#F0F0F0"/>
<path id="Vector_4" d="M5.68502 2.77997L5.85752 3.31247H6.42002L5.97002 3.64247L6.14252 4.17497L5.68502 3.84497L5.23502 4.17497L5.40752 3.64247L4.95752 3.31247H5.51252L5.68502 2.77997V2.77997ZM8.40002 2.77997L8.57252 3.31247H9.12752L8.67752 3.64247L8.85002 4.17497L8.40002 3.84497L7.95002 4.17497L8.12252 3.64247L7.66502 3.31247H8.22752L8.40002 2.77997V2.77997ZM7.87502 4.34747L8.04752 4.87997H8.61002L8.16002 5.20997L8.33252 5.74247L7.87502 5.41247L7.42502 5.74247L7.59752 5.20997L7.14752 4.87997H7.70252L7.87502 4.34747V4.34747ZM6.21002 4.34747L6.38252 4.87997H6.94502L6.48752 5.20997L6.66002 5.74247L6.21002 5.41247L5.76002 5.74247L5.93252 5.20997L5.47502 4.87997H6.03752L6.21002 4.34747V4.34747Z" fill="#F0F0F0"/>
</g>
</g>
<defs>
<clipPath id="clip0_2253_3497">
<rect width="24" height="16" rx="4" fill="white"/>
</clipPath>
</defs>
</svg>
