<svg width="auto" height="auto" viewBox="0 0 24 16" fill="none" xmlns="http://www.w3.org/2000/svg">
<g id="SI">
<g clip-path="url(#clip0_2253_3515)">
<path id="Vector" d="M24 -0.00250244H0V15.995H24V-0.00250244Z" fill="#F0F0F0"/>
<path id="Vector_2" d="M24 5.33002H0V10.6625H24V5.33002V5.33002Z" fill="#0052B4"/>
<path id="Vector_3" d="M24 10.67H0V16.0025H24V10.67Z" fill="#D80027"/>
<path id="Vector_4" d="M10.95 5.21752V5.91502C10.95 7.51252 8.865 8.00002 8.865 8.00002C8.865 8.00002 6.75 7.51252 6.75 5.91502V3.14752H10.92L10.95 5.21752V5.21752Z" fill="#F0F0F0"/>
<path id="Vector_5" d="M10.95 5.21752V5.91502C10.95 7.51252 8.865 8.00002 8.865 8.00002C8.865 8.00002 6.75 7.51252 6.75 5.91502V3.14752H10.92L10.95 5.21752V5.21752Z" fill="#0052B4"/>
<path id="Vector_6" d="M10.95 5.2175V5.915C10.95 7.5125 8.865 8 8.865 8C8.865 8 6.75 7.5125 6.75 5.915V5.2175L7.4475 5.915L8.8425 4.8725L10.23 5.915L10.95 5.2175V5.2175Z" fill="#F0F0F0"/>
</g>
</g>
<defs>
<clipPath id="clip0_2253_3515">
<rect width="24" height="16" rx="4" fill="white"/>
</clipPath>
</defs>
</svg>
