<svg width="auto" height="auto" viewBox="0 0 24 16" fill="none" xmlns="http://www.w3.org/2000/svg">
<g id="SM">
<g clip-path="url(#clip0_2253_3534)">
<path id="Vector" d="M24 -0.00250244H0V15.995H24V-0.00250244Z" fill="#338AF3"/>
<path id="Vector_2" d="M24 -0.00250244V7.8125L0 8.0075V-0.00250244H24Z" fill="#F0F0F0"/>
<path id="Vector_3" d="M15.1723 5.51752L11.9998 8.69752L8.82731 5.51752C8.40103 6.14877 8.17375 6.89331 8.17481 7.65502V8.69752C8.1757 9.49455 8.42555 10.2714 8.88946 10.9195C9.35336 11.5676 10.0081 12.0547 10.7623 12.3125C10.6591 12.5105 10.6155 12.7342 10.6368 12.9565C10.6581 13.1788 10.7434 13.3902 10.8823 13.565L11.9998 12.65L13.1398 13.565C13.2801 13.3879 13.366 13.1739 13.3873 12.949C13.4086 12.7241 13.3643 12.4978 13.2598 12.2975C14.0025 12.032 14.6453 11.5438 15.1003 10.8995C15.5553 10.2553 15.8005 9.48628 15.8023 8.69752V7.65502C15.81 6.89565 15.5906 6.15131 15.1723 5.51752V5.51752Z" fill="#6DA544"/>
<path id="Vector_4" d="M12.0003 11.48C11.2629 11.478 10.5563 11.1842 10.0349 10.6628C9.51354 10.1414 9.21975 9.43485 9.21777 8.6975V7.655C9.21777 6.91703 9.51093 6.20929 10.0327 5.68747C10.5546 5.16565 11.2623 4.8725 12.0003 4.8725C12.7382 4.8725 13.446 5.16565 13.9678 5.68747C14.4896 6.20929 14.7828 6.91703 14.7828 7.655V8.6975C14.7808 9.43485 14.487 10.1414 13.9656 10.6628C13.4442 11.1842 12.7376 11.478 12.0003 11.48Z" fill="#FFDA44"/>
<path id="Vector_5" d="M13.7398 8.69748V7.65498C13.7398 7.1935 13.5564 6.75093 13.2301 6.42461C12.9038 6.0983 12.4612 5.91498 11.9998 5.91498C11.5383 5.91498 11.0957 6.0983 10.7694 6.42461C10.4431 6.75093 10.2598 7.1935 10.2598 7.65498V8.69748L11.9998 9.04248L13.7398 8.69748Z" fill="#338AF3"/>
<path id="Vector_6" d="M10.2598 8.69751C10.2598 9.15899 10.4431 9.60156 10.7694 9.92788C11.0957 10.2542 11.5383 10.4375 11.9998 10.4375C12.4612 10.4375 12.9038 10.2542 13.2301 9.92788C13.5564 9.60156 13.7398 9.15899 13.7398 8.69751H10.2598Z" fill="#6DA544"/>
<path id="Vector_7" d="M14.085 4.8725C14.085 4.59531 13.9755 4.32937 13.7802 4.13267C13.5849 3.93598 13.3197 3.82448 13.0425 3.8225C12.785 3.82521 12.5372 3.92113 12.345 4.0925V3.5H12.6975V2.75H12.345V2.435H11.655V2.75H11.3025V3.5H11.655V4.115C11.5068 3.98148 11.3234 3.89328 11.1266 3.86088C10.9298 3.82847 10.7278 3.85322 10.5446 3.93218C10.3614 4.01113 10.2047 4.14099 10.0931 4.30634C9.98154 4.47168 9.91973 4.66557 9.91504 4.865C9.91792 5.00701 9.95004 5.1469 10.0094 5.27594C10.0688 5.40498 10.1541 5.5204 10.26 5.615V6.23H13.74V5.615C13.8449 5.52115 13.9296 5.40691 13.989 5.27926C14.0483 5.1516 14.081 5.0132 14.085 4.8725Z" fill="#FFDA44"/>
</g>
</g>
<defs>
<clipPath id="clip0_2253_3534">
<rect width="24" height="16" rx="4" fill="white"/>
</clipPath>
</defs>
</svg>
