<svg width="auto" height="auto" viewBox="0 0 24 16" fill="none" xmlns="http://www.w3.org/2000/svg">
<g id="ST">
<g clip-path="url(#clip0_2253_3561)">
<path id="Vector" d="M24 -0.00250244H0V15.995H24V-0.00250244Z" fill="#FFDA44"/>
<path id="Vector_2" d="M24 -0.00250244H0V5.33H24V-0.00250244ZM24 10.67H0V16.0025H24V10.67Z" fill="#6DA544"/>
<path id="Vector_3" d="M12 8L0 16.0025V-0.00250244L12 8Z" fill="#D80027"/>
<path id="Vector_4" d="M14.1598 6.60498L14.5048 7.66998H15.6223L14.7148 8.32998L15.0598 9.39498L14.1598 8.73498L13.2523 9.39498L13.5973 8.32998L12.6973 7.66998H13.8148L14.1598 6.60498V6.60498ZM17.6398 6.60498L17.9848 7.66998H19.1023L18.1948 8.32998L18.5398 9.39498L17.6398 8.73498L16.7323 9.39498L17.0773 8.32998L16.1773 7.66998H17.2873L17.6398 6.60498V6.60498Z" fill="black"/>
</g>
</g>
<defs>
<clipPath id="clip0_2253_3561">
<rect width="24" height="16" rx="4" fill="white"/>
</clipPath>
</defs>
</svg>
