<svg width="auto" height="auto" viewBox="0 0 24 16" fill="none" xmlns="http://www.w3.org/2000/svg">
<g id="SV">
<g clip-path="url(#clip0_2253_3566)">
<path id="Vector" d="M24 -0.00250244H0V15.995H24V-0.00250244Z" fill="#F0F0F0"/>
<path id="Vector_2" d="M24 -0.00250244H0V5.33H24V-0.00250244ZM24 10.67H0V16.0025H24V10.67Z" fill="#0052B4"/>
<path id="Vector_3" d="M10.7178 8.27755L12.0003 6.05005L13.2828 8.27755H10.7178V8.27755Z" fill="#FFDA44"/>
<path id="Vector_4" d="M13.6726 9.01247L12.0001 9.84497L10.3276 9.01247V7.90247H13.6726V9.01247Z" fill="#6DA544"/>
<path id="Vector_5" d="M13.575 6.14752L12.9825 6.74002C13.1123 6.86839 13.215 7.02148 13.2845 7.19024C13.3541 7.359 13.3891 7.54 13.3875 7.72252C13.3617 8.07386 13.2039 8.40242 12.9458 8.64222C12.6878 8.88202 12.3485 9.0153 11.9963 9.0153C11.644 9.0153 11.3047 8.88202 11.0467 8.64222C10.7886 8.40242 10.6308 8.07386 10.605 7.72252C10.6048 7.53953 10.6412 7.35834 10.712 7.18961C10.7829 7.02088 10.8867 6.86802 11.0175 6.74002L10.425 6.14752C10.1058 6.46037 9.88706 6.86118 9.79659 7.29885C9.70611 7.73652 9.74803 8.19122 9.91699 8.60498C10.086 9.01873 10.3743 9.37279 10.7453 9.62202C11.1163 9.87125 11.5531 10.0043 12 10.0043C12.4469 10.0043 12.8837 9.87125 13.2547 9.62202C13.6257 9.37279 13.914 9.01873 14.083 8.60498C14.252 8.19122 14.2939 7.73652 14.2034 7.29885C14.1129 6.86118 13.8942 6.46037 13.575 6.14752V6.14752Z" fill="#FFDA44"/>
</g>
</g>
<defs>
<clipPath id="clip0_2253_3566">
<rect width="24" height="16" rx="4" fill="white"/>
</clipPath>
</defs>
</svg>
