<svg width="auto" height="auto" viewBox="0 0 24 16" fill="none" xmlns="http://www.w3.org/2000/svg">
<g id="SY">
<g clip-path="url(#clip0_2253_3580)">
<path id="Vector" d="M24 -0.00250244H0V15.995H24V-0.00250244Z" fill="#F0F0F0"/>
<path id="Vector_2" d="M24 -0.00250244H0V5.33H24V-0.00250244Z" fill="#D80027"/>
<path id="Vector_3" d="M24 10.67H0V16.0025H24V10.67Z" fill="black"/>
<path id="Vector_4" d="M8.78264 6.08752L9.21014 7.41502H10.6051L9.48014 8.24002L9.90764 9.56752L8.78264 8.74252L7.65014 9.56752L8.08514 8.24002L6.95264 7.41502H8.34764L8.78264 6.08752V6.08752ZM15.2176 6.08752L15.6526 7.41502H17.0476L15.9151 8.24002L16.3501 9.56752L15.2176 8.74252L14.0926 9.56752L14.5201 8.24002L13.3876 7.41502H14.7901L15.2176 6.08752V6.08752Z" fill="#6DA544"/>
</g>
</g>
<defs>
<clipPath id="clip0_2253_3580">
<rect width="24" height="16" rx="4" fill="white"/>
</clipPath>
</defs>
</svg>
