<svg width="auto" height="auto" viewBox="0 0 24 16" fill="none" xmlns="http://www.w3.org/2000/svg">
<g id="SZ">
<g clip-path="url(#clip0_2253_3585)">
<path id="Vector" d="M24 4.35498H0V11.615H24V4.35498Z" fill="#B20404"/>
<path id="Vector_2" d="M24 -0.00250244H0V4.355H24V-0.00250244ZM24 11.615H0V15.9725H24V11.615Z" fill="#3C5EBA"/>
<path id="Vector_3" d="M24 11.615H0V13.07H24V11.615ZM24 2.90002H0V4.35502H24V2.90002ZM21 7.58752H3V8.31502H21V7.58752V7.58752Z" fill="#FFDA00"/>
<path id="Vector_4" d="M16.5 8.00003C16.5 8.00003 15 10.9025 12 10.9025C9 10.9025 7.5 8.00003 7.5 8.00003C7.5 8.00003 9 5.09753 12 5.09753C15 5.09753 16.5 8.00003 16.5 8.00003Z" fill="black"/>
<path id="Vector_5" d="M16.4999 8.00003C16.4999 8.00003 14.9999 10.9025 11.9999 10.9025C11.2499 9.45503 11.6249 9.08753 11.9999 8.00003C12.3749 6.91253 11.2499 6.91253 11.9999 5.09753C14.9999 5.08253 16.4999 8.00003 16.4999 8.00003Z" fill="#F0F0F0"/>
</g>
</g>
<defs>
<clipPath id="clip0_2253_3585">
<rect width="24" height="16" rx="4" fill="white"/>
</clipPath>
</defs>
</svg>
