<svg width="auto" height="auto" viewBox="0 0 24 16" fill="none" xmlns="http://www.w3.org/2000/svg">
<g id="TM">
<g clip-path="url(#clip0_2253_3633)">
<path id="Vector" d="M24 -0.00250244H0V15.995H24V-0.00250244Z" fill="#496E2D"/>
<path id="Vector_2" d="M16.7475 4.60998C16.9324 4.08682 16.9345 3.51642 16.7533 2.99195C16.5721 2.46749 16.2184 2.01997 15.75 1.72249C15.924 1.74799 16.095 1.79074 16.26 1.84999C16.574 1.94802 16.8649 2.10858 17.1151 2.322C17.3654 2.53542 17.5699 2.79728 17.7163 3.09182C17.8627 3.38635 17.9479 3.70747 17.9669 4.03583C17.9859 4.36419 17.9383 4.69299 17.8269 5.00245C17.7155 5.31191 17.5426 5.59562 17.3186 5.83649C17.0946 6.07737 16.8242 6.27042 16.5237 6.40403C16.2231 6.53763 15.8986 6.60903 15.5698 6.61392C15.2409 6.61881 14.9144 6.5571 14.61 6.43249C14.4442 6.37331 14.2856 6.2953 14.1375 6.19999C14.6887 6.27228 15.248 6.15402 15.7227 5.86483C16.1974 5.57564 16.559 5.13289 16.7475 4.60998ZM14.5575 1.42249L14.22 1.86499L13.695 1.67749L14.01 2.14249L13.665 2.58499L14.205 2.42749L14.52 2.88499L14.535 2.32999L15.0675 2.17248L14.5425 1.98499L14.5575 1.42249V1.42249Z" fill="#F0F0F0"/>
<path id="Vector_3" d="M15.4875 2.86251L15.1425 3.30501L14.6175 3.11751L14.9325 3.58251L14.5875 4.02501L15.1275 3.86751L15.4425 4.32501L15.4575 3.77001L15.99 3.61251L15.465 3.42501L15.4875 2.86251V2.86251ZM12.93 1.94751L12.5925 2.39001L12.0675 2.20251L12.3825 2.66751L12.0375 3.11001L12.5775 2.95251L12.885 3.41001L12.9075 2.85501L13.44 2.69751L12.915 2.51001L12.93 1.94751V1.94751ZM12.8925 3.59751L12.555 4.04001L12.03 3.85251L12.345 4.31751L12 4.76001L12.5325 4.60251L12.855 5.06001L12.87 4.50501L13.4025 4.34751L12.8775 4.16001L12.8925 3.59751V3.59751ZM14.4675 4.16001L14.1225 4.60251L13.5975 4.41501L13.9125 4.88001L13.5675 5.32251L14.1075 5.16501L14.4225 5.62251L14.4375 5.06751L14.97 4.91001L14.445 4.72251L14.4675 4.16001V4.16001Z" fill="#F0F0F0"/>
<path id="Vector_4" d="M8.09254 -0.00250244H3.91504V15.995H8.09254V-0.00250244Z" fill="#D80027"/>
<path id="Vector_5" d="M5.50512 4.2125L4.80762 3.695V2.9525L5.50512 2.435H6.49512L7.19262 2.9525V3.695L6.49512 4.2125H5.50512Z" fill="#F0F0F0"/>
<path id="Vector_6" d="M6.00012 2.435H5.50512L4.80762 2.9525V3.3125H6.00012V2.435ZM6.00012 4.2125H6.49512L7.19262 3.695V3.3125H6.00012V4.2125Z" fill="#FF9811"/>
<path id="Vector_7" d="M5.50512 13.565L4.80762 13.0475V12.3125L5.50512 11.7875H6.49512L7.19262 12.3125V13.0475L6.49512 13.565H5.50512Z" fill="#F0F0F0"/>
<path id="Vector_8" d="M6.00012 11.7875H5.50512L4.80762 12.3125V12.6725H6.00012V11.7875ZM6.00012 13.565H6.49512L7.19262 13.0475V12.6725H6.00012V13.565Z" fill="#FF9811"/>
<path id="Vector_9" d="M5.50516 8.88499L4.80766 8.36749V7.63249L5.50516 7.10749H6.49516L7.19266 7.63249V8.36749L6.49516 8.88499H5.50516ZM7.21516 10.0325H6.91516V9.73249H6.37516L6.00016 9.34999L5.62516 9.73249H5.08516V10.0325H4.78516V10.64H5.08516V10.9475H5.62516L6.00016 11.3225L6.37516 10.9475H6.91516V10.64H7.21516V10.0325V10.0325ZM7.21516 5.35999H6.91516V5.05249H6.37516L6.00016 4.67749L5.62516 5.05249H5.08516V5.35999H4.78516V5.96749H5.08516V6.26749H5.62516L6.00016 6.64999L6.37516 6.26749H6.91516V5.96749H7.21516V5.35999V5.35999Z" fill="#496E2D"/>
<path id="Vector_10" d="M6.35277 7.655H5.65527V8.3525H6.35277V7.655ZM6.00027 6.005C6.04558 6.005 6.09044 5.99608 6.1323 5.97874C6.17416 5.9614 6.21219 5.93599 6.24423 5.90395C6.27626 5.87192 6.30167 5.83389 6.31901 5.79203C6.33635 5.75017 6.34527 5.70531 6.34527 5.66C6.34527 5.6147 6.33635 5.56983 6.31901 5.52798C6.30167 5.48612 6.27626 5.44809 6.24423 5.41605C6.21219 5.38401 6.17416 5.3586 6.1323 5.34126C6.09044 5.32393 6.04558 5.315 6.00027 5.315C5.90877 5.315 5.82102 5.35135 5.75632 5.41605C5.69162 5.48075 5.65527 5.5685 5.65527 5.66C5.65527 5.7515 5.69162 5.83925 5.75632 5.90395C5.82102 5.96865 5.90877 6.005 6.00027 6.005ZM6.00027 10.685C6.09177 10.685 6.17952 10.6487 6.24423 10.584C6.30893 10.5193 6.34527 10.4315 6.34527 10.34C6.34527 10.2485 6.30893 10.1608 6.24423 10.0961C6.17952 10.0314 6.09177 9.995 6.00027 9.995C5.90877 9.995 5.82102 10.0314 5.75632 10.0961C5.69162 10.1608 5.65527 10.2485 5.65527 10.34C5.65527 10.4315 5.69162 10.5193 5.75632 10.584C5.82102 10.6487 5.90877 10.685 6.00027 10.685V10.685Z" fill="#D80027"/>
</g>
</g>
<defs>
<clipPath id="clip0_2253_3633">
<rect width="24" height="16" rx="4" fill="white"/>
</clipPath>
</defs>
</svg>
