<svg width="auto" height="auto" viewBox="0 0 24 16" fill="none" xmlns="http://www.w3.org/2000/svg">
<g id="TV">
<g clip-path="url(#clip0_2253_3661)">
<path id="Vector" d="M24 -0.00250244H0V15.995H24V-0.00250244Z" fill="#338AF3"/>
<path id="Vector_2" d="M15.0827 11.6525L15.2552 12.185H15.8102L15.3602 12.515L15.5327 13.04L15.0827 12.7175L14.6252 13.04L14.7977 12.515L14.3477 12.185H14.9102L15.0827 11.6525V11.6525ZM19.5302 8.17252L19.7027 8.70502H20.2577L19.8077 9.03502L19.9802 9.56752L19.5302 9.23752L19.0802 9.56752L19.2527 9.03502L18.7952 8.70502H19.3577L19.5302 8.17252V8.17252ZM20.6477 2.96002L20.8202 3.48502H21.3752L20.9252 3.81502L21.0977 4.34752L20.6477 4.01752L20.1902 4.34752L20.3627 3.81502L19.9127 3.48502H20.4752L20.6477 2.96002V2.96002ZM20.9177 6.78502L21.0902 7.31752H21.6527L21.2027 7.64002L21.3752 8.17252L20.9177 7.84252L20.4677 8.17252L20.6402 7.64002L20.1902 7.31752H20.7452L20.9177 6.78502V6.78502ZM15.8777 10.4L16.3802 10.655L16.7702 10.2575L16.6877 10.8125L17.1827 11.0675L16.6352 11.15L16.5452 11.705L16.2902 11.21L15.7352 11.2925L16.1327 10.9025L15.8777 10.4V10.4ZM15.8777 8.31502L16.3802 8.57002L16.7702 8.17252L16.6877 8.72752L17.1827 8.98252L16.6352 9.06502L16.5452 9.62002L16.2902 9.11752L15.7352 9.20752L16.1327 8.81002L15.8777 8.31502V8.31502ZM17.6177 9.65002L18.1202 9.90502L18.5102 9.51502L18.4277 10.0625L18.9227 10.3175L18.3677 10.4075L18.2852 10.955L18.0302 10.46L17.4752 10.5425L17.8727 10.1525L17.6177 9.65002V9.65002ZM17.6177 5.18752L18.1202 5.43502L18.5102 5.04502L18.4277 5.59252L18.9227 5.84752L18.3677 5.93752L18.2852 6.48502L18.0302 5.99002L17.4752 6.08002L17.8727 5.68252L17.6177 5.18752V5.18752ZM19.3052 5.13502L19.8002 5.38252L20.1977 4.99252L20.1077 5.54002L20.6102 5.79502L20.0552 5.88502L19.9727 6.43252L19.7177 5.93752L19.1627 6.02752L19.5602 5.63002L19.3052 5.13502V5.13502Z" fill="#FFDA44"/>
<path id="Vector_3" d="M12 -0.00250244H0V8H12V-0.00250244Z" fill="#F0F0F0"/>
<path id="Vector_4" d="M6.75 -0.00250244H5.25V3.2525H0V4.7525H5.25V8H6.75V4.7525H12V3.2525H6.75V-0.00250244Z" fill="#D80027"/>
<path id="Vector_5" d="M9.22469 5.39001L11.9997 6.92751V5.39001H9.22469ZM7.30469 5.39001L11.9997 8.00001V7.26501L8.63219 5.39001H7.30469ZM10.7472 8.00001L7.30469 6.08751V8.00001H10.7472Z" fill="#0052B4"/>
<path id="Vector_6" d="M7.30469 5.39001L11.9997 8.00001V7.26501L8.63219 5.39001H7.30469Z" fill="#F0F0F0"/>
<path id="Vector_7" d="M7.30469 5.39001L11.9997 8.00001V7.26501L8.63219 5.39001H7.30469Z" fill="#D80027"/>
<path id="Vector_8" d="M2.115 5.39001L0 6.56751V5.39001H2.115ZM4.695 5.72001V8.00001H0.6L4.695 5.72001Z" fill="#0052B4"/>
<path id="Vector_9" d="M3.3675 5.39001L0 7.26501V8.00001L4.695 5.39001H3.3675Z" fill="#D80027"/>
<path id="Vector_10" d="M2.7675 2.6075L0 1.07V2.6075H2.7675V2.6075ZM4.695 2.6075L0 -0.00250244V0.739998L3.3675 2.6075H4.695ZM1.2525 -0.00250244L4.695 1.91V-0.00250244H1.2525Z" fill="#0052B4"/>
<path id="Vector_11" d="M4.695 2.6075L0 -0.00250244V0.739998L3.3675 2.6075H4.695Z" fill="#F0F0F0"/>
<path id="Vector_12" d="M4.695 2.6075L0 -0.00250244V0.739998L3.3675 2.6075H4.695Z" fill="#D80027"/>
<path id="Vector_13" d="M9.88469 2.6075L11.9997 1.43V2.6075H9.88469ZM7.30469 2.2775V-0.00250244H11.3997L7.30469 2.2775Z" fill="#0052B4"/>
<path id="Vector_14" d="M8.63219 2.6075L11.9997 0.739998V-0.00250244L7.30469 2.6075H8.63219Z" fill="#D80027"/>
</g>
</g>
<defs>
<clipPath id="clip0_2253_3661">
<rect width="24" height="16" rx="4" fill="white"/>
</clipPath>
</defs>
</svg>
