<svg width="auto" height="auto" viewBox="0 0 24 16" fill="none" xmlns="http://www.w3.org/2000/svg">
<g id="UG">
<g clip-path="url(#clip0_2253_3690)">
<path id="Vector" d="M24 -0.00250244H0V15.995H24V-0.00250244Z" fill="black"/>
<path id="Vector_2" d="M24 2.66748H0V5.33748H24V2.66748Z" fill="#FFDA44"/>
<path id="Vector_3" d="M24 5.33002H0V8.00002H24V5.33002Z" fill="#D80027"/>
<path id="Vector_4" d="M24 10.67H0V13.34H24V10.67Z" fill="#FFDA44"/>
<path id="Vector_5" d="M24 13.3325H0V16.0025H24V13.3325Z" fill="#D80027"/>
<path id="Vector_6" d="M12.0001 10.67C12.3507 10.67 12.6979 10.601 13.0218 10.4668C13.3458 10.3326 13.6401 10.1359 13.8881 9.88799C14.136 9.64006 14.3327 9.34572 14.4668 9.02178C14.601 8.69784 14.6701 8.35065 14.6701 8.00002C14.6701 7.64939 14.601 7.30219 14.4668 6.97825C14.3327 6.65431 14.136 6.35997 13.8881 6.11204C13.6401 5.86411 13.3458 5.66744 13.0218 5.53326C12.6979 5.39908 12.3507 5.33002 12.0001 5.33002C11.2919 5.33002 10.6128 5.61132 10.1121 6.11204C9.61138 6.61276 9.33008 7.29189 9.33008 8.00002C9.33008 8.70815 9.61138 9.38727 10.1121 9.88799C10.6128 10.3887 11.2919 10.67 12.0001 10.67V10.67Z" fill="#F0F0F0"/>
<path id="Vector_7" d="M12.9748 8.13498L11.9998 7.71498L12.2398 6.89748C12.2434 6.86007 12.2434 6.82239 12.2398 6.78498C12.2402 6.71508 12.2265 6.64581 12.1994 6.58136C12.1723 6.51691 12.1325 6.45861 12.0823 6.40998L12.3298 6.16998C12.1666 6.00693 11.9454 5.91534 11.7148 5.91534C11.4841 5.91534 11.2629 6.00693 11.0998 6.16998L11.3473 6.40998C11.2513 6.51129 11.1976 6.64543 11.1973 6.78498C11.19 6.83471 11.19 6.88524 11.1973 6.93498L10.8223 7.30248H11.4973C11.3374 7.54218 11.1946 7.7928 11.0698 8.05248C10.9963 8.22069 10.9921 8.41109 11.0581 8.58237C11.1241 8.75366 11.2549 8.89203 11.4223 8.96748L11.6248 9.05748L11.9623 9.37248V9.72498L11.6173 10.07H12.3073V9.37998L12.6298 9.05748H13.2823C13.3612 8.89394 13.3732 8.70607 13.3158 8.53381C13.2583 8.36155 13.136 8.21847 12.9748 8.13498V8.13498Z" fill="black"/>
</g>
</g>
<defs>
<clipPath id="clip0_2253_3690">
<rect width="24" height="16" rx="4" fill="white"/>
</clipPath>
</defs>
</svg>
