<svg width="auto" height="auto" viewBox="0 0 24 16" fill="none" xmlns="http://www.w3.org/2000/svg">
<g id="UY">
<g clip-path="url(#clip0_2253_3703)">
<path id="Vector" d="M24 -0.00250244H0V15.995H24V-0.00250244Z" fill="#F0F0F0"/>
<path id="Vector_2" d="M24 -0.00250244H0V2.285H24V-0.00250244ZM24 4.5725H0V6.86H24V4.5725ZM24 9.14H0V11.4275H24V9.14ZM24 13.715H0V16.0025H24V13.715Z" fill="#338AF3"/>
<path id="Vector_3" d="M12 -0.00250244H0V9.14H12V-0.00250244Z" fill="#F0F0F0"/>
<path id="Vector_4" d="M9 4.57247L7.7775 5.14997L8.43 6.33497L7.095 6.07997L6.93 7.42247L6 6.43247L5.07 7.42247L4.905 6.07997L3.57 6.33497L4.2225 5.14997L3 4.57247L4.2225 3.99497L3.57 2.80997L4.905 3.06497L5.07 1.71497L6 2.70497L6.93 1.71497L7.095 3.06497L8.43 2.80997L7.7775 3.99497L9 4.57247Z" fill="#FFDA44"/>
</g>
</g>
<defs>
<clipPath id="clip0_2253_3703">
<rect width="24" height="16" rx="4" fill="white"/>
</clipPath>
</defs>
</svg>
