<svg width="auto" height="auto" viewBox="0 0 24 16" fill="none" xmlns="http://www.w3.org/2000/svg">
<g id="VE">
<g clip-path="url(#clip0_2253_3724)">
<path id="Vector" d="M24 -0.00250244H0V15.995H24V-0.00250244Z" fill="#D80027"/>
<path id="Vector_2" d="M24 4.52002H0V11.48H24V4.52002V4.52002Z" fill="#0052B4"/>
<path id="Vector_3" d="M17.2203 9.40252L16.8378 9.69502L17.0028 10.145L16.6053 9.87502L16.2303 10.1675L16.3653 9.71002L15.9678 9.44002L16.4478 9.42502L16.5753 8.96752L16.7403 9.41752L17.2203 9.40252V9.40252ZM16.2528 7.73002L15.9978 8.13502L16.3053 8.50252L15.8478 8.38252L15.5928 8.78752L15.5553 8.31502L15.0978 8.19502L15.5403 8.01502L15.5028 7.54252L15.8103 7.91002L16.2528 7.73002V7.73002ZM14.7753 6.49252L14.6778 6.95752L15.0903 7.19752L14.6178 7.24252L14.5203 7.71502L14.3253 7.28002L13.8453 7.32502L14.2053 7.01002L14.0103 6.56752L14.4228 6.80752L14.7753 6.49252V6.49252ZM12.9678 5.83252L13.0353 6.30502L13.5003 6.38752L13.0728 6.59752L13.1403 7.07002L12.8103 6.72502L12.3753 6.93502L12.6003 6.51502L12.2703 6.17002L12.7428 6.25252L12.9678 5.83252V5.83252ZM11.0403 5.83252L11.2653 6.25252L11.7303 6.17002L11.4003 6.51502L11.6253 6.93502L11.1978 6.72502L10.8603 7.07002L10.9278 6.59752L10.5003 6.38752L10.9728 6.30502L11.0403 5.83252V5.83252ZM9.22527 6.49252L9.57777 6.80752L9.99027 6.56752L9.79527 7.01002L10.1553 7.32502L9.67527 7.28002L9.48777 7.71502L9.38277 7.24252L8.91027 7.19752L9.32277 6.95752L9.22527 6.49252V6.49252ZM7.74777 7.73002L8.19027 7.91002L8.49777 7.54252L8.46777 8.01502L8.91027 8.19502L8.44527 8.31502L8.40777 8.78752L8.16027 8.38252L7.69527 8.50252L8.00277 8.13502L7.74777 7.73002V7.73002ZM6.78027 9.40252L7.26027 9.41752L7.42527 8.96752L7.55277 9.42502L8.03277 9.44002L7.63527 9.71002L7.77027 10.1675L7.39527 9.87502L6.99777 10.145L7.16277 9.69502L6.78027 9.40252V9.40252Z" fill="#F0F0F0"/>
<path id="Vector_4" d="M24 -0.00250244H0V4.52H24V-0.00250244Z" fill="#FFDA44"/>
</g>
</g>
<defs>
<clipPath id="clip0_2253_3724">
<rect width="24" height="16" rx="4" fill="white"/>
</clipPath>
</defs>
</svg>
