<svg width="auto" height="auto" viewBox="0 0 24 16" fill="none" xmlns="http://www.w3.org/2000/svg">
<g id="VI">
<g clip-path="url(#clip0_2253_3743)">
<path id="Vector" d="M24 -0.00250244H0V15.995H24V-0.00250244Z" fill="#F0F0F0"/>
<path id="Vector_2" d="M13.3576 5.58498C13.3576 5.22495 13.2146 4.87966 12.96 4.62508C12.7054 4.3705 12.3601 4.22748 12.0001 4.22748C11.64 4.22748 11.2948 4.3705 11.0402 4.62508C10.7856 4.87966 10.6426 5.22495 10.6426 5.58498H7.64258C7.65238 5.94574 7.80311 6.28831 8.06248 6.53926C8.32184 6.79021 8.66919 6.92957 9.03008 6.92748H9.00008C9.00008 7.28154 9.14073 7.6211 9.39109 7.87147C9.64145 8.12183 9.98101 8.26248 10.3351 8.26248C10.3349 8.57371 10.4435 8.87522 10.6421 9.11487C10.8407 9.35453 11.1167 9.51728 11.4226 9.57498H12.5926C12.8984 9.51728 13.1745 9.35453 13.3731 9.11487C13.5716 8.87522 13.6802 8.57371 13.6801 8.26248C14.0315 8.25853 14.3673 8.11614 14.6144 7.8662C14.8615 7.61627 15.0001 7.27896 15.0001 6.92748C15.361 6.92957 15.7083 6.79021 15.9677 6.53926C16.227 6.28831 16.3778 5.94574 16.3876 5.58498H13.3576V5.58498Z" fill="#FFDA44"/>
<path id="Vector_3" d="M11.4001 9.44751L10.5601 11.3525C11.4845 11.7222 12.5157 11.7222 13.4401 11.3525L12.6001 9.44751H11.4001V9.44751Z" fill="#FFDA44"/>
<path id="Vector_4" d="M10.2598 6.26001V8.60001C10.2598 9.92751 11.9998 10.34 11.9998 10.34C11.9998 10.34 13.7398 9.92751 13.7398 8.60001V6.26001H10.2598Z" fill="#F0F0F0"/>
<path id="Vector_5" d="M5.94004 8.05249L6.88504 10.685L7.81504 8.05249H8.52004L7.16254 11.5325H6.60004L5.22754 8.05249H5.94004V8.05249ZM17.5425 8.05249H16.8675V11.5325H17.5425V8.05249Z" fill="#338AF3"/>
<path id="Vector_6" d="M10.9575 7.01001V9.85251C11.1728 10.0055 11.4075 10.1285 11.655 10.22V7.01001H10.9575V7.01001ZM13.0425 7.01001V9.85251C12.8273 10.0055 12.5925 10.1285 12.345 10.22V7.01001H13.0425V7.01001Z" fill="#D80027"/>
<path id="Vector_7" d="M13.7398 6.26001H10.2598V7.36251H13.7398V6.26001Z" fill="#0052B4"/>
</g>
</g>
<defs>
<clipPath id="clip0_2253_3743">
<rect width="24" height="16" rx="4" fill="white"/>
</clipPath>
</defs>
</svg>
