<svg width="auto" height="auto" viewBox="0 0 24 16" fill="none" xmlns="http://www.w3.org/2000/svg">
<g id="WS">
<g clip-path="url(#clip0_2253_3767)">
<path id="Vector" d="M24 -0.00250244H0V15.995H24V-0.00250244Z" fill="#D80027"/>
<path id="Vector_2" d="M12 -0.00250244H0V8H12V-0.00250244Z" fill="#0052B4"/>
<path id="Vector_3" d="M7.75473 4.52002L7.88973 4.91752H8.30223L7.96473 5.16502L8.09223 5.56252L7.75473 5.31502L7.41723 5.56252L7.54473 5.16502L7.20723 4.91752H7.62723L7.75473 4.52002V4.52002ZM5.65473 1.39252L5.86473 2.05252H6.56973L5.99973 2.46502L6.21723 3.13252L5.65473 2.72002L5.08473 3.13252L5.30223 2.46502L4.73973 2.05252H5.43723L5.65473 1.39252V1.39252ZM7.73973 2.08252L7.95723 2.75002H8.65473L8.09223 3.16252L8.30223 3.82252L7.73973 3.41002L7.17723 3.82252L7.38723 3.16252L6.82473 2.75002H7.52223L7.73973 2.08252V2.08252ZM6.08973 4.87252L6.30723 5.53252H7.00473L6.44223 5.94502L6.65223 6.60502L6.08973 6.20002L5.52723 6.60502L5.73723 5.94502L5.17473 5.53252H5.87223L6.08973 4.87252V4.87252ZM4.25973 3.13252L4.47723 3.79252H5.17473L4.61223 4.20502L4.82223 4.86502L4.25973 4.46002L3.69723 4.86502L3.91473 4.20502L3.34473 3.79252H4.04223L4.25973 3.13252V3.13252Z" fill="#F0F0F0"/>
</g>
</g>
<defs>
<clipPath id="clip0_2253_3767">
<rect width="24" height="16" rx="4" fill="white"/>
</clipPath>
</defs>
</svg>
