<svg width="auto" height="auto" viewBox="0 0 24 16" fill="none" xmlns="http://www.w3.org/2000/svg">
<g id="ZA">
<g clip-path="url(#clip0_2253_3787)">
<g id="Group">
<path id="Vector" d="M24 -0.00250244H0V15.995H24V-0.00250244Z" fill="#F0F0F0"/>
<path id="Vector_2" d="M5.3475 7.99997L0 2.65247V13.3475L5.3475 7.99997Z" fill="black"/>
<path id="Vector_3" d="M7.5525 8.00006L0 0.440063V2.65256L5.3475 8.00006L0 13.3476V15.5601L7.5525 8.00006Z" fill="#FFDA44"/>
<path id="Vector_4" d="M23.895 9.5675C23.895 9.5675 23.9325 9.5 24 9.5V6.4325H10.4325L3.9975 -0.00250244H0V0.439998L7.5525 8L0 15.56V16.0025H3.9975L10.4325 9.5675H23.895V9.5675Z" fill="#6DA544"/>
<path id="Vector_5" d="M23.5875 11.1276H11.085L6.20996 16.0026H24V11.1276H23.5875Z" fill="#0052B4"/>
<path id="Vector_6" d="M23.5875 4.8725H24V-0.00250244H6.20996L11.085 4.8725H23.5875V4.8725Z" fill="#D80027"/>
</g>
</g>
</g>
<defs>
<clipPath id="clip0_2253_3787">
<rect width="24" height="16" rx="4" fill="white"/>
</clipPath>
</defs>
</svg>
