<svg width="auto" height="auto" viewBox="0 0 24 16" fill="none" xmlns="http://www.w3.org/2000/svg">
<g id="ZM">
<g clip-path="url(#clip0_2253_3795)">
<g id="Group">
<path id="Vector" d="M24 -0.00250244H0V15.995H24V-0.00250244Z" fill="#496E2D"/>
<path id="Vector_2" d="M23.0024 5.16504H20.7524C20.7524 4.96613 20.6734 4.77536 20.5328 4.63471C20.3921 4.49406 20.2014 4.41504 20.0024 4.41504C19.8035 4.41504 19.6128 4.49406 19.4721 4.63471C19.3315 4.77536 19.2524 4.96613 19.2524 5.16504H17.0024C17.0024 5.36395 17.0815 5.55472 17.2221 5.69537C17.3628 5.83602 17.5535 5.91504 17.7524 5.91504C17.7524 6.11395 17.8315 6.30472 17.9721 6.44537C18.1128 6.58602 18.3035 6.66504 18.5024 6.66504C18.5024 6.86395 18.5815 7.05472 18.7221 7.19537C18.8628 7.33602 19.0535 7.41504 19.2524 7.41504H20.7524C20.9514 7.41504 21.1421 7.33602 21.2828 7.19537C21.4234 7.05472 21.5024 6.86395 21.5024 6.66504C21.7014 6.66504 21.8921 6.58602 22.0328 6.44537C22.1734 6.30472 22.2524 6.11395 22.2524 5.91504C22.4514 5.91504 22.6421 5.83602 22.7828 5.69537C22.9234 5.55472 23.0024 5.36395 23.0024 5.16504Z" fill="#FF9811"/>
<path id="Vector_3" d="M18.6676 8H15.9976V16.0025H18.6676V8Z" fill="#D80027"/>
<path id="Vector_4" d="M24.0074 8H21.3374V16.0025H24.0074V8Z" fill="#FF9811"/>
<path id="Vector_5" d="M21.3375 8H18.6675V16.0025H21.3375V8Z" fill="black"/>
</g>
</g>
</g>
<defs>
<clipPath id="clip0_2253_3795">
<rect width="24" height="16" rx="4" fill="white"/>
</clipPath>
</defs>
</svg>
