<svg width="173" height="45" viewBox="0 0 173 45" fill="none" xmlns="http://www.w3.org/2000/svg">
<g clip-path="url(#clip0_3212_281618)">
<path d="M149.803 13.621H141.588V31.4341H144.842V26.9998C144.842 26.569 145.012 26.1528 145.319 25.8487C145.623 25.5446 146.039 25.3709 146.469 25.3709H149.803C151.358 25.3709 152.847 24.7519 153.943 23.6551C155.042 22.5547 155.657 21.0633 155.657 19.5104C155.661 18.7394 155.512 17.972 155.219 17.2589C154.927 16.5458 154.496 15.8942 153.95 15.3476C153.404 14.801 152.761 14.3667 152.048 14.0698C151.34 13.773 150.577 13.621 149.803 13.621ZM152.367 19.4634C152.367 19.829 152.294 20.1909 152.153 20.5276C152.012 20.8642 151.81 21.1719 151.549 21.4289C151.293 21.6859 150.985 21.8922 150.649 22.0298C150.313 22.171 149.951 22.2397 149.586 22.2397H144.828V16.6906H149.586C149.951 16.6906 150.313 16.763 150.653 16.9042C150.989 17.0453 151.296 17.2517 151.553 17.5087C151.81 17.7693 152.016 18.077 152.153 18.4136C152.291 18.7539 152.363 19.1159 152.359 19.4815L152.367 19.4634Z" fill="#6D4AFF"/>
<path d="M130.158 31.3689L123.603 13.5704H127.305L131.619 26.3085C131.789 26.7645 131.912 27.2351 131.984 27.7166H132.02C132.075 27.2315 132.198 26.7573 132.386 26.3085L136.714 13.5704H140.442L133.854 31.3689H130.158Z" fill="#6D4AFF"/>
<path d="M156.875 31.3686V13.5664H159.728L168.124 24.6068C168.428 24.9869 168.688 25.3959 168.909 25.8303H168.959C168.902 25.2946 168.876 24.7552 168.88 24.2159V13.5664H172.243V31.365H169.39L160.969 20.3246C160.672 19.9409 160.412 19.5318 160.188 19.1011H160.159C160.206 19.6368 160.224 20.1762 160.213 20.7155V31.365H156.875V31.3686Z" fill="#6D4AFF"/>
<path d="M47.5 26.574V31.1553H50.6988V26.7741C50.6988 26.3489 50.8659 25.9379 51.168 25.6378C51.4665 25.3376 51.8753 25.1661 52.2982 25.1661H55.5788C57.1071 25.1661 58.575 24.555 59.6555 23.4651C60.736 22.3787 61.3438 20.9028 61.3438 19.3662C61.3438 17.8296 60.736 16.3538 59.6555 15.2638C58.575 14.1775 57.1071 13.5664 55.5753 13.5664H47.5V19.2912H50.6988V16.5932H55.362C56.0871 16.5932 56.7801 16.8826 57.292 17.3972C57.8038 17.9118 58.0917 18.6086 58.0917 19.3376C58.0917 20.0666 57.8038 20.7635 57.292 21.2781C56.7801 21.7926 56.0871 22.0821 55.362 22.0821H51.9748C51.3883 22.0821 50.8055 22.1965 50.2652 22.4252C49.7214 22.6503 49.2309 22.9826 48.8151 23.4007C48.3992 23.8188 48.0722 24.3156 47.8448 24.8587C47.6173 25.3983 47.5 25.9844 47.5 26.574Z" fill="#1B1340"/>
<path d="M61.8379 31.1553V24.1762C61.8379 21.3281 63.4906 19.0625 66.7996 19.0625C67.3292 19.0553 67.8588 19.1125 68.3777 19.2376V22.1071C68.0009 22.0821 67.6775 22.0821 67.5247 22.0821C65.7724 22.0821 65.0189 22.8897 65.0189 24.5264V31.1553H61.8379Z" fill="#1B1340"/>
<path d="M69.3301 25.2376C69.3301 21.7355 71.9602 19.0661 75.6211 19.0661C79.282 19.0661 81.9121 21.7355 81.9121 25.2376C81.9121 28.7396 79.282 31.4341 75.6211 31.4341C71.9602 31.4341 69.3301 28.736 69.3301 25.2376ZM78.7773 25.2376C78.7773 23.2471 77.448 21.8356 75.6211 21.8356C73.7907 21.8356 72.465 23.2435 72.465 25.2376C72.465 27.253 73.7942 28.6396 75.6211 28.6396C77.4516 28.6396 78.7773 27.2495 78.7773 25.2376Z" fill="#1B1340"/>
<path d="M92.0845 25.2376C92.0845 21.7355 94.7147 19.0661 98.3755 19.0661C102.033 19.0661 104.663 21.7355 104.663 25.2376C104.663 28.7396 102.033 31.4341 98.3755 31.4341C94.7147 31.4341 92.0845 28.736 92.0845 25.2376ZM101.528 25.2376C101.528 23.2471 100.199 21.8356 98.372 21.8356C96.5451 21.8356 95.2158 23.2435 95.2158 25.2376C95.2158 27.253 96.5451 28.6396 98.372 28.6396C100.199 28.6396 101.528 27.2495 101.528 25.2376Z" fill="#1B1340"/>
<path d="M106.316 31.1553V24.43C106.316 21.3067 108.295 19.0625 111.828 19.0625C115.336 19.0625 117.316 21.3031 117.316 24.43V31.1553H114.16V24.6801C114.16 22.9434 113.382 21.857 111.828 21.857C110.275 21.857 109.497 22.9398 109.497 24.6801V31.1553H106.316Z" fill="#1B1340"/>
<path d="M91.132 21.8604H87.6986V26.2701C87.6986 27.8068 88.2495 28.5107 89.8276 28.5107C89.9768 28.5107 90.3536 28.5107 90.8299 28.4857V31.0801C90.1794 31.2552 89.6036 31.3588 88.9745 31.3588C86.3195 31.3588 84.514 29.7472 84.514 26.699V21.8604H82.3814V19.3161H82.9145C83.1242 19.3161 83.3339 19.2732 83.5259 19.1946C83.7214 19.1124 83.8955 18.9945 84.0448 18.8444C84.1941 18.6943 84.3114 18.5192 84.3931 18.3226C84.4749 18.1261 84.514 17.9188 84.514 17.708V15.3102H87.695V19.3161H91.1284V21.8604H91.132Z" fill="#1B1340"/>
<path fill-rule="evenodd" clip-rule="evenodd" d="M14.0587 36.4358C15.3889 38.8271 18.8048 38.9567 20.315 36.673L34.3967 15.3798C35.89 13.1217 34.4612 10.0942 31.757 9.78656L4.07908 6.63731C1.1282 6.30155 -0.972844 9.41307 0.46244 11.9933L0.575 12.1946L12.925 20.6571L12.775 34.1196L14.0587 36.4358Z" fill="url(#paint0_linear_3212_281618)"/>
<path d="M14.8518 34.2055L16.1015 32.3415L25.5943 18.0021C26.4243 16.7484 25.6321 15.0666 24.1304 14.8942L0.571777 12.1895L12.7758 34.1293C13.2212 34.9145 14.3474 34.9577 14.8518 34.2055Z" fill="url(#paint1_radial_3212_281618)"/>
</g>
<defs>
<linearGradient id="paint0_linear_3212_281618" x1="31.6501" y1="36.4342" x2="9.12934" y2="-2.40321" gradientUnits="userSpaceOnUse">
<stop offset="0.0660125" stop-color="#8EFFEE"/>
<stop offset="0.4499" stop-color="#C9C7FF"/>
<stop offset="1" stop-color="#7341FF"/>
</linearGradient>
<radialGradient id="paint1_radial_3212_281618" cx="0" cy="0" r="1" gradientUnits="userSpaceOnUse" gradientTransform="translate(14.8842 2.14558) rotate(93.7553) scale(35.7345 46.0835)">
<stop offset="0.403126" stop-color="#6D4AFF"/>
<stop offset="0.9944" stop-color="#00F0C3"/>
</radialGradient>
<clipPath id="clip0_3212_281618">
<rect width="172.5" height="45" fill="white"/>
</clipPath>
</defs>
</svg>
