<svg width="auto" height="auto" viewBox="0 0 39 24" fill="none" xmlns="http://www.w3.org/2000/svg">
<rect x="0.5" y="0.5" width="37.75" height="23" rx="7.5" stroke="url(#paint0_radial_189_2041)"/>
<path fill-rule="evenodd" clip-rule="evenodd" d="M7.20919 7.88151C6.57039 6.73995 7.49698 5.35591 8.79582 5.51155L19.5927 6.80537C20.7633 6.94565 21.3853 8.26086 20.7511 9.25474L15.2943 17.8055C14.6842 18.7615 13.2746 18.7208 12.7208 17.731L7.20919 7.88151ZM8.67684 6.50445C8.18977 6.44608 7.8423 6.9651 8.08185 7.39318L8.35524 7.88175L16.9702 9.03934C17.523 9.11363 17.8092 9.73931 17.5038 10.2061L13.2738 16.6714L13.5935 17.2427C13.7781 17.5726 14.2479 17.5862 14.4513 17.2675L19.9081 8.71678C20.1459 8.34408 19.9127 7.85088 19.4737 7.79827L8.67684 6.50445Z" fill="#0C0C14"/>
<path d="M24 12.375C24 12.0298 24.2798 11.75 24.625 11.75H32.125C32.4702 11.75 32.75 12.0298 32.75 12.375C32.75 12.7202 32.4702 13 32.125 13H24.625C24.2798 13 24 12.7202 24 12.375Z" fill="#0C0C14"/>
<path d="M28.375 8C28.7202 8 29 8.27982 29 8.625L29 16.125C29 16.4702 28.7202 16.75 28.375 16.75C28.0298 16.75 27.75 16.4702 27.75 16.125L27.75 8.625C27.75 8.27982 28.0298 8 28.375 8Z" fill="#0C0C14"/>
<defs>
<radialGradient id="paint0_radial_189_2041" cx="0" cy="0" r="1" gradientUnits="userSpaceOnUse" gradientTransform="translate(8.37838 9) rotate(10.0817) scale(30.8479 37.1738)">
<stop stop-color="#6E4BFF"/>
<stop offset="0.355428" stop-color="#547AEC"/>
<stop offset="1" stop-color="#2FCCCF"/>
</radialGradient>
</defs>
</svg>