<svg width="32" height="32" viewBox="0 0 32 32" fill="none" xmlns="http://www.w3.org/2000/svg">
<g filter="url(#filter0_ii_2948_1213)">
<path fill-rule="evenodd" clip-rule="evenodd" d="M28 4H4C1.79086 4 0 9.37256 0 15.9999C0 22.6273 1.79086 27.9999 4 27.9999H28L32 15.9999L28 4Z" fill="url(#paint0_linear_2948_1213)"/>
</g>
<path opacity="0.65" d="M22.4102 18.4707C21.779 18.4707 21.3358 18.2497 21.0806 17.8076C20.8276 17.3656 20.7012 16.7355 20.7012 15.9175C20.7012 15.0994 20.8276 14.4683 21.0806 14.0239C21.3358 13.5796 21.779 13.3574 22.4102 13.3574C23.0413 13.3574 23.4845 13.5796 23.7397 14.0239C23.9927 14.4683 24.1191 15.0994 24.1191 15.9175C24.1191 16.7355 23.9915 17.3656 23.7363 17.8076C23.4834 18.2497 23.0413 18.4707 22.4102 18.4707ZM22.981 17.2231C23.0698 16.9224 23.1143 16.4871 23.1143 15.9175C23.1143 15.3205 23.0687 14.8784 22.9775 14.5913C22.8887 14.3042 22.6995 14.1606 22.4102 14.1606C22.1208 14.1606 21.9294 14.3042 21.8359 14.5913C21.7425 14.8784 21.6958 15.3205 21.6958 15.9175C21.6958 16.4871 21.7425 16.9235 21.8359 17.2266C21.9294 17.5273 22.1208 17.6777 22.4102 17.6777C22.6995 17.6777 22.8898 17.5262 22.981 17.2231Z" fill="white"/>
<path opacity="0.65" d="M19.2349 18.3477H18.2368V14.9297H17.0713V14.2666C17.3789 14.2529 17.5942 14.2324 17.7173 14.2051C17.9132 14.1618 18.0728 14.0752 18.1958 13.9453C18.2801 13.8564 18.3439 13.738 18.3872 13.5898C18.4123 13.501 18.4248 13.4349 18.4248 13.3916H19.2349V18.3477Z" fill="white"/>
<path opacity="0.65" d="M14.6172 18.4707C13.986 18.4707 13.5428 18.2497 13.2876 17.8076C13.0347 17.3656 12.9082 16.7355 12.9082 15.9175C12.9082 15.0994 13.0347 14.4683 13.2876 14.0239C13.5428 13.5796 13.986 13.3574 14.6172 13.3574C15.2484 13.3574 15.6916 13.5796 15.9468 14.0239C16.1997 14.4683 16.3262 15.0994 16.3262 15.9175C16.3262 16.7355 16.1986 17.3656 15.9434 17.8076C15.6904 18.2497 15.2484 18.4707 14.6172 18.4707ZM15.188 17.2231C15.2769 16.9224 15.3213 16.4871 15.3213 15.9175C15.3213 15.3205 15.2757 14.8784 15.1846 14.5913C15.0957 14.3042 14.9066 14.1606 14.6172 14.1606C14.3278 14.1606 14.1364 14.3042 14.043 14.5913C13.9495 14.8784 13.9028 15.3205 13.9028 15.9175C13.9028 16.4871 13.9495 16.9235 14.043 17.2266C14.1364 17.5273 14.3278 17.6777 14.6172 17.6777C14.9066 17.6777 15.0968 17.5262 15.188 17.2231Z" fill="white"/>
<path opacity="0.65" d="M11.4419 18.3477H10.4438V14.9297H9.27832V14.2666C9.58594 14.2529 9.80127 14.2324 9.92432 14.2051C10.1203 14.1618 10.2798 14.0752 10.4028 13.9453C10.4871 13.8564 10.5509 13.738 10.5942 13.5898C10.6193 13.501 10.6318 13.4349 10.6318 13.3916H11.4419V18.3477Z" fill="white"/>
<path opacity="0.65" d="M6.82422 18.4707C6.19303 18.4707 5.74984 18.2497 5.49463 17.8076C5.2417 17.3656 5.11523 16.7355 5.11523 15.9175C5.11523 15.0994 5.2417 14.4683 5.49463 14.0239C5.74984 13.5796 6.19303 13.3574 6.82422 13.3574C7.4554 13.3574 7.8986 13.5796 8.15381 14.0239C8.40674 14.4683 8.5332 15.0994 8.5332 15.9175C8.5332 16.7355 8.4056 17.3656 8.15039 17.8076C7.89746 18.2497 7.4554 18.4707 6.82422 18.4707ZM7.39502 17.2231C7.48389 16.9224 7.52832 16.4871 7.52832 15.9175C7.52832 15.3205 7.48275 14.8784 7.3916 14.5913C7.30273 14.3042 7.11361 14.1606 6.82422 14.1606C6.53483 14.1606 6.34342 14.3042 6.25 14.5913C6.15658 14.8784 6.10986 15.3205 6.10986 15.9175C6.10986 16.4871 6.15658 16.9235 6.25 17.2266C6.34342 17.5273 6.53483 17.6777 6.82422 17.6777C7.11361 17.6777 7.30387 17.5262 7.39502 17.2231Z" fill="white"/>
<path opacity="0.65" d="M3.64893 18.3477H2.65088V14.9297H1.48535V14.2666C1.79297 14.2529 2.0083 14.2324 2.13135 14.2051C2.32731 14.1618 2.48682 14.0752 2.60986 13.9453C2.69417 13.8564 2.75798 13.738 2.80127 13.5898C2.82633 13.501 2.83887 13.4349 2.83887 13.3916H3.64893V18.3477Z" fill="white"/>
<path d="M25.1313 10H24.1333V6.58203H22.9678V5.91895C23.2754 5.90527 23.4907 5.88477 23.6138 5.85742C23.8097 5.81413 23.9692 5.72754 24.0923 5.59766C24.1766 5.50879 24.2404 5.3903 24.2837 5.24219C24.3088 5.15332 24.3213 5.08724 24.3213 5.04395H25.1313V10Z" fill="url(#paint1_linear_2948_1213)"/>
<path d="M20.5137 10.123C19.8825 10.123 19.4393 9.90202 19.1841 9.45996C18.9312 9.0179 18.8047 8.38786 18.8047 7.56982C18.8047 6.75179 18.9312 6.12061 19.1841 5.67627C19.4393 5.23193 19.8825 5.00977 20.5137 5.00977C21.1449 5.00977 21.5881 5.23193 21.8433 5.67627C22.0962 6.12061 22.2227 6.75179 22.2227 7.56982C22.2227 8.38786 22.0951 9.0179 21.8398 9.45996C21.5869 9.90202 21.1449 10.123 20.5137 10.123ZM21.0845 8.87549C21.1733 8.57471 21.2178 8.13949 21.2178 7.56982C21.2178 6.97282 21.1722 6.53076 21.0811 6.24365C20.9922 5.95654 20.8031 5.81299 20.5137 5.81299C20.2243 5.81299 20.0329 5.95654 19.9395 6.24365C19.846 6.53076 19.7993 6.97282 19.7993 7.56982C19.7993 8.13949 19.846 8.57585 19.9395 8.87891C20.0329 9.17969 20.2243 9.33008 20.5137 9.33008C20.8031 9.33008 20.9933 9.17855 21.0845 8.87549Z" fill="url(#paint2_linear_2948_1213)"/>
<path d="M17.3384 10H16.3403V6.58203H15.1748V5.91895C15.4824 5.90527 15.6978 5.88477 15.8208 5.85742C16.0168 5.81413 16.1763 5.72754 16.2993 5.59766C16.3836 5.50879 16.4474 5.3903 16.4907 5.24219C16.5158 5.15332 16.5283 5.08724 16.5283 5.04395H17.3384V10Z" fill="url(#paint3_linear_2948_1213)"/>
<path d="M12.7207 10.123C12.0895 10.123 11.6463 9.90202 11.3911 9.45996C11.1382 9.0179 11.0117 8.38786 11.0117 7.56982C11.0117 6.75179 11.1382 6.12061 11.3911 5.67627C11.6463 5.23193 12.0895 5.00977 12.7207 5.00977C13.3519 5.00977 13.7951 5.23193 14.0503 5.67627C14.3032 6.12061 14.4297 6.75179 14.4297 7.56982C14.4297 8.38786 14.3021 9.0179 14.0469 9.45996C13.7939 9.90202 13.3519 10.123 12.7207 10.123ZM13.2915 8.87549C13.3804 8.57471 13.4248 8.13949 13.4248 7.56982C13.4248 6.97282 13.3792 6.53076 13.2881 6.24365C13.1992 5.95654 13.0101 5.81299 12.7207 5.81299C12.4313 5.81299 12.2399 5.95654 12.1465 6.24365C12.0531 6.53076 12.0063 6.97282 12.0063 7.56982C12.0063 8.13949 12.0531 8.57585 12.1465 8.87891C12.2399 9.17969 12.4313 9.33008 12.7207 9.33008C13.0101 9.33008 13.2004 9.17855 13.2915 8.87549Z" fill="url(#paint4_linear_2948_1213)"/>
<path d="M9.54541 10H8.54736V6.58203H7.38184V5.91895C7.68945 5.90527 7.90479 5.88477 8.02783 5.85742C8.2238 5.81413 8.3833 5.72754 8.50635 5.59766C8.59066 5.50879 8.65446 5.3903 8.69775 5.24219C8.72282 5.15332 8.73535 5.08724 8.73535 5.04395H9.54541V10Z" fill="url(#paint5_linear_2948_1213)"/>
<path d="M4.92773 10.123C4.29655 10.123 3.85335 9.90202 3.59814 9.45996C3.34521 9.0179 3.21875 8.38786 3.21875 7.56982C3.21875 6.75179 3.34521 6.12061 3.59814 5.67627C3.85335 5.23193 4.29655 5.00977 4.92773 5.00977C5.55892 5.00977 6.00212 5.23193 6.25732 5.67627C6.51025 6.12061 6.63672 6.75179 6.63672 7.56982C6.63672 8.38786 6.50911 9.0179 6.25391 9.45996C6.00098 9.90202 5.55892 10.123 4.92773 10.123ZM5.49854 8.87549C5.5874 8.57471 5.63184 8.13949 5.63184 7.56982C5.63184 6.97282 5.58626 6.53076 5.49512 6.24365C5.40625 5.95654 5.21712 5.81299 4.92773 5.81299C4.63835 5.81299 4.44694 5.95654 4.35352 6.24365C4.26009 6.53076 4.21338 6.97282 4.21338 7.56982C4.21338 8.13949 4.26009 8.57585 4.35352 8.87891C4.44694 9.17969 4.63835 9.33008 4.92773 9.33008C5.21712 9.33008 5.40739 9.17855 5.49854 8.87549Z" fill="url(#paint6_linear_2948_1213)"/>
<path d="M25.1313 26.6958H24.1333V23.2778H22.9678V22.6147C23.2754 22.6011 23.4907 22.5806 23.6138 22.5532C23.8097 22.5099 23.9692 22.4233 24.0923 22.2935C24.1766 22.2046 24.2404 22.0861 24.2837 21.938C24.3088 21.8491 24.3213 21.783 24.3213 21.7397H25.1313V26.6958Z" fill="url(#paint7_linear_2948_1213)"/>
<path d="M20.5137 26.8188C19.8825 26.8188 19.4393 26.5978 19.1841 26.1558C18.9312 25.7137 18.8047 25.0837 18.8047 24.2656C18.8047 23.4476 18.9312 22.8164 19.1841 22.3721C19.4393 21.9277 19.8825 21.7056 20.5137 21.7056C21.1449 21.7056 21.5881 21.9277 21.8433 22.3721C22.0962 22.8164 22.2227 23.4476 22.2227 24.2656C22.2227 25.0837 22.0951 25.7137 21.8398 26.1558C21.5869 26.5978 21.1449 26.8188 20.5137 26.8188ZM21.0845 25.5713C21.1733 25.2705 21.2178 24.8353 21.2178 24.2656C21.2178 23.6686 21.1722 23.2266 21.0811 22.9395C20.9922 22.6523 20.8031 22.5088 20.5137 22.5088C20.2243 22.5088 20.0329 22.6523 19.9395 22.9395C19.846 23.2266 19.7993 23.6686 19.7993 24.2656C19.7993 24.8353 19.846 25.2716 19.9395 25.5747C20.0329 25.8755 20.2243 26.0259 20.5137 26.0259C20.8031 26.0259 20.9933 25.8743 21.0845 25.5713Z" fill="url(#paint8_linear_2948_1213)"/>
<path d="M17.3384 26.6958H16.3403V23.2778H15.1748V22.6147C15.4824 22.6011 15.6978 22.5806 15.8208 22.5532C16.0168 22.5099 16.1763 22.4233 16.2993 22.2935C16.3836 22.2046 16.4474 22.0861 16.4907 21.938C16.5158 21.8491 16.5283 21.783 16.5283 21.7397H17.3384V26.6958Z" fill="url(#paint9_linear_2948_1213)"/>
<path d="M12.7207 26.8188C12.0895 26.8188 11.6463 26.5978 11.3911 26.1558C11.1382 25.7137 11.0117 25.0837 11.0117 24.2656C11.0117 23.4476 11.1382 22.8164 11.3911 22.3721C11.6463 21.9277 12.0895 21.7056 12.7207 21.7056C13.3519 21.7056 13.7951 21.9277 14.0503 22.3721C14.3032 22.8164 14.4297 23.4476 14.4297 24.2656C14.4297 25.0837 14.3021 25.7137 14.0469 26.1558C13.7939 26.5978 13.3519 26.8188 12.7207 26.8188ZM13.2915 25.5713C13.3804 25.2705 13.4248 24.8353 13.4248 24.2656C13.4248 23.6686 13.3792 23.2266 13.2881 22.9395C13.1992 22.6523 13.0101 22.5088 12.7207 22.5088C12.4313 22.5088 12.2399 22.6523 12.1465 22.9395C12.0531 23.2266 12.0063 23.6686 12.0063 24.2656C12.0063 24.8353 12.0531 25.2716 12.1465 25.5747C12.2399 25.8755 12.4313 26.0259 12.7207 26.0259C13.0101 26.0259 13.2004 25.8743 13.2915 25.5713Z" fill="url(#paint10_linear_2948_1213)"/>
<path d="M9.54541 26.6958H8.54736V23.2778H7.38184V22.6147C7.68945 22.6011 7.90479 22.5806 8.02783 22.5532C8.2238 22.5099 8.3833 22.4233 8.50635 22.2935C8.59066 22.2046 8.65446 22.0861 8.69775 21.938C8.72282 21.8491 8.73535 21.783 8.73535 21.7397H9.54541V26.6958Z" fill="url(#paint11_linear_2948_1213)"/>
<path d="M4.92773 26.8188C4.29655 26.8188 3.85335 26.5978 3.59814 26.1558C3.34521 25.7137 3.21875 25.0837 3.21875 24.2656C3.21875 23.4476 3.34521 22.8164 3.59814 22.3721C3.85335 21.9277 4.29655 21.7056 4.92773 21.7056C5.55892 21.7056 6.00212 21.9277 6.25732 22.3721C6.51025 22.8164 6.63672 23.4476 6.63672 24.2656C6.63672 25.0837 6.50911 25.7137 6.25391 26.1558C6.00098 26.5978 5.55892 26.8188 4.92773 26.8188ZM5.49854 25.5713C5.5874 25.2705 5.63184 24.8353 5.63184 24.2656C5.63184 23.6686 5.58626 23.2266 5.49512 22.9395C5.40625 22.6523 5.21712 22.5088 4.92773 22.5088C4.63835 22.5088 4.44694 22.6523 4.35352 22.9395C4.26009 23.2266 4.21338 23.6686 4.21338 24.2656C4.21338 24.8353 4.26009 25.2716 4.35352 25.5747C4.44694 25.8755 4.63835 26.0259 4.92773 26.0259C5.21712 26.0259 5.40739 25.8743 5.49854 25.5713Z" fill="url(#paint12_linear_2948_1213)"/>
<g filter="url(#filter1_i_2948_1213)">
<ellipse cx="28" cy="15.9999" rx="4" ry="11.9999" fill="#6B6778"/>
<ellipse cx="28" cy="15.9999" rx="4" ry="11.9999" fill="url(#paint13_linear_2948_1213)" fill-opacity="0.8"/>
</g>
<ellipse cx="28" cy="15.9999" rx="2.5" ry="9.913" fill="#868399"/>
<ellipse cx="28" cy="15.9999" rx="2.5" ry="9.913" fill="url(#paint14_linear_2948_1213)" fill-opacity="0.4"/>
<defs>
<filter id="filter0_ii_2948_1213" x="0" y="3" width="32" height="25.5" filterUnits="userSpaceOnUse" color-interpolation-filters="sRGB">
<feFlood flood-opacity="0" result="BackgroundImageFix"/>
<feBlend mode="normal" in="SourceGraphic" in2="BackgroundImageFix" result="shape"/>
<feColorMatrix in="SourceAlpha" type="matrix" values="0 0 0 0 0 0 0 0 0 0 0 0 0 0 0 0 0 0 127 0" result="hardAlpha"/>
<feOffset dy="0.5"/>
<feGaussianBlur stdDeviation="0.25"/>
<feComposite in2="hardAlpha" operator="arithmetic" k2="-1" k3="1"/>
<feColorMatrix type="matrix" values="0 0 0 0 1 0 0 0 0 1 0 0 0 0 1 0 0 0 0.6 0"/>
<feBlend mode="normal" in2="shape" result="effect1_innerShadow_2948_1213"/>
<feColorMatrix in="SourceAlpha" type="matrix" values="0 0 0 0 0 0 0 0 0 0 0 0 0 0 0 0 0 0 127 0" result="hardAlpha"/>
<feOffset dy="-1"/>
<feGaussianBlur stdDeviation="0.5"/>
<feComposite in2="hardAlpha" operator="arithmetic" k2="-1" k3="1"/>
<feColorMatrix type="matrix" values="0 0 0 0 0.478431 0 0 0 0 0.478431 0 0 0 0 0.521569 0 0 0 0.6 0"/>
<feBlend mode="normal" in2="effect1_innerShadow_2948_1213" result="effect2_innerShadow_2948_1213"/>
</filter>
<filter id="filter1_i_2948_1213" x="24" y="4" width="8" height="24.4167" filterUnits="userSpaceOnUse" color-interpolation-filters="sRGB">
<feFlood flood-opacity="0" result="BackgroundImageFix"/>
<feBlend mode="normal" in="SourceGraphic" in2="BackgroundImageFix" result="shape"/>
<feColorMatrix in="SourceAlpha" type="matrix" values="0 0 0 0 0 0 0 0 0 0 0 0 0 0 0 0 0 0 127 0" result="hardAlpha"/>
<feOffset dy="0.833333"/>
<feGaussianBlur stdDeviation="0.208333"/>
<feComposite in2="hardAlpha" operator="arithmetic" k2="-1" k3="1"/>
<feColorMatrix type="matrix" values="0 0 0 0 1 0 0 0 0 1 0 0 0 0 1 0 0 0 0.7 0"/>
<feBlend mode="normal" in2="shape" result="effect1_innerShadow_2948_1213"/>
</filter>
<linearGradient id="paint0_linear_2948_1213" x1="25.5" y1="1.5" x2="32.6054" y2="27.1826" gradientUnits="userSpaceOnUse">
<stop stop-color="#EBEBF5"/>
<stop offset="1" stop-color="#6F6C84"/>
</linearGradient>
<linearGradient id="paint1_linear_2948_1213" x1="14" y1="18.6086" x2="14" y2="5.56521" gradientUnits="userSpaceOnUse">
<stop stop-color="white"/>
<stop offset="1" stop-color="white" stop-opacity="0"/>
</linearGradient>
<linearGradient id="paint2_linear_2948_1213" x1="14" y1="18.6086" x2="14" y2="5.56521" gradientUnits="userSpaceOnUse">
<stop stop-color="white"/>
<stop offset="1" stop-color="white" stop-opacity="0"/>
</linearGradient>
<linearGradient id="paint3_linear_2948_1213" x1="14" y1="18.6086" x2="14" y2="5.56521" gradientUnits="userSpaceOnUse">
<stop stop-color="white"/>
<stop offset="1" stop-color="white" stop-opacity="0"/>
</linearGradient>
<linearGradient id="paint4_linear_2948_1213" x1="14" y1="18.6086" x2="14" y2="5.56521" gradientUnits="userSpaceOnUse">
<stop stop-color="white"/>
<stop offset="1" stop-color="white" stop-opacity="0"/>
</linearGradient>
<linearGradient id="paint5_linear_2948_1213" x1="14" y1="18.6086" x2="14" y2="5.56521" gradientUnits="userSpaceOnUse">
<stop stop-color="white"/>
<stop offset="1" stop-color="white" stop-opacity="0"/>
</linearGradient>
<linearGradient id="paint6_linear_2948_1213" x1="14" y1="18.6086" x2="14" y2="5.56521" gradientUnits="userSpaceOnUse">
<stop stop-color="white"/>
<stop offset="1" stop-color="white" stop-opacity="0"/>
</linearGradient>
<linearGradient id="paint7_linear_2948_1213" x1="14" y1="28.5219" x2="14" y2="12.348" gradientUnits="userSpaceOnUse">
<stop stop-color="white" stop-opacity="0"/>
<stop offset="1" stop-color="white"/>
</linearGradient>
<linearGradient id="paint8_linear_2948_1213" x1="14" y1="28.5219" x2="14" y2="12.348" gradientUnits="userSpaceOnUse">
<stop stop-color="white" stop-opacity="0"/>
<stop offset="1" stop-color="white"/>
</linearGradient>
<linearGradient id="paint9_linear_2948_1213" x1="14" y1="28.5219" x2="14" y2="12.348" gradientUnits="userSpaceOnUse">
<stop stop-color="white" stop-opacity="0"/>
<stop offset="1" stop-color="white"/>
</linearGradient>
<linearGradient id="paint10_linear_2948_1213" x1="14" y1="28.5219" x2="14" y2="12.348" gradientUnits="userSpaceOnUse">
<stop stop-color="white" stop-opacity="0"/>
<stop offset="1" stop-color="white"/>
</linearGradient>
<linearGradient id="paint11_linear_2948_1213" x1="14" y1="28.5219" x2="14" y2="12.348" gradientUnits="userSpaceOnUse">
<stop stop-color="white" stop-opacity="0"/>
<stop offset="1" stop-color="white"/>
</linearGradient>
<linearGradient id="paint12_linear_2948_1213" x1="14" y1="28.5219" x2="14" y2="12.348" gradientUnits="userSpaceOnUse">
<stop stop-color="white" stop-opacity="0"/>
<stop offset="1" stop-color="white"/>
</linearGradient>
<linearGradient id="paint13_linear_2948_1213" x1="28.1277" y1="2.75419" x2="39.8782" y2="10.2121" gradientUnits="userSpaceOnUse">
<stop stop-color="white"/>
<stop offset="1" stop-color="white" stop-opacity="0"/>
</linearGradient>
<linearGradient id="paint14_linear_2948_1213" x1="30.5" y1="15.4782" x2="25.5" y2="15.4782" gradientUnits="userSpaceOnUse">
<stop stop-opacity="0"/>
<stop offset="1"/>
</linearGradient>
</defs>
</svg>
