<svg width="auto" height="auto" viewBox="0 0 24 16" fill="none" xmlns="http://www.w3.org/2000/svg">
<g id="AG">
<g clip-path="url(#clip0_2253_2467)">
<path id="Vector" d="M24 -0.00256348H0V15.9949H24V-0.00256348Z" fill="black"/>
<path id="Vector_2" d="M4.16258 6.40247C3.94255 7.4561 3.94255 8.54383 4.16258 9.59747L12.0001 10.085L19.8376 9.59747C20.0576 8.54382 20.0576 7.45611 19.8376 6.40247" fill="#0052B4"/>
<path id="Vector_3" d="M19.8376 9.59753H4.1626C4.52727 11.4075 5.50711 13.0354 6.93576 14.2049C8.36441 15.3744 10.1538 16.0134 12.0001 16.0134C13.8464 16.0134 15.6358 15.3744 17.0644 14.2049C18.4931 13.0354 19.4729 11.4075 19.8376 9.59753V9.59753Z" fill="#F0F0F0"/>
<path id="Vector_4" d="M15.48 6.40247H8.52002L9.94502 5.72747L9.18752 4.35497L10.7325 4.64747L10.9275 3.09497L12 4.23497L13.0725 3.09497L13.2675 4.64747L14.8125 4.35497L14.055 5.72747L15.48 6.40247V6.40247Z" fill="#FFDA44"/>
<path id="Vector_5" d="M12 16.0024L0 -0.00256348V16.0024H12ZM24 16.0024V-0.00256348L12 16.0024H24Z" fill="#A2001D"/>
</g>
</g>
<defs>
<clipPath id="clip0_2253_2467">
<rect width="24" height="16" rx="4" fill="white"/>
</clipPath>
</defs>
</svg>
