<svg width="auto" height="auto" viewBox="0 0 24 16" fill="none" xmlns="http://www.w3.org/2000/svg">
<g id="AI">
<g clip-path="url(#clip0_2253_2473)">
<path id="Vector" d="M24 -0.00256348H0V15.9949H24V-0.00256348Z" fill="#0052B4"/>
<path id="Vector_2" d="M20.0475 9.86744C20.301 9.52994 20.4375 9.11969 20.4375 8.69744V5.21744C20.0672 5.49125 19.6041 5.60854 19.1481 5.544C18.6921 5.47946 18.2798 5.23826 18 4.87244C17.7202 5.23826 17.3079 5.47946 16.8519 5.544C16.3959 5.60854 15.9328 5.49125 15.5625 5.21744V8.69744C15.5625 9.11744 15.6975 9.52769 15.945 9.86744H20.0475Z" fill="#F3F3F3"/>
<path id="Vector_3" d="M19.3273 8.05247C19.4299 7.77586 19.4881 7.48476 19.4998 7.18997C19.4998 6.87497 19.0873 6.61997 19.0873 6.61997C19.0873 6.61997 18.6748 6.87497 18.6748 7.18997C18.6973 7.48622 18.7648 7.77722 18.8773 8.05247L18.6373 8.58497C18.9283 8.70497 19.2538 8.70497 19.5448 8.58497L19.3273 8.05247ZM17.7148 6.31247C17.4223 6.35447 17.1388 6.44372 16.8748 6.57497C16.5973 6.73247 16.5823 7.21247 16.5823 7.21247C16.5823 7.21247 17.0098 7.44497 17.2873 7.28747C17.5297 7.11914 17.7469 6.9171 17.9323 6.68747L18.5173 6.61997C18.4958 6.46664 18.4449 6.31892 18.3673 6.18497C18.2878 6.05363 18.1863 5.93693 18.0673 5.83997L17.7148 6.31247V6.31247ZM17.0173 8.57747C17.2025 8.80697 17.42 9.00947 17.6623 9.17747C17.9398 9.33497 18.3673 9.10247 18.3673 9.10247C18.3673 9.10247 18.3673 8.62247 18.0748 8.46497C17.8152 8.33484 17.5368 8.24627 17.2498 8.20247L16.9048 7.72997C16.7815 7.82465 16.6772 7.94169 16.5973 8.07497C16.5223 8.20997 16.472 8.35772 16.4473 8.50997L17.0173 8.57747V8.57747Z" fill="#FF9811"/>
<path id="Vector_4" d="M15.8623 9.73999C16.3961 10.4323 17.1501 10.9218 17.9998 11.1275C18.8495 10.9218 19.6035 10.4323 20.1373 9.73999H15.8623V9.73999Z" fill="#338AF3"/>
<path id="Vector_5" d="M12 4.75244H6.75V7.99994H7.5V5.70494L10.9425 7.99994H12L8.25 5.50244H9.3075L12 7.29494V6.94244L9.84 5.50244H12V4.75244ZM8.25 2.50244L12 -0.00256348H10.9425L7.5 2.29244V-0.00256348H6.75V3.25244H12V2.50244H9.84L12 1.06244V0.709937L9.3075 2.50244H8.25ZM4.5 -0.00256348V2.29244L1.0575 -0.00256348H0L3.75 2.50244H2.6925L0 0.709937V1.06244L2.16 2.50244H0V3.25244H5.25V-0.00256348H4.5ZM0 4.75244V5.50244H2.16L0 6.94244V7.29494L2.6925 5.50244H3.75L0 7.99994H1.0575L4.5 5.70494V7.99994H5.25V4.75244H0Z" fill="#F0F0F0"/>
<path id="Vector_6" d="M6.75 -0.00256348H5.25V3.25244H0V4.75244H5.25V7.99994H6.75V4.75244H12V3.25244H6.75V-0.00256348Z" fill="#D80027"/>
<path id="Vector_7" d="M3.75 2.50244L0 -0.00256348V0.709937L2.6925 2.50244H3.75ZM8.25 2.50244H9.3075L12 0.709937V-0.00256348L8.25 2.50244ZM2.6925 5.50244L0 7.29494V7.99994L3.75 5.50244H2.6925ZM8.25 5.50244L12 7.99994V7.29494L9.3075 5.50244H8.25Z" fill="#D80027"/>
</g>
</g>
<defs>
<clipPath id="clip0_2253_2473">
<rect width="24" height="16" rx="4" fill="white"/>
</clipPath>
</defs>
</svg>
