<svg width="auto" height="auto" viewBox="0 0 24 16" fill="none" xmlns="http://www.w3.org/2000/svg">
<g id="AL">
<g clip-path="url(#clip0_2253_2481)">
<path id="Vector" d="M24 -0.00256348H0V15.9949H24V-0.00256348Z" fill="#D80027"/>
<path id="Vector_2" d="M16.5 5.93746H13.6275C13.816 5.73374 13.9181 5.46491 13.9125 5.18746C13.9132 4.96304 13.8414 4.7444 13.7079 4.56403C13.5744 4.38367 13.3862 4.2512 13.1714 4.18633C12.9565 4.12146 12.7265 4.12764 12.5155 4.20397C12.3044 4.28029 12.1236 4.42267 12 4.60996C11.9202 4.4886 11.816 4.38521 11.694 4.30642C11.572 4.22762 11.4349 4.17515 11.2915 4.15235C11.1481 4.12955 11.0014 4.13693 10.861 4.17401C10.7206 4.21109 10.5895 4.27706 10.476 4.36771C10.3626 4.45847 10.2693 4.57196 10.2024 4.70089C10.1354 4.82981 10.0961 4.97132 10.0871 5.11633C10.078 5.26133 10.0994 5.40662 10.1499 5.54287C10.2003 5.67912 10.2787 5.8033 10.38 5.90746H7.5C7.51173 6.28083 7.66884 6.63485 7.93784 6.89404C8.20684 7.15323 8.56645 7.2971 8.94 7.29496H8.895C8.88582 7.48091 8.91417 7.66681 8.97838 7.84157C9.04258 8.01633 9.14132 8.17637 9.2687 8.31215C9.39608 8.44794 9.54951 8.55668 9.71982 8.63189C9.89013 8.70711 10.0738 8.74726 10.26 8.74996C10.2608 8.98921 10.323 9.22396 10.44 9.43246L9.285 10.5875L10.17 11.4725L11.43 10.22H11.58L10.83 11.9375L12 13.25L13.1775 11.975L12.4275 10.2575H12.5775L13.8375 11.51L14.7225 10.625L13.5675 9.46996C13.6847 9.26152 13.7467 9.02658 13.7475 8.78746C13.9303 8.78746 14.1114 8.75132 14.2802 8.68113C14.449 8.61093 14.6023 8.50806 14.7313 8.37842C14.8602 8.24878 14.9623 8.09494 15.0315 7.92573C15.1008 7.75653 15.136 7.5753 15.135 7.39246H15.09C15.2781 7.38953 15.4638 7.34956 15.6365 7.27485C15.8092 7.20014 15.9655 7.09214 16.0964 6.95703C16.2273 6.82191 16.3304 6.66233 16.3996 6.48739C16.4689 6.31245 16.503 6.12558 16.5 5.93746Z" fill="black"/>
</g>
</g>
<defs>
<clipPath id="clip0_2253_2481">
<rect width="24" height="16" rx="4" fill="white"/>
</clipPath>
</defs>
</svg>
