<svg width="auto" height="auto" viewBox="0 0 24 16" fill="none" xmlns="http://www.w3.org/2000/svg">
<g id="AO">
<g clip-path="url(#clip0_2253_2488)">
<path id="Vector" d="M24 -0.00256348H0V15.9949H24V-0.00256348Z" fill="black"/>
<path id="Vector_2" d="M24 -0.00256348H0V7.99994H24V-0.00256348Z" fill="#D80027"/>
<path id="Vector_3" d="M10.9053 6.365L11.5803 6.8525L11.3253 7.655L12.0003 7.16L12.6753 7.655L12.4203 6.8525L13.0953 6.3575L12.2553 6.365L12.0003 5.5625L11.7378 6.365H10.9053V6.365Z" fill="#FFDA44"/>
<path id="Vector_4" d="M14.0026 4.53506C13.393 4.18599 12.7026 4.00241 12.0001 4.00256V5.04506C12.6823 5.05044 13.3416 5.29161 13.8662 5.72768C14.3908 6.16374 14.7485 6.76785 14.8785 7.43754C15.0084 8.10723 14.9028 8.80126 14.5794 9.40192C14.256 10.0026 13.7348 10.4729 13.1041 10.7331C12.6856 10.9051 12.2332 10.9788 11.7817 10.9484C11.3302 10.9179 10.8918 10.7842 10.5001 10.5576C10.1007 10.3309 9.76127 10.0121 9.51014 9.62756L8.64014 10.2051C8.97373 10.7058 9.41603 11.1247 9.93407 11.4306C10.4521 11.7366 11.0325 11.9216 11.6321 11.972C12.2316 12.0224 12.8348 11.9368 13.3966 11.7217C13.9584 11.5065 14.4645 11.1673 14.877 10.7293C15.2894 10.2913 15.5978 9.76588 15.7789 9.19215C15.96 8.61843 16.0093 8.01122 15.9231 7.41579C15.8369 6.82035 15.6174 6.25206 15.281 5.75327C14.9446 5.25448 14.4999 4.83807 13.9801 4.53506H14.0026V4.53506Z" fill="#FFDA44"/>
<path id="Vector_5" d="M9.6902 7.30249C9.61964 7.42437 9.57449 7.55927 9.55746 7.69907C9.54043 7.83887 9.55188 7.98067 9.59113 8.11592C9.63037 8.25117 9.6966 8.37708 9.78581 8.48605C9.87502 8.59503 9.98536 8.68481 10.1102 8.74999L13.5002 10.5725C13.4414 10.6696 13.4027 10.7774 13.3864 10.8897C13.37 11.002 13.3764 11.1164 13.405 11.2262C13.4337 11.336 13.4841 11.439 13.5533 11.5289C13.6225 11.6189 13.709 11.6941 13.8077 11.75L14.7227 12.2525C14.9259 12.3626 15.1642 12.3881 15.3861 12.3235C15.608 12.2589 15.7954 12.1094 15.9077 11.9075L16.4027 11L9.6902 7.30249V7.30249Z" fill="#FFDA44"/>
</g>
</g>
<defs>
<clipPath id="clip0_2253_2488">
<rect width="24" height="16" rx="4" fill="white"/>
</clipPath>
</defs>
</svg>
