<svg width="auto" height="auto" viewBox="0 0 24 16" fill="none" xmlns="http://www.w3.org/2000/svg">
<g id="BA">
<g clip-path="url(#clip0_2253_2529)">
<path id="Vector" d="M24 -0.00256348H0V15.9949H24V-0.00256348Z" fill="#0052B4"/>
<path id="Vector_2" d="M4.6875 -0.00256348H20.685V16.0024" fill="#FFDA44"/>
<path id="Vector_3" d="M1.71777 0.717437L2.40777 0.214936L3.10527 0.717437L2.87277 -0.00256348H1.95027L1.71777 0.717437Z" fill="#F0F0F0"/>
<path id="Vector_4" d="M4.14012 0.860034L3.87762 0.0350342L3.60762 0.860034H2.74512L3.44262 1.36253L3.18012 2.18003L3.87762 1.67753L4.57512 2.18003L4.30512 1.36253L5.00262 0.860034H4.14012Z" fill="#F0F0F0"/>
<path id="Vector_5" d="M5.60234 2.3225L5.33984 1.505L5.06984 2.3225H4.21484L4.91234 2.8325L4.64234 3.65L5.33984 3.14001L6.03734 3.65L5.76734 2.8325L6.46484 2.3225H5.60234Z" fill="#F0F0F0"/>
<path id="Vector_6" d="M7.07273 3.78503L6.80273 2.96753L6.54023 3.78503H5.67773L6.37523 4.29503L6.11273 5.11253L6.80273 4.61003L7.50023 5.11253L7.23773 4.29503L7.93523 3.78503H7.07273Z" fill="#F0F0F0"/>
<path id="Vector_7" d="M8.53496 5.25493L8.27246 4.42993L8.00246 5.25493H7.14746L7.83746 5.75743L7.57496 6.57493L8.27246 6.07243L8.96996 6.57493L8.69996 5.75743L9.39746 5.25493H8.53496V5.25493Z" fill="#F0F0F0"/>
<path id="Vector_8" d="M10.0049 6.7174L9.73486 5.8999L9.47236 6.7174H8.60986L9.30736 7.2274L9.03736 8.0449L9.73486 7.5349L10.4324 8.0449L10.1624 7.2199L10.8599 6.7174H10.0049Z" fill="#F0F0F0"/>
<path id="Vector_9" d="M11.4673 8.18755L11.1973 7.36255L10.9348 8.18755H10.0723L10.7698 8.69005L10.5073 9.50755L11.2048 9.00505L11.8948 9.50755L11.6323 8.69005L12.3298 8.18005L11.4673 8.18755V8.18755Z" fill="#F0F0F0"/>
<path id="Vector_10" d="M12.9302 9.65002L12.6677 8.83252L12.3977 9.65002H11.5352L12.2327 10.1525L11.9702 10.97L12.6677 10.4675L13.3652 10.97L13.0952 10.1525L13.7927 9.65002H12.9302V9.65002Z" fill="#F0F0F0"/>
<path id="Vector_11" d="M14.3999 11.1125L14.1299 10.295L13.8674 11.1125H13.0049L13.7024 11.6225L13.4324 12.44L14.1299 11.93L14.8274 12.44L14.5649 11.6225L15.2549 11.1125H14.3999Z" fill="#F0F0F0"/>
<path id="Vector_12" d="M15.8628 12.5826L15.5928 11.7576L15.3303 12.5826H14.4678L15.1653 13.0851L14.9028 13.9026L15.6003 13.4001L16.2903 13.9026L16.0278 13.0851L16.7253 12.5826H15.8628Z" fill="#F0F0F0"/>
<path id="Vector_13" d="M17.325 14.045L17.0625 13.2275L16.7925 14.045H15.9375L16.6275 14.5475L16.365 15.3725L17.0625 14.8625L17.76 15.365L17.49 14.5475L18.1875 14.045H17.325V14.045Z" fill="#F0F0F0"/>
<path id="Vector_14" d="M18.5249 14.6901L18.2624 15.5076H17.3999L18.0749 16.0026H18.9749L19.6499 15.5076H18.7949L18.5249 14.6901V14.6901Z" fill="#F0F0F0"/>
</g>
</g>
<defs>
<clipPath id="clip0_2253_2529">
<rect width="24" height="16" rx="4" fill="white"/>
</clipPath>
</defs>
</svg>
