<svg width="auto" height="auto" viewBox="0 0 24 16" fill="none" xmlns="http://www.w3.org/2000/svg">
<g id="BD">
<g clip-path="url(#clip0_2253_2548)">
<path id="Vector" d="M24 -0.00256348H0V15.9949H24V-0.00256348Z" fill="#496E2D"/>
<path id="Vector_2" d="M10.3624 11.4785C10.8192 11.4647 11.2688 11.3611 11.6856 11.1735C12.1024 10.986 12.4781 10.7182 12.7913 10.3854C13.1046 10.0526 13.3493 9.66145 13.5113 9.23414C13.6734 8.80683 13.7497 8.35178 13.7359 7.89498C13.7221 7.43818 13.6185 6.98856 13.431 6.57181C13.2434 6.15506 12.9756 5.77932 12.6429 5.46606C12.3101 5.15281 11.9189 4.90816 11.4916 4.74609C11.0643 4.58401 10.6092 4.50769 10.1524 4.52148C9.22987 4.54933 8.35617 4.94252 7.72351 5.61456C7.09086 6.28659 6.75108 7.18243 6.77893 8.10498C6.80678 9.02754 7.19997 9.90124 7.87201 10.5339C8.54404 11.1666 9.43987 11.5063 10.3624 11.4785Z" fill="#D80027"/>
</g>
</g>
<defs>
<clipPath id="clip0_2253_2548">
<rect width="24" height="16" rx="4" fill="white"/>
</clipPath>
</defs>
</svg>
