<svg width="auto" height="auto" viewBox="0 0 24 16" fill="none" xmlns="http://www.w3.org/2000/svg">
<g id="BI">
<g clip-path="url(#clip0_2253_2567)">
<path id="Vector" d="M24 -0.00256348H0V15.9949H24V-0.00256348Z" fill="#D80027"/>
<path id="Vector_2" d="M10.1175 8.00007L0 14.7501V1.25757L10.1175 8.00007ZM24 1.25757V14.7501L13.8825 8.00007L24 1.25757Z" fill="#6DA544"/>
<path id="Vector_3" d="M24 1.25744L13.8825 7.99994L24 14.7424V16.0024H22.1175L12 9.25244L1.8825 16.0024H0V14.7424L10.1175 7.99994L0 1.25744V-0.00256348H1.8825L12 6.74744L22.1175 -0.00256348H24V1.25744Z" fill="#0052B4"/>
<path id="Vector_4" d="M24 1.25744L13.8825 7.99994L24 14.7424V16.0024H22.1175L12 9.25244L1.8825 16.0024H0V14.7424L10.1175 7.99994L0 1.25744V-0.00256348H1.8825L12 6.74744L22.1175 -0.00256348H24V1.25744Z" fill="#F0F0F0"/>
<path id="Vector_5" d="M12 11.48C12.923 11.48 13.8081 11.1134 14.4608 10.4608C15.1134 9.80812 15.48 8.92297 15.48 8.00002C15.48 7.07707 15.1134 6.19191 14.4608 5.53929C13.8081 4.88666 12.923 4.52002 12 4.52002C11.0771 4.52002 10.1919 4.88666 9.53929 5.53929C8.88666 6.19191 8.52002 7.07707 8.52002 8.00002C8.52002 8.92297 8.88666 9.80812 9.53929 10.4608C10.1919 11.1134 11.0771 11.48 12 11.48V11.48Z" fill="#F0F0F0"/>
<path id="Vector_6" d="M12 5.5625L12.3 6.0875H12.9L12.6 6.605L12.9 7.13H12.3L12 7.655L11.7 7.13H11.0925L11.4 6.605L11.0925 6.0875H11.7L12 5.5625V5.5625ZM10.47 8L10.77 8.525H11.37L11.07 9.0425L11.37 9.5675H10.77L10.47 10.085L10.17 9.5675H9.5625L9.8625 9.0425L9.5625 8.525H10.17L10.47 8ZM13.53 8L13.83 8.525H14.4375L14.13 9.0425L14.4375 9.5675H13.83L13.53 10.085L13.23 9.5675H12.63L12.93 9.0425L12.63 8.525H13.23L13.53 8Z" fill="#D80027"/>
</g>
</g>
<defs>
<clipPath id="clip0_2253_2567">
<rect width="24" height="16" rx="4" fill="white"/>
</clipPath>
</defs>
</svg>
