<svg width="auto" height="auto" viewBox="0 0 24 16" fill="none" xmlns="http://www.w3.org/2000/svg">
<g id="BL">
<g clip-path="url(#clip0_2253_2578)">
<path id="Vector" d="M24 -0.00256348H0V15.9949H24V-0.00256348Z" fill="#F0F0F0"/>
<path id="Vector_2" d="M18.2848 6.4325H15.6523C15.6523 6.20176 15.5607 5.98047 15.3975 5.81732C15.2344 5.65416 15.0131 5.5625 14.7823 5.5625L14.0848 6.9575L14.8348 9.0425H15.6748C15.9056 9.0425 16.1269 8.95084 16.29 8.78768C16.4532 8.62453 16.5448 8.40324 16.5448 8.1725C16.7756 8.1725 16.9969 8.08084 17.16 7.91768C17.3232 7.75453 17.4148 7.53324 17.4148 7.3025C17.6432 7.29501 17.8602 7.20094 18.0217 7.03938C18.1833 6.87782 18.2773 6.66086 18.2848 6.4325V6.4325ZM5.71484 6.4325H8.34734C8.34734 6.20176 8.439 5.98047 8.60216 5.81732C8.76532 5.65416 8.98661 5.5625 9.21734 5.5625L9.91484 6.9575L9.16484 9.0425H8.32484C8.09411 9.0425 7.87282 8.95084 7.70966 8.78768C7.5465 8.62453 7.45484 8.40324 7.45484 8.1725C7.22411 8.1725 7.00282 8.08084 6.83966 7.91768C6.6765 7.75453 6.58484 7.53324 6.58484 7.3025C6.35649 7.29501 6.13952 7.20094 5.97796 7.03938C5.8164 6.87782 5.72234 6.66086 5.71484 6.4325V6.4325Z" fill="#ACABB1"/>
<path id="Vector_3" d="M14.7826 11.1276V11.4801H9.21758V11.1276H7.83008V12.5226H9.21758V12.8676H14.7826V12.5226H16.1776V11.1276H14.7826Z" fill="#FFDA44"/>
<path id="Vector_4" d="M9.21777 5.56253V9.04253C9.21777 11.1725 12.0003 11.825 12.0003 11.825C12.0003 11.825 14.7828 11.1725 14.7828 9.04253V5.56253L12.0003 5.21753L9.21777 5.56253Z" fill="#0052B4"/>
<path id="Vector_5" d="M14.7828 6.95752H9.21777V9.04252H14.7828V6.95752V6.95752Z" fill="#D80027"/>
<path id="Vector_6" d="M13.3953 3.82257V4.34757L13.0428 4.52007L12.6978 4.17507V3.13257H11.3028V4.17507L10.9578 4.52007L10.6053 4.34757V3.82257H9.21777V5.56257H14.7828V3.82257H13.3953V3.82257Z" fill="#FFDA44"/>
</g>
</g>
<defs>
<clipPath id="clip0_2253_2578">
<rect width="24" height="16" rx="4" fill="white"/>
</clipPath>
</defs>
</svg>
