<svg width="auto" height="auto" viewBox="0 0 24 16" fill="none" xmlns="http://www.w3.org/2000/svg">
<g id="BM">
<g clip-path="url(#clip0_2253_2585)">
<path id="Vector" d="M24 -0.00256348H0V15.9949H24V-0.00256348Z" fill="#D80027"/>
<path id="Vector_2" d="M12 -0.00256348H0V7.99994H12V-0.00256348Z" fill="#F0F0F0"/>
<path id="Vector_3" d="M6.75 -0.00256348H5.25V3.25244H0V4.75244H5.25V7.99994H6.75V4.75244H12V3.25244H6.75V-0.00256348Z" fill="#D80027"/>
<path id="Vector_4" d="M0 -0.00256348V0.709937L2.6925 2.50244H3.75L0 -0.00256348Z" fill="#D80027"/>
<path id="Vector_5" d="M0 1.06244V2.50244H2.16L0 1.06244ZM4.5 -0.00256348V2.29244L1.0575 -0.00256348H4.5Z" fill="#2E52B2"/>
<path id="Vector_6" d="M12 -0.00256348V0.709937L9.3075 2.50244H8.25L12 -0.00256348Z" fill="#D80027"/>
<path id="Vector_7" d="M12 1.06244V2.50244H9.84L12 1.06244ZM7.5 -0.00256348V2.29244L10.9425 -0.00256348H7.5Z" fill="#2E52B2"/>
<path id="Vector_8" d="M0 -0.00256348V0.709937L2.6925 2.50244H3.75L0 -0.00256348Z" fill="#D80027"/>
<path id="Vector_9" d="M0 1.06244V2.50244H2.16L0 1.06244ZM4.5 -0.00256348V2.29244L1.0575 -0.00256348H4.5Z" fill="#2E52B2"/>
<path id="Vector_10" d="M12 -0.00256348V0.709937L9.3075 2.50244H8.25L12 -0.00256348Z" fill="#D80027"/>
<path id="Vector_11" d="M12 1.06244V2.50244H9.84L12 1.06244ZM7.5 -0.00256348V2.29244L10.9425 -0.00256348H7.5Z" fill="#2E52B2"/>
<path id="Vector_12" d="M0 8.00006V7.29506L2.6925 5.50256H3.75L0 8.00006Z" fill="#D80027"/>
<path id="Vector_13" d="M0 6.94256V5.50256H2.16L0 6.94256ZM4.5 8.00006V5.70506L1.0575 8.00006H4.5Z" fill="#2E52B2"/>
<path id="Vector_14" d="M12 8.00006V7.29506L9.3075 5.50256H8.25L12 8.00006Z" fill="#D80027"/>
<path id="Vector_15" d="M12 6.94256V5.50256H9.84L12 6.94256ZM7.5 8.00006V5.70506L10.9425 8.00006H7.5Z" fill="#2E52B2"/>
<path id="Vector_16" d="M15.5625 4.87244V8.69744C15.5625 10.5574 20.4375 10.5574 20.4375 8.69744V4.87244H15.5625Z" fill="#F3F3F3"/>
<path id="Vector_17" d="M15.5625 8.69751C15.5625 10.5575 18 11.1275 18 11.1275C18 11.1275 20.4375 10.5575 20.4375 8.69751H15.5625Z" fill="#6DA544"/>
<path id="Vector_18" d="M17.9997 7.16748L16.8672 7.65498V8.69748L17.9997 9.39498L19.1322 8.69748V7.65498L17.9997 7.16748Z" fill="#A2001D"/>
<path id="Vector_19" d="M19.1247 6.60498H16.8672V7.64748H19.1247V6.60498Z" fill="#338AF3"/>
</g>
</g>
<defs>
<clipPath id="clip0_2253_2585">
<rect width="24" height="16" rx="4" fill="white"/>
</clipPath>
</defs>
</svg>
