<svg width="auto" height="auto" viewBox="0 0 24 16" fill="none" xmlns="http://www.w3.org/2000/svg">
<g id="BR">
<g clip-path="url(#clip0_2253_2623)">
<path id="Vector" d="M24 -0.00256348H0V15.9949H24V-0.00256348Z" fill="#6DA544"/>
<path id="Vector_2" d="M12 3.58252L18 8.00002L12 12.4175L6 8.00002L12 3.58252Z" fill="#FFDA44"/>
<path id="Vector_3" d="M14.5274 8.0772C14.5428 7.74251 14.4915 7.40811 14.3764 7.09344C14.2614 6.77877 14.0849 6.49012 13.8573 6.24426C13.6297 5.99841 13.3555 5.80026 13.0506 5.66134C12.7457 5.52242 12.4162 5.44551 12.0814 5.43507C11.7465 5.42463 11.4129 5.48087 11.0999 5.60053C10.787 5.72018 10.5009 5.90087 10.2585 6.13207C10.016 6.36327 9.82188 6.64037 9.68745 6.94726C9.55303 7.25415 9.48096 7.58471 9.47544 7.9197C9.4645 8.58351 9.71519 9.22498 10.1733 9.70548C10.6315 10.186 11.2603 10.4669 11.9238 10.4876C12.5874 10.5083 13.2325 10.2671 13.7197 9.81604C14.2069 9.36501 14.497 8.74041 14.5274 8.0772V8.0772Z" fill="#F0F0F0"/>
<path id="Vector_4" d="M10.7402 7.84251C10.3108 7.84332 9.88385 7.90648 9.47266 8.03001C9.47953 8.56468 9.6558 9.0834 9.97611 9.51156C10.2964 9.93973 10.7443 10.2553 11.2553 10.4128C11.7662 10.5704 12.314 10.5618 12.8198 10.3883C13.3256 10.2149 13.7634 9.88548 14.0702 9.44751C13.6709 8.94748 13.1643 8.54362 12.5879 8.26581C12.0115 7.98799 11.38 7.84332 10.7402 7.84251V7.84251ZM14.4827 8.48001C14.5966 7.86997 14.4822 7.23931 14.1611 6.70822C13.8401 6.17712 13.3349 5.78271 12.7417 5.60013C12.1486 5.41756 11.509 5.45959 10.9449 5.71821C10.3807 5.97683 9.93145 6.43396 9.68266 7.00251C10.5425 6.82811 11.4323 6.87196 12.2708 7.13006C13.1093 7.38816 13.8697 7.85228 14.4827 8.48001V8.48001Z" fill="#0052B4"/>
</g>
</g>
<defs>
<clipPath id="clip0_2253_2623">
<rect width="24" height="16" rx="4" fill="white"/>
</clipPath>
</defs>
</svg>
