<svg width="auto" height="auto" viewBox="0 0 24 16" fill="none" xmlns="http://www.w3.org/2000/svg">
<g id="BT">
<g clip-path="url(#clip0_2253_2632)">
<path id="Vector" d="M24 -0.00256348H0V15.9949H24V-0.00256348Z" fill="#FF9811"/>
<path id="Vector_2" d="M24 -0.00256348H0V16.0024" fill="#FFDA44"/>
<path id="Vector_3" d="M16.4997 4.52007V3.13257H13.8597L13.6572 3.33507C13.3914 3.62571 13.2043 3.97949 13.1137 4.36279C13.0232 4.74609 13.0321 5.14619 13.1397 5.52507C13.2222 6.09507 13.2372 6.31257 13.0197 6.52257C12.8022 6.73257 12.5922 6.73257 12.0147 6.65007C11.6376 6.54141 11.239 6.53124 10.8569 6.62052C10.4749 6.70981 10.122 6.89557 9.83219 7.16007C9.567 7.45109 9.38033 7.80487 9.28979 8.18804C9.19924 8.57121 9.20781 8.97113 9.31469 9.35007C9.39719 9.92007 9.40469 10.1376 9.19469 10.3551C8.98469 10.5726 8.75969 10.5576 8.18969 10.4751C7.95951 10.4329 7.72618 10.4103 7.49219 10.4076V11.7951C7.66544 11.8033 7.83794 11.8206 8.00969 11.8476C8.25719 11.8926 8.50844 11.9151 8.75969 11.9151C9.03787 11.9135 9.31305 11.8574 9.56969 11.7501V12.8601H11.6547V11.8251H10.6122V11.1276H11.3097V10.0851H10.7547C10.7666 9.77134 10.7465 9.45722 10.6947 9.14757C10.6122 8.57757 10.5972 8.36007 10.8147 8.14257C11.0322 7.92507 11.2422 7.94007 11.8197 8.02257C12.3425 8.14386 12.8891 8.11262 13.3947 7.93257V9.04257H15.4797V8.00007H14.4372V7.30257H15.1347V6.26007H14.5797C14.5916 5.94634 14.5715 5.63222 14.5197 5.32257C14.4551 5.05896 14.4551 4.78367 14.5197 4.52007H16.4997Z" fill="#F0F0F0"/>
</g>
</g>
<defs>
<clipPath id="clip0_2253_2632">
<rect width="24" height="16" rx="4" fill="white"/>
</clipPath>
</defs>
</svg>
