<svg width="auto" height="auto" viewBox="0 0 24 16" fill="none" xmlns="http://www.w3.org/2000/svg">
<g id="BZ">
<g clip-path="url(#clip0_2253_2645)">
<path id="Vector" d="M24 -0.00256348H0V15.9949H24V-0.00256348Z" fill="#0052B4"/>
<path id="Vector_2" d="M11.9998 11.825C12.5021 11.825 12.9995 11.7261 13.4636 11.5339C13.9276 11.3417 14.3493 11.0599 14.7045 10.7047C15.0597 10.3495 15.3414 9.92788 15.5336 9.46381C15.7259 8.99974 15.8248 8.50236 15.8248 8.00005C15.8248 7.49774 15.7259 7.00036 15.5336 6.53628C15.3414 6.07221 15.0597 5.65055 14.7045 5.29537C14.3493 4.94018 13.9276 4.65843 13.4636 4.46621C12.9995 4.27399 12.5021 4.17505 11.9998 4.17505C10.9854 4.17505 10.0124 4.57804 9.29512 5.29537C8.57779 6.01269 8.1748 6.9856 8.1748 8.00005C8.1748 9.0145 8.57779 9.98741 9.29512 10.7047C10.0124 11.4221 10.9854 11.825 11.9998 11.825V11.825Z" fill="#F0F0F0"/>
<path id="Vector_3" d="M12.0001 11.1274C12.4108 11.1274 12.8175 11.0465 13.1969 10.8894C13.5763 10.7322 13.9211 10.5018 14.2115 10.2114C14.502 9.921 14.7323 9.57623 14.8895 9.19678C15.0467 8.81733 15.1276 8.41065 15.1276 7.99994C15.1276 7.58923 15.0467 7.18254 14.8895 6.80309C14.7323 6.42365 14.502 6.07888 14.2115 5.78846C13.9211 5.49805 13.5763 5.26768 13.1969 5.1105C12.8175 4.95333 12.4108 4.87244 12.0001 4.87244C11.1706 4.87244 10.3751 5.20194 9.78858 5.78846C9.20206 6.37498 8.87256 7.17047 8.87256 7.99994C8.87256 8.8294 9.20206 9.62489 9.78858 10.2114C10.3751 10.7979 11.1706 11.1274 12.0001 11.1274V11.1274Z" fill="#6DA544"/>
<path id="Vector_4" d="M12 10.085C12.553 10.085 13.0833 9.86537 13.4744 9.47436C13.8654 9.08334 14.085 8.55302 14.085 8.00004C14.085 7.44706 13.8654 6.91673 13.4744 6.52572C13.0833 6.13471 12.553 5.91504 12 5.91504C11.4471 5.91504 10.9167 6.13471 10.5257 6.52572C10.1347 6.91673 9.91504 7.44706 9.91504 8.00004C9.91504 8.55302 10.1347 9.08334 10.5257 9.47436C10.9167 9.86537 11.4471 10.085 12 10.085V10.085Z" fill="#F0F0F0"/>
<path id="Vector_5" d="M11.9997 7.4751L10.8672 8.0001V8.8701L11.9997 9.5676L13.1322 8.8701V8.0001L11.9997 7.4751Z" fill="#0052B4"/>
<path id="Vector_6" d="M13.1247 6.95752H10.8672V8.00002H13.1247V6.95752Z" fill="#FFDA44"/>
<path id="Vector_7" d="M24 -0.00256348H0V1.38494H24V-0.00256348ZM24 14.6074H0V16.0024H24V14.6074Z" fill="#A2001D"/>
</g>
</g>
<defs>
<clipPath id="clip0_2253_2645">
<rect width="24" height="16" rx="4" fill="white"/>
</clipPath>
</defs>
</svg>
