<svg width="auto" height="auto" viewBox="0 0 24 16" fill="none" xmlns="http://www.w3.org/2000/svg">
<g id="CF">
<g clip-path="url(#clip0_2253_2661)">
<path id="Vector" d="M24 -0.00256348H0V15.9949H24V-0.00256348Z" fill="#D80027"/>
<path id="Vector_2" d="M9.915 8H0V11.9975H9.915V8ZM24 8H14.085V11.9975H24V8Z" fill="#6DA544"/>
<path id="Vector_3" d="M0 -0.00256348V4.00244H9.915V-0.00256348H14.085V4.00244H24V-0.00256348H0Z" fill="#0052B4"/>
<path id="Vector_4" d="M24 4.00256H14.085V8.00006H24V4.00256ZM9.915 4.00256H0V8.00006H9.915V4.00256Z" fill="#F0F0F0"/>
<path id="Vector_5" d="M14.085 16.0025H9.915V11.9975H0V16.0025H24V11.9975H14.085V16.0025ZM5.61 1.21997L5.8275 1.87997H6.525L5.9625 2.29247L6.1725 2.95997L5.61 2.54747L5.0475 2.95997L5.2575 2.29247L4.695 1.87997H5.3925L5.61 1.21997V1.21997Z" fill="#FFDA44"/>
</g>
</g>
<defs>
<clipPath id="clip0_2253_2661">
<rect width="24" height="16" rx="4" fill="white"/>
</clipPath>
</defs>
</svg>
