<svg width="auto" height="auto" viewBox="0 0 24 16" fill="none" xmlns="http://www.w3.org/2000/svg">
<g id="CK">
<g clip-path="url(#clip0_2253_2678)">
<path id="Vector" d="M24 -0.00256348H0V15.9949H24V-0.00256348Z" fill="#0052B4"/>
<path id="Vector_2" d="M18 3.34244L18.2475 4.10744H19.05L18.3975 4.57994L18.645 5.33744L18 4.87244L17.355 5.33744L17.595 4.57994L16.95 4.10744H17.7525L18 3.34244ZM14.7075 4.70744L15.42 5.07494L15.99 4.50494L15.8625 5.29994L16.575 5.65994L15.7875 5.78744L15.66 6.57494L15.3 5.86244L14.505 5.98994L15.075 5.41994L14.7075 4.70744V4.70744ZM13.3425 7.99994L14.1075 7.75244V6.94994L14.58 7.60244L15.3375 7.35494L14.8725 7.99994L15.3375 8.64494L14.58 8.39744L14.1075 9.04994V8.24744L13.3425 7.99994ZM14.7075 11.2924L15.075 10.5799L14.505 10.0099L15.3 10.1374L15.66 9.42494L15.7875 10.2124L16.575 10.3399L15.8625 10.6999L15.99 11.4949L15.42 10.9249L14.7075 11.2924ZM18 12.6499L17.7525 11.8924H16.95L17.595 11.4199L17.355 10.6624L18 11.1274L18.645 10.6624L18.3975 11.4199L19.05 11.8924H18.2475L18 12.6499ZM21.2925 11.2924L20.58 10.9249L20.01 11.4949L20.1375 10.6999L19.425 10.3399L20.2125 10.2124L20.34 9.42494L20.7 10.1374L21.495 10.0099L20.925 10.5799L21.2925 11.2924ZM22.6575 7.99994L21.8925 8.24744V9.04994L21.42 8.39744L20.6625 8.64494L21.135 7.99994L20.6625 7.35494L21.42 7.60244L21.8925 6.94994V7.75244L22.6575 7.99994V7.99994ZM21.2925 4.70744L20.925 5.41994L21.495 5.98994L20.7 5.86244L20.34 6.57494L20.2125 5.78744L19.425 5.65994L20.1375 5.29994L20.01 4.50494L20.58 5.07494L21.2925 4.70744V4.70744ZM4.5 7.99994H1.0575L4.5 5.70494V7.99994ZM0 4.75244V5.50244H2.16L0 6.94244V7.29494L2.6925 5.50244H3.75L0 7.99994H5.25V4.75244H0ZM7.5 -0.00256348H10.9425L7.5 2.29244V-0.00256348ZM8.25 2.50244L12 -0.00256348H6.75V3.25244H12V2.50244H9.84L12 1.06244V0.709937L9.3075 2.50244H8.25ZM7.5 5.70494L10.9425 7.99994H7.5V5.70494ZM6.75 7.99994H12L8.25 5.50244H9.3075L12 7.29494V6.94244L9.84 5.50244H12V4.75244H6.75V7.99994ZM4.5 2.29244L1.0575 -0.00256348H4.5V2.29244ZM5.25 -0.00256348H0L3.75 2.50244H2.6925L0 0.709937V1.06244L2.16 2.50244H0V3.25244H5.25V-0.00256348Z" fill="#F0F0F0"/>
<path id="Vector_3" d="M6.75 -0.00256348H5.25V3.25244H0V4.75244H5.25V7.99994H6.75V4.75244H12V3.25244H6.75V-0.00256348Z" fill="#D80027"/>
<path id="Vector_4" d="M3.75 2.50244L0 -0.00256348V0.709937L2.6925 2.50244H3.75ZM8.25 2.50244H9.3075L12 0.709937V-0.00256348L8.25 2.50244ZM2.6925 5.50244L0 7.29494V7.99994L3.75 5.50244H2.6925ZM8.25 5.50244L12 7.99994V7.29494L9.3075 5.50244H8.25Z" fill="#D80027"/>
</g>
</g>
<defs>
<clipPath id="clip0_2253_2678">
<rect width="24" height="16" rx="4" fill="white"/>
</clipPath>
</defs>
</svg>
