<svg width="auto" height="auto" viewBox="0 0 24 16" fill="none" xmlns="http://www.w3.org/2000/svg">
<g id="CN">
<g clip-path="url(#clip0_2253_2692)">
<path id="Vector" d="M24 -0.00256348H0V15.9949H24V-0.00256348Z" fill="#D80027"/>
<path id="Vector_2" d="M8.3851 4.88751L9.0751 7.00251H11.2951L9.4951 8.30751L10.1851 10.4225L8.3851 9.11001L6.5851 10.4225L7.2751 8.30751L5.4751 7.00251H7.7026L8.3851 4.88751V4.88751ZM12.7126 11.9225L12.0451 11.4275L11.3701 11.9225L11.6251 11.1275L10.9501 10.6325H11.7826L12.0451 9.84501L12.3001 10.6325H13.1326L12.4576 11.1275L12.7126 11.9225ZM14.4751 9.50001H13.6426L13.3876 10.2875L13.1251 9.50001H12.2926L12.9676 9.00501L12.7126 8.21751L13.3876 8.70501L14.0626 8.21751L13.8001 9.00501L14.4751 9.50001V9.50001ZM14.4751 6.50001L13.8001 6.99501L14.0626 7.78251L13.3876 7.29501L12.7126 7.78251L12.9676 6.99501L12.2926 6.50001H13.1251L13.3876 5.71251L13.6426 6.50001H14.4751V6.50001ZM12.7126 4.07751L12.4576 4.87251L13.1326 5.36001H12.3001L12.0376 6.15501L11.7826 5.36001H10.9501L11.6251 4.87251L11.3701 4.07751L12.0376 4.57251L12.7126 4.07751Z" fill="#FFDA44"/>
</g>
</g>
<defs>
<clipPath id="clip0_2253_2692">
<rect width="24" height="16" rx="4" fill="white"/>
</clipPath>
</defs>
</svg>
