<svg width="auto" height="auto" viewBox="0 0 24 16" fill="none" xmlns="http://www.w3.org/2000/svg">
<g id="CV">
<g clip-path="url(#clip0_2253_2708)">
<path id="Vector" d="M24 -0.00256348H0V15.9949H24V-0.00256348Z" fill="#0052B4"/>
<path id="Vector_2" d="M24 11.1276H0V12.1701H24V11.1276Z" fill="#D80027"/>
<path id="Vector_3" d="M24 10.085H0V11.1275H24V10.085ZM24 12.17H0V13.2125H24V12.17Z" fill="#F0F0F0"/>
<path id="Vector_4" d="M8.45223 8.24744L8.59473 8.68244H9.05223L8.68473 8.95244L8.82723 9.37994L8.45223 9.11744L8.08473 9.37994L8.22723 8.95244L7.85973 8.68244H8.31723L8.45223 8.24744V8.24744ZM8.45223 13.9249L8.59473 14.3524H9.05223L8.68473 14.6224L8.82723 15.0574L8.45223 14.7874L8.08473 15.0574L8.22723 14.6224L7.85973 14.3524H8.31723L8.45223 13.9249V13.9249ZM5.81223 12.0049L5.95473 12.4324H6.41223L6.03723 12.7024L6.17973 13.1374L5.81223 12.8674L5.44473 13.1374L5.58723 12.7024L5.21973 12.4324H5.66973L5.81223 12.0049ZM6.82473 8.81744L6.96723 9.24494H7.41723L7.04973 9.51494L7.19223 9.94994L6.82473 9.67994L6.45723 9.94994L6.59223 9.51494L6.22473 9.24494H6.68223L6.82473 8.81744V8.81744ZM5.21973 10.6024H5.66973L5.81223 10.1674L5.95473 10.6024H6.41223L6.03723 10.8649L6.17973 11.2999L5.81223 11.0374L5.44473 11.2999L5.58723 10.8649L5.21973 10.6024ZM6.44973 14.4049L6.59223 13.9699L6.22473 13.7074H6.68223L6.82473 13.2724L6.95973 13.7074H7.41723L7.04973 13.9699L7.19223 14.4049L6.82473 14.1349L6.44973 14.4049V14.4049ZM11.0922 12.0049L10.9572 12.4324H10.4997L10.8672 12.7024L10.7247 13.1374L11.0922 12.8674L11.4672 13.1374L11.3247 12.7024L11.6922 12.4324H11.2347L11.0922 12.0049V12.0049ZM10.0872 8.81744L9.94473 9.24494H9.48723L9.85473 9.51494L9.71973 9.94994L10.0872 9.67994L10.4547 9.94994L10.3122 9.51494L10.6797 9.24494H10.2297L10.0872 8.81744V8.81744ZM11.6922 10.6024H11.2347L11.0922 10.1674L10.9572 10.6024H10.4997L10.8672 10.8649L10.7247 11.2999L11.0922 11.0374L11.4672 11.2999L11.3247 10.8649L11.6922 10.6024V10.6024ZM10.4547 14.4049L10.3122 13.9699L10.6797 13.7074H10.2297L10.0872 13.2724L9.94473 13.7074H9.48723L9.85473 13.9699L9.71973 14.4049L10.0872 14.1349L10.4547 14.4049V14.4049Z" fill="#FFDA44"/>
</g>
</g>
<defs>
<clipPath id="clip0_2253_2708">
<rect width="24" height="16" rx="4" fill="white"/>
</clipPath>
</defs>
</svg>
