<svg width="auto" height="auto" viewBox="0 0 24 16" fill="none" xmlns="http://www.w3.org/2000/svg">
<g id="CY">
<g clip-path="url(#clip0_2253_2717)">
<path id="Vector" d="M24 -0.00256348H0V15.9949H24V-0.00256348Z" fill="#F0F0F0"/>
<path id="Vector_2" d="M16.5 6.96497H15.465C15.465 7.88394 15.0999 8.76528 14.4501 9.41509C13.8003 10.0649 12.919 10.43 12 10.43C11.081 10.43 10.1997 10.0649 9.54988 9.41509C8.90006 8.76528 8.535 7.88394 8.535 6.96497H7.5C7.50025 7.94378 7.81963 8.89582 8.40973 9.67675C8.99983 10.4577 9.82846 11.0249 10.77 11.2925C10.6671 11.4919 10.6236 11.7167 10.6449 11.9401C10.6662 12.1635 10.7513 12.3761 10.89 12.5525L12 11.645L13.1325 12.5525C13.2751 12.3763 13.362 12.1616 13.3821 11.9359C13.4021 11.7101 13.3544 11.4835 13.245 11.285C14.1825 11.0151 15.0069 10.4478 15.594 9.6686C16.1811 8.88942 16.4991 7.94056 16.5 6.96497Z" fill="#6DA544"/>
<path id="Vector_3" d="M9.23236 6.62001C9.22724 6.84794 9.26835 7.07455 9.35323 7.28615C9.4381 7.49776 9.56498 7.68996 9.72619 7.85118C9.8874 8.01239 10.0796 8.13927 10.2912 8.22414C10.5028 8.30902 10.7294 8.35013 10.9574 8.34501L11.3099 8.69751H11.9999C11.9999 8.69751 12.3449 7.65501 13.0349 7.65501C13.0328 7.56319 13.0494 7.4719 13.0838 7.38675C13.1183 7.30159 13.1697 7.22435 13.235 7.15976C13.3003 7.09517 13.3781 7.04458 13.4636 7.01109C13.5491 6.9776 13.6406 6.96192 13.7324 6.96501H14.7674C14.7674 6.96501 14.4224 5.57751 16.1549 4.54251L15.4574 4.19751C15.4574 4.19751 13.0349 5.92251 11.3099 5.57751V6.26751H10.6124L10.2674 5.92251L9.23236 6.62001V6.62001Z" fill="#FFDA44"/>
</g>
</g>
<defs>
<clipPath id="clip0_2253_2717">
<rect width="24" height="16" rx="4" fill="white"/>
</clipPath>
</defs>
</svg>
