<svg width="auto" height="auto" viewBox="0 0 24 16" fill="none" xmlns="http://www.w3.org/2000/svg">
<g id="ET">
<g clip-path="url(#clip0_2253_2791)">
<path id="Vector" d="M24 -0.00256348H0V15.9949H24V-0.00256348Z" fill="#FFDA44"/>
<path id="Vector_2" d="M24 -0.00256348H0V5.32994H24V-0.00256348Z" fill="#6DA544"/>
<path id="Vector_3" d="M24 10.67H0V16.0025H24V10.67Z" fill="#D80027"/>
<path id="Vector_4" d="M11.9998 11.825C12.5021 11.825 12.9995 11.7261 13.4636 11.5339C13.9276 11.3417 14.3493 11.0599 14.7045 10.7047C15.0597 10.3495 15.3414 9.92788 15.5336 9.46381C15.7259 8.99974 15.8248 8.50236 15.8248 8.00005C15.8248 7.49774 15.7259 7.00036 15.5336 6.53628C15.3414 6.07221 15.0597 5.65055 14.7045 5.29537C14.3493 4.94018 13.9276 4.65843 13.4636 4.46621C12.9995 4.27399 12.5021 4.17505 11.9998 4.17505C10.9854 4.17505 10.0124 4.57804 9.29512 5.29537C8.57779 6.01269 8.1748 6.9856 8.1748 8.00005C8.1748 9.0145 8.57779 9.98741 9.29512 10.7047C10.0124 11.4221 10.9854 11.825 11.9998 11.825V11.825Z" fill="#0052B4"/>
<path id="Vector_5" d="M12.0002 5.0376L12.6902 7.1601H14.9252L13.1177 8.4801L13.8152 10.6101L12.0002 9.2901L10.1852 10.6101L10.8827 8.4801L9.0752 7.1601H11.3102L12.0002 5.0376Z" fill="#FFDA44"/>
<path id="Vector_6" d="M14.7526 8.52499L12.5626 7.81999L13.9201 5.95249L13.3576 5.54749L12.0001 7.40749L10.6501 5.54749L10.0801 5.95249L11.4376 7.81999L9.24756 8.52499L9.46506 9.19249L11.6551 8.47999V10.7825H12.3451V8.47999L14.5426 9.19249L14.7526 8.52499Z" fill="#FFDA44"/>
</g>
</g>
<defs>
<clipPath id="clip0_2253_2791">
<rect width="24" height="16" rx="4" fill="white"/>
</clipPath>
</defs>
</svg>
