<svg width="auto" height="auto" viewBox="0 0 24 16" fill="none" xmlns="http://www.w3.org/2000/svg">
<g id="FK">
<g clip-path="url(#clip0_2253_2809)">
<path id="Vector" d="M24 -0.00256348H0V15.9949H24V-0.00256348Z" fill="#0052B4"/>
<path id="Vector_2" d="M19.3875 9.73999V10.085H16.605V9.73999H15.5625V11.1275H16.26V11.48H19.74V11.1275H20.4375V9.73999H19.3875Z" fill="#FFDA44"/>
<path id="Vector_3" d="M15.5625 4.52002V8.34502C15.5625 10.25 18 10.7825 18 10.7825C18 10.7825 20.4375 10.2125 20.4375 8.34502V4.52002H15.5625V4.52002Z" fill="#338AF3"/>
<path id="Vector_4" d="M18 7.37749C17.3925 7.37749 17.3925 7.93249 16.785 7.93249C16.1775 7.93249 16.1775 7.37749 15.5625 7.37749V8.35249C16.1775 8.35249 16.1775 8.90749 16.785 8.90749C17.3925 8.90749 17.3925 8.35249 18 8.35249C18.6075 8.35249 18.6075 8.90749 19.215 8.90749C19.8225 8.90749 19.83 8.35249 20.4375 8.35249V7.37749C19.83 7.37749 19.83 7.93249 19.215 7.93249C18.6 7.93249 18.6075 7.37749 18 7.37749V7.37749ZM18 5.42749C17.3925 5.42749 17.3925 5.98249 16.785 5.98249C16.1775 5.98249 16.1775 5.42749 15.5625 5.42749V6.40249C16.1775 6.40249 16.1775 6.95749 16.785 6.95749C17.3925 6.95749 17.3925 6.40249 18 6.40249C18.6075 6.40249 18.6075 6.95749 19.215 6.95749C19.8225 6.95749 19.83 6.40249 20.4375 6.40249V5.42749C19.83 5.42749 19.83 5.98249 19.215 5.98249C18.6 5.98249 18.6075 5.42749 18 5.42749Z" fill="#F3F3F3"/>
<path id="Vector_5" d="M12 -0.00256348V1.42994L9.885 2.60744H12V5.38994H9.2325L12 6.92744V7.99994H10.7475L7.305 6.08744V7.99994H4.695V5.71994L0.6 7.99994H0V6.56744L2.115 5.38994H0V2.60744H2.7675L0 1.06994V-0.00256348H1.2525L4.695 1.90994V-0.00256348H7.305V2.27744L11.4 -0.00256348H12V-0.00256348Z" fill="#F0F0F0"/>
<path id="Vector_6" d="M6.75 -0.00256348H5.25V3.25244H0V4.75244H5.25V7.99994H6.75V4.75244H12V3.25244H6.75V-0.00256348Z" fill="#D80027"/>
<path id="Vector_7" d="M7.30469 5.39001L11.9997 8.00001V7.26501L8.63219 5.39001H7.30469Z" fill="#0052B4"/>
<path id="Vector_8" d="M7.30469 5.39001L11.9997 8.00001V7.26501L8.63219 5.39001H7.30469Z" fill="#F0F0F0"/>
<path id="Vector_9" d="M7.305 5.39001L12 8.00001V7.26501L8.6325 5.39001H7.305ZM3.3675 5.39001L0 7.26501V8.00001L4.695 5.39001H3.3675Z" fill="#D80027"/>
<path id="Vector_10" d="M4.695 2.60744L0 -0.00256348V0.739937L3.3675 2.60744H4.695Z" fill="#0052B4"/>
<path id="Vector_11" d="M4.695 2.60744L0 -0.00256348V0.739937L3.3675 2.60744H4.695Z" fill="#F0F0F0"/>
<path id="Vector_12" d="M4.695 2.60744L0 -0.00256348V0.739937L3.3675 2.60744H4.695ZM8.6325 2.60744L12 0.739937V-0.00256348L7.305 2.60744H8.6325Z" fill="#D80027"/>
</g>
</g>
<defs>
<clipPath id="clip0_2253_2809">
<rect width="24" height="16" rx="4" fill="white"/>
</clipPath>
</defs>
</svg>
