<svg width="auto" height="auto" viewBox="0 0 24 16" fill="none" xmlns="http://www.w3.org/2000/svg">
<g id="GB">
<g clip-path="url(#clip0_2253_2837)">
<path id="Vector" d="M24 -0.00256348H0V15.9949H24V-0.00256348Z" fill="#F0F0F0"/>
<path id="Vector_2" d="M13.5 -0.00256348H10.5V6.49994H0V9.49994H10.5V16.0024H13.5V9.49994H24V6.49994H13.5V-0.00256348Z" fill="#D80027"/>
<path id="Vector_3" d="M18.4574 10.7825L23.9999 13.865V10.7825H18.4574ZM14.6099 10.7825L23.9999 16.0025V14.525L17.2649 10.7825H14.6099ZM21.4949 16.0025L14.6099 12.17V16.0025H21.4949Z" fill="#0052B4"/>
<path id="Vector_4" d="M14.6099 10.7825L23.9999 16.0025V14.525L17.2649 10.7825H14.6099Z" fill="#F0F0F0"/>
<path id="Vector_5" d="M14.6099 10.7825L23.9999 16.0025V14.525L17.2649 10.7825H14.6099Z" fill="#D80027"/>
<path id="Vector_6" d="M4.2375 10.7825L0 13.1375V10.7825H4.2375ZM9.39 11.4425V16.0025H1.1925L9.39 11.4425V11.4425Z" fill="#0052B4"/>
<path id="Vector_7" d="M6.735 10.7825L0 14.525V16.0025L9.39 10.7825H6.735V10.7825Z" fill="#D80027"/>
<path id="Vector_8" d="M5.5425 5.21744L0 2.13494V5.21744H5.5425ZM9.39 5.21744L0 -0.00256348V1.47494L6.735 5.21744H9.39ZM2.505 -0.00256348L9.39 3.82994V-0.00256348H2.505Z" fill="#0052B4"/>
<path id="Vector_9" d="M9.39 5.21744L0 -0.00256348V1.47494L6.735 5.21744H9.39Z" fill="#F0F0F0"/>
<path id="Vector_10" d="M9.39 5.21744L0 -0.00256348V1.47494L6.735 5.21744H9.39Z" fill="#D80027"/>
<path id="Vector_11" d="M19.7624 5.21744L23.9999 2.86244V5.21744H19.7624V5.21744ZM14.6099 4.55744V-0.00256348H22.8074L14.6099 4.55744Z" fill="#0052B4"/>
<path id="Vector_12" d="M17.2649 5.21744L23.9999 1.47494V-0.00256348L14.6099 5.21744H17.2649Z" fill="#D80027"/>
</g>
</g>
<defs>
<clipPath id="clip0_2253_2837">
<rect width="24" height="16" rx="4" fill="white"/>
</clipPath>
</defs>
</svg>
