<svg width="auto" height="auto" viewBox="0 0 24 16" fill="none" xmlns="http://www.w3.org/2000/svg">
<g id="GE">
<g clip-path="url(#clip0_2253_2859)">
<path id="Vector" d="M24 -0.00256348H0V15.9949H24V-0.00256348Z" fill="#F0F0F0"/>
<path id="Vector_2" d="M13.5 -0.00256348H10.5V6.49994H0V9.49994H10.5V16.0024H13.5V9.49994H24V6.49994H13.5V-0.00256348Z" fill="#D80027"/>
<path id="Vector_3" d="M5.77512 2.72744V1.68494H4.72512V2.72744H3.68262V3.76994H4.72512V4.81244H5.77512V3.76994H6.81762V2.72744H5.77512ZM19.2751 2.72744V1.68494H18.2251V2.72744H17.1826V3.76994H18.2251V4.81244H19.2751V3.76994H20.3176V2.72744H19.2751ZM5.77512 12.2299V11.1874H4.72512V12.2299H3.68262V13.2724H4.72512V14.3149H5.77512V13.2724H6.81762V12.2299H5.77512ZM19.2751 12.2299V11.1874H18.2251V12.2299H17.1826V13.2724H18.2251V14.3149H19.2751V13.2724H20.3176V12.2299H19.2751Z" fill="#D80027"/>
</g>
</g>
<defs>
<clipPath id="clip0_2253_2859">
<rect width="24" height="16" rx="4" fill="white"/>
</clipPath>
</defs>
</svg>
