<svg width="auto" height="auto" viewBox="0 0 24 16" fill="none" xmlns="http://www.w3.org/2000/svg">
<g id="GI">
<g clip-path="url(#clip0_2253_2876)">
<path id="Vector" d="M24 -0.00256348H0V15.9949H24V-0.00256348Z" fill="#F0F0F0"/>
<path id="Vector_2" d="M24 10.67H0V16.0025H24V10.67ZM15.1275 6.60504V5.56254H15.48V4.87254H14.7825V5.21754H14.085V4.87254H13.395V5.56254H13.74V6.60504H13.0425V4.17504H13.395V3.47754H12.6975V3.82254H12.345V3.47754H11.655V3.82254H11.3025V3.47754H10.605V4.17504H10.9575V6.60504H10.26V5.56254H10.605V4.87254H9.915V5.21754H9.2175V4.87254H8.52V5.56254H8.8725V6.60504H8.175V9.38754H15.825V6.60504H15.1275Z" fill="#D80027"/>
<path id="Vector_3" d="M12 10.4375C11.93 10.439 11.8611 10.4196 11.8021 10.3818C11.7432 10.3439 11.6968 10.2894 11.669 10.2252C11.6412 10.1609 11.6331 10.0898 11.6459 10.0209C11.6586 9.95206 11.6916 9.88855 11.7406 9.8385C11.7895 9.78845 11.8523 9.75412 11.9209 9.7399C11.9895 9.72568 12.0607 9.73221 12.1256 9.75866C12.1904 9.7851 12.2459 9.83027 12.285 9.88838C12.3241 9.9465 12.345 10.0149 12.345 10.085C12.346 10.1309 12.3378 10.1766 12.3209 10.2193C12.304 10.262 12.2788 10.301 12.2466 10.3338C12.2145 10.3666 12.1761 10.3927 12.1338 10.4105C12.0914 10.4283 12.0459 10.4375 12 10.4375V10.4375ZM12 9.04248C11.7545 9.04332 11.5171 9.13078 11.3298 9.28946C11.1424 9.44814 11.0171 9.66785 10.9758 9.90989C10.9346 10.1519 10.9801 10.4007 11.1044 10.6125C11.2286 10.8243 11.4236 10.9854 11.655 11.0675V12.5H10.605V13.8875H12.345V11.0675C12.5764 10.9854 12.7714 10.8243 12.8956 10.6125C13.0198 10.4007 13.0654 10.1519 13.0241 9.90989C12.9829 9.66785 12.8575 9.44814 12.6702 9.28946C12.4828 9.13078 12.2455 9.04332 12 9.04248V9.04248Z" fill="#FFDA44"/>
</g>
</g>
<defs>
<clipPath id="clip0_2253_2876">
<rect width="24" height="16" rx="4" fill="white"/>
</clipPath>
</defs>
</svg>
