<svg width="auto" height="auto" viewBox="0 0 24 16" fill="none" xmlns="http://www.w3.org/2000/svg">
<g id="GL">
<g clip-path="url(#clip0_2253_2880)">
<path id="Vector" d="M24 -0.00256348H0V15.9949H24V-0.00256348Z" fill="#D80027"/>
<path id="Vector_2" d="M24 -0.00256348V7.81244L0 8.00744V-0.00256348H24Z" fill="#F0F0F0"/>
<path id="Vector_3" d="M9.5623 11.825C10.0646 11.825 10.562 11.7261 11.0261 11.5339C11.4901 11.3417 11.9118 11.0599 12.267 10.7047C12.6222 10.3495 12.9039 9.92788 13.0961 9.46381C13.2884 8.99974 13.3873 8.50236 13.3873 8.00005C13.3873 7.49774 13.2884 7.00036 13.0961 6.53628C12.9039 6.07221 12.6222 5.65055 12.267 5.29537C11.9118 4.94018 11.4901 4.65843 11.0261 4.46621C10.562 4.27399 10.0646 4.17505 9.5623 4.17505C8.54785 4.17505 7.57495 4.57804 6.85762 5.29537C6.14029 6.01269 5.7373 6.9856 5.7373 8.00005C5.7373 9.0145 6.14029 9.98741 6.85762 10.7047C7.57495 11.4221 8.54785 11.825 9.5623 11.825V11.825Z" fill="#F0F0F0"/>
<path id="Vector_4" d="M5.7373 8.00005C5.7373 7.49774 5.83624 7.00036 6.02847 6.53628C6.22069 6.07221 6.50244 5.65055 6.85762 5.29537C7.2128 4.94018 7.63447 4.65843 8.09854 4.46621C8.56261 4.27399 9.06 4.17505 9.5623 4.17505C10.0646 4.17505 10.562 4.27399 11.0261 4.46621C11.4901 4.65843 11.9118 4.94018 12.267 5.29537C12.6222 5.65055 12.9039 6.07221 13.0961 6.53628C13.2884 7.00036 13.3873 7.49774 13.3873 8.00005" fill="#D80027"/>
</g>
</g>
<defs>
<clipPath id="clip0_2253_2880">
<rect width="24" height="16" rx="4" fill="white"/>
</clipPath>
</defs>
</svg>
