<svg width="auto" height="auto" viewBox="0 0 24 16" fill="none" xmlns="http://www.w3.org/2000/svg">
<g id="GQ">
<g clip-path="url(#clip0_2253_2906)">
<path id="Vector" d="M24 -0.00250244H0V15.995H24V-0.00250244Z" fill="#F0F0F0"/>
<path id="Vector_2" d="M24 -0.00250244H0V5.33H24V-0.00250244Z" fill="#6DA544"/>
<path id="Vector_3" d="M24 10.6625H0V15.995H24V10.6625Z" fill="#D80027"/>
<path id="Vector_4" d="M12 8L0 16.0025V-0.00250244L12 8Z" fill="#0052B4"/>
<path id="Vector_5" d="M13.1172 6.29749V8.38249C13.1172 9.65749 14.7822 10.0475 14.7822 10.0475C14.7822 10.0475 16.4472 9.65749 16.4472 8.38249V6.29749H13.1172V6.29749Z" fill="#DEDDE0"/>
<path id="Vector_6" d="M15.2026 8.00751H14.3701V9.21501H15.2026V8.00751Z" fill="#786145"/>
<path id="Vector_7" d="M15.6151 7.54997C15.6151 7.44064 15.5936 7.33239 15.5518 7.23138C15.5099 7.13038 15.4486 7.03861 15.3713 6.9613C15.294 6.884 15.2022 6.82268 15.1012 6.78084C15.0002 6.739 14.8919 6.71747 14.7826 6.71747C14.6733 6.71747 14.565 6.739 14.464 6.78084C14.363 6.82268 14.2713 6.884 14.194 6.9613C14.1166 7.03861 14.0553 7.13038 14.0135 7.23138C13.9717 7.33239 13.9501 7.44064 13.9501 7.54997C13.8908 7.54198 13.8304 7.54678 13.7731 7.56405C13.7157 7.58131 13.6627 7.61063 13.6176 7.65005C13.5726 7.68948 13.5364 7.73808 13.5117 7.79261C13.4869 7.84714 13.4741 7.90633 13.4741 7.96622C13.4741 8.0261 13.4869 8.0853 13.5117 8.13983C13.5364 8.19436 13.5726 8.24296 13.6176 8.28238C13.6627 8.3218 13.7157 8.35113 13.7731 8.36839C13.8304 8.38565 13.8908 8.39045 13.9501 8.38247H15.6151C15.6749 8.39128 15.7359 8.38711 15.7939 8.37024C15.852 8.35337 15.9057 8.32419 15.9515 8.28469C15.9972 8.24519 16.0339 8.1963 16.0591 8.14135C16.0842 8.08639 16.0972 8.02666 16.0972 7.96622C16.0972 7.90578 16.0842 7.84605 16.0591 7.79109C16.0339 7.73613 15.9972 7.68724 15.9515 7.64774C15.9057 7.60825 15.852 7.57907 15.7939 7.56219C15.7359 7.54532 15.6749 7.54115 15.6151 7.54997Z" fill="#6DA544"/>
</g>
</g>
<defs>
<clipPath id="clip0_2253_2906">
<rect width="24" height="16" rx="4" fill="white"/>
</clipPath>
</defs>
</svg>
