<svg width="auto" height="auto" viewBox="0 0 24 16" fill="none" xmlns="http://www.w3.org/2000/svg">
<g id="HK">
<g clip-path="url(#clip0_2253_2945)">
<path id="Vector" d="M24 -0.00250244H0V15.995H24V-0.00250244Z" fill="#D80027"/>
<path id="Vector_2" d="M12.825 6.05002C12.645 6.80002 12.3225 6.66502 12.165 7.32502C11.9364 7.27815 11.7196 7.18579 11.5275 7.05346C11.3354 6.92112 11.1718 6.75149 11.0466 6.55467C10.9213 6.35785 10.8369 6.13784 10.7984 5.90775C10.7599 5.67765 10.768 5.44216 10.8224 5.21528C10.8767 4.98839 10.9761 4.77475 11.1147 4.58706C11.2532 4.39937 11.4281 4.24146 11.6289 4.12272C11.8298 4.00398 12.0524 3.92684 12.2836 3.89588C12.5149 3.86492 12.75 3.88078 12.975 3.94252C12.66 5.26252 12.99 5.37502 12.825 6.05002V6.05002ZM10.4025 6.61252C11.0625 7.01752 10.83 7.28002 11.4075 7.63252C11.1668 8.03034 10.7779 8.31626 10.3264 8.42738C9.87493 8.53849 9.39778 8.4657 8.99996 8.22502C8.60213 7.98433 8.31621 7.59547 8.2051 7.14398C8.09398 6.69248 8.16677 6.21534 8.40746 5.81752C9.59996 6.50002 9.80996 6.24502 10.4025 6.61252ZM10.185 9.08752C10.7775 8.58502 10.935 8.89252 11.4675 8.45002C11.6375 8.61977 11.7706 8.82291 11.8583 9.04664C11.9459 9.27037 11.9863 9.50983 11.9769 9.74993C11.9674 9.99004 11.9083 10.2256 11.8034 10.4417C11.6984 10.6579 11.5497 10.8499 11.3669 11.0058C11.184 11.1617 10.9708 11.278 10.7407 11.3474C10.5107 11.4168 10.2688 11.4377 10.0302 11.409C9.79163 11.3803 9.5616 11.3025 9.3546 11.1804C9.1476 11.0584 8.96811 10.8948 8.82746 10.7C9.85496 9.83002 9.65996 9.54502 10.185 9.08752ZM12.48 10.0625C12.18 9.31252 12.525 9.26752 12.2625 8.64502C12.6834 8.49158 13.1473 8.50644 13.5576 8.6865C13.9679 8.86657 14.2929 9.19795 14.4649 9.61164C14.637 10.0253 14.6428 10.4895 14.4812 10.9073C14.3196 11.3252 14.0031 11.6647 13.5975 11.855C13.08 10.6025 12.75 10.7075 12.48 10.0625V10.0625ZM14.1075 8.18002C13.3575 8.24752 13.3575 7.89502 12.69 7.94752C12.6532 7.48703 12.8008 7.03079 13.1004 6.67916C13.4 6.32753 13.827 6.10932 14.2875 6.07252C14.7479 6.03572 15.2042 6.18335 15.5558 6.48294C15.9074 6.78253 16.1257 7.20953 16.1625 7.67002C14.805 7.78252 14.7975 8.12752 14.1075 8.18002V8.18002Z" fill="#F0F0F0"/>
</g>
</g>
<defs>
<clipPath id="clip0_2253_2945">
<rect width="24" height="16" rx="4" fill="white"/>
</clipPath>
</defs>
</svg>
