<svg width="auto" height="auto" viewBox="0 0 24 16" fill="none" xmlns="http://www.w3.org/2000/svg">
<g id="HR">
<g clip-path="url(#clip0_2253_2951)">
<path id="Vector" d="M24 -0.00250244H0V15.995H24V-0.00250244Z" fill="#F0F0F0"/>
<path id="Vector_2" d="M24 -0.00250244H0V5.33H24V-0.00250244Z" fill="#D80027"/>
<path id="Vector_3" d="M24 10.6625H0V15.995H24V10.6625Z" fill="#0052B4"/>
<path id="Vector_4" d="M14.0853 5.56251H12.6978L12.9303 3.82251L13.8528 3.13251L14.7828 3.82251V5.21751L14.0853 5.56251V5.56251ZM9.91527 5.56251H11.3028L11.0703 3.82251L10.1478 3.13251L9.21777 3.82251V5.21751L9.91527 5.56251V5.56251Z" fill="#338AF3"/>
<path id="Vector_5" d="M12.9303 5.56251H11.0703V3.82251L12.0003 3.13251L12.9303 3.82251V5.56251Z" fill="#0052B4"/>
<path id="Vector_6" d="M9.21739 5.21747V9.04247C9.21357 9.47897 9.31277 9.91022 9.50695 10.3012C9.70112 10.6921 9.98478 11.0318 10.3349 11.2925L10.8224 11.1725L11.4374 11.7875C11.6219 11.8265 11.8109 11.8475 11.9999 11.8475C12.1881 11.8452 12.3764 11.8272 12.5624 11.795L13.2599 11.21L13.6649 11.2925C14.0137 11.0305 14.2964 10.6906 14.4904 10.3C14.6844 9.90929 14.7844 9.47866 14.7824 9.04247V5.21747H9.21739V5.21747Z" fill="#F0F0F0"/>
<path id="Vector_7" d="M10.3278 5.21747H9.21777V6.32747H10.3278V5.21747ZM12.5553 5.21747H11.4453V6.32747H12.5553V5.21747ZM14.7828 5.21747H13.6728V6.32747H14.7828V5.21747ZM11.4378 6.32747H10.3278V7.43747H11.4378V6.32747ZM13.6653 6.32747H12.5553V7.43747H13.6653V6.32747ZM10.3278 7.44497H9.21777V8.55497H10.3278V7.44497V7.44497ZM11.4378 8.55497H10.3278V9.66497H11.4378V8.55497ZM12.5553 7.44497H11.4453V8.55497H12.5553V7.44497V7.44497ZM14.7828 7.44497H13.6728V8.55497H14.7828V7.44497V7.44497ZM13.6653 8.55497H12.5553V9.66497H13.6653V8.55497ZM12.5553 9.67247H11.4453V10.7825H12.5553V9.67247ZM10.3278 9.67247H9.29277C9.38277 10.0797 9.56802 10.46 9.83277 10.7825H10.3278V9.67247V9.67247ZM13.6728 10.7825H14.1678C14.4325 10.46 14.6178 10.0797 14.7078 9.67247H13.6728V10.7825ZM10.3278 10.7825V11.27C10.6615 11.5122 11.0425 11.684 11.4453 11.7725V10.7825H10.3278ZM12.5553 10.7825V11.75C12.9584 11.6611 13.3388 11.4901 13.6728 11.2475V10.76L12.5553 10.7825Z" fill="#D80027"/>
</g>
</g>
<defs>
<clipPath id="clip0_2253_2951">
<rect width="24" height="16" rx="4" fill="white"/>
</clipPath>
</defs>
</svg>
