<svg width="auto" height="auto" viewBox="0 0 24 16" fill="none" xmlns="http://www.w3.org/2000/svg">
<g id="HT">
<g clip-path="url(#clip0_2253_2959)">
<path id="Vector" d="M24 -0.00250244H0V15.995H24V-0.00250244Z" fill="#A2001D"/>
<path id="Vector_2" d="M24 -0.00250244V7.8125L0 8.0075V-0.00250244H24Z" fill="#0052B4"/>
<path id="Vector_3" d="M14.7828 10.085L12.0003 9.73998L9.21777 10.085V5.91498H14.7828V10.085Z" fill="#F0F0F0"/>
<path id="Vector_4" d="M12 9.73995C12.37 9.73995 12.7248 9.59298 12.9864 9.33137C13.248 9.06975 13.395 8.71493 13.395 8.34495C13.395 7.97497 13.248 7.62015 12.9864 7.35854C12.7248 7.09692 12.37 6.94995 12 6.94995C11.63 6.94995 11.2752 7.09692 11.0136 7.35854C10.752 7.62015 10.605 7.97497 10.605 8.34495C10.605 8.71493 10.752 9.06975 11.0136 9.33137C11.2752 9.59298 11.63 9.73995 12 9.73995Z" fill="#0052B4"/>
<path id="Vector_5" d="M12.0002 9.04252C12.1852 9.04252 12.3626 8.96904 12.4934 8.83823C12.6242 8.70742 12.6977 8.53001 12.6977 8.34502C12.6977 8.16003 12.6242 7.98262 12.4934 7.85182C12.3626 7.72101 12.1852 7.64752 12.0002 7.64752C11.8152 7.64752 11.6378 7.72101 11.507 7.85182C11.3762 7.98262 11.3027 8.16003 11.3027 8.34502C11.3027 8.53001 11.3762 8.70742 11.507 8.83823C11.6378 8.96904 11.8152 9.04252 12.0002 9.04252V9.04252Z" fill="#A2001D"/>
<path id="Vector_6" d="M10.9575 6.61255H13.0425L12 7.65505L10.9575 6.61255V6.61255Z" fill="#6DA544"/>
<path id="Vector_7" d="M12.3528 7.30249H11.6553V9.38749H12.3528V7.30249V7.30249Z" fill="#FFDA44"/>
<path id="Vector_8" d="M13.1103 9.185H10.8903L9.21777 10.085H14.7828L13.1103 9.185Z" fill="#6DA544"/>
</g>
</g>
<defs>
<clipPath id="clip0_2253_2959">
<rect width="24" height="16" rx="4" fill="white"/>
</clipPath>
</defs>
</svg>
