<svg width="auto" height="auto" viewBox="0 0 24 16" fill="none" xmlns="http://www.w3.org/2000/svg">
<g id="IL">
<g clip-path="url(#clip0_2253_2979)">
<path id="Vector" d="M24 -0.00250244H0V15.995H24V-0.00250244Z" fill="#F0F0F0"/>
<path id="Vector_2" d="M13.3875 6.935H13.845L13.6125 7.3325L13.3875 6.935ZM13.845 9.065H13.3875L13.6125 8.6675L13.845 9.065ZM12 10.13L11.775 9.7325H12.225L12 10.13ZM10.155 9.065L10.3875 8.6675L10.6125 9.065H10.155V9.065ZM10.155 6.935H10.6125L10.3875 7.3325L10.155 6.935V6.935ZM12 5.87L12.225 6.2675H11.775L12 5.87ZM13.23 8L12.615 9.065H11.385L10.77 8L11.385 6.935H12.615L13.23 8ZM15 6.2675H12.9975L12 4.535L11.0025 6.2675H9L9.9975 8L9 9.7325H11.0025L12 11.465L12.9975 9.7325H15L14.0025 8L15 6.2675ZM24 1.0025H0V3.005H24V1.0025ZM24 13.0025H0V15.005H24V13.0025Z" fill="#2E52B2"/>
</g>
</g>
<defs>
<clipPath id="clip0_2253_2979">
<rect width="24" height="16" rx="4" fill="white"/>
</clipPath>
</defs>
</svg>
