<svg width="auto" height="auto" viewBox="0 0 24 16" fill="none" xmlns="http://www.w3.org/2000/svg">
<g id="IN">
<g clip-path="url(#clip0_2253_2985)">
<path id="Vector" d="M24 -0.00250244H0V15.995H24V-0.00250244Z" fill="#F0F0F0"/>
<path id="Vector_2" d="M24 -0.00250244H0V5.33H24V-0.00250244Z" fill="#FF9811"/>
<path id="Vector_3" d="M24 10.6625H0V15.995H24V10.6625Z" fill="#6DA544"/>
<path id="Vector_4" d="M12.0003 10.055C12.5453 10.055 13.068 9.8385 13.4534 9.45311C13.8388 9.06772 14.0553 8.54503 14.0553 8.00001C14.0553 7.45499 13.8388 6.93229 13.4534 6.5469C13.068 6.16152 12.5453 5.94501 12.0003 5.94501C11.4553 5.94501 10.9326 6.16152 10.5472 6.5469C10.1618 6.93229 9.94531 7.45499 9.94531 8.00001C9.94531 8.54503 10.1618 9.06772 10.5472 9.45311C10.9326 9.8385 11.4553 10.055 12.0003 10.055V10.055Z" fill="#0052B4"/>
<path id="Vector_5" d="M12.0003 9.28247C12.3404 9.28247 12.6666 9.14735 12.9071 8.90683C13.1477 8.66632 13.2828 8.34011 13.2828 7.99997C13.2828 7.65983 13.1477 7.33362 12.9071 7.0931C12.6666 6.85259 12.3404 6.71747 12.0003 6.71747C11.6601 6.71747 11.3339 6.85259 11.0934 7.0931C10.8529 7.33362 10.7178 7.65983 10.7178 7.99997C10.7178 8.34011 10.8529 8.66632 11.0934 8.90683C11.3339 9.14735 11.6601 9.28247 12.0003 9.28247V9.28247Z" fill="#F0F0F0"/>
<path id="Vector_6" d="M11.9999 6.41003L12.3974 7.31003L13.3724 7.20503L12.7949 8.00003L13.3724 8.79503L12.3974 8.69003L11.9999 9.58253L11.6024 8.69003L10.6274 8.79503L11.2049 8.00003L10.6274 7.20503L11.6024 7.31003L11.9999 6.41003V6.41003Z" fill="#0052B4"/>
</g>
</g>
<defs>
<clipPath id="clip0_2253_2985">
<rect width="24" height="16" rx="4" fill="white"/>
</clipPath>
</defs>
</svg>
