<svg width="auto" height="auto" viewBox="0 0 24 16" fill="none" xmlns="http://www.w3.org/2000/svg">
<g id="JE">
<g clip-path="url(#clip0_2253_3032)">
<path id="Vector" d="M24 -0.00250244H0V15.995H24V-0.00250244Z" fill="#F0F0F0"/>
<path id="Vector_2" d="M24 -0.00250244H0V15.995H24V-0.00250244Z" fill="#F0F0F0"/>
<path id="Vector_3" d="M14.1225 8L24 1.415V-0.00250244H21.8775L12 6.59L2.1225 -0.00250244H0V1.415L9.8775 8L0 14.585V16.0025H2.1225L12 9.4175L21.8775 16.0025H24V14.585L14.1225 8Z" fill="#D80027"/>
<path id="Vector_4" d="M10.9575 3.83002L12 4.08502L13.0425 3.83002V2.93752L12.63 3.14752L12 2.52502L11.3775 3.14752L10.9575 2.93752V3.83002Z" fill="#FFDA44"/>
<path id="Vector_5" d="M10.9575 3.82251V4.47501C10.9575 5.27751 12 5.52501 12 5.52501C12 5.52501 13.0425 5.27751 13.0425 4.47501V3.82251H10.9575V3.82251Z" fill="#D80027"/>
</g>
</g>
<defs>
<clipPath id="clip0_2253_3032">
<rect width="24" height="16" rx="4" fill="white"/>
</clipPath>
</defs>
</svg>
