<svg width="auto" height="auto" viewBox="0 0 24 16" fill="none" xmlns="http://www.w3.org/2000/svg">
<g id="JM">
<g clip-path="url(#clip0_2253_3038)">
<path id="Vector" d="M24 -0.00250244H0V15.995H24V-0.00250244Z" fill="#6DA544"/>
<path id="Vector_2" d="M10.1175 8.00001L0 14.7425V1.25751L10.1175 8.00001ZM24 1.25751V14.7425L13.8825 8.00001L24 1.25751Z" fill="black"/>
<path id="Vector_3" d="M24 1.2575L13.8825 8L24 14.75V16.0025H22.1175L12 9.2525L1.8825 16.0025H0V14.75L10.1175 8L0 1.2575V-0.00250244H1.8825L12 6.7475L22.1175 -0.00250244H24V1.2575Z" fill="#0052B4"/>
<path id="Vector_4" d="M24 1.2575L13.8825 8L24 14.75V16.0025H22.1175L12 9.2525L1.8825 16.0025H0V14.75L10.1175 8L0 1.2575V-0.00250244H1.8825L12 6.7475L22.1175 -0.00250244H24V1.2575Z" fill="#FFDA44"/>
</g>
</g>
<defs>
<clipPath id="clip0_2253_3038">
<rect width="24" height="16" rx="4" fill="white"/>
</clipPath>
</defs>
</svg>
