<svg width="auto" height="auto" viewBox="0 0 24 16" fill="none" xmlns="http://www.w3.org/2000/svg">
<g id="KE">
<g clip-path="url(#clip0_2253_3052)">
<path id="Vector" d="M24 -0.00250244H0V15.995H24V-0.00250244Z" fill="#F0F0F0"/>
<path id="Vector_2" d="M24 -0.00250244H0V4.2425H24V-0.00250244Z" fill="black"/>
<path id="Vector_3" d="M24 11.7575H0V16.0025H24V11.7575Z" fill="#496E2D"/>
<path id="Vector_4" d="M24 5.3075H0V10.685H24V5.3075V5.3075Z" fill="#A2001D"/>
<path id="Vector_5" d="M15.1501 2.555L13.9576 2L12.0001 6.425L10.0501 2L8.8501 2.555L11.2726 8L8.8501 13.445L10.0501 14L12.0001 9.575L13.9576 14L15.1501 13.445L12.7276 8L15.1501 2.555Z" fill="#F0F0F0"/>
<path id="Vector_6" d="M12.8174 3.07247C12.5609 2.7915 12.288 2.52603 11.9999 2.27747C11.7134 2.52497 11.4427 2.79047 11.1899 3.07247V12.9275C11.4427 13.2095 11.7134 13.475 11.9999 13.7225C12.288 13.4739 12.5609 13.2084 12.8174 12.9275V3.07247Z" fill="#F0F0F0"/>
<path id="Vector_7" d="M9.80273 5.00003V11.075C10.2176 11.8183 10.7213 12.5084 11.3027 13.13V2.90753C10.7188 3.54087 10.215 4.24365 9.80273 5.00003V5.00003ZM14.2052 5.00003C13.774 4.25589 13.2553 3.56599 12.6602 2.94503V13.0925C13.2553 12.4716 13.774 11.7817 14.2052 11.0375V5.00003Z" fill="#A2001D"/>
<path id="Vector_8" d="M14.1975 5V11.075C14.7567 10.1452 15.0619 9.08481 15.0825 8C15.0489 6.94076 14.7442 5.90784 14.1975 5ZM9.80248 5V11.075C9.24329 10.1452 8.93811 9.08481 8.91748 8C8.95102 6.94076 9.25573 5.90784 9.80248 5V5Z" fill="black"/>
</g>
</g>
<defs>
<clipPath id="clip0_2253_3052">
<rect width="24" height="16" rx="4" fill="white"/>
</clipPath>
</defs>
</svg>
