<svg width="auto" height="auto" viewBox="0 0 24 16" fill="none" xmlns="http://www.w3.org/2000/svg">
<g id="KN">
<g clip-path="url(#clip0_2253_3086)">
<path id="Vector" d="M24 -0.00250244H0V15.995H24V-0.00250244Z" fill="#D80027"/>
<path id="Vector_2" d="M24 -0.00250244H0V16.0025" fill="#6DA544"/>
<path id="Vector_3" d="M20.94 -0.00250244H19.5825L0 13.055V16.0025H4.41L24 2.945V-0.00250244H20.94Z" fill="#FFDA44"/>
<path id="Vector_4" d="M24 -0.00250244H20.94L0 13.9625V16.0025H3.06L24 2.0375V-0.00250244Z" fill="black"/>
<path id="Vector_5" d="M8.73006 8.46503L9.61506 9.14753L10.5376 8.51753L10.1626 9.56753L11.0476 10.25L9.93006 10.22L9.55506 11.27L9.24006 10.1975L8.12256 10.1675L9.04506 9.53753L8.73006 8.46503ZM13.5526 5.15753L14.4376 5.84003L15.3601 5.20253L14.9851 6.26003L15.8776 6.94253L14.7601 6.90503L14.3851 7.96253L14.0701 6.89003L12.9526 6.86003L13.8751 6.23003L13.5526 5.15753V5.15753Z" fill="#F0F0F0"/>
</g>
</g>
<defs>
<clipPath id="clip0_2253_3086">
<rect width="24" height="16" rx="4" fill="white"/>
</clipPath>
</defs>
</svg>
