<svg width="auto" height="auto" viewBox="0 0 24 16" fill="none" xmlns="http://www.w3.org/2000/svg">
<g id="KP">
<g clip-path="url(#clip0_2253_3092)">
<path id="Vector" d="M24 -0.00250244H0V15.995H24V-0.00250244Z" fill="#91DC5A"/>
<path id="Vector_2" d="M24 -0.00250244H0V15.995H24V-0.00250244Z" fill="#F0F0F0"/>
<path id="Vector_3" d="M24 -0.00250244H0V2.675H24V-0.00250244ZM24 13.3175H0V15.995H24V13.3175Z" fill="#0052B4"/>
<path id="Vector_4" d="M24 3.7475H0V12.26H24V3.7475Z" fill="#D80027"/>
<path id="Vector_5" d="M8.9251 11.075C9.74064 11.075 10.5228 10.7511 11.0995 10.1744C11.6761 9.59773 12.0001 8.81559 12.0001 8.00005C12.0001 7.18451 11.6761 6.40237 11.0995 5.8257C10.5228 5.24902 9.74064 4.92505 8.9251 4.92505C8.10956 4.92505 7.32742 5.24902 6.75074 5.8257C6.17407 6.40237 5.8501 7.18451 5.8501 8.00005C5.8501 8.81559 6.17407 9.59773 6.75074 10.1744C7.32742 10.7511 8.10956 11.075 8.9251 11.075V11.075Z" fill="#F0F0F0"/>
<path id="Vector_6" d="M8.92469 4.92505L9.61469 7.04755H11.8497L10.0422 8.36005L10.7322 10.49L8.92469 9.17005L7.10969 10.49L7.80719 8.36005L5.99219 7.04755H8.22719L8.92469 4.92505Z" fill="#D80027"/>
</g>
</g>
<defs>
<clipPath id="clip0_2253_3092">
<rect width="24" height="16" rx="4" fill="white"/>
</clipPath>
</defs>
</svg>
