<svg width="auto" height="auto" viewBox="0 0 24 16" fill="none" xmlns="http://www.w3.org/2000/svg">
<g id="KZ">
<g clip-path="url(#clip0_2253_3120)">
<path id="Vector" d="M24 -0.00250244H0V15.995H24V-0.00250244Z" fill="#338AF3"/>
<path id="Vector_2" d="M16.5 8.45752H7.5C7.50785 8.75992 7.63402 9.04717 7.8514 9.25753C8.06878 9.4679 8.36001 9.58459 8.6625 9.58252H8.625C8.625 9.88089 8.74353 10.167 8.9545 10.378C9.16548 10.589 9.45163 10.7075 9.75 10.7075C9.75 11.0059 9.86853 11.292 10.0795 11.503C10.2905 11.714 10.5766 11.8325 10.875 11.8325H13.125C13.4234 11.8325 13.7095 11.714 13.9205 11.503C14.1315 11.292 14.25 11.0059 14.25 10.7075C14.5484 10.7075 14.8345 10.589 15.0455 10.378C15.2565 10.167 15.375 9.88089 15.375 9.58252H15.3375C15.64 9.58459 15.9312 9.4679 16.1486 9.25753C16.366 9.04717 16.4921 8.75992 16.5 8.45752V8.45752Z" fill="#FFDA44"/>
<path id="Vector_3" d="M15.1127 6.98755C15.1127 7.81304 14.7848 8.60471 14.2011 9.18842C13.6174 9.77213 12.8257 10.1 12.0002 10.1C11.1747 10.1 10.383 9.77213 9.79933 9.18842C9.21562 8.60471 8.8877 7.81304 8.8877 6.98755" fill="#338AF3"/>
<path id="Vector_4" d="M15.0902 6.69498L13.8302 7.20498L14.4977 8.25498L13.1252 8.02998L12.9527 9.22248L12.0002 8.34498L11.0477 9.22248L10.8752 8.02998L9.50266 8.25498L10.1777 7.20498L8.91016 6.69498L10.1777 6.18498L9.50266 5.13498L10.8752 5.35998L11.0477 4.16748L12.0002 5.04498L12.9527 4.16748L13.1252 5.35998L14.4977 5.13498L13.8302 6.18498L15.0902 6.69498V6.69498Z" fill="#FFDA44"/>
</g>
</g>
<defs>
<clipPath id="clip0_2253_3120">
<rect width="24" height="16" rx="4" fill="white"/>
</clipPath>
</defs>
</svg>
