<svg width="auto" height="auto" viewBox="0 0 24 16" fill="none" xmlns="http://www.w3.org/2000/svg">
<g id="LI">
<g clip-path="url(#clip0_2253_3138)">
<path id="Vector" d="M24 -0.00250244H0V15.995H24V-0.00250244Z" fill="#D80027"/>
<path id="Vector_2" d="M24 -0.00250244V7.8125L0 8.0075V-0.00250244H24Z" fill="#0052B4"/>
<path id="Vector_3" d="M9.91502 5.56251C9.91033 5.36308 9.84852 5.16919 9.73692 5.00385C9.62533 4.8385 9.46865 4.70864 9.28546 4.62968C9.10227 4.55073 8.90028 4.52598 8.70345 4.55839C8.50662 4.59079 8.32322 4.67899 8.17502 4.81251V4.17501H8.52002V3.50001H8.17502V3.13251H7.50002V3.50001H7.13252V4.19751H7.50002V4.81251C7.40088 4.71613 7.28344 4.64059 7.15462 4.59035C7.02581 4.54011 6.88823 4.51619 6.75002 4.52001C6.47414 4.52197 6.21011 4.63244 6.01503 4.82752C5.81995 5.0226 5.70948 5.28663 5.70752 5.56251C5.71052 5.70523 5.74345 5.84573 5.80417 5.97492C5.86489 6.10411 5.95205 6.21912 6.06002 6.31251V6.92751H9.53252V6.31251C9.64595 6.22189 9.73873 6.10811 9.80469 5.97878C9.87065 5.84945 9.90827 5.70753 9.91502 5.56251V5.56251Z" fill="#FFDA44"/>
</g>
</g>
<defs>
<clipPath id="clip0_2253_3138">
<rect width="24" height="16" rx="4" fill="white"/>
</clipPath>
</defs>
</svg>
