<svg width="auto" height="auto" viewBox="0 0 24 16" fill="none" xmlns="http://www.w3.org/2000/svg">
<g id="MK">
<g clip-path="url(#clip0_2253_3209)">
<path id="Vector" d="M24 -0.00250244H0V15.995H24V-0.00250244Z" fill="#FFDA44"/>
<path id="Vector_2" d="M17.9925 16.0025L12 7.8275L13.26 16.0025H17.9925ZM6.2625 -0.00250244L12 7.8275L10.7925 -0.00250244H6.2625ZM10.74 16.0025L12 7.8275L6.0075 16.0025H10.74ZM0 -0.00250244V5.9825L12 7.8275L1.3275 -0.00250244H0ZM0 16.0025H0.855L12 7.8275L0 9.6725V16.0025ZM12 7.8275L24 5.9825V-0.00250244H22.6725L12 7.8275ZM13.2075 -0.00250244L12 7.8275L17.7375 -0.00250244H13.2075Z" fill="#D80027"/>
<path id="Vector_3" d="M24 16.0025V9.67251L12 7.82751L23.145 16.0025H24Z" fill="#D80027"/>
<path id="Vector_4" d="M12.0003 10.61C12.3657 10.61 12.7275 10.538 13.0651 10.3982C13.4027 10.2583 13.7094 10.0534 13.9678 9.79501C14.2262 9.53663 14.4311 9.22989 14.571 8.8923C14.7108 8.55471 14.7828 8.19289 14.7828 7.82748C14.7828 7.46208 14.7108 7.10025 14.571 6.76267C14.4311 6.42508 14.2262 6.11834 13.9678 5.85996C13.7094 5.60158 13.4027 5.39662 13.0651 5.25679C12.7275 5.11695 12.3657 5.04498 12.0003 5.04498C11.2623 5.04498 10.5546 5.33814 10.0327 5.85996C9.51093 6.38178 9.21777 7.08952 9.21777 7.82748C9.21777 8.56545 9.51093 9.27319 10.0327 9.79501C10.5546 10.3168 11.2623 10.61 12.0003 10.61V10.61Z" fill="#D80027"/>
<path id="Vector_5" d="M12 9.91249C12.2738 9.91249 12.545 9.85856 12.7979 9.75378C13.0509 9.649 13.2807 9.49542 13.4744 9.30181C13.668 9.1082 13.8215 8.87835 13.9263 8.62539C14.0311 8.37242 14.085 8.1013 14.085 7.82749C14.085 7.55369 14.0311 7.28256 13.9263 7.0296C13.8215 6.77663 13.668 6.54679 13.4744 6.35318C13.2807 6.15957 13.0509 6.00599 12.7979 5.9012C12.545 5.79642 12.2738 5.74249 12 5.74249C11.4471 5.74249 10.9167 5.96216 10.5257 6.35318C10.1347 6.74419 9.91504 7.27452 9.91504 7.82749C9.91504 8.38047 10.1347 8.9108 10.5257 9.30181C10.9167 9.69282 11.4471 9.91249 12 9.91249V9.91249Z" fill="#FFDA44"/>
</g>
</g>
<defs>
<clipPath id="clip0_2253_3209">
<rect width="24" height="16" rx="4" fill="white"/>
</clipPath>
</defs>
</svg>
