<svg width="auto" height="auto" viewBox="0 0 24 16" fill="none" xmlns="http://www.w3.org/2000/svg">
<g id="MN">
<g clip-path="url(#clip0_2253_3224)">
<path id="Vector" d="M24 -0.00250244H0V15.995H24V-0.00250244Z" fill="#0052B4"/>
<path id="Vector_2" d="M24 -0.00250244H15.48V15.995H24V-0.00250244ZM8.52 -0.00250244H0V15.995H8.52V-0.00250244Z" fill="#A2001D"/>
<path id="Vector_3" d="M6.00002 8.52501H5.30252V11.3075H6.00002V8.52501ZM3.21752 8.52501H2.52002V11.3075H3.21752V8.52501ZM4.26002 10.265C4.44501 10.265 4.62242 10.1915 4.75323 10.0607C4.88403 9.92991 4.95752 9.75249 4.95752 9.5675C4.95752 9.38252 4.88403 9.2051 4.75323 9.0743C4.62242 8.94349 4.44501 8.87 4.26002 8.87C4.07503 8.87 3.89762 8.94349 3.76681 9.0743C3.63601 9.2051 3.56252 9.38252 3.56252 9.5675C3.56252 9.75249 3.63601 9.92991 3.76681 10.0607C3.89762 10.1915 4.07503 10.265 4.26002 10.265V10.265ZM4.26002 7.475C4.35152 7.475 4.43927 7.43866 4.50397 7.37396C4.56867 7.30926 4.60502 7.2215 4.60502 7.13C4.60502 7.03851 4.56867 6.95075 4.50397 6.88605C4.43927 6.82135 4.35152 6.785 4.26002 6.785C4.16852 6.785 4.08077 6.82135 4.01607 6.88605C3.95137 6.95075 3.91502 7.03851 3.91502 7.13C3.91502 7.2215 3.95137 7.30926 4.01607 7.37396C4.08077 7.43866 4.16852 7.475 4.26002 7.475ZM4.95752 10.61H3.56252V11.3075H4.95752V10.61ZM4.95752 7.82751H3.56252V8.52501H4.95752V7.82751ZM4.26002 4.6925L4.50752 5.4575H5.30252L4.65752 5.9225L4.90502 6.68L4.26002 6.215L3.61502 6.68L3.86252 5.9225L3.21752 5.4575H4.01252L4.26002 4.6925Z" fill="#FFDA44"/>
</g>
</g>
<defs>
<clipPath id="clip0_2253_3224">
<rect width="24" height="16" rx="4" fill="white"/>
</clipPath>
</defs>
</svg>
