<svg width="auto" height="auto" viewBox="0 0 24 16" fill="none" xmlns="http://www.w3.org/2000/svg">
<g id="MQ">
<g clip-path="url(#clip0_2253_3239)">
<path id="Vector" d="M24 -0.00250244H0V15.995H24V-0.00250244Z" fill="#0052B4"/>
<path id="Vector_2" d="M24 6.9575V9.0425H13.0425V15.995H10.9575V9.0425H0V6.9575H10.9575V-0.00250244H13.0425V6.9575H24Z" fill="#F0F0F0"/>
<path id="Vector_3" d="M18.1198 4.25002C18.1198 4.1983 18.1403 4.1487 18.1769 4.11213C18.2135 4.07556 18.2631 4.05502 18.3148 4.05502H18.7498C18.9128 4.06802 19.0768 4.04713 19.2314 3.99366C19.3859 3.9402 19.5278 3.85531 19.6479 3.74436C19.7681 3.6334 19.864 3.49877 19.9296 3.34894C19.9951 3.19911 20.029 3.03732 20.029 2.87377C20.029 2.71021 19.9951 2.54843 19.9296 2.3986C19.864 2.24877 19.7681 2.11414 19.6479 2.00318C19.5278 1.89222 19.3859 1.80734 19.2314 1.75387C19.0768 1.7004 18.9128 1.67952 18.7498 1.69252H18.3598C18.2166 1.5871 18.0426 1.53175 17.8648 1.53502C17.6951 1.51807 17.5255 1.56824 17.3924 1.67477C17.2592 1.78131 17.173 1.93574 17.1523 2.10502C17.173 2.27346 17.2578 2.42744 17.3891 2.53498C17.5204 2.64252 17.6881 2.69536 17.8573 2.68252H18.7498C18.7781 2.67689 18.8073 2.6776 18.8352 2.68461C18.8632 2.69161 18.8893 2.70473 18.9116 2.72302C18.9339 2.74132 18.9518 2.76432 18.9641 2.79039C18.9765 2.81646 18.9829 2.84493 18.9829 2.87377C18.9829 2.9026 18.9765 2.93108 18.9641 2.95714C18.9518 2.98321 18.9339 3.00622 18.9116 3.02451C18.8893 3.0428 18.8632 3.05592 18.8352 3.06293C18.8073 3.06993 18.7781 3.07064 18.7498 3.06502H18.3373C18.023 3.06502 17.7216 3.18986 17.4994 3.4121C17.2772 3.63433 17.1523 3.93573 17.1523 4.25002C17.1523 4.5643 17.2772 4.86571 17.4994 5.08794C17.7216 5.31017 18.023 5.43502 18.3373 5.43502H19.9348V4.43752H18.3148C18.2644 4.43755 18.2159 4.41804 18.1795 4.38308C18.1431 4.34812 18.1217 4.30042 18.1198 4.25002V4.25002ZM5.0773 4.25002C5.07508 4.2007 5.09165 4.15237 5.12366 4.11479C5.15568 4.0772 5.20076 4.05316 5.2498 4.04752H5.6623C5.95037 4.07179 6.23736 3.98987 6.4692 3.81718C6.70103 3.64449 6.8617 3.39296 6.92091 3.11001C6.98012 2.82705 6.93379 2.53221 6.79064 2.28106C6.6475 2.0299 6.41743 1.83978 6.1438 1.74652C5.98927 1.69301 5.82533 1.67207 5.6623 1.68502H5.2948C5.15157 1.5796 4.97762 1.52425 4.7998 1.52752C4.71288 1.51379 4.62408 1.51779 4.53874 1.53928C4.4534 1.56076 4.37328 1.59929 4.30322 1.65254C4.23315 1.70578 4.17459 1.77266 4.13104 1.84913C4.08749 1.9256 4.05985 2.01009 4.0498 2.09752C4.07053 2.26596 4.15535 2.41994 4.28663 2.52748C4.41792 2.63502 4.58558 2.68786 4.7548 2.67502H5.6848C5.71308 2.66939 5.74226 2.6701 5.77023 2.67711C5.7982 2.68411 5.82427 2.69723 5.84656 2.71552C5.86885 2.73382 5.88681 2.75682 5.89914 2.78289C5.91147 2.80896 5.91786 2.83743 5.91786 2.86627C5.91786 2.8951 5.91147 2.92358 5.89914 2.94964C5.88681 2.97571 5.86885 2.99872 5.84656 3.01701C5.82427 3.0353 5.7982 3.04842 5.77023 3.05543C5.74226 3.06243 5.71308 3.06314 5.6848 3.05752H5.2498C4.93552 3.05752 4.63411 3.18236 4.41188 3.40459C4.18965 3.62683 4.0648 3.92823 4.0648 4.24252C4.0648 4.5568 4.18965 4.85821 4.41188 5.08044C4.63411 5.30267 4.93552 5.42752 5.2498 5.42752H6.8698V4.43752H5.2498C5.20335 4.43214 5.16036 4.41025 5.1287 4.37583C5.09703 4.34141 5.07879 4.29676 5.0773 4.25002V4.25002ZM18.1198 13.2875C18.1198 13.2358 18.1403 13.1862 18.1769 13.1496C18.2135 13.1131 18.2631 13.0925 18.3148 13.0925H18.7498C19.0641 13.0925 19.3655 12.9677 19.5877 12.7454C19.81 12.5232 19.9348 12.2218 19.9348 11.9075C19.9348 11.5932 19.81 11.2918 19.5877 11.0696C19.3655 10.8474 19.0641 10.7225 18.7498 10.7225H18.3598C18.2156 10.6198 18.0418 10.5671 17.8648 10.5725C17.6951 10.5556 17.5255 10.6057 17.3924 10.7123C17.2592 10.8188 17.173 10.9732 17.1523 11.1425C17.1712 11.3112 17.2558 11.4656 17.3878 11.5723C17.5197 11.679 17.6884 11.7294 17.8573 11.7125H18.7498C18.8002 11.7125 18.8487 11.732 18.8851 11.767C18.9215 11.8019 18.9429 11.8496 18.9448 11.9C18.9448 11.9517 18.9243 12.0013 18.8877 12.0379C18.8511 12.0745 18.8015 12.095 18.7498 12.095H18.3373C18.023 12.095 17.7216 12.2199 17.4994 12.4421C17.2772 12.6643 17.1523 12.9657 17.1523 13.28C17.1523 13.5943 17.2772 13.8957 17.4994 14.1179C17.7216 14.3402 18.023 14.465 18.3373 14.465H19.9348V13.4825H18.3148C18.2631 13.4825 18.2135 13.462 18.1769 13.4254C18.1403 13.3888 18.1198 13.3392 18.1198 13.2875V13.2875ZM5.0773 13.2875C5.07698 13.2395 5.09441 13.193 5.12625 13.157C5.15808 13.121 5.20208 13.0981 5.2498 13.0925H5.6623C5.97659 13.0925 6.278 12.9677 6.50023 12.7454C6.72246 12.5232 6.8473 12.2218 6.8473 11.9075C6.8473 11.5932 6.72246 11.2918 6.50023 11.0696C6.278 10.8474 5.97659 10.7225 5.6623 10.7225H5.2948C5.15063 10.6198 4.97676 10.5671 4.7998 10.5725C4.71288 10.5588 4.62408 10.5628 4.53874 10.5843C4.4534 10.6058 4.37328 10.6443 4.30322 10.6975C4.23315 10.7508 4.17459 10.8177 4.13104 10.8941C4.08749 10.9706 4.05985 11.0551 4.0498 11.1425C4.0687 11.3112 4.1533 11.4656 4.28527 11.5723C4.41724 11.679 4.58594 11.7294 4.7548 11.7125H5.6848C5.73525 11.7125 5.78374 11.732 5.82011 11.767C5.85647 11.8019 5.87786 11.8496 5.8798 11.9C5.8798 11.9517 5.85926 12.0013 5.82269 12.0379C5.78612 12.0745 5.73652 12.095 5.6848 12.095H5.2498C4.93552 12.095 4.63411 12.2199 4.41188 12.4421C4.18965 12.6643 4.0648 12.9657 4.0648 13.28C4.0648 13.5943 4.18965 13.8957 4.41188 14.1179C4.63411 14.3402 4.93552 14.465 5.2498 14.465H6.8698V13.4825H5.2498C5.20208 13.477 5.15808 13.454 5.12625 13.418C5.09441 13.382 5.07698 13.3356 5.0773 13.2875V13.2875Z" fill="#F0F0F0"/>
</g>
</g>
<defs>
<clipPath id="clip0_2253_3239">
<rect width="24" height="16" rx="4" fill="white"/>
</clipPath>
</defs>
</svg>
