<svg width="auto" height="auto" viewBox="0 0 24 16" fill="none" xmlns="http://www.w3.org/2000/svg">
<g id="MY">
<g clip-path="url(#clip0_2253_3284)">
<path id="Vector" d="M24 -0.00250244H0V15.995H24V-0.00250244Z" fill="#F0F0F0"/>
<path id="Vector_2" d="M24 2H0V4.0025H24V2ZM24 5.9975H0V8H24V5.9975ZM24 10.0025H0V12.005H24V10.0025ZM24 14H0V16.0025H24V14Z" fill="#D80027"/>
<path id="Vector_3" d="M12 -0.00250244H0V8.615H12V-0.00250244Z" fill="#0052B4"/>
<path id="Vector_4" d="M6.60737 6.28248C6.33761 6.2991 6.0673 6.26032 5.81309 6.16853C5.55888 6.07673 5.32615 5.93386 5.12925 5.74872C4.93234 5.56358 4.77543 5.34008 4.66817 5.092C4.56091 4.84392 4.50557 4.5765 4.50557 4.30623C4.50557 4.03595 4.56091 3.76854 4.66817 3.52045C4.77543 3.27237 4.93234 3.04888 5.12925 2.86373C5.32615 2.67859 5.55888 2.53572 5.81309 2.44393C6.0673 2.35213 6.33761 2.31335 6.60737 2.32998C6.93537 2.3276 7.25837 2.41029 7.54487 2.56998C7.32117 2.34712 7.05555 2.17074 6.76335 2.05103C6.47115 1.93132 6.15814 1.87063 5.84237 1.87248C5.44232 1.87174 5.04824 1.96948 4.6949 2.15707C4.34156 2.34467 4.03982 2.61634 3.81631 2.94813C3.5928 3.27992 3.45439 3.66162 3.41329 4.05956C3.37219 4.45749 3.42967 4.85942 3.58065 5.22989C3.73163 5.60036 3.97147 5.92797 4.27901 6.18382C4.58655 6.43967 4.95234 6.61589 5.3441 6.69693C5.73585 6.77798 6.14154 6.76135 6.52535 6.64852C6.90916 6.53569 7.2593 6.33013 7.54487 6.04998C7.25647 6.20397 6.93431 6.28387 6.60737 6.28248V6.28248Z" fill="#FFDA44"/>
<path id="Vector_5" d="M7.1623 2.91498L7.51481 3.64998L8.3098 3.46998L7.94981 4.19748L8.5873 4.70748L7.79231 4.88748L7.7998 5.69748L7.1623 5.18748L6.5323 5.69748V4.88748L5.7373 4.70748L6.3748 4.19748L6.0223 3.46998L6.8098 3.64998L7.1623 2.91498Z" fill="#FFDA44"/>
</g>
</g>
<defs>
<clipPath id="clip0_2253_3284">
<rect width="24" height="16" rx="4" fill="white"/>
</clipPath>
</defs>
</svg>
