<svg width="auto" height="auto" viewBox="0 0 24 16" fill="none" xmlns="http://www.w3.org/2000/svg">
<g id="MZ">
<g clip-path="url(#clip0_2253_3290)">
<path id="Vector" d="M24 -0.00250244H0V15.995H24V-0.00250244Z" fill="#F0F0F0"/>
<path id="Vector_2" d="M24 11.1275H0V15.995H24V11.1275Z" fill="#FFDA44"/>
<path id="Vector_3" d="M24 -0.00250244H0V4.895H24V-0.00250244Z" fill="#496E2D"/>
<path id="Vector_4" d="M24 5.88501H0V10.085H24V5.88501V5.88501Z" fill="black"/>
<path id="Vector_5" d="M12 8L0 16.0025V-0.00250244L12 8Z" fill="#A2001D"/>
<path id="Vector_6" d="M3.91504 5.15002L4.62004 7.32503H6.91504L5.06254 8.67502L5.76754 10.85L3.91504 9.50753L2.06254 10.85L2.76754 8.67502L0.915039 7.32503H3.20254L3.91504 5.15002V5.15002Z" fill="#FFDA44"/>
<path id="Vector_7" d="M5.9849 8H1.8374V9.905H5.9849V8Z" fill="#F0F0F0"/>
<path id="Vector_8" d="M6.77262 5.81752L6.09762 5.15002L3.91512 7.33252L1.72512 5.15002L1.05762 5.81752L3.24012 8.00002L1.05762 10.19L1.72512 10.85L3.91512 8.67502L6.09762 10.85L6.77262 10.19L4.58262 8.00002L6.77262 5.81752V5.81752Z" fill="black"/>
</g>
</g>
<defs>
<clipPath id="clip0_2253_3290">
<rect width="24" height="16" rx="4" fill="white"/>
</clipPath>
</defs>
</svg>
