<svg width="auto" height="auto" viewBox="0 0 24 16" fill="none" xmlns="http://www.w3.org/2000/svg">
<g id="NA">
<g clip-path="url(#clip0_2253_3299)">
<path id="Vector" d="M24 -0.00250244H0V15.995H24V-0.00250244Z" fill="#496E2D"/>
<path id="Vector_2" d="M0 16.0025V-0.00250244H24" fill="#0052B4"/>
<path id="Vector_3" d="M24 3.1325V-0.00250244H19.2975L0 12.8675V16.0025H4.7025L24 3.1325Z" fill="#F0F0F0"/>
<path id="Vector_4" d="M24 -0.00250244V1.88L2.82 16.0025H0V14.12L21.18 -0.00250244H24Z" fill="#A2001D"/>
<path id="Vector_5" d="M8.79746 4.87251L7.73246 5.36751L8.30246 6.40251L7.14746 6.18501L6.99746 7.34751L6.19496 6.49251L5.38496 7.34751L5.23496 6.18501L4.07996 6.40251L4.64996 5.36751L3.58496 4.87251L4.64996 4.37001L4.07996 3.33501L5.23496 3.56001L5.38496 2.39001L6.19496 3.24501L6.99746 2.39001L7.14746 3.56001L8.30246 3.33501L7.73246 4.37001L8.79746 4.87251Z" fill="#FFDA44"/>
</g>
</g>
<defs>
<clipPath id="clip0_2253_3299">
<rect width="24" height="16" rx="4" fill="white"/>
</clipPath>
</defs>
</svg>
