<svg width="auto" height="auto" viewBox="0 0 24 16" fill="none" xmlns="http://www.w3.org/2000/svg">
<g id="NE">
<g clip-path="url(#clip0_2253_3310)">
<path id="Vector" d="M24 -0.00250244H0V15.995H24V-0.00250244Z" fill="#F0F0F0"/>
<path id="Vector_2" d="M24 -0.00250244H0V5.33H24V-0.00250244Z" fill="#FF9811"/>
<path id="Vector_3" d="M24 10.67H0V16.0025H24V10.67Z" fill="#6DA544"/>
<path id="Vector_4" d="M12 9.5C12.3978 9.5 12.7794 9.34196 13.0607 9.06066C13.342 8.77936 13.5 8.39782 13.5 8C13.5 7.60218 13.342 7.22064 13.0607 6.93934C12.7794 6.65804 12.3978 6.5 12 6.5C11.6022 6.5 11.2206 6.65804 10.9393 6.93934C10.658 7.22064 10.5 7.60218 10.5 8C10.5 8.39782 10.658 8.77936 10.9393 9.06066C11.2206 9.34196 11.6022 9.5 12 9.5Z" fill="#FF9811"/>
</g>
</g>
<defs>
<clipPath id="clip0_2253_3310">
<rect width="24" height="16" rx="4" fill="white"/>
</clipPath>
</defs>
</svg>
