<svg width="auto" height="auto" viewBox="0 0 24 16" fill="none" xmlns="http://www.w3.org/2000/svg">
<g id="NI">
<g clip-path="url(#clip0_2253_3321)">
<path id="Vector" d="M24 -0.00250244H0V15.995H24V-0.00250244Z" fill="#F0F0F0"/>
<path id="Vector_2" d="M24 -0.00250244H0V5.33H24V-0.00250244ZM24 10.67H0V16.0025H24V10.67Z" fill="#338AF3"/>
<path id="Vector_3" d="M11.9998 9.11005C11.7054 9.11005 11.4231 8.9931 11.2149 8.78494C11.0068 8.57677 10.8898 8.29444 10.8898 8.00005C10.8898 7.70566 11.0068 7.42333 11.2149 7.21516C11.4231 7.00699 11.7054 6.89005 11.9998 6.89005C12.2942 6.89005 12.5765 7.00699 12.7847 7.21516C12.9929 7.42333 13.1098 7.70566 13.1098 8.00005C13.1098 8.29444 12.9929 8.57677 12.7847 8.78494C12.5765 8.9931 12.2942 9.11005 11.9998 9.11005ZM11.9998 6.05005C11.6141 6.05005 11.2371 6.16441 10.9164 6.37868C10.5958 6.59295 10.3458 6.8975 10.1982 7.25382C10.0506 7.61013 10.012 8.00221 10.0873 8.38048C10.1625 8.75874 10.3482 9.1062 10.6209 9.37891C10.8937 9.65162 11.2411 9.83734 11.6194 9.91258C11.9976 9.98782 12.3897 9.9492 12.746 9.80161C13.1024 9.65402 13.4069 9.40409 13.6212 9.08341C13.8354 8.76274 13.9498 8.38572 13.9498 8.00005C13.9478 7.48349 13.7418 6.98864 13.3765 6.62337C13.0112 6.2581 12.5164 6.05202 11.9998 6.05005V6.05005Z" fill="#FFDA44"/>
<path id="Vector_4" d="M12.9678 8.2775L12.0003 8L11.0328 8.2775L10.7178 8.8325H13.2828L12.9678 8.2775Z" fill="#0052B4"/>
<path id="Vector_5" d="M12 6.60498L11.355 7.72248L12 7.99998L12.645 7.72248L12 6.60498Z" fill="#338AF3"/>
<path id="Vector_6" d="M11.0322 8.27753H12.9672L12.6447 7.72253H11.3547L11.0322 8.27753V8.27753Z" fill="#6DA544"/>
</g>
</g>
<defs>
<clipPath id="clip0_2253_3321">
<rect width="24" height="16" rx="4" fill="white"/>
</clipPath>
</defs>
</svg>
