<svg width="auto" height="auto" viewBox="0 0 24 16" fill="none" xmlns="http://www.w3.org/2000/svg">
<g id="NU">
<g clip-path="url(#clip0_2253_3345)">
<path id="Vector" d="M24 -0.00250244H0V15.995H24V-0.00250244Z" fill="#FFDA44"/>
<path id="Vector_2" d="M12 -0.00250244H0V8H12V-0.00250244Z" fill="#F0F0F0"/>
<path id="Vector_3" d="M6.75 -0.00250244H5.25V3.2525H0V4.7525H5.25V8H6.75V4.7525H12V3.2525H6.75V-0.00250244Z" fill="#D80027"/>
<path id="Vector_4" d="M0 -0.00250244V0.709998L2.6925 2.5025H3.75L0 -0.00250244Z" fill="#D80027"/>
<path id="Vector_5" d="M0 1.0625V2.5025H2.16L0 1.0625ZM4.5 -0.00250244V2.2925L1.0575 -0.00250244H4.5Z" fill="#2E52B2"/>
<path id="Vector_6" d="M12 -0.00250244V0.709998L9.3075 2.5025H8.25L12 -0.00250244Z" fill="#D80027"/>
<path id="Vector_7" d="M12 1.0625V2.5025H9.84L12 1.0625ZM7.5 -0.00250244V2.2925L10.9425 -0.00250244H7.5Z" fill="#2E52B2"/>
<path id="Vector_8" d="M0 -0.00250244V0.709998L2.6925 2.5025H3.75L0 -0.00250244Z" fill="#D80027"/>
<path id="Vector_9" d="M0 1.0625V2.5025H2.16L0 1.0625ZM4.5 -0.00250244V2.2925L1.0575 -0.00250244H4.5Z" fill="#2E52B2"/>
<path id="Vector_10" d="M12 -0.00250244V0.709998L9.3075 2.5025H8.25L12 -0.00250244Z" fill="#D80027"/>
<path id="Vector_11" d="M12 1.0625V2.5025H9.84L12 1.0625ZM7.5 -0.00250244V2.2925L10.9425 -0.00250244H7.5Z" fill="#2E52B2"/>
<path id="Vector_12" d="M0 8V7.295L2.6925 5.5025H3.75L0 8Z" fill="#D80027"/>
<path id="Vector_13" d="M0 6.9425V5.5025H2.16L0 6.9425ZM4.5 8V5.705L1.0575 8H4.5Z" fill="#2E52B2"/>
<path id="Vector_14" d="M12 8V7.295L9.3075 5.5025H8.25L12 8Z" fill="#D80027"/>
<path id="Vector_15" d="M12.0001 6.94249V5.50249H9.84006L12.0001 6.94249ZM7.50006 7.99999V5.70499L10.9426 7.99999H7.50006ZM7.05006 3.98749C7.05006 3.70703 6.93864 3.43805 6.74032 3.23973C6.542 3.04141 6.27302 2.92999 5.99256 2.92999C5.71209 2.92999 5.44311 3.04141 5.24479 3.23973C5.04647 3.43805 4.93506 3.70703 4.93506 3.98749C4.93506 4.26796 5.04647 4.53694 5.24479 4.73526C5.44311 4.93358 5.71209 5.04499 5.99256 5.04499C6.27302 5.04499 6.542 4.93358 6.74032 4.73526C6.93864 4.53694 7.05006 4.26796 7.05006 3.98749Z" fill="#2E52B2"/>
<path id="Vector_16" d="M6 3.2525L6.1875 3.8225H6.7875L6.3 4.17499L6.4875 4.7525L6 4.4L5.5125 4.7525L5.7 4.17499L5.2125 3.8225H5.8125L6 3.2525ZM6 6.305L6.1125 6.64249H6.4725L6.18 6.8525L6.2925 7.1975L6 6.98749L5.7075 7.1975L5.82 6.8525L5.535 6.64249H5.8875L6 6.305ZM6 0.807495L6.1125 1.145H6.4725L6.18 1.355L6.2925 1.7L6 1.49L5.7075 1.7L5.82 1.355L5.535 1.145H5.8875L6 0.807495ZM9.2775 3.5525L9.39 3.8975H9.75L9.4575 4.1075L9.57 4.445L9.2775 4.23499L8.985 4.445L9.0975 4.1075L8.805 3.8975H9.165L9.2775 3.5525ZM2.7225 3.5525L2.835 3.8975H3.195L2.9025 4.1075L3.015 4.445L2.7225 4.23499L2.43 4.445L2.5425 4.1075L2.25 3.8975H2.61L2.7225 3.5525V3.5525Z" fill="#FFDA44"/>
</g>
</g>
<defs>
<clipPath id="clip0_2253_3345">
<rect width="24" height="16" rx="4" fill="white"/>
</clipPath>
</defs>
</svg>
