<svg width="auto" height="auto" viewBox="0 0 24 16" fill="none" xmlns="http://www.w3.org/2000/svg">
<g id="PF">
<g clip-path="url(#clip0_2253_3387)">
<path id="Vector" d="M24 -0.00250244H0V15.995H24V-0.00250244Z" fill="#F0F0F0"/>
<path id="Vector_2" d="M24 -0.00250244H0V5.33H24V-0.00250244ZM24 10.6625H0V15.995H24V10.6625Z" fill="#D80027"/>
<path id="Vector_3" d="M13.7777 8.00003C13.7727 8.22233 13.7216 8.44118 13.6277 8.6427C13.5337 8.84422 13.3989 9.02401 13.2318 9.17068C13.0646 9.31735 12.8689 9.4277 12.6569 9.49472C12.4448 9.56175 12.2212 9.58399 12.0002 9.56003C11.7791 9.58399 11.5555 9.56175 11.3435 9.49472C11.1315 9.4277 10.9357 9.31735 10.7686 9.17068C10.6014 9.02401 10.4666 8.84422 10.3726 8.6427C10.2787 8.44118 10.2276 8.22233 10.2227 8.00003C10.2227 7.52861 10.4099 7.0765 10.7433 6.74315C11.0766 6.40981 11.5287 6.22253 12.0002 6.22253C12.4716 6.22253 12.9237 6.40981 13.257 6.74315C13.5904 7.0765 13.7777 7.52861 13.7777 8.00003V8.00003Z" fill="#FFDA44"/>
<path id="Vector_4" d="M13.7773 8C13.748 8.45244 13.5475 8.87675 13.2167 9.18679C12.8859 9.49682 12.4495 9.66936 11.9961 9.66936C11.5427 9.66936 11.1063 9.49682 10.7755 9.18679C10.4447 8.87675 10.2442 8.45244 10.2148 8" fill="#0052B4"/>
<path id="Vector_5" d="M11.3326 7.55751H10.8901V8.45001H11.3326V7.55751V7.55751ZM13.1101 7.55751H12.6676V8.45001H13.1101V7.55751V7.55751ZM12.2176 6.89001H11.7751V8.45001H12.2176V6.89001V6.89001Z" fill="#D80027"/>
</g>
</g>
<defs>
<clipPath id="clip0_2253_3387">
<rect width="24" height="16" rx="4" fill="white"/>
</clipPath>
</defs>
</svg>
