<svg width="auto" height="auto" viewBox="0 0 24 16" fill="none" xmlns="http://www.w3.org/2000/svg">
<g id="PG">
<g clip-path="url(#clip0_2253_3393)">
<path id="Vector" d="M24 -0.00250244H0V15.995H24V-0.00250244Z" fill="black"/>
<path id="Vector_2" d="M0 -0.00250244H24V16.0025" fill="#A2001D"/>
<path id="Vector_3" d="M9.59244 11.3075L9.71994 11.705H10.1399L9.80244 11.9525L9.92994 12.35L9.59244 12.1025L9.25494 12.35L9.38244 11.9525L9.04494 11.705H9.46494L9.59244 11.3075V11.3075ZM8.51994 7.47498L8.73744 8.14248H9.43494L8.87244 8.55498L9.08994 9.21498L8.51994 8.80998L7.95744 9.21498L8.17494 8.55498L7.60494 8.14248H8.30244L8.51994 7.47498V7.47498ZM8.51994 12.35L8.73744 13.01H9.43494L8.87244 13.4225L9.08994 14.09L8.51994 13.6775L7.95744 14.09L8.17494 13.4225L7.60494 13.01H8.30244L8.51994 12.35V12.35ZM10.5674 9.21498L10.7774 9.88248H11.4749L10.9124 10.295L11.1299 10.955L10.5674 10.5425L9.99744 10.955L10.2149 10.295L9.65244 9.88248H10.3499L10.5674 9.21498V9.21498ZM6.47994 9.21498L6.69744 9.88248H7.39494L6.83244 10.295L7.04244 10.955L6.47994 10.5425L5.91744 10.955L6.12744 10.295L5.56494 9.88248H6.26244L6.47994 9.21498V9.21498Z" fill="#F0F0F0"/>
<path id="Vector_4" d="M17.6475 5.57C17.2909 5.22667 16.822 5.02418 16.3275 5L17.8275 3.8375C17.5457 3.555 17.206 3.33697 16.8318 3.19843C16.4576 3.05989 16.0579 3.00413 15.66 3.035C15.5665 2.68831 15.3828 2.3726 15.1275 2.12L14.535 3.29749C14.4941 3.226 14.4436 3.1604 14.385 3.1025C14.2206 2.9459 14.0015 2.85979 13.7744 2.86256C13.5474 2.86533 13.3304 2.95675 13.1699 3.11731C13.0093 3.27787 12.9179 3.49484 12.9151 3.72189C12.9123 3.94894 12.9984 4.16807 13.155 4.33249C13.2143 4.39249 13.2825 4.4435 13.3575 4.4825L12.165 5C12.4185 5.255 12.7335 5.44175 13.08 5.54C13.0511 5.93829 13.1085 6.33814 13.2483 6.71223C13.3881 7.08631 13.607 7.4258 13.89 7.70749L15.195 6.0275C15.2432 5.9792 15.3005 5.94104 15.3636 5.91528C15.4267 5.88951 15.4944 5.87666 15.5625 5.8775C15.6655 5.87962 15.7657 5.91157 15.8509 5.96948C15.9361 6.02739 16.0027 6.10876 16.0425 6.20374C16.0812 6.2988 16.0911 6.40309 16.0711 6.50372C16.0511 6.60436 16.0021 6.69693 15.93 6.76999L16.4175 7.265C16.5315 7.15211 16.622 7.01778 16.6838 6.86975C16.7456 6.72171 16.7774 6.56291 16.7775 6.4025C16.7848 6.13253 16.7002 5.86811 16.5375 5.6525C16.7736 5.71511 16.9889 5.83891 17.1617 6.01137C17.3346 6.18384 17.4589 6.39887 17.522 6.63474C17.5852 6.87062 17.585 7.11898 17.5214 7.35474C17.4578 7.59051 17.3332 7.80533 17.16 7.9775L17.6475 8.47249C17.8421 8.27877 17.9965 8.04852 18.1018 7.79497C18.2072 7.54142 18.2614 7.26956 18.2614 6.995C18.2614 6.72043 18.2072 6.44857 18.1018 6.19502C17.9965 5.94147 17.8421 5.71122 17.6475 5.51749V5.57V5.57Z" fill="#FFDA44"/>
</g>
</g>
<defs>
<clipPath id="clip0_2253_3393">
<rect width="24" height="16" rx="4" fill="white"/>
</clipPath>
</defs>
</svg>
