<svg width="auto" height="auto" viewBox="0 0 24 16" fill="none" xmlns="http://www.w3.org/2000/svg">
<g id="PM">
<g clip-path="url(#clip0_2253_3412)">
<path id="Vector" d="M6 -0.00250244H0V5.33H6V-0.00250244Z" fill="#CC0000"/>
<path id="Vector_2" d="M6 5.33002H0V10.6625H6V5.33002V5.33002Z" fill="#F0F0F0"/>
<path id="Vector_3" d="M6 10.6625H0V15.995H6V10.6625Z" fill="#CC0000"/>
<path id="Vector_4" d="M24 -0.00250244H6V15.995H24V-0.00250244Z" fill="#0092C8"/>
<path id="Vector_5" d="M9.38255 7.43751L9.89255 5.75001C9.91785 5.67384 9.961 5.60482 10.0184 5.54871C10.0758 5.49261 10.1458 5.45105 10.2225 5.42751L10.8675 5.22501C10.9343 5.20289 10.9959 5.16759 11.0487 5.12121C11.1015 5.07483 11.1445 5.01831 11.175 4.95501L11.28 4.71501C11.3133 4.64253 11.3282 4.56301 11.3235 4.48342C11.3188 4.40382 11.2947 4.32659 11.2533 4.25849C11.2118 4.19038 11.1543 4.13348 11.0857 4.09278C11.0172 4.05208 10.9397 4.02881 10.86 4.02501H10.6725C10.6262 4.02311 10.582 4.00475 10.548 3.97321C10.514 3.94168 10.4923 3.89904 10.4869 3.85296C10.4814 3.80688 10.4926 3.76038 10.5184 3.72181C10.5442 3.68323 10.5829 3.65512 10.6275 3.64251L11.1825 3.47001C11.2558 3.44633 11.3336 3.44032 11.4096 3.45249C11.4856 3.46465 11.5576 3.49464 11.6198 3.54C11.682 3.58536 11.7326 3.64481 11.7674 3.71346C11.8022 3.78212 11.8202 3.85804 11.82 3.93501V4.40001C11.8198 4.45356 11.8308 4.50657 11.8523 4.5556C11.8738 4.60463 11.9054 4.6486 11.945 4.68465C11.9846 4.72071 12.0313 4.74805 12.0821 4.76491C12.133 4.78177 12.1868 4.78776 12.24 4.78251C12.3221 4.77021 12.406 4.78548 12.4785 4.82595C12.5509 4.86641 12.6079 4.92978 12.6405 5.00612C12.6731 5.08245 12.6795 5.16745 12.6586 5.24778C12.6377 5.32811 12.5907 5.39924 12.5251 5.45001L11.94 5.93751C11.8617 6.00352 11.8065 6.09288 11.7825 6.19251L11.2875 8.05251C11.2804 8.09471 11.2804 8.13781 11.2875 8.18001V8.93001C11.288 9.00302 11.3043 9.07505 11.3354 9.14111C11.3665 9.20717 11.4116 9.26566 11.4675 9.31251L12.2176 9.96501C12.2805 10.0188 12.3576 10.0531 12.4397 10.0639C12.5218 10.0746 12.6052 10.0613 12.6798 10.0256C12.7545 9.98983 12.8171 9.9332 12.8602 9.86254C12.9033 9.79188 12.925 9.71024 12.9225 9.62751C12.9223 9.52729 12.8869 9.43032 12.8225 9.35356C12.7581 9.27679 12.6687 9.2251 12.57 9.20751L12.2176 9.14001C12.1455 9.12747 12.0772 9.09889 12.0176 9.05639C11.9581 9.01389 11.9089 8.95856 11.8736 8.89448C11.8383 8.8304 11.8179 8.75921 11.8138 8.68617C11.8097 8.61314 11.8221 8.54012 11.85 8.47251L12.975 5.70501C13.0227 5.58772 13.1142 5.49358 13.23 5.44251L13.9051 5.13501C13.9895 5.09426 14.0619 5.03223 14.115 4.95501L14.6475 4.11501C14.6854 4.05576 14.7094 3.98869 14.7176 3.91885C14.7258 3.849 14.7181 3.7782 14.695 3.71178C14.6719 3.64536 14.634 3.58504 14.5842 3.53537C14.5344 3.4857 14.474 3.44797 14.4075 3.42501C14.3682 3.40831 14.3358 3.37867 14.3156 3.34099C14.2954 3.30332 14.2887 3.25988 14.2965 3.21787C14.3044 3.17586 14.3264 3.1378 14.3589 3.11C14.3913 3.0822 14.4323 3.06633 14.475 3.06501H15.0825C15.1705 3.06444 15.2569 3.08728 15.3331 3.13119C15.4092 3.17511 15.4723 3.23851 15.5158 3.31488C15.5594 3.39125 15.5818 3.47783 15.5808 3.56573C15.5797 3.65363 15.5553 3.73967 15.51 3.81501L15.3675 4.08501C15.3313 4.1532 15.3149 4.23019 15.3203 4.30722C15.3256 4.38425 15.3525 4.45823 15.3978 4.52075C15.4431 4.58327 15.5051 4.63181 15.5767 4.66085C15.6482 4.68989 15.7265 4.69826 15.8025 4.68501C15.8835 4.66968 15.9671 4.67892 16.0427 4.71154C16.1184 4.74416 16.1825 4.79867 16.2269 4.86806C16.2712 4.93744 16.2938 5.01851 16.2917 5.10084C16.2896 5.18317 16.2629 5.26299 16.215 5.33001L16.11 5.48001C16.0856 5.51764 16.0655 5.55789 16.05 5.60001L14.9925 8.60001C14.9878 8.65011 14.9903 8.70064 15 8.75001V9.14001C15.0039 9.22964 14.9837 9.31866 14.9415 9.39782C14.8993 9.47698 14.8366 9.54338 14.7601 9.59009C14.6835 9.63681 14.5958 9.66214 14.5061 9.66344C14.4164 9.66475 14.328 9.64198 14.25 9.59751H14.2126C14.1372 9.55223 14.0512 9.52782 13.9633 9.5268C13.8754 9.52579 13.7888 9.5482 13.7124 9.59173C13.636 9.63526 13.5726 9.69834 13.5287 9.77449C13.4848 9.85064 13.462 9.93711 13.4626 10.025V10.145C13.4632 10.2641 13.5068 10.379 13.5854 10.4685C13.6639 10.558 13.7721 10.6163 13.89 10.6325L15.8775 10.9025C15.9931 10.9198 16.1109 10.8931 16.2075 10.8275L17.145 10.25C17.239 10.1906 17.3106 10.1016 17.3486 9.9971C17.3866 9.8926 17.3889 9.77844 17.355 9.67251L17.1075 8.92251C17.093 8.87973 17.0685 8.84101 17.036 8.80957C17.0036 8.77812 16.9641 8.75484 16.9209 8.74166C16.8777 8.72847 16.8319 8.72575 16.7874 8.73372C16.743 8.7417 16.701 8.76013 16.665 8.78751C16.6204 8.82582 16.5647 8.84895 16.5061 8.85354C16.4474 8.85814 16.3888 8.84398 16.3387 8.81309C16.2886 8.78221 16.2497 8.73621 16.2274 8.68173C16.2052 8.62725 16.2009 8.56712 16.215 8.51001L16.74 5.96751C16.757 5.88765 16.7932 5.81313 16.8455 5.7504C16.8978 5.68767 16.9646 5.63863 17.04 5.60751L17.9025 5.26251C17.9627 5.23877 18.0175 5.20335 18.0638 5.1583C18.1102 5.11324 18.1471 5.05944 18.1725 5.00001L18.405 4.44501C18.4545 4.32166 18.453 4.18376 18.401 4.06147C18.349 3.93919 18.2507 3.84248 18.1275 3.79251L17.79 3.66501C17.7408 3.65363 17.6978 3.62353 17.6703 3.58108C17.6428 3.53863 17.6328 3.48714 17.6426 3.43749C17.6523 3.38784 17.681 3.34392 17.7225 3.31501C17.764 3.28609 17.8151 3.27444 17.865 3.28251H18.765C18.8394 3.28282 18.9128 3.29989 18.9797 3.33246C19.0466 3.36503 19.1053 3.41226 19.1514 3.47063C19.1975 3.529 19.2299 3.59702 19.2461 3.66963C19.2623 3.74224 19.262 3.81756 19.245 3.89001L19.1325 4.37001C19.121 4.41963 19.1224 4.47136 19.1364 4.52032C19.1504 4.56929 19.1767 4.61388 19.2127 4.6499C19.2487 4.68591 19.2933 4.71216 19.3422 4.72618C19.3912 4.7402 19.4429 4.74152 19.4925 4.73001C19.5561 4.71431 19.623 4.7198 19.6831 4.74566C19.7432 4.77152 19.7932 4.81632 19.8255 4.87324C19.8578 4.93016 19.8706 4.99608 19.8619 5.06094C19.8533 5.1258 19.8236 5.18605 19.7775 5.23251L19.095 5.93001C19.0048 6.01925 18.9536 6.1406 18.9525 6.26751L18.915 7.59501C18.9151 7.64293 18.9055 7.69036 18.8869 7.73453C18.8684 7.77871 18.8412 7.81873 18.807 7.85226C18.7727 7.88579 18.7322 7.91215 18.6876 7.92979C18.6431 7.94744 18.5955 7.95601 18.5475 7.95501C18.4921 7.95473 18.4373 7.96699 18.3873 7.99087C18.3373 8.01476 18.2933 8.04965 18.2587 8.09293C18.2241 8.13622 18.1997 8.18677 18.1874 8.24082C18.175 8.29486 18.1751 8.351 18.1875 8.40501L18.24 8.63751C18.2602 8.72875 18.3057 8.81243 18.3714 8.87888C18.4371 8.94533 18.5202 8.99183 18.6112 9.01301C18.7022 9.03419 18.7973 9.02919 18.8856 8.99857C18.9739 8.96796 19.0517 8.91299 19.11 8.84001L19.23 8.68251C19.2781 8.6193 19.3407 8.56859 19.4125 8.53465C19.4843 8.50071 19.5632 8.48454 19.6425 8.48751L20.64 8.52501C20.7277 8.52816 20.8146 8.50837 20.8922 8.46759C20.9698 8.42681 21.0354 8.36645 21.0825 8.29251L21.48 7.62501C21.5031 7.58991 21.5162 7.54922 21.5179 7.50728C21.5197 7.46533 21.5101 7.42369 21.4901 7.38678C21.4701 7.34986 21.4405 7.31905 21.4044 7.29761C21.3683 7.27617 21.327 7.26491 21.285 7.26501C21.2465 7.26553 21.2083 7.25644 21.1741 7.23855C21.1399 7.22066 21.1107 7.19453 21.0892 7.16253C21.0676 7.13054 21.0543 7.09367 21.0505 7.05526C21.0468 7.01684 21.0526 6.9781 21.0675 6.94251L21.3 6.37251C21.335 6.28167 21.3968 6.20362 21.4772 6.1487C21.5575 6.09378 21.6527 6.06459 21.75 6.06501H21.975C22.0623 6.06576 22.1478 6.08957 22.2229 6.13402C22.298 6.17848 22.36 6.24199 22.4027 6.31814C22.4453 6.39428 22.4671 6.48034 22.4657 6.5676C22.4644 6.65486 22.44 6.74022 22.395 6.81501L19.5975 11.0825C19.5397 11.1759 19.5136 11.2855 19.523 11.395C19.5325 11.5044 19.577 11.6079 19.65 11.69L19.9275 11.9825C19.9928 12.0524 20.0363 12.1398 20.053 12.2339C20.0696 12.3281 20.0586 12.4251 20.0214 12.5131C19.9841 12.6012 19.9221 12.6765 19.8429 12.7301C19.7637 12.7837 19.6707 12.8132 19.575 12.815L11.58 12.965C11.4816 12.9641 11.3855 12.9355 11.3025 12.8825L8.44505 11C8.35656 10.9426 8.29245 10.8544 8.26505 10.7525C8.2491 10.6896 8.2477 10.6238 8.26094 10.5603C8.27419 10.4967 8.30174 10.437 8.34149 10.3857C8.38125 10.3344 8.43217 10.2928 8.4904 10.2641C8.54863 10.2354 8.61263 10.2203 8.67755 10.22H9.27005C9.35879 10.2297 9.4485 10.2149 9.5294 10.1771C9.61029 10.1394 9.67925 10.0801 9.72877 10.0058C9.7783 9.93155 9.80647 9.8451 9.81022 9.7559C9.81397 9.6667 9.79316 9.57819 9.75005 9.50001L9.70505 9.35751C9.67962 9.28297 9.67181 9.20354 9.68222 9.12547C9.69263 9.0474 9.72098 8.97279 9.76505 8.90751L9.99005 8.60001L10.05 8.51751C10.0871 8.46122 10.1087 8.39613 10.1126 8.32882C10.1164 8.26151 10.1024 8.19438 10.0719 8.13424C10.0415 8.07409 9.99566 8.02306 9.93914 7.98632C9.88261 7.94958 9.81738 7.92843 9.75005 7.92501C9.69035 7.92658 9.63114 7.91386 9.57735 7.88792C9.52356 7.86198 9.47674 7.82357 9.44079 7.77588C9.40484 7.72819 9.3808 7.67261 9.37067 7.61375C9.36054 7.5549 9.36461 7.49448 9.38255 7.43751V7.43751Z" fill="#FFCF00"/>
</g>
</g>
<defs>
<clipPath id="clip0_2253_3412">
<rect width="24" height="16" rx="4" fill="white"/>
</clipPath>
</defs>
</svg>
