<svg width="auto" height="auto" viewBox="0 0 24 16" fill="none" xmlns="http://www.w3.org/2000/svg">
<g id="PY">
<g clip-path="url(#clip0_2253_3437)">
<path id="Vector" d="M24 -0.00250244H0V15.995H24V-0.00250244Z" fill="#F0F0F0"/>
<path id="Vector_2" d="M24 -0.00250244H0V5.33H24V-0.00250244Z" fill="#D80027"/>
<path id="Vector_3" d="M24 10.6625H0V15.995H24V10.6625Z" fill="#0052B4"/>
<path id="Vector_4" d="M13.575 6.16248L12.9825 6.74748C13.2266 6.99242 13.371 7.31928 13.3877 7.66465C13.4044 8.01002 13.2923 8.34929 13.073 8.61666C12.8537 8.88403 12.543 9.06045 12.201 9.11169C11.8591 9.16292 11.5103 9.08534 11.2223 8.89397C11.0501 8.77973 10.9056 8.62847 10.7993 8.45123C10.6931 8.27399 10.6277 8.07526 10.6081 7.86954C10.5885 7.66383 10.6151 7.45633 10.6859 7.2622C10.7567 7.06807 10.87 6.89221 11.0175 6.74748L10.425 6.16248C10.2129 6.36496 10.0438 6.60813 9.92785 6.87746C9.81187 7.14679 9.7514 7.43674 9.75004 7.72998C9.70457 8.04905 9.72819 8.37416 9.81928 8.68331C9.91037 8.99247 10.0668 9.27844 10.278 9.52188C10.4892 9.76533 10.7503 9.96055 11.0435 10.0943C11.3367 10.2281 11.6552 10.2974 11.9775 10.2974C12.2998 10.2974 12.6184 10.2281 12.9116 10.0943C13.2048 9.96055 13.4658 9.76533 13.677 9.52188C13.8883 9.27844 14.0447 8.99247 14.1358 8.68331C14.2269 8.37416 14.2505 8.04905 14.205 7.72998C14.2086 7.44006 14.1548 7.15229 14.0467 6.88327C13.9386 6.61424 13.7783 6.36927 13.575 6.16248Z" fill="#6DA544"/>
<path id="Vector_5" d="M12.0001 6.89752L12.2101 7.53502H12.8776L12.3376 7.93252L12.5401 8.57002L12.0001 8.17252L11.4601 8.57002L11.6626 7.93252L11.1226 7.53502H11.7901L12.0001 6.89752V6.89752Z" fill="#FFDA44"/>
</g>
</g>
<defs>
<clipPath id="clip0_2253_3437">
<rect width="24" height="16" rx="4" fill="white"/>
</clipPath>
</defs>
</svg>
