<svg width="auto" height="auto" viewBox="0 0 24 16" fill="none" xmlns="http://www.w3.org/2000/svg">
<g id="SB">
<g clip-path="url(#clip0_2253_3478)">
<path id="Vector" d="M24 -0.00250244H0V15.995H24V-0.00250244Z" fill="#496E2D"/>
<path id="Vector_2" d="M0 16.0025V-0.00250244H24" fill="#0052B4"/>
<path id="Vector_3" d="M0 14.585V16.0025H2.1225L24 1.415V-0.00250244H21.8775L0 14.585Z" fill="#FFDA44"/>
<path id="Vector_4" d="M4.02 1.09998L4.2525 1.83498H5.0325L4.4025 2.29248L4.6425 3.03498L4.02 2.57748L3.39 3.03498L3.63 2.29248L3 1.83498H3.78L4.02 1.09998V1.09998ZM7.98 1.09998L8.22 1.83498H9L8.37 2.29248L8.61 3.03498L7.98 2.57748L7.3575 3.03498L7.5975 2.29248L6.9675 1.83498H7.74L7.98 1.09998V1.09998ZM4.02 4.96998L4.2525 5.70498H5.0325L4.4025 6.16248L4.6425 6.89748L4.02 6.44748L3.39 6.89748L3.63 6.16248L3 5.70498H3.78L4.02 4.96998V4.96998ZM7.98 4.96998L8.22 5.70498H9L8.37 6.16248L8.61 6.89748L7.98 6.44748L7.3575 6.89748L7.5975 6.16248L6.9675 5.70498H7.74L7.98 4.96998ZM6 3.03498L6.24 3.76998H7.02L6.39 4.22748L6.63 4.96998L6 4.51248L5.37 4.96998L5.61 4.22748L4.98 3.76998H5.76L6 3.03498Z" fill="#F0F0F0"/>
</g>
</g>
<defs>
<clipPath id="clip0_2253_3478">
<rect width="24" height="16" rx="4" fill="white"/>
</clipPath>
</defs>
</svg>
