<svg width="auto" height="auto" viewBox="0 0 24 16" fill="none" xmlns="http://www.w3.org/2000/svg">
<g id="SH">
<g clip-path="url(#clip0_2253_3502)">
<path id="Vector" d="M24 -0.00250244H0V15.995H24V-0.00250244Z" fill="#0052B4"/>
<path id="Vector_2" d="M15.75 5V8.6675C15.75 10.4525 18 11 18 11C18 11 20.25 10.4525 20.25 8.6675V5H15.75Z" fill="#35AFDF"/>
<path id="Vector_3" d="M12 -0.00250244V1.43L9.885 2.6075H12V5.39H9.2325L12 6.9275V8H10.7475L7.305 6.0875V8H4.695V5.72L0.6 8H0V6.5675L2.115 5.39H0V2.6075H2.7675L0 1.07V-0.00250244H1.2525L4.695 1.91V-0.00250244H7.305V2.2775L11.4 -0.00250244H12V-0.00250244Z" fill="#F0F0F0"/>
<path id="Vector_4" d="M6.75 -0.00250244H5.25V3.2525H0V4.7525H5.25V8H6.75V4.7525H12V3.2525H6.75V-0.00250244Z" fill="#D80027"/>
<path id="Vector_5" d="M7.30469 5.39001L11.9997 8.00001V7.26501L8.63219 5.39001H7.30469Z" fill="#0052B4"/>
<path id="Vector_6" d="M7.30469 5.39001L11.9997 8.00001V7.26501L8.63219 5.39001H7.30469Z" fill="#F0F0F0"/>
<path id="Vector_7" d="M7.305 5.39001L12 8.00001V7.26501L8.6325 5.39001H7.305ZM3.3675 5.39001L0 7.26501V8.00001L4.695 5.39001H3.3675Z" fill="#D80027"/>
<path id="Vector_8" d="M4.695 2.6075L0 -0.00250244V0.739998L3.3675 2.6075H4.695Z" fill="#0052B4"/>
<path id="Vector_9" d="M4.695 2.6075L0 -0.00250244V0.739998L3.3675 2.6075H4.695Z" fill="#F0F0F0"/>
<path id="Vector_10" d="M4.695 2.6075L0 -0.00250244V0.739998L3.3675 2.6075H4.695ZM8.6325 2.6075L12 0.739998V-0.00250244L7.305 2.6075H8.6325Z" fill="#D80027"/>
<path id="Vector_11" d="M20.25 5H15.75V7.25H20.25V5Z" fill="#BDA86B"/>
<path id="Vector_12" d="M18 11.0825C18 11.0825 15.75 10.535 15.75 8.75H20.25C20.25 10.535 18 11.0825 18 11.0825Z" fill="#BCDAE6"/>
</g>
</g>
<defs>
<clipPath id="clip0_2253_3502">
<rect width="24" height="16" rx="4" fill="white"/>
</clipPath>
</defs>
</svg>
