<svg width="auto" height="auto" viewBox="0 0 24 16" fill="none" xmlns="http://www.w3.org/2000/svg">
<g id="SK">
<g clip-path="url(#clip0_2253_3522)">
<path id="Vector" d="M24 -0.00250244H0V15.995H24V-0.00250244Z" fill="#F0F0F0"/>
<path id="Vector_2" d="M24 5.21747H0V10.7825H24V5.21747V5.21747Z" fill="#0052B4"/>
<path id="Vector_3" d="M24 10.7825H0V16.0025H24V10.7825Z" fill="#D80027"/>
<path id="Vector_4" d="M6.06738 4.52002V8.51002C6.06738 10.76 9.06738 11.51 9.06738 11.51C9.06738 11.51 12.0299 10.8125 12.0299 8.51002V4.52002H6.06738Z" fill="#F0F0F0"/>
<path id="Vector_5" d="M6.84773 4.64001V8.48001C6.84531 8.74012 6.90441 8.99711 7.02023 9.23001H11.0477C11.1635 8.99711 11.2226 8.74012 11.2202 8.48001V4.64001H6.84773Z" fill="#D80027"/>
<path id="Vector_6" d="M10.3728 7.3175H9.36781V6.65H10.0353V5.975H9.36781V5.3075H8.70031V5.975H8.03281V6.65H8.70031V7.3175H7.69531V7.98499H8.70031V8.65999H9.36781V7.98499H10.3728V7.3175V7.3175Z" fill="#F0F0F0"/>
<path id="Vector_7" d="M7.93502 10.1375C8.28002 10.3498 8.65127 10.5185 9.03752 10.64C9.42241 10.5198 9.79038 10.3509 10.1325 10.1375C10.5175 9.91794 10.8342 9.59605 11.0475 9.20751C10.8511 9.06555 10.6148 8.98941 10.3725 8.99C10.2852 8.98235 10.1974 8.98235 10.11 8.99C10.019 8.78125 9.86905 8.6036 9.67854 8.47883C9.48803 8.35406 9.26525 8.2876 9.03752 8.2876C8.80979 8.2876 8.58701 8.35406 8.3965 8.47883C8.20599 8.6036 8.05603 8.78125 7.96502 8.99C7.87502 8.9825 7.78502 8.9825 7.69502 8.99C7.45277 8.99 7.21652 9.06501 7.02002 9.20751C7.23329 9.59605 7.55 9.91794 7.93502 10.1375V10.1375Z" fill="#0052B4"/>
</g>
</g>
<defs>
<clipPath id="clip0_2253_3522">
<rect width="24" height="16" rx="4" fill="white"/>
</clipPath>
</defs>
</svg>
