<svg width="auto" height="auto" viewBox="0 0 24 16" fill="none" xmlns="http://www.w3.org/2000/svg">
<g id="SX">
<g clip-path="url(#clip0_2253_3572)">
<path id="Vector" d="M24 -0.00250244H0V15.995H24V-0.00250244Z" fill="#0052B4"/>
<path id="Vector_2" d="M24 -0.00250244V7.8125L0 8.0075V-0.00250244H24Z" fill="#D80027"/>
<path id="Vector_3" d="M12 8L0 16.0025V-0.00250244L12 8Z" fill="#F0F0F0"/>
<path id="Vector_4" d="M2.79742 8C2.79344 8.07245 2.79344 8.14506 2.79742 8.2175C2.83447 8.93146 3.14419 9.60395 3.66265 10.0962C4.18111 10.5885 4.86875 10.8629 5.58367 10.8629C6.29859 10.8629 6.98623 10.5885 7.50469 10.0962C8.02315 9.60395 8.33287 8.93146 8.36992 8.2175C8.37375 8.14505 8.37375 8.07245 8.36992 8H2.79742ZM5.57242 6.71C5.79918 6.71 6.01665 6.61992 6.177 6.45958C6.33734 6.29923 6.42742 6.08176 6.42742 5.855C6.42742 5.62824 6.33734 5.41077 6.177 5.25042C6.01665 5.09008 5.79918 5 5.57242 5C5.34566 5 5.12819 5.09008 4.96784 5.25042C4.8075 5.41077 4.71742 5.62824 4.71742 5.855C4.71742 6.08176 4.8075 6.29923 4.96784 6.45958C5.12819 6.61992 5.34566 6.71 5.57242 6.71V6.71Z" fill="#FFDA44"/>
<path id="Vector_5" d="M3.64502 5.64502V8.42752C3.64502 9.92752 5.57252 10.355 5.57252 10.355C5.57252 10.355 7.50002 9.90502 7.50002 8.42752V5.64502H3.64502Z" fill="#D80027"/>
<path id="Vector_6" d="M5.5725 9.5C5.25 9.335 4.5 9.005 4.5 8.4275V6.5H6.645V8.4275C6.645 9.005 5.925 9.335 5.5725 9.5Z" fill="#338AF3"/>
<path id="Vector_7" d="M6.00023 7.57249V7.14499L5.57273 6.92749L5.14523 7.14499V7.57249L4.92773 7.78249V8.64499H6.21773V7.78249L6.00023 7.57249Z" fill="#F3F3F3"/>
</g>
</g>
<defs>
<clipPath id="clip0_2253_3572">
<rect width="24" height="16" rx="4" fill="white"/>
</clipPath>
</defs>
</svg>
