<svg width="auto" height="auto" viewBox="0 0 24 16" fill="none" xmlns="http://www.w3.org/2000/svg">
<g id="TC">
<g clip-path="url(#clip0_2253_3591)">
<path id="Vector" d="M24 -0.00250244H0V15.995H24V-0.00250244Z" fill="#0052B4"/>
<path id="Vector_2" d="M15.5625 5V8.6675C15.5625 10.4525 18 11 18 11C18 11 20.4375 10.4525 20.4375 8.6675V5H15.5625Z" fill="#FFDA44"/>
<path id="Vector_3" d="M17.6548 6.33498C17.6548 6.70248 17.3398 7.66998 16.9573 7.66998C16.5748 7.66998 16.2598 6.70248 16.2598 6.33498C16.2598 5.96748 16.9573 5.66748 16.9573 5.66748C16.9573 5.66748 17.6548 5.96748 17.6548 6.33498Z" fill="#FF9811"/>
<path id="Vector_4" d="M19.5002 7.06248C19.6102 6.79486 19.676 6.51118 19.6952 6.22248C19.6952 5.91498 19.2827 5.66748 19.2827 5.66748C19.2827 5.66748 18.8627 5.91498 18.8627 6.22248C18.8852 6.51123 18.9527 6.79473 19.0652 7.06248L18.8252 7.57998C18.9707 7.63773 19.1259 7.66848 19.2827 7.66998C19.4393 7.6669 19.5941 7.63644 19.7402 7.57998L19.5002 7.06248Z" fill="#A2001D"/>
<path id="Vector_5" d="M17.4749 8.66752C17.269 9.08396 17.1516 9.53848 17.1299 10.0025H18.8699C18.8482 9.53848 18.7307 9.08396 18.5249 8.66752L17.9999 8.33002L17.4749 8.66752Z" fill="#6DA544"/>
<path id="Vector_6" d="M18.5249 8.6675V8.5025C18.521 8.36656 18.4637 8.23762 18.3655 8.14359C18.2672 8.04955 18.1359 7.99797 17.9999 8C17.9329 7.999 17.8664 8.01122 17.8042 8.03593C17.7419 8.06065 17.6851 8.09739 17.6371 8.14405C17.589 8.19071 17.5506 8.24639 17.5241 8.30789C17.4976 8.36939 17.4834 8.43552 17.4824 8.5025V8.6675H18.5249Z" fill="#D80027"/>
<path id="Vector_7" d="M12 -0.00250244V1.43L9.885 2.6075H12V5.39H9.2325L12 6.9275V8H10.7475L7.305 6.0875V8H4.695V5.72L0.6 8H0V6.5675L2.115 5.39H0V2.6075H2.7675L0 1.07V-0.00250244H1.2525L4.695 1.91V-0.00250244H7.305V2.2775L11.4 -0.00250244H12V-0.00250244Z" fill="#F0F0F0"/>
<path id="Vector_8" d="M6.75 -0.00250244H5.25V3.2525H0V4.7525H5.25V8H6.75V4.7525H12V3.2525H6.75V-0.00250244Z" fill="#D80027"/>
<path id="Vector_9" d="M7.30469 5.39001L11.9997 8.00001V7.26501L8.63219 5.39001H7.30469Z" fill="#0052B4"/>
<path id="Vector_10" d="M7.30469 5.39001L11.9997 8.00001V7.26501L8.63219 5.39001H7.30469Z" fill="#F0F0F0"/>
<path id="Vector_11" d="M7.305 5.39001L12 8.00001V7.26501L8.6325 5.39001H7.305ZM3.3675 5.39001L0 7.26501V8.00001L4.695 5.39001H3.3675Z" fill="#D80027"/>
<path id="Vector_12" d="M4.695 2.6075L0 -0.00250244V0.739998L3.3675 2.6075H4.695Z" fill="#0052B4"/>
<path id="Vector_13" d="M4.695 2.6075L0 -0.00250244V0.739998L3.3675 2.6075H4.695Z" fill="#F0F0F0"/>
<path id="Vector_14" d="M4.695 2.6075L0 -0.00250244V0.739998L3.3675 2.6075H4.695ZM8.6325 2.6075L12 0.739998V-0.00250244L7.305 2.6075H8.6325Z" fill="#D80027"/>
</g>
</g>
<defs>
<clipPath id="clip0_2253_3591">
<rect width="24" height="16" rx="4" fill="white"/>
</clipPath>
</defs>
</svg>
