<svg width="auto" height="auto" viewBox="0 0 24 16" fill="none" xmlns="http://www.w3.org/2000/svg">
<g id="TJ">
<g clip-path="url(#clip0_2253_3619)">
<path id="Vector" d="M24 -0.00250244H0V15.995H24V-0.00250244Z" fill="#F0F0F0"/>
<path id="Vector_2" d="M24 -0.00250244H0V5.33H24V-0.00250244Z" fill="#D80027"/>
<path id="Vector_3" d="M24 10.6625H0V15.995H24V10.6625Z" fill="#6DA544"/>
<path id="Vector_4" d="M10.6128 10.085H13.3953V8.89999L12.8328 9.18499L12.0003 8.34499L11.1678 9.18499L10.6128 8.89999V10.085ZM9.01527 8.69749L9.15027 9.09499H9.56277L9.22527 9.34249L9.35277 9.73999L9.01527 9.49249L8.67777 9.73999L8.80527 9.34249L8.46777 9.09499H8.88777L9.01527 8.69749V8.69749ZM9.42027 7.30249L9.54777 7.69999H9.96777L9.63027 7.94749L9.75777 8.34499L9.42027 8.10499L9.08277 8.34499L9.21027 7.94749L8.87277 7.69999H9.28527L9.42027 7.30249V7.30249ZM10.5678 6.25999L10.6953 6.65749H11.1153L10.7778 6.90499L10.9053 7.30249L10.5678 7.05499L10.2303 7.30249L10.3578 6.90499L10.0203 6.65749H10.4328L10.5678 6.25999V6.25999ZM14.9853 8.69749L14.8578 9.09499H14.4378L14.7753 9.34249L14.6478 9.73999L14.9853 9.49249L15.3228 9.73999L15.1953 9.34249L15.5328 9.09499H15.1128L14.9853 8.69749V8.69749ZM14.5803 7.30249L14.4528 7.69999H14.0328L14.3703 7.94749L14.2428 8.34499L14.5803 8.10499L14.9178 8.34499L14.7903 7.94749L15.1353 7.69999H14.7153L14.5803 7.30249V7.30249ZM13.4328 6.25999L13.3053 6.65749H12.8853L13.2228 6.90499L13.0953 7.30249L13.4328 7.05499L13.7703 7.30249L13.6428 6.90499L13.9803 6.65749H13.5678L13.4328 6.25999V6.25999ZM12.0003 5.73499L12.1278 6.13999H12.5478L12.2103 6.38749L12.3378 6.78499L12.0003 6.53749L11.6628 6.78499L11.7903 6.38749L11.4528 6.13999H11.8728L12.0003 5.73499V5.73499Z" fill="#FFDA44"/>
</g>
</g>
<defs>
<clipPath id="clip0_2253_3619">
<rect width="24" height="16" rx="4" fill="white"/>
</clipPath>
</defs>
</svg>
