<svg width="auto" height="auto" viewBox="0 0 24 16" fill="none" xmlns="http://www.w3.org/2000/svg">
<g id="TK">
<g clip-path="url(#clip0_2253_3624)">
<path id="Vector" d="M24 -0.00250244H0V15.995H24V-0.00250244Z" fill="#0052B4"/>
<path id="Vector_2" d="M9.87766 4.17499L10.0502 4.70749H10.6127L10.1552 5.02999L10.3277 5.56249L9.87766 5.23999L9.42766 5.56249L9.60016 5.02999L9.15016 4.70749H9.70516L9.87766 4.17499V4.17499ZM5.47516 9.21499L5.69266 9.88249H6.39016L5.82766 10.295L6.03766 10.955L5.47516 10.5425L4.91266 10.955L5.13016 10.295L4.56016 9.88249H5.25766L5.47516 9.21499V9.21499ZM6.78016 1.60999L6.99766 2.27749H7.69516L7.13266 2.68249L7.35016 3.34999L6.78016 2.93749L6.21766 3.34999L6.43516 2.68249L5.87266 2.27749H6.57016L6.78016 1.60999V1.60999ZM3.26266 4.21999L3.47266 4.87999H4.17766L3.60766 5.29249L3.82516 5.95999L3.26266 5.54749L2.69266 5.95999L2.91016 5.29249L2.34766 4.87999H3.04516L3.26266 4.21999V4.21999Z" fill="#F0F0F0"/>
<path id="Vector_3" d="M22.6576 12.62H5.52009C5.52009 12.62 10.6426 8.46495 20.0776 2.26245C20.0776 2.26245 15.9376 8.30745 22.6576 12.62ZM5.52009 13.16C5.42121 13.1734 5.33055 13.2222 5.2649 13.2973C5.19926 13.3725 5.16309 13.4689 5.16309 13.5687C5.16309 13.6685 5.19926 13.7649 5.2649 13.8401C5.33055 13.9152 5.42121 13.964 5.52009 13.9775H22.6576C22.7565 13.964 22.8471 13.9152 22.9128 13.8401C22.9784 13.7649 23.0146 13.6685 23.0146 13.5687C23.0146 13.4689 22.9784 13.3725 22.9128 13.2973C22.8471 13.2222 22.7565 13.1734 22.6576 13.16H5.52009Z" fill="#FFDA44"/>
</g>
</g>
<defs>
<clipPath id="clip0_2253_3624">
<rect width="24" height="16" rx="4" fill="white"/>
</clipPath>
</defs>
</svg>
