<svg width="auto" height="auto" viewBox="0 0 24 16" fill="none" xmlns="http://www.w3.org/2000/svg">
<g id="TN">
<g clip-path="url(#clip0_2253_3644)">
<path id="Vector" d="M24 -0.00250244H0V15.995H24V-0.00250244Z" fill="#D80027"/>
<path id="Vector_2" d="M12 12.5C13.1935 12.5 14.3381 12.0259 15.182 11.182C16.0259 10.3381 16.5 9.19347 16.5 8C16.5 6.80653 16.0259 5.66193 15.182 4.81802C14.3381 3.97411 13.1935 3.5 12 3.5C10.8065 3.5 9.66193 3.97411 8.81802 4.81802C7.97411 5.66193 7.5 6.80653 7.5 8C7.5 9.19347 7.97411 10.3381 8.81802 11.182C9.66193 12.0259 10.8065 12.5 12 12.5V12.5Z" fill="#F0F0F0"/>
<path id="Vector_3" d="M12.5552 6.28253L13.3277 7.34003L14.5802 6.93503L13.8077 8.00003L14.5727 9.06503L13.3277 8.66003L12.5552 9.71753V8.40503L11.3027 8.00003L12.5552 7.59503V6.28253V6.28253Z" fill="#D80027"/>
<path id="Vector_4" d="M13.02 10.6625C12.512 10.6627 12.0144 10.5175 11.5861 10.2441C11.1579 9.97077 10.8167 9.5806 10.603 9.11966C10.3892 8.65873 10.3118 8.14627 10.3798 7.64276C10.4478 7.13925 10.6584 6.66569 10.9868 6.27798C11.3823 5.81157 11.9264 5.49553 12.5274 5.38299C13.1285 5.27044 13.7501 5.36826 14.2875 5.65998C13.8271 5.21057 13.2444 4.90696 12.6123 4.78717C11.9801 4.66737 11.3267 4.73671 10.7338 4.98651C10.1409 5.23631 9.63485 5.65546 9.27902 6.19149C8.92319 6.72752 8.7334 7.3566 8.7334 7.99998C8.7334 8.64336 8.92319 9.27245 9.27902 9.80848C9.63485 10.3445 10.1409 10.7637 10.7338 11.0135C11.3267 11.2633 11.9801 11.3326 12.6123 11.2128C13.2444 11.093 13.8271 10.7894 14.2875 10.34C13.8983 10.5509 13.4627 10.6617 13.02 10.6625V10.6625Z" fill="#D80027"/>
</g>
</g>
<defs>
<clipPath id="clip0_2253_3644">
<rect width="24" height="16" rx="4" fill="white"/>
</clipPath>
</defs>
</svg>
