<svg width="auto" height="auto" viewBox="0 0 24 16" fill="none" xmlns="http://www.w3.org/2000/svg">
<g id="TR">
<g clip-path="url(#clip0_2253_3653)">
<path id="Vector" d="M24 -0.00250244H0V15.995H24V-0.00250244Z" fill="#D80027"/>
<path id="Vector_2" d="M11.5874 6.16248L12.4124 7.29498L13.7474 6.86748L12.9224 7.99998L13.7474 9.13998L12.4124 8.70498L11.5874 9.83748V8.43498L10.2524 7.99998L11.5874 7.56498V6.16248Z" fill="#F0F0F0"/>
<path id="Vector_3" d="M9.33746 10.8425C8.90424 10.8436 8.4765 10.7457 8.08692 10.5562C7.69733 10.3667 7.35621 10.0907 7.08962 9.74924C6.82302 9.40777 6.63801 9.00987 6.54871 8.58596C6.4594 8.16205 6.46818 7.72333 6.57436 7.30333C6.68054 6.88332 6.88132 6.49314 7.16135 6.1626C7.44139 5.83206 7.79327 5.5699 8.19012 5.39615C8.58697 5.2224 9.01828 5.14166 9.45111 5.16009C9.88393 5.17852 10.3068 5.29564 10.6875 5.50251C10.1958 5.02117 9.57292 4.69567 8.89702 4.56683C8.22111 4.43798 7.52221 4.51152 6.88792 4.77821C6.25363 5.04491 5.71217 5.4929 5.33142 6.06603C4.95066 6.63916 4.74756 7.31193 4.74756 8.00001C4.74756 8.68808 4.95066 9.36085 5.33142 9.93399C5.71217 10.5071 6.25363 10.9551 6.88792 11.2218C7.52221 11.4885 8.22111 11.562 8.89702 11.4332C9.57292 11.3043 10.1958 10.9788 10.6875 10.4975C10.2734 10.7236 9.80923 10.8422 9.33746 10.8425V10.8425Z" fill="#F0F0F0"/>
</g>
</g>
<defs>
<clipPath id="clip0_2253_3653">
<rect width="24" height="16" rx="4" fill="white"/>
</clipPath>
</defs>
</svg>
