<svg width="auto" height="auto" viewBox="0 0 24 16" fill="none" xmlns="http://www.w3.org/2000/svg">
<g id="TW">
<g clip-path="url(#clip0_2253_3676)">
<path id="Vector" d="M24 -0.00250244H0V15.995H24V-0.00250244Z" fill="#D80027"/>
<path id="Vector_2" d="M12 -0.00250244H0V8H12V-0.00250244Z" fill="#0052B4"/>
<path id="Vector_3" d="M8.7377 4.00252L7.6202 4.52752L8.2202 5.60752L7.0052 5.37502L6.8477 6.60502L6.0002 5.70502L5.1527 6.60502L5.0027 5.37502L3.7877 5.60752L4.3802 4.52752L3.2627 4.00252L4.3802 3.47002L3.7877 2.39002L5.0027 2.62252L5.1527 1.39252L6.0002 2.30002L6.8477 1.39252L7.0052 2.62252L8.2202 2.39002L7.6202 3.47002L8.7377 4.00252V4.00252Z" fill="#F0F0F0"/>
<path id="Vector_4" d="M5.98494 5.37503C6.16321 5.37503 6.33973 5.33992 6.50443 5.2717C6.66913 5.20348 6.81878 5.10349 6.94484 4.97743C7.07089 4.85138 7.17089 4.70173 7.23911 4.53703C7.30733 4.37233 7.34244 4.1958 7.34244 4.01753C7.34244 3.83926 7.30733 3.66274 7.23911 3.49804C7.17089 3.33334 7.07089 3.18369 6.94484 3.05764C6.81878 2.93158 6.66913 2.83159 6.50443 2.76337C6.33973 2.69515 6.16321 2.66003 5.98494 2.66003C5.62491 2.66003 5.27962 2.80306 5.02504 3.05764C4.77046 3.31222 4.62744 3.6575 4.62744 4.01753C4.62744 4.37757 4.77046 4.72285 5.02504 4.97743C5.27962 5.23201 5.62491 5.37503 5.98494 5.37503V5.37503Z" fill="#0052B4"/>
<path id="Vector_5" d="M6.00013 4.90699C6.24081 4.90599 6.47124 4.80943 6.64073 4.63854C6.81021 4.46764 6.90487 4.23642 6.90387 3.99574C6.90288 3.75505 6.80632 3.52462 6.63542 3.35514C6.46453 3.18565 6.23331 3.09099 5.99262 3.09199C5.75194 3.09298 5.52151 3.18955 5.35202 3.36044C5.18254 3.53133 5.08788 3.76255 5.08887 4.00324C5.08987 4.24392 5.18643 4.47435 5.35733 4.64384C5.52822 4.81332 5.75944 4.90798 6.00013 4.90699V4.90699Z" fill="#F0F0F0"/>
</g>
</g>
<defs>
<clipPath id="clip0_2253_3676">
<rect width="24" height="16" rx="4" fill="white"/>
</clipPath>
</defs>
</svg>
