<svg width="auto" height="auto" viewBox="0 0 24 16" fill="none" xmlns="http://www.w3.org/2000/svg">
<g id="US">
<g clip-path="url(#clip0_2253_3698)">
<path id="Vector" d="M24 -0.00250244H0V15.995H24V-0.00250244Z" fill="#F0F0F0"/>
<path id="Vector_2" d="M24 2H0V4.0025H24V2ZM24 5.9975H0V8H24V5.9975ZM24 10.0025H0V12.005H24V10.0025ZM24 14H0V16.0025H24V14Z" fill="#D80027"/>
<path id="Vector_3" d="M12 -0.00250244H0V8.615H12V-0.00250244Z" fill="#2E52B2"/>
<path id="Vector_4" d="M4.67984 3.53001L4.48484 4.12251H3.86234L4.36484 4.49001L4.16984 5.08251L4.67984 4.71501L5.18234 5.08251L4.99484 4.49001L5.49734 4.12251H4.87484L4.67984 3.53001ZM4.87484 6.26751L4.67984 5.67501L4.48484 6.26751H3.86234L4.36484 6.63501L4.16984 7.22751L4.67984 6.86751L5.18234 7.22751L4.99484 6.63501L5.49734 6.26751H4.87484ZM2.22734 6.26751L2.03234 5.67501L1.84484 6.26751H1.21484L1.72484 6.63501L1.52984 7.22751L2.03234 6.86751L2.54234 7.22751L2.34734 6.63501L2.85734 6.26751H2.22734ZM2.03234 3.53001L1.84484 4.12251H1.21484L1.72484 4.49001L1.52984 5.08251L2.03234 4.71501L2.54234 5.08251L2.34734 4.49001L2.85734 4.12251H2.22734L2.03234 3.53001ZM4.67984 1.38501L4.48484 1.97751H3.86234L4.36484 2.34501L4.16984 2.93751L4.67984 2.57001L5.18234 2.93751L4.99484 2.34501L5.49734 1.97751H4.87484L4.67984 1.38501V1.38501ZM2.03234 1.38501L1.84484 1.97751H1.21484L1.72484 2.34501L1.52984 2.93751L2.03234 2.57001L2.54234 2.93751L2.34734 2.34501L2.85734 1.97751H2.22734L2.03234 1.38501V1.38501ZM7.31984 3.53001L7.12484 4.12251H6.50234L7.00484 4.49001L6.81734 5.08251L7.31984 4.71501L7.82234 5.08251L7.63484 4.49001L8.13734 4.12251H7.51484L7.31984 3.53001ZM7.51484 6.26751L7.31984 5.67501L7.12484 6.26751H6.50234L7.00484 6.63501L6.81734 7.22751L7.31984 6.86751L7.82234 7.22751L7.63484 6.63501L8.13734 6.26751H7.51484ZM10.1548 6.26751L9.95984 5.67501L9.77234 6.26751H9.14234L9.65234 6.63501L9.45734 7.22751L9.95984 6.86751L10.4698 7.22751L10.2748 6.63501L10.7773 6.26751H10.1548ZM9.95984 3.53001L9.77234 4.12251H9.14234L9.65234 4.49001L9.45734 5.08251L9.95984 4.71501L10.4698 5.08251L10.2748 4.49001L10.7773 4.12251H10.1548L9.95984 3.53001ZM7.31984 1.38501L7.12484 1.97751H6.50234L7.00484 2.34501L6.81734 2.93751L7.31984 2.57001L7.82234 2.93751L7.63484 2.34501L8.13734 1.97751H7.51484L7.31984 1.38501V1.38501ZM9.95984 1.38501L9.77234 1.97751H9.14234L9.65234 2.34501L9.45734 2.93751L9.95984 2.57001L10.4698 2.93751L10.2748 2.34501L10.7773 1.97751H10.1548L9.95984 1.38501V1.38501Z" fill="#F0F0F0"/>
</g>
</g>
<defs>
<clipPath id="clip0_2253_3698">
<rect width="24" height="16" rx="4" fill="white"/>
</clipPath>
</defs>
</svg>
