<svg width="auto" height="auto" viewBox="0 0 24 16" fill="none" xmlns="http://www.w3.org/2000/svg">
<g id="UZ">
<g clip-path="url(#clip0_2253_3708)">
<path id="Vector" d="M24 -0.00250244H0V15.995H24V-0.00250244Z" fill="#D80027"/>
<path id="Vector_2" d="M24 11.1275H0V15.995H24V11.1275Z" fill="#6DA544"/>
<path id="Vector_3" d="M24 -0.00250244H0V4.895H24V-0.00250244Z" fill="#338AF3"/>
<path id="Vector_4" d="M24 5.88501H0V10.085H24V5.88501V5.88501Z" fill="#F0F0F0"/>
<path id="Vector_5" d="M24 -0.00250244H0V4.895H24V-0.00250244Z" fill="#338AF3"/>
<path id="Vector_6" d="M8.84248 2.45001C8.84939 2.09821 8.97447 1.75897 9.19758 1.48689C9.42069 1.2148 9.72885 1.0257 10.0725 0.950007C9.96029 0.938146 9.84717 0.938146 9.73498 0.950007C9.31925 0.950007 8.92055 1.11515 8.62659 1.40912C8.33263 1.70308 8.16748 2.10178 8.16748 2.51751C8.16748 2.93323 8.33263 3.33193 8.62659 3.6259C8.92055 3.91986 9.31925 4.08501 9.73498 4.08501C9.84748 4.09701 9.95998 4.09701 10.0725 4.08501C9.70562 4.00498 9.37967 3.79592 9.15394 3.49586C8.92821 3.1958 8.81768 2.82468 8.84248 2.45001V2.45001ZM10.995 3.16251L11.1075 3.48501H11.445L11.1675 3.68751L11.28 4.01751L10.995 3.81501L10.7175 4.01751L10.83 3.68751L10.5525 3.48501H10.89L10.995 3.16251V3.16251ZM12.0975 3.16251L12.2025 3.48501H12.54L12.2625 3.68751L12.375 4.01751L12.0975 3.81501L11.82 4.01751L11.925 3.68751L11.6475 3.48501H11.985L12.0975 3.16251V3.16251ZM13.185 3.16251L13.2975 3.48501H13.635L13.3575 3.68751L13.4625 4.01751L13.185 3.81501L12.9075 4.01751L13.02 3.68751L12.7425 3.48501H13.08L13.185 3.16251V3.16251ZM14.28 3.16251L14.385 3.48501H14.73L14.4525 3.68751L14.5575 4.01751L14.28 3.81501L14.0025 4.01751L14.115 3.68751L13.8375 3.48501H14.175L14.28 3.16251V3.16251ZM15.375 3.16251L15.48 3.48501H15.825L15.5475 3.68751L15.6525 4.01751L15.375 3.81501L15.0975 4.01751L15.2025 3.68751L14.925 3.48501H15.27L15.375 3.16251ZM12.0975 2.02251L12.2025 2.35251H12.54L12.2625 2.54751L12.375 2.87751L12.0975 2.67501L11.82 2.87751L11.925 2.54751L11.6475 2.35251H11.985L12.0975 2.02251V2.02251ZM13.185 2.02251L13.2975 2.35251H13.635L13.3575 2.54751L13.4625 2.87751L13.185 2.67501L12.9075 2.87751L13.02 2.54751L12.7425 2.35251H13.08L13.185 2.02251V2.02251ZM14.28 2.02251L14.385 2.35251H14.73L14.4525 2.54751L14.5575 2.87751L14.28 2.67501L14.0025 2.87751L14.115 2.54751L13.8375 2.35251H14.175L14.28 2.02251V2.02251ZM15.375 2.02251L15.48 2.35251H15.825L15.5475 2.54751L15.6525 2.87751L15.375 2.67501L15.0975 2.87751L15.2025 2.54751L14.925 2.35251H15.27L15.375 2.02251ZM13.185 0.882507L13.2975 1.21251H13.635L13.3575 1.41501L13.4625 1.73751L13.185 1.53501L12.9075 1.73751L13.02 1.41501L12.7425 1.21251H13.08L13.185 0.882507V0.882507ZM14.28 0.882507L14.385 1.21251H14.73L14.4525 1.41501L14.5575 1.73751L14.28 1.53501L14.0025 1.73751L14.115 1.41501L13.8375 1.21251H14.175L14.28 0.882507V0.882507ZM15.375 0.882507L15.48 1.21251H15.825L15.5475 1.41501L15.6525 1.73751L15.375 1.53501L15.0975 1.73751L15.2025 1.41501L14.925 1.21251H15.27L15.375 0.882507V0.882507Z" fill="#F0F0F0"/>
</g>
</g>
<defs>
<clipPath id="clip0_2253_3708">
<rect width="24" height="16" rx="4" fill="white"/>
</clipPath>
</defs>
</svg>
