<svg width="auto" height="auto" viewBox="0 0 24 16" fill="none" xmlns="http://www.w3.org/2000/svg">
<g id="VA">
<g clip-path="url(#clip0_2253_3715)">
<path id="Vector" d="M24 -0.00250244H0V15.995H24V-0.00250244Z" fill="#FFDA44"/>
<path id="Vector_2" d="M24 -0.00250244H12V15.995H24V-0.00250244Z" fill="#F0F0F0"/>
<path id="Vector_3" d="M17.2502 9.24499C17.3238 9.18929 17.4165 9.16512 17.5079 9.17778C17.5993 9.19044 17.682 9.23889 17.7377 9.31249C17.7934 9.38609 17.8176 9.4788 17.8049 9.57022C17.7923 9.66164 17.7438 9.74429 17.6702 9.79999C17.6343 9.82897 17.5929 9.85029 17.5484 9.86263C17.504 9.87497 17.4575 9.87808 17.4118 9.87175C17.3662 9.86543 17.3223 9.84981 17.2828 9.82585C17.2434 9.8019 17.2093 9.77013 17.1827 9.73249C17.1281 9.65848 17.1047 9.56608 17.1173 9.47501C17.1299 9.38394 17.1776 9.3014 17.2502 9.24499V9.24499ZM15.0827 6.95749L16.5827 8.95249C16.4623 9.13119 16.4012 9.3432 16.4079 9.55854C16.4147 9.77388 16.4889 9.98165 16.6202 10.1525C16.7351 10.3054 16.8899 10.4237 17.0676 10.4945C17.2452 10.5653 17.4389 10.5858 17.6275 10.5539C17.8161 10.522 17.9922 10.4388 18.1367 10.3134C18.2811 10.1881 18.3883 10.0254 18.4465 9.84325C18.5047 9.66106 18.5117 9.46638 18.4666 9.28051C18.4216 9.09464 18.3263 8.92473 18.1912 8.7894C18.056 8.65406 17.8863 8.55851 17.7005 8.5132C17.5147 8.46789 17.32 8.47456 17.1377 8.53249L14.7752 5.42749L14.2202 5.84749L13.3877 6.49999L14.2502 7.58749L15.0827 6.95749Z" fill="#ACABB1"/>
<path id="Vector_4" d="M14.7148 9.73245C14.6591 9.80605 14.5765 9.85451 14.485 9.86717C14.3936 9.87982 14.3009 9.85565 14.2273 9.79995C14.1537 9.74426 14.1053 9.6616 14.0926 9.57018C14.0799 9.47876 14.1041 9.38605 14.1598 9.31245C14.1874 9.27601 14.2219 9.24536 14.2613 9.22224C14.3007 9.19913 14.3443 9.184 14.3896 9.17774C14.4349 9.17147 14.4809 9.17418 14.5251 9.18571C14.5694 9.19724 14.6109 9.21737 14.6473 9.24495C14.6838 9.27253 14.7144 9.30701 14.7375 9.34644C14.7606 9.38586 14.7758 9.42945 14.782 9.47472C14.7883 9.51999 14.7856 9.56605 14.7741 9.61027C14.7625 9.65449 14.7424 9.69601 14.7148 9.73245V9.73245ZM17.6398 7.58745L18.4798 6.49995L17.6473 5.86995L17.0923 5.44995L14.7523 8.55495C14.57 8.49702 14.3754 8.49035 14.1895 8.53566C14.0037 8.58097 13.834 8.67653 13.6988 8.81186C13.5637 8.9472 13.4684 9.1171 13.4234 9.30297C13.3783 9.48884 13.3853 9.68352 13.4435 9.86571C13.5017 10.0479 13.6089 10.2106 13.7533 10.3359C13.8978 10.4612 14.0739 10.5444 14.2625 10.5763C14.4511 10.6083 14.6448 10.5877 14.8225 10.5169C15.0001 10.4461 15.1549 10.3278 15.2698 10.175C15.398 10.0027 15.4703 9.7954 15.477 9.58084C15.4837 9.36628 15.4245 9.15482 15.3073 8.97495L16.8073 6.97995L17.6398 7.58745V7.58745Z" fill="#FFDA44"/>
</g>
</g>
<defs>
<clipPath id="clip0_2253_3715">
<rect width="24" height="16" rx="4" fill="white"/>
</clipPath>
</defs>
</svg>
