<svg width="auto" height="auto" viewBox="0 0 24 16" fill="none" xmlns="http://www.w3.org/2000/svg">
<g id="VG">
<g clip-path="url(#clip0_2253_3729)">
<path id="Vector" d="M24 -0.00250244H0V15.995H24V-0.00250244Z" fill="#0052B4"/>
<path id="Vector_2" d="M12 -0.00250244V5.5025H9.84L12 6.9425V8H10.9425L7.5 5.705V8H4.5V5.705L1.0575 8H0V6.9425L2.16 5.5025H0V2.5025H2.16L0 1.0625V-0.00250244H1.0575L4.5 2.2925V-0.00250244H7.5V2.2925L10.9425 -0.00250244H12Z" fill="#F0F0F0"/>
<path id="Vector_3" d="M6.75 -0.00250244H5.25V3.2525H0V4.7525H5.25V8H6.75V4.7525H12V3.2525H6.75V-0.00250244Z" fill="#D80027"/>
<path id="Vector_4" d="M0 -0.00250244V0.709998L2.6925 2.5025H3.75L0 -0.00250244ZM12 -0.00250244V0.709998L9.3075 2.5025H8.25L12 -0.00250244Z" fill="#D80027"/>
<path id="Vector_5" d="M11.9998 1.0625V2.5025H9.83984L11.9998 1.0625Z" fill="#2E52B2"/>
<path id="Vector_6" d="M0 -0.00250244V0.709998L2.6925 2.5025H3.75L0 -0.00250244ZM12 -0.00250244V0.709998L9.3075 2.5025H8.25L12 -0.00250244Z" fill="#D80027"/>
<path id="Vector_7" d="M11.9998 1.0625V2.5025H9.83984L11.9998 1.0625Z" fill="#2E52B2"/>
<path id="Vector_8" d="M0 8V7.295L2.6925 5.5025H3.75L0 8ZM12 8V7.295L9.3075 5.5025H8.25L12 8Z" fill="#D80027"/>
<path id="Vector_9" d="M17.9998 8.17249L15.8398 10.3325C16.0443 10.7291 16.354 11.0618 16.735 11.2941C17.116 11.5264 17.5536 11.6492 17.9998 11.6492C18.4461 11.6492 18.8837 11.5264 19.2647 11.2941C19.6457 11.0618 19.9554 10.7291 20.1598 10.3325L17.9998 8.17249Z" fill="#FFDA44"/>
<path id="Vector_10" d="M15.5625 4.34753V8.17253C15.5625 10.04 18 10.61 18 10.61C18 10.61 20.4375 10.04 20.4375 8.17253V4.34753H15.5625Z" fill="#6DA544"/>
<path id="Vector_11" d="M18.5249 6.08752H17.4824V8.87002H18.5249V6.08752Z" fill="#F0F0F0"/>
<path id="Vector_12" d="M18.0001 6.6125C18.1393 6.6125 18.2729 6.55719 18.3713 6.45873C18.4698 6.36027 18.5251 6.22674 18.5251 6.0875C18.5251 5.94826 18.4698 5.81473 18.3713 5.71627C18.2729 5.61781 18.1393 5.5625 18.0001 5.5625C17.8609 5.5625 17.7273 5.61781 17.6289 5.71627C17.5304 5.81473 17.4751 5.94826 17.4751 6.0875C17.4751 6.22674 17.5304 6.36027 17.6289 6.45873C17.7273 6.55719 17.8609 6.6125 18.0001 6.6125V6.6125Z" fill="#A2001D"/>
<path id="Vector_13" d="M16.9573 5.04498H16.2598V5.74248H16.9573V5.04498ZM16.9573 6.60498H16.2598V7.30248H16.9573V6.60498ZM16.9573 8.17248H16.2598V8.86998H16.9573V8.17248ZM19.7398 5.04498H19.0423V5.74248H19.7398V5.04498ZM19.7398 6.60498H19.0423V7.30248H19.7398V6.60498ZM19.7398 8.17248H19.0423V8.86998H19.7398V8.17248Z" fill="#FFDA44"/>
</g>
</g>
<defs>
<clipPath id="clip0_2253_3729">
<rect width="24" height="16" rx="4" fill="white"/>
</clipPath>
</defs>
</svg>
