<svg width="auto" height="auto" viewBox="0 0 24 16" fill="none" xmlns="http://www.w3.org/2000/svg">
<g id="VU">
<g clip-path="url(#clip0_2253_3754)">
<g id="Group">
<path id="Vector" d="M24 -0.00250244H0V15.995H24V-0.00250244Z" fill="black"/>
<path id="Vector_2" d="M24 8V16.0025H0L10.0875 8H24Z" fill="#6DA544"/>
<path id="Vector_3" d="M24 -0.00250244V8H10.0875L0 -0.00250244H24Z" fill="#D80027"/>
<path id="Vector_4" d="M10.3575 7.22L1.26 -0.00250244H0.42L10.1775 7.7375H24V7.22H10.3575ZM0.42 16.0025H1.26L10.3575 8.78H24V8.2625H10.1775L0.42 16.0025ZM0 0.334998V1.0025L8.8275 8L0 15.005V15.665L9.6675 8L0 0.334998Z" fill="black"/>
<path id="Vector_5" d="M0.42 -0.00250244H0V0.334998L9.6675 8L0 15.665V16.0025H0.42L10.1775 8.2625H24V7.7375H10.1775L0.42 -0.00250244Z" fill="#FFDA44"/>
<path id="Vector_6" d="M2.99996 9.70255V9.03505C3.31959 9.0311 3.62479 8.90135 3.84942 8.67392C4.07404 8.44649 4.19999 8.1397 4.19996 7.82005C4.19997 7.70713 4.1776 7.59534 4.13417 7.49111C4.09073 7.38689 4.02708 7.2923 3.94689 7.2128C3.8667 7.13331 3.77156 7.07049 3.66696 7.02796C3.56236 6.98544 3.45037 6.96406 3.33746 6.96505C3.18361 6.96702 3.03674 7.02952 2.92864 7.13902C2.82055 7.24851 2.75995 7.39619 2.75996 7.55005C2.75994 7.64822 2.79842 7.74248 2.86713 7.81259C2.93584 7.88271 3.02931 7.92308 3.12746 7.92505C3.18387 7.92508 3.23808 7.9032 3.27866 7.86402C3.31924 7.82484 3.34302 7.77142 3.34496 7.71505H4.01246C4.01048 7.94846 3.91637 8.17164 3.75061 8.33599C3.58486 8.50034 3.36088 8.59256 3.12746 8.59255C2.85097 8.59255 2.58581 8.48271 2.3903 8.28721C2.1948 8.0917 2.08496 7.82653 2.08496 7.55005C2.08496 7.21786 2.21692 6.89928 2.45181 6.6644C2.6867 6.42951 3.00528 6.29755 3.33746 6.29755C3.73529 6.29755 4.11682 6.45558 4.39812 6.73689C4.67943 7.01819 4.83746 7.39972 4.83746 7.79755C4.84352 8.293 4.65401 8.77086 4.31002 9.12749C3.96603 9.48411 3.49531 9.69074 2.99996 9.70255V9.70255Z" fill="#FFDA44"/>
</g>
</g>
</g>
<defs>
<clipPath id="clip0_2253_3754">
<rect width="24" height="16" rx="4" fill="white"/>
</clipPath>
</defs>
</svg>
