<svg width="auto" height="auto" viewBox="0 0 24 16" fill="none" xmlns="http://www.w3.org/2000/svg">
<g id="XK">
<g clip-path="url(#clip0_2253_3771)">
<path id="Vector" d="M24 -0.00250244H0V15.995H24V-0.00250244Z" fill="#0052B4"/>
<path id="Vector_2" d="M7.51527 4.87251L7.68777 5.39751H8.24277L7.79277 5.72751L7.96527 6.26001L7.51527 5.93001L7.06527 6.26001L7.23777 5.72751L6.78027 5.39751H7.34277L7.51527 4.87251V4.87251ZM9.25527 4.34751L9.42777 4.88001H9.98277L9.53277 5.21001L9.70527 5.73501L9.25527 5.41251L8.79777 5.73501L8.97027 5.21001L8.52027 4.88001H9.08277L9.25527 4.34751V4.34751ZM10.9953 3.82251L11.1678 4.35501H11.7228L11.2728 4.68501L11.4453 5.21751L10.9953 4.88751L10.5378 5.21751L10.7103 4.68501L10.2603 4.35501H10.8228L10.9953 3.82251V3.82251ZM16.4853 4.87251L16.3128 5.39751H15.7503L16.2078 5.72751L16.0353 6.26001L16.4853 5.93001L16.9353 6.26001L16.7628 5.72751L17.2203 5.39751H16.6578L16.4853 4.87251ZM14.7453 4.34751L14.5728 4.88001H14.0178L14.4678 5.21001L14.2953 5.73501L14.7453 5.41251L15.2028 5.73501L15.0303 5.21001L15.4803 4.88001H14.9178L14.7453 4.34751V4.34751ZM13.0053 3.82251L12.8328 4.35501H12.2778L12.7278 4.68501L12.5553 5.21751L13.0053 4.88751L13.4628 5.21751L13.2903 4.68501L13.7403 4.35501H13.1778L13.0053 3.82251V3.82251Z" fill="#F0F0F0"/>
<path id="Vector_3" d="M13.395 8.34498L12 6.60498L11.3025 6.95748V7.65498L10.26 8.34498H9.5625V9.24498C10.0766 9.45272 10.5169 9.8093 10.8269 10.269C11.1369 10.7287 11.3025 11.2705 11.3025 11.825H12V11.1275L12.6975 10.4375L13.395 11.1275L14.085 10.4375V9.73998L14.7825 8.69748L13.395 8.34498Z" fill="#FFDA44"/>
</g>
</g>
<defs>
<clipPath id="clip0_2253_3771">
<rect width="24" height="16" rx="4" fill="white"/>
</clipPath>
</defs>
</svg>
