<svg width="auto" height="auto" viewBox="0 0 24 16" fill="none" xmlns="http://www.w3.org/2000/svg">
<g id="YT">
<g clip-path="url(#clip0_2253_3779)">
<path id="Vector" d="M24 -0.00250244H0V15.995H24V-0.00250244Z" fill="#F0F0F0"/>
<path id="Vector_2" d="M16.7174 5.15001L18.5624 2.75001C18.6485 2.63772 18.7646 2.55207 18.8973 2.50296C19.03 2.45386 19.1739 2.4433 19.3124 2.47251L19.5374 2.51751C19.6296 2.53551 19.7181 2.56851 19.7999 2.61501L21.0749 3.43251C21.1819 3.49939 21.2703 3.59219 21.3319 3.70231C21.3935 3.81243 21.4264 3.93633 21.4274 4.06251V5.56251C21.427 5.71544 21.3799 5.86461 21.2924 5.99001L20.9324 6.51501C20.9143 6.55376 20.9049 6.596 20.9049 6.63876C20.9049 6.68152 20.9143 6.72377 20.9324 6.76251C20.9546 6.82489 20.999 6.87693 21.057 6.90873C21.1151 6.94053 21.1829 6.94989 21.2474 6.93501H21.4199C21.5029 6.91734 21.5892 6.92238 21.6696 6.9496C21.7501 6.97681 21.8217 7.0252 21.8769 7.08967C21.9322 7.15414 21.9691 7.23231 21.9837 7.31596C21.9983 7.3996 21.99 7.48564 21.9599 7.56501L21.7499 8.00001C21.6912 8.15952 21.5802 8.29438 21.4349 8.38251L19.4999 9.50001C19.4555 9.52645 19.4059 9.5428 19.3546 9.54791C19.3032 9.55302 19.2514 9.54676 19.2027 9.52958C19.154 9.5124 19.1097 9.48472 19.0729 9.4485C19.0362 9.41229 19.0078 9.36842 18.9899 9.32001C18.9704 9.26826 18.9392 9.2217 18.8988 9.18394C18.8584 9.14618 18.8098 9.11824 18.7569 9.10228C18.7039 9.08632 18.648 9.08277 18.5935 9.09192C18.5389 9.10107 18.4872 9.12266 18.4424 9.15501L18.0299 9.45501C17.9154 9.53869 17.827 9.65312 17.7749 9.78501L17.1899 11.285C17.1209 11.461 17.1209 11.6565 17.1899 11.8325L17.5349 12.725C17.6331 12.9776 17.7979 13.1989 18.0119 13.3653C18.2258 13.5317 18.4809 13.637 18.7499 13.67H18.8774C19.2376 13.7171 19.6028 13.6318 19.9049 13.43L20.3249 13.145C20.5539 12.9976 20.7156 12.7658 20.7749 12.5L20.8349 12.1925C20.8403 12.1607 20.8568 12.1319 20.8816 12.1113C20.9063 12.0907 20.9377 12.0796 20.9699 12.08C20.99 12.0798 21.0099 12.0838 21.0283 12.0919C21.0467 12.0999 21.0631 12.1118 21.0766 12.1267C21.0901 12.1415 21.1003 12.1591 21.1064 12.1782C21.1126 12.1974 21.1146 12.2176 21.1124 12.2375L21.0524 12.7775C21.0297 12.9528 20.9706 13.1214 20.8789 13.2725C20.7872 13.4237 20.6649 13.5539 20.5199 13.655L19.9949 14.015C19.8237 14.1325 19.63 14.2131 19.426 14.2519C19.222 14.2906 19.0122 14.2866 18.8099 14.24L17.9549 14.045C17.7336 13.999 17.5256 13.9036 17.3464 13.766C17.1672 13.6283 17.0214 13.4519 16.9199 13.25L16.3574 12.005C16.2683 11.8096 16.2223 11.5973 16.2224 11.3825V8.85501C16.2142 8.53045 16.3116 8.21201 16.4999 7.94751L17.7299 6.32751C17.8072 6.22626 17.911 6.14838 18.0299 6.10251L19.6799 5.35251C19.716 5.3364 19.7466 5.31005 19.768 5.27673C19.7893 5.24341 19.8004 5.20457 19.7999 5.16501V5.06751C19.79 5.03825 19.7728 5.01202 19.7498 4.99134C19.7269 4.97067 19.699 4.95625 19.6688 4.94947C19.6387 4.94269 19.6073 4.94378 19.5777 4.95263C19.5482 4.96148 19.5213 4.9778 19.4999 5.00001C19.4905 5.02503 19.4755 5.04753 19.456 5.06575C19.4365 5.08397 19.413 5.09741 19.3874 5.10501L17.2199 5.81751C17.1502 5.83943 17.0762 5.84405 17.0044 5.83099C16.9325 5.81792 16.8649 5.78755 16.8074 5.74251C16.7208 5.67304 16.6635 5.57357 16.6468 5.46382C16.6301 5.35407 16.6553 5.24206 16.7174 5.15001V5.15001ZM7.49988 5.13501L5.62488 2.75001C5.54258 2.64534 5.4339 2.56446 5.31 2.5157C5.1861 2.46693 5.05145 2.45202 4.91988 2.47251L4.66488 2.51751C4.57723 2.535 4.49341 2.56802 4.41738 2.61501L3.14238 3.41751C3.02599 3.49076 2.93038 3.59268 2.86471 3.71351C2.79905 3.83433 2.76553 3.97001 2.76738 4.10751V5.54751C2.76813 5.71251 2.81838 5.87451 2.90988 6.01251L3.25488 6.51501C3.27533 6.55574 3.28598 6.60069 3.28598 6.64626C3.28598 6.69184 3.27533 6.73678 3.25488 6.77751C3.23595 6.82945 3.20111 6.87409 3.15532 6.90507C3.10953 6.93605 3.05513 6.95177 2.99988 6.95001H2.81988C2.73171 6.93649 2.64152 6.94669 2.55859 6.97955C2.47566 7.01241 2.40297 7.06676 2.34799 7.13701C2.29301 7.20726 2.25773 7.29088 2.24576 7.37928C2.23379 7.46768 2.24556 7.55767 2.27988 7.64001L2.42238 8.03001C2.48101 8.18952 2.59208 8.32438 2.73738 8.41251L4.67988 9.50001C4.72464 9.52602 4.77468 9.54162 4.82629 9.54566C4.8779 9.5497 4.92976 9.54207 4.97802 9.52335C5.02628 9.50462 5.06971 9.47527 5.10509 9.43747C5.14046 9.39968 5.16688 9.35441 5.18238 9.30501C5.19997 9.2536 5.22946 9.20707 5.26844 9.16921C5.30742 9.13136 5.35479 9.10324 5.40669 9.08716C5.45859 9.07108 5.51356 9.06748 5.56712 9.07667C5.62067 9.08585 5.6713 9.10756 5.71488 9.14001L6.13488 9.44001C6.25265 9.53162 6.34336 9.65344 6.39738 9.79251L6.96738 11.225C7.00822 11.3224 7.02926 11.4269 7.02926 11.5325C7.02926 11.6381 7.00822 11.7426 6.96738 11.84L6.65238 12.665C6.55856 12.9232 6.39563 13.1507 6.18138 13.3226C5.96712 13.4945 5.70977 13.6043 5.43738 13.64H5.27238C4.92659 13.6821 4.57731 13.5968 4.28988 13.4L3.84738 13.1C3.63459 12.9608 3.48198 12.7466 3.41988 12.5L3.35988 12.2075C3.35882 12.1872 3.35342 12.1674 3.34406 12.1493C3.33469 12.1313 3.32157 12.1155 3.30559 12.1029C3.2896 12.0903 3.27111 12.0814 3.25136 12.0765C3.23161 12.0717 3.21106 12.0712 3.19109 12.075C3.17111 12.0787 3.15218 12.0867 3.13555 12.0984C3.11893 12.1101 3.105 12.1253 3.09471 12.1428C3.08441 12.1603 3.07798 12.1799 3.07586 12.2001C3.07373 12.2203 3.07596 12.2407 3.08238 12.26L3.14238 12.7775C3.1629 12.9507 3.21957 13.1176 3.30872 13.2675C3.39787 13.4174 3.5175 13.5468 3.65988 13.6475L4.22238 14.0375C4.38381 14.1513 4.56758 14.2296 4.76152 14.2671C4.95546 14.3046 5.15515 14.3005 5.34738 14.255L6.24738 14.0525C6.47596 13.9986 6.6887 13.8919 6.86847 13.7407C7.04823 13.5896 7.19001 13.3984 7.28238 13.1825L7.82238 11.9975C7.92138 11.7785 7.97238 11.54 7.97238 11.3V8.92251C7.97238 8.55726 7.85463 8.20251 7.63488 7.91001L6.43488 6.33501C6.35829 6.23127 6.25445 6.15079 6.13488 6.10251L4.49988 5.37501C4.46373 5.35688 4.43334 5.32903 4.41214 5.29458C4.39095 5.26013 4.37977 5.22046 4.37988 5.18001V5.09001C4.37916 5.04839 4.39289 5.0078 4.41873 4.97515C4.44457 4.94251 4.48093 4.91984 4.52162 4.911C4.5623 4.90215 4.60479 4.90768 4.64185 4.92665C4.67891 4.94562 4.70826 4.97684 4.72488 5.01501C4.73424 5.04087 4.74917 5.06434 4.76861 5.08379C4.78805 5.10323 4.81153 5.11816 4.83738 5.12751L7.02738 5.87751C7.09078 5.89662 7.1578 5.90046 7.22298 5.88873C7.28815 5.877 7.34962 5.85003 7.40238 5.81001C7.45419 5.77294 7.49797 5.72577 7.53108 5.67134C7.5642 5.61692 7.58596 5.55636 7.59507 5.4933C7.60418 5.43025 7.60044 5.366 7.58408 5.30443C7.56772 5.24286 7.53908 5.18523 7.49988 5.13501V5.13501Z" fill="#DFDFDF"/>
<path id="Vector_3" d="M9.47266 3.94995C9.47266 3.75104 9.55167 3.56027 9.69233 3.41962C9.83298 3.27897 10.0237 3.19995 10.2227 3.19995H13.9727C14.1716 3.19995 14.3623 3.27897 14.503 3.41962C14.6436 3.56027 14.7227 3.75104 14.7227 3.94995V7.19745H9.47266V3.94995V3.94995Z" fill="#171796"/>
<path id="Vector_4" d="M9.47266 7.19751H14.7227V10.445C14.7227 10.6439 14.6436 10.8347 14.503 10.9753C14.3623 11.116 14.1716 11.195 13.9727 11.195H10.2227C10.0237 11.195 9.83298 11.116 9.69233 10.9753C9.55167 10.8347 9.47266 10.6439 9.47266 10.445V7.19751V7.19751Z" fill="#D42E12"/>
<path id="Vector_5" d="M9.47266 13.1975C9.47264 13.0914 9.51428 12.9895 9.58861 12.9137C9.66295 12.838 9.76405 12.7944 9.87016 12.7925H14.3252C14.4221 12.8058 14.511 12.8537 14.5754 12.9275C14.6397 13.0013 14.6752 13.0958 14.6752 13.1937C14.6752 13.2916 14.6397 13.3862 14.5754 13.46C14.511 13.5337 14.4221 13.5817 14.3252 13.595H9.87016C9.76473 13.595 9.66363 13.5531 9.58908 13.4786C9.51454 13.404 9.47266 13.3029 9.47266 13.1975V13.1975Z" fill="#DFDFDF"/>
<path id="Vector_6" d="M13.1849 4.40002C13.1337 4.65063 12.9975 4.87584 12.7993 5.03758C12.6011 5.19932 12.3532 5.28767 12.0974 5.28767C11.8416 5.28767 11.5937 5.19932 11.3955 5.03758C11.1974 4.87584 11.0612 4.65063 11.0099 4.40002C10.998 4.49967 10.998 4.60038 11.0099 4.70002C11.0099 4.99839 11.1284 5.28454 11.3394 5.49552C11.5504 5.7065 11.8366 5.82502 12.1349 5.82502C12.4333 5.82502 12.7194 5.7065 12.9304 5.49552C13.1414 5.28454 13.2599 4.99839 13.2599 4.70002C13.2473 4.59733 13.2221 4.49657 13.1849 4.40002V4.40002Z" fill="#F0F0F0"/>
<path id="Vector_7" d="M10.9727 9.58998C11.1797 9.58998 11.3477 9.41223 11.3477 9.19248C11.3477 8.97273 11.1797 8.79498 10.9727 8.79498C10.7657 8.79498 10.5977 8.97273 10.5977 9.19248C10.5977 9.41223 10.7657 9.58998 10.9727 9.58998ZM13.2227 9.58998C13.4297 9.58998 13.5977 9.41223 13.5977 9.19248C13.5977 8.97273 13.4297 8.79498 13.2227 8.79498C13.0157 8.79498 12.8477 8.97273 12.8477 9.19248C12.8477 9.41223 13.0157 9.58998 13.2227 9.58998Z" fill="#E9D315"/>
</g>
</g>
<defs>
<clipPath id="clip0_2253_3779">
<rect width="24" height="16" rx="4" fill="white"/>
</clipPath>
</defs>
</svg>
