<svg width="auto" height="auto" viewBox="0 0 30 20" fill="none" xmlns="http://www.w3.org/2000/svg">
  <rect width="30" height="20" rx="4" fill="#1C9C7C"/>
  <path d="M12.6728 15.9704C12.6152 16.1815 12.7113 16.4043 12.9043 16.5073C13.0973 16.6103 13.3359 16.5661 13.4792 16.4008L19.573 9.36952C19.6932 9.23083 19.7214 9.03476 19.6452 8.86782C19.5689 8.70087 19.4023 8.59377 19.2188 8.59377H16.0825L17.3272 4.02961C17.3848 3.81854 17.2887 3.59571 17.0957 3.49272C16.9027 3.38972 16.6641 3.43394 16.5208 3.59927L10.427 10.6305C10.3068 10.7692 10.2786 10.9653 10.3549 11.1322C10.4311 11.2992 10.5977 11.4063 10.7813 11.4063H13.9175L12.6728 15.9704Z" fill="white"/>
</svg>