<svg width="auto" height="auto" viewBox="0 0 24 16" fill="none" xmlns="http://www.w3.org/2000/svg">
<g id="Fastest">
<rect width="24" height="16" rx="4" fill="#BBE1D8"/>
<path id="Union" d="M10.1382 12.7763C10.0922 12.9451 10.169 13.1234 10.3235 13.2058C10.4779 13.2882 10.6688 13.2528 10.7834 13.1206L15.6584 7.49556C15.7545 7.38461 15.7771 7.22775 15.7161 7.09419C15.6551 6.96064 15.5218 6.87496 15.375 6.87496H12.866L13.8618 3.22363C13.9078 3.05477 13.831 2.87651 13.6765 2.79411C13.5221 2.71171 13.3313 2.74709 13.2166 2.87936L8.34162 8.50436C8.24547 8.61531 8.2229 8.77217 8.28389 8.90572C8.34487 9.03928 8.47819 9.12496 8.62501 9.12496H11.134L10.1382 12.7763Z" fill="#1C9C7C"/>
</g>
</svg>