<svg width="auto" height="auto" viewBox="0 0 30 20" fill="none" xmlns="http://www.w3.org/2000/svg">
  <g clip-path="url(#clip0_1662_251307)">
    <rect x="0.00012207" y="11" width="30" height="9" rx="2" fill="#C6C8CD"/>
    <path d="M3.00012 15.5C3.00012 14.6716 3.67169 14 4.50012 14H10.0001C10.8286 14 11.5001 14.6716 11.5001 15.5V15.5C11.5001 16.3284 10.8286 17 10.0001 17H4.50012C3.6717 17 3.00012 16.3284 3.00012 15.5V15.5Z" fill="white"/>
    <rect x="0.00012207" width="30" height="9" rx="2" fill="#C6C8CD"/>
    <path d="M3.00012 4.5C3.00012 3.67157 3.67169 3 4.50012 3H10.0001C10.8286 3 11.5001 3.67157 11.5001 4.5V4.5C11.5001 5.32843 10.8286 6 10.0001 6H4.50012C3.6717 6 3.00012 5.32843 3.00012 4.5V4.5Z" fill="white"/>
    <rect x="24.0001" y="3" width="3" height="3" rx="1.5" fill="white"/>
    <rect x="3.00012" y="9" width="24" height="2" fill="#85858F"/>
  </g>
  <defs>
    <clipPath id="clip0_1662_251307">
      <rect width="30" height="20" fill="white"/>
    </clipPath>
  </defs>
</svg>
