<svg width="auto" height="auto" viewBox="0 0 49 14" fill="none" xmlns="http://www.w3.org/2000/svg">
<g clip-path="url(#clip0_9140_53365)">
<g clip-path="url(#clip1_9140_53365)">
<path d="M37.0532 13.9956H46.1998C47.7462 13.9956 48.9998 12.742 48.9998 11.1956V2.79777C48.9998 1.25137 47.7462 -0.00222778 46.1998 -0.00222778H37.0493C37.5266 0.82196 37.7998 1.77907 37.7998 2.79999V11.2C37.7998 12.2182 37.5281 13.1729 37.0532 13.9956Z" fill="white"/>
<path d="M37.7998 10.8748C38.0292 10.9162 38.2634 10.9375 38.4998 10.9375C39.5441 10.9375 40.5456 10.5227 41.284 9.78423C42.0225 9.04581 42.4373 8.04429 42.4373 7C42.4373 5.95571 42.0225 4.95419 41.284 4.21577C40.5456 3.47734 39.5441 3.0625 38.4998 3.0625C38.2634 3.0625 38.0292 3.08375 37.7998 3.1252V10.8748Z" fill="#D80027"/>
<path d="M46.1998 13.4956H37.8529C38.1411 12.7866 38.2998 12.0114 38.2998 11.2V2.79999C38.2998 1.98602 38.1401 1.20853 37.8502 0.497772H46.1998C47.47 0.497772 48.4998 1.52752 48.4998 2.79777V11.1956C48.4998 12.4658 47.47 13.4956 46.1998 13.4956Z" stroke="black" stroke-opacity="0.2"/>
</g>
<g clip-path="url(#clip2_9140_53365)">
<path d="M23.0532 13.9956H32.1998C33.7462 13.9956 34.9998 12.742 34.9998 11.1956V2.79777C34.9998 1.25138 33.7462 -0.00222778 32.1998 -0.00222778H23.0493C23.5266 0.82196 23.7998 1.77907 23.7998 2.79999V11.2C23.7998 12.2182 23.5281 13.1729 23.0532 13.9956Z" fill="white"/>
<path d="M23.8 4.66594H35V2.8C35 1.2536 33.7464 0 32.2 0H23.0508C23.5273 0.823685 23.8 1.78 23.8 2.8V4.66594Z" fill="#A2001D"/>
<path d="M23.0493 14.0022H32.1998C33.7462 14.0022 34.9998 12.7486 34.9998 11.2022V9.33627H23.7998V11.2C23.7998 12.2209 23.5266 13.178 23.0493 14.0022Z" fill="#0052B4"/>
<path d="M32.1505 13.4956H23.8036C24.0918 12.7866 24.2505 12.0114 24.2505 11.2V2.79999C24.2505 1.98602 24.0908 1.20853 23.8009 0.497772H32.1505C33.4207 0.497772 34.4505 1.52752 34.4505 2.79777V11.1956C34.4505 12.4658 33.4207 13.4956 32.1505 13.4956Z" stroke="black" stroke-opacity="0.2"/>
</g>
<g clip-path="url(#clip3_9140_53365)">
<path d="M21 -0.00219727H0V13.9956H21V-0.00219727Z" fill="white"/>
<path d="M21 1.75H0V3.50219H21V1.75ZM21 5.24781H0V7H21V5.24781ZM21 8.75219H0V10.5044H21V8.75219ZM21 12.25H0V14.0022H21V12.25Z" fill="#D80027"/>
<path d="M10.5 -0.00219727H0V7.53812H10.5V-0.00219727Z" fill="#2E52B2"/>
<path d="M4.09511 3.08876L3.92448 3.6072H3.3798L3.81948 3.92876L3.64886 4.4472L4.09511 4.12563L4.53479 4.4472L4.37073 3.92876L4.81042 3.6072H4.26573L4.09511 3.08876ZM4.26573 5.48407L4.09511 4.96563L3.92448 5.48407H3.3798L3.81948 5.80563L3.64886 6.32407L4.09511 6.00907L4.53479 6.32407L4.37073 5.80563L4.81042 5.48407H4.26573ZM1.94917 5.48407L1.77854 4.96563L1.61448 5.48407H1.06323L1.50948 5.80563L1.33886 6.32407L1.77854 6.00907L2.22479 6.32407L2.05417 5.80563L2.50042 5.48407H1.94917ZM1.77854 3.08876L1.61448 3.6072H1.06323L1.50948 3.92876L1.33886 4.4472L1.77854 4.12563L2.22479 4.4472L2.05417 3.92876L2.50042 3.6072H1.94917L1.77854 3.08876ZM4.09511 1.21188L3.92448 1.73032H3.3798L3.81948 2.05188L3.64886 2.57032L4.09511 2.24876L4.53479 2.57032L4.37073 2.05188L4.81042 1.73032H4.26573L4.09511 1.21188V1.21188ZM1.77854 1.21188L1.61448 1.73032H1.06323L1.50948 2.05188L1.33886 2.57032L1.77854 2.24876L2.22479 2.57032L2.05417 2.05188L2.50042 1.73032H1.94917L1.77854 1.21188V1.21188ZM6.40511 3.08876L6.23448 3.6072H5.6898L6.12948 3.92876L5.96542 4.4472L6.40511 4.12563L6.8448 4.4472L6.68073 3.92876L7.12042 3.6072H6.57573L6.40511 3.08876ZM6.57573 5.48407L6.40511 4.96563L6.23448 5.48407H5.6898L6.12948 5.80563L5.96542 6.32407L6.40511 6.00907L6.8448 6.32407L6.68073 5.80563L7.12042 5.48407H6.57573ZM8.88573 5.48407L8.71511 4.96563L8.55104 5.48407H7.99979L8.44604 5.80563L8.27542 6.32407L8.71511 6.00907L9.16136 6.32407L8.99073 5.80563L9.43042 5.48407H8.88573ZM8.71511 3.08876L8.55104 3.6072H7.99979L8.44604 3.92876L8.27542 4.4472L8.71511 4.12563L9.16136 4.4472L8.99073 3.92876L9.43042 3.6072H8.88573L8.71511 3.08876ZM6.40511 1.21188L6.23448 1.73032H5.6898L6.12948 2.05188L5.96542 2.57032L6.40511 2.24876L6.8448 2.57032L6.68073 2.05188L7.12042 1.73032H6.57573L6.40511 1.21188V1.21188ZM8.71511 1.21188L8.55104 1.73032H7.99979L8.44604 2.05188L8.27542 2.57032L8.71511 2.24876L9.16136 2.57032L8.99073 2.05188L9.43042 1.73032H8.88573L8.71511 1.21188V1.21188Z" fill="white"/>
</g>
<rect x="0.5" y="0.5" width="20" height="13" rx="2.3" stroke="black" stroke-opacity="0.2"/>
</g>
<defs>
<clipPath id="clip0_9140_53365">
<rect width="49" height="14" fill="white"/>
</clipPath>
<clipPath id="clip1_9140_53365">
<rect width="12.6" height="14" fill="white" transform="translate(36.3999)"/>
</clipPath>
<clipPath id="clip2_9140_53365">
<rect width="21" height="14" fill="white" transform="translate(14)"/>
</clipPath>
<clipPath id="clip3_9140_53365">
<rect width="21" height="14" rx="2.8" fill="white"/>
</clipPath>
</defs>
</svg>
