<svg width="100" height="100" viewBox="0 0 100 100" fill="none" xmlns="http://www.w3.org/2000/svg">
<g filter="url(#filter0_i_19618_51501)">
<rect x="21.875" y="12.5" width="56.25" height="21.5625" rx="4.8" fill="url(#paint0_linear_19618_51501)"/>
</g>
<g style="mix-blend-mode:overlay" opacity="0.2">
<rect x="46.25" y="24.6888" width="18.75" height="2.8125" rx="0.9375" fill="white"/>
</g>
<rect opacity="0.3" x="46.25" y="24.689" width="18.75" height="2.8125" rx="0.9375" fill="white"/>
<g style="mix-blend-mode:overlay" opacity="0.5">
<rect x="46.2501" y="19.0638" width="26.25" height="3.75" rx="0.9375" fill="white"/>
</g>
<rect opacity="0.3" x="46.2501" y="19.0638" width="26.25" height="3.75" rx="0.9375" fill="white"/>
<g clip-path="url(#clip0_19618_51501)">
<path d="M32.4834 27.8395C32.3619 28.123 32.5698 28.4384 32.8783 28.4384H37.5907C37.8992 28.4384 38.1071 28.123 37.9856 27.8395L37.0649 25.691C36.9971 25.533 36.8418 25.4306 36.6699 25.4306H33.7991C33.6272 25.4306 33.4718 25.533 33.4041 25.691L32.4834 27.8395Z" fill="url(#paint1_linear_19618_51501)"/>
<rect x="27.9298" y="18.5556" width="14.6094" height="8.59375" rx="0.859375" fill="url(#paint2_linear_19618_51501)"/>
<path d="M33.9454 24.7081V20.9969C33.9454 20.7626 34.2153 20.6235 34.4155 20.7546L37.2501 22.6102C37.4272 22.7261 37.4272 22.9789 37.2501 23.0948L34.4155 24.9504C34.2153 25.0814 33.9454 24.9423 33.9454 24.7081Z" fill="url(#paint3_linear_19618_51501)"/>
<path d="M33.9454 24.7081V20.9969C33.9454 20.7626 34.2153 20.6235 34.4155 20.7546L37.2501 22.6102C37.4272 22.7261 37.4272 22.9789 37.2501 23.0948L34.4155 24.9504C34.2153 25.0814 33.9454 24.9423 33.9454 24.7081Z" fill="white" fill-opacity="0.7"/>
</g>
<g filter="url(#filter1_i_19618_51501)">
<rect x="12.5" y="29.6875" width="75" height="28.75" rx="6.4" fill="url(#paint4_linear_19618_51501)"/>
</g>
<g style="mix-blend-mode:overlay" opacity="0.2">
<rect x="44.9998" y="45.9383" width="25" height="3.75" rx="1.25" fill="white"/>
</g>
<rect opacity="0.3" x="44.9998" y="45.9379" width="25" height="3.75" rx="1.25" fill="white"/>
<g style="mix-blend-mode:overlay" opacity="0.5">
<rect x="44.9999" y="38.4382" width="35" height="5" rx="1.25" fill="white"/>
</g>
<rect opacity="0.3" x="44.9999" y="38.4382" width="35" height="5" rx="1.25" fill="white"/>
<g clip-path="url(#clip1_19618_51501)">
<path d="M30.4094 44.2906L35.7245 37.3713C36.0218 36.9843 36.6397 37.2583 36.5509 37.7377L35.7929 41.8309C35.7401 42.1161 35.9595 42.3791 36.2502 42.3791H40.1592C40.5519 42.3791 40.7678 42.8346 40.5186 43.1373L34.2397 50.7663C33.933 51.139 33.3306 50.8554 33.4241 50.3823L34.3707 45.5902C34.4273 45.3035 34.2073 45.0366 33.9144 45.0366H30.7785C30.3931 45.0366 30.175 44.5958 30.4094 44.2906Z" fill="url(#paint5_linear_19618_51501)"/>
<rect x="24.0105" y="38.9065" width="8.02083" height="1.14583" rx="0.572917" fill="url(#paint6_linear_19618_51501)"/>
<rect x="20.573" y="43.4898" width="8.02083" height="1.14583" rx="0.572917" fill="url(#paint7_linear_19618_51501)"/>
<rect x="24.0105" y="48.0732" width="7.44792" height="1.14583" rx="0.572917" fill="url(#paint8_linear_19618_51501)"/>
</g>
<g filter="url(#filter2_i_19618_51501)">
<rect x="3.125" y="51.5625" width="93.75" height="35.9375" rx="8" fill="url(#paint9_linear_19618_51501)"/>
</g>
<g style="mix-blend-mode:overlay" opacity="0.2">
<rect x="43.75" y="71.875" width="31.25" height="4.6875" rx="1.5625" fill="white"/>
</g>
<rect opacity="0.3" x="43.75" y="71.875" width="31.25" height="4.6875" rx="1.5625" fill="white"/>
<g style="mix-blend-mode:overlay" opacity="0.5">
<rect x="43.75" y="62.5" width="43.75" height="6.25" rx="1.5625" fill="white"/>
</g>
<rect opacity="0.3" x="43.75" y="62.5" width="43.75" height="6.25" rx="1.5625" fill="white"/>
<g clip-path="url(#clip2_19618_51501)">
<path d="M24.3073 61.2357C25.007 60.9956 25.7743 60.9956 26.474 61.2357L32.7978 63.4058C33.0129 63.4796 33.1501 63.6698 33.1501 63.8763V70.8463C33.1501 72.8399 31.9962 74.6781 30.1352 75.6361L25.651 77.9443C25.4889 78.0277 25.2924 78.0277 25.1304 77.9443L20.6462 75.6361C18.7852 74.6781 17.6312 72.8399 17.6312 70.8463V63.8763C17.6312 63.6698 17.7684 63.4796 17.9835 63.4058L24.3073 61.2357Z" fill="url(#paint10_linear_19618_51501)" stroke="url(#paint11_linear_19618_51501)" stroke-width="0.236264"/>
<path d="M26.5124 61.124C25.7878 60.8753 24.9936 60.8753 24.269 61.124L17.9452 63.2941C17.6858 63.3831 17.5131 63.6158 17.5131 63.8763V70.8463C17.5131 72.8867 18.694 74.7641 20.5921 75.7411L25.0763 78.0494C25.2723 78.1502 25.5091 78.1502 25.705 78.0494L30.1892 75.7411C32.0873 74.7641 33.2683 72.8867 33.2683 70.8463V63.8763C33.2683 63.6158 33.0956 63.3831 32.8361 63.2941L26.5124 61.124Z" fill="url(#paint12_linear_19618_51501)"/>
<path d="M26.5124 61.124C25.7878 60.8753 24.9936 60.8753 24.269 61.124L17.9452 63.2941C17.6858 63.3831 17.5131 63.6158 17.5131 63.8763V70.8463C17.5131 72.8867 18.694 74.7641 20.5921 75.7411L25.0763 78.0494C25.2723 78.1502 25.5091 78.1502 25.705 78.0494L30.1892 75.7411C32.0873 74.7641 33.2683 72.8867 33.2683 70.8463V63.8763C33.2683 63.6158 33.0956 63.3831 32.8361 63.2941L26.5124 61.124Z" fill="url(#paint13_linear_19618_51501)"/>
<path d="M25.3907 60.9375C25.011 60.9375 24.6313 60.9997 24.269 61.124L17.9452 63.2941C17.6858 63.3831 17.5131 63.6158 17.5131 63.8763V69.5312H25.3907V60.9375Z" fill="url(#paint14_linear_19618_51501)"/>
<path d="M25.3907 60.9375C25.011 60.9375 24.6313 60.9997 24.269 61.124L17.9452 63.2941C17.6858 63.3831 17.5131 63.6158 17.5131 63.8763V69.5312H25.3907V60.9375Z" fill="white" fill-opacity="0.5"/>
<path d="M33.2682 69.5312H25.3906V78.125C25.3903 78.125 25.3908 78.125 25.3906 78.125C25.4985 78.1249 25.6072 78.0997 25.7049 78.0494L30.1891 75.7411C32.0872 74.7641 33.2682 72.8867 33.2682 70.8463V69.5312Z" fill="url(#paint15_linear_19618_51501)"/>
<path d="M33.2682 69.5312H25.3906V78.125C25.3903 78.125 25.3908 78.125 25.3906 78.125C25.4985 78.1249 25.6072 78.0997 25.7049 78.0494L30.1891 75.7411C32.0872 74.7641 33.2682 72.8867 33.2682 70.8463V69.5312Z" fill="white" fill-opacity="0.5"/>
<path d="M14.6561 73.3493L14.208 74.4695C14.144 74.6294 14.0174 74.756 13.8575 74.82L12.7373 75.2681C12.4209 75.3946 12.4209 75.8424 12.7373 75.969L13.8575 76.4171C14.0174 76.481 14.144 76.6077 14.208 76.7675L14.6561 77.8878C14.7826 78.2041 15.2304 78.2041 15.357 77.8878L15.8051 76.7675C15.869 76.6077 15.9957 76.481 16.1555 76.4171L17.2758 75.969C17.5921 75.8424 17.5921 75.3946 17.2758 75.2681L16.1555 74.82C15.9957 74.756 15.869 74.6294 15.8051 74.4695L15.357 73.3493C15.2304 73.0329 14.7826 73.0329 14.6561 73.3493Z" fill="url(#paint16_linear_19618_51501)"/>
<path d="M36.2406 61.8231L35.9205 62.6233C35.8749 62.7375 35.7844 62.8279 35.6702 62.8736L34.87 63.1937C34.6441 63.2841 34.6441 63.6039 34.87 63.6943L35.6702 64.0144C35.7844 64.0601 35.8749 64.1505 35.9205 64.2647L36.2406 65.0649C36.331 65.2908 36.6509 65.2908 36.7412 65.0649L37.0613 64.2647C37.107 64.1505 37.1975 64.0601 37.3116 64.0144L38.1118 63.6943C38.3378 63.6039 38.3378 63.2841 38.1118 63.1937L37.3116 62.8736C37.1975 62.8279 37.107 62.7375 37.0613 62.6233L36.7412 61.8231C36.6509 61.5971 36.331 61.5971 36.2406 61.8231Z" fill="url(#paint17_linear_19618_51501)"/>
</g>
<defs>
<filter id="filter0_i_19618_51501" x="21.875" y="12.5" width="56.25" height="22.7025" filterUnits="userSpaceOnUse" color-interpolation-filters="sRGB">
<feFlood flood-opacity="0" result="BackgroundImageFix"/>
<feBlend mode="normal" in="SourceGraphic" in2="BackgroundImageFix" result="shape"/>
<feColorMatrix in="SourceAlpha" type="matrix" values="0 0 0 0 0 0 0 0 0 0 0 0 0 0 0 0 0 0 127 0" result="hardAlpha"/>
<feOffset dy="1.422"/>
<feGaussianBlur stdDeviation="0.57"/>
<feComposite in2="hardAlpha" operator="arithmetic" k2="-1" k3="1"/>
<feColorMatrix type="matrix" values="0 0 0 0 1 0 0 0 0 1 0 0 0 0 1 0 0 0 0.3 0"/>
<feBlend mode="normal" in2="shape" result="effect1_innerShadow_19618_51501"/>
</filter>
<filter id="filter1_i_19618_51501" x="12.5" y="29.6875" width="75" height="30.27" filterUnits="userSpaceOnUse" color-interpolation-filters="sRGB">
<feFlood flood-opacity="0" result="BackgroundImageFix"/>
<feBlend mode="normal" in="SourceGraphic" in2="BackgroundImageFix" result="shape"/>
<feColorMatrix in="SourceAlpha" type="matrix" values="0 0 0 0 0 0 0 0 0 0 0 0 0 0 0 0 0 0 127 0" result="hardAlpha"/>
<feOffset dy="1.896"/>
<feGaussianBlur stdDeviation="0.76"/>
<feComposite in2="hardAlpha" operator="arithmetic" k2="-1" k3="1"/>
<feColorMatrix type="matrix" values="0 0 0 0 1 0 0 0 0 1 0 0 0 0 1 0 0 0 0.3 0"/>
<feBlend mode="normal" in2="shape" result="effect1_innerShadow_19618_51501"/>
</filter>
<filter id="filter2_i_19618_51501" x="3.125" y="51.5625" width="93.75" height="37.8375" filterUnits="userSpaceOnUse" color-interpolation-filters="sRGB">
<feFlood flood-opacity="0" result="BackgroundImageFix"/>
<feBlend mode="normal" in="SourceGraphic" in2="BackgroundImageFix" result="shape"/>
<feColorMatrix in="SourceAlpha" type="matrix" values="0 0 0 0 0 0 0 0 0 0 0 0 0 0 0 0 0 0 127 0" result="hardAlpha"/>
<feOffset dy="2.37"/>
<feGaussianBlur stdDeviation="0.95"/>
<feComposite in2="hardAlpha" operator="arithmetic" k2="-1" k3="1"/>
<feColorMatrix type="matrix" values="0 0 0 0 1 0 0 0 0 1 0 0 0 0 1 0 0 0 0.3 0"/>
<feBlend mode="normal" in2="shape" result="effect1_innerShadow_19618_51501"/>
</filter>
<linearGradient id="paint0_linear_19618_51501" x1="49.9999" y1="12.4684" x2="49.9999" y2="43.6373" gradientUnits="userSpaceOnUse">
<stop stop-color="#8EDF5C"/>
<stop offset="1" stop-color="#4FA074"/>
</linearGradient>
<linearGradient id="paint1_linear_19618_51501" x1="36.3087" y1="32.4488" x2="39.0009" y2="26.0905" gradientUnits="userSpaceOnUse">
<stop stop-color="#E9FBE4"/>
<stop offset="1" stop-color="#348C38"/>
</linearGradient>
<linearGradient id="paint2_linear_19618_51501" x1="38.6059" y1="14.0202" x2="43.2495" y2="26.9513" gradientUnits="userSpaceOnUse">
<stop stop-color="#E4FED7"/>
<stop offset="1" stop-color="#A2D96C"/>
</linearGradient>
<linearGradient id="paint3_linear_19618_51501" x1="36.4575" y1="18.4364" x2="39.9776" y2="23.0494" gradientUnits="userSpaceOnUse">
<stop stop-color="#E4FED7"/>
<stop offset="1" stop-color="#A2D96C"/>
</linearGradient>
<linearGradient id="paint4_linear_19618_51501" x1="58.0357" y1="29.6875" x2="52.5671" y2="63.2739" gradientUnits="userSpaceOnUse">
<stop stop-color="#F4C13C"/>
<stop offset="1" stop-color="#EB702C"/>
</linearGradient>
<linearGradient id="paint5_linear_19618_51501" x1="37.8487" y1="29.9312" x2="49.2844" y2="43.9806" gradientUnits="userSpaceOnUse">
<stop stop-color="#FFEBBE"/>
<stop offset="1" stop-color="#FFC64A"/>
</linearGradient>
<linearGradient id="paint6_linear_19618_51501" x1="32.9568" y1="39.4794" x2="22.2707" y2="42.2688" gradientUnits="userSpaceOnUse">
<stop stop-color="#FFE4BE"/>
<stop offset="1" stop-color="#FFC64A"/>
</linearGradient>
<linearGradient id="paint7_linear_19618_51501" x1="29.5193" y1="44.0627" x2="18.8332" y2="46.8521" gradientUnits="userSpaceOnUse">
<stop stop-color="#FFE4BE"/>
<stop offset="1" stop-color="#FFC64A"/>
</linearGradient>
<linearGradient id="paint8_linear_19618_51501" x1="32.3178" y1="48.6461" x2="22.307" y2="51.0726" gradientUnits="userSpaceOnUse">
<stop stop-color="#FFE4BE"/>
<stop offset="1" stop-color="#FFC64A"/>
</linearGradient>
<linearGradient id="paint9_linear_19618_51501" x1="31.7293" y1="93.0742" x2="34.8046" y2="36.6244" gradientUnits="userSpaceOnUse">
<stop stop-color="#3A258E"/>
<stop offset="1" stop-color="#CA9DFF"/>
</linearGradient>
<linearGradient id="paint10_linear_19618_51501" x1="29.0265" y1="51.8668" x2="42.4967" y2="72.0932" gradientUnits="userSpaceOnUse">
<stop stop-color="#EEBEFF"/>
<stop offset="1" stop-color="#6D4AFF"/>
</linearGradient>
<linearGradient id="paint11_linear_19618_51501" x1="24.2322" y1="58.6627" x2="24.2322" y2="88.9803" gradientUnits="userSpaceOnUse">
<stop stop-color="#5D489C"/>
<stop offset="1" stop-color="#D6A9FF"/>
</linearGradient>
<linearGradient id="paint12_linear_19618_51501" x1="29.0265" y1="51.8668" x2="42.4967" y2="72.0932" gradientUnits="userSpaceOnUse">
<stop stop-color="#EEBEFF"/>
<stop offset="1" stop-color="#6D4AFF"/>
</linearGradient>
<linearGradient id="paint13_linear_19618_51501" x1="29.0265" y1="51.8668" x2="42.4967" y2="72.0932" gradientUnits="userSpaceOnUse">
<stop stop-color="#EEBEFF"/>
<stop offset="1" stop-color="#6D4AFF"/>
</linearGradient>
<linearGradient id="paint14_linear_19618_51501" x1="25.3907" y1="71.3216" x2="13.3045" y2="62.1872" gradientUnits="userSpaceOnUse">
<stop stop-color="#EEBEFF"/>
<stop offset="1" stop-color="#6D4AFF"/>
</linearGradient>
<linearGradient id="paint15_linear_19618_51501" x1="31.1473" y1="64.9959" x2="37.8823" y2="75.1091" gradientUnits="userSpaceOnUse">
<stop stop-color="#EEBEFF"/>
<stop offset="1" stop-color="#6D4AFF"/>
</linearGradient>
<linearGradient id="paint16_linear_19618_51501" x1="16.1634" y1="70.4664" x2="19.9506" y2="76.6702" gradientUnits="userSpaceOnUse">
<stop stop-color="#EEBEFF"/>
<stop offset="1" stop-color="#6D4AFF"/>
</linearGradient>
<linearGradient id="paint17_linear_19618_51501" x1="37.3172" y1="59.7639" x2="40.0224" y2="64.1952" gradientUnits="userSpaceOnUse">
<stop stop-color="#EEBEFF"/>
<stop offset="1" stop-color="#6D4AFF"/>
</linearGradient>
<clipPath id="clip0_19618_51501">
<rect width="15.4688" height="10.3125" fill="white" transform="translate(27.5001 18.1259)"/>
</clipPath>
<clipPath id="clip1_19618_51501">
<rect width="20.625" height="13.75" fill="white" transform="translate(20.0001 37.1877)"/>
</clipPath>
<clipPath id="clip2_19618_51501">
<rect width="25.7813" height="17.1875" fill="white" transform="translate(12.5 60.9375)"/>
</clipPath>
</defs>
</svg>
