<svg width="173" height="45" viewBox="0 0 174 45" fill="none" xmlns="http://www.w3.org/2000/svg">
<g clip-path="url(#clip0_3212_281611)">
<path d="M150.553 13.621H142.338V31.4341H145.592V26.9998C145.592 26.569 145.762 26.1528 146.069 25.8487C146.373 25.5446 146.789 25.3709 147.219 25.3709H150.553C152.108 25.3709 153.597 24.7519 154.693 23.6551C155.792 22.5547 156.407 21.0633 156.407 19.5104C156.411 18.7394 156.262 17.972 155.969 17.2589C155.677 16.5458 155.246 15.8942 154.7 15.3476C154.154 14.801 153.511 14.3667 152.798 14.0698C152.09 13.773 151.327 13.621 150.553 13.621ZM153.117 19.4634C153.117 19.829 153.044 20.1909 152.903 20.5276C152.762 20.8642 152.56 21.1719 152.299 21.4289C152.043 21.6859 151.735 21.8922 151.399 22.0298C151.063 22.171 150.701 22.2397 150.336 22.2397H145.578V16.6906H150.336C150.701 16.6906 151.063 16.763 151.403 16.9042C151.739 17.0453 152.046 17.2517 152.303 17.5087C152.56 17.7693 152.766 18.077 152.903 18.4136C153.041 18.7539 153.113 19.1159 153.109 19.4815L153.117 19.4634Z" fill="white"/>
<path d="M130.908 31.3689L124.353 13.5704H128.055L132.369 26.3085C132.539 26.7645 132.662 27.2351 132.734 27.7166H132.77C132.825 27.2315 132.948 26.7573 133.136 26.3085L137.464 13.5704H141.192L134.604 31.3689H130.908Z" fill="white"/>
<path d="M157.625 31.3686V13.5664H160.478L168.874 24.6068C169.178 24.9869 169.438 25.3959 169.659 25.8303H169.709C169.652 25.2946 169.626 24.7552 169.63 24.2159V13.5664H172.993V31.365H170.14L161.719 20.3246C161.422 19.9409 161.162 19.5318 160.938 19.1011H160.909C160.956 19.6368 160.974 20.1762 160.963 20.7155V31.365H157.625V31.3686Z" fill="white"/>
<path d="M48.25 26.574V31.1553H51.4488V26.7741C51.4488 26.3489 51.6159 25.9379 51.918 25.6378C52.2165 25.3376 52.6253 25.1661 53.0482 25.1661H56.3288C57.8571 25.1661 59.325 24.555 60.4055 23.4651C61.486 22.3787 62.0938 20.9028 62.0938 19.3662C62.0938 17.8296 61.486 16.3538 60.4055 15.2638C59.325 14.1775 57.8571 13.5664 56.3253 13.5664H48.25V19.2912H51.4488V16.5932H56.112C56.8371 16.5932 57.5301 16.8826 58.042 17.3972C58.5538 17.9118 58.8417 18.6086 58.8417 19.3376C58.8417 20.0666 58.5538 20.7635 58.042 21.2781C57.5301 21.7926 56.8371 22.0821 56.112 22.0821H52.7248C52.1383 22.0821 51.5555 22.1965 51.0152 22.4252C50.4714 22.6503 49.9809 22.9826 49.5651 23.4007C49.1492 23.8188 48.8222 24.3156 48.5948 24.8587C48.3673 25.3983 48.25 25.9844 48.25 26.574Z" fill="white"/>
<path d="M62.5879 31.1553V24.1762C62.5879 21.3281 64.2406 19.0625 67.5496 19.0625C68.0792 19.0553 68.6088 19.1125 69.1277 19.2376V22.1071C68.7509 22.0821 68.4275 22.0821 68.2747 22.0821C66.5224 22.0821 65.7689 22.8897 65.7689 24.5264V31.1553H62.5879Z" fill="white"/>
<path d="M70.0801 25.2376C70.0801 21.7355 72.7102 19.0661 76.3711 19.0661C80.032 19.0661 82.6621 21.7355 82.6621 25.2376C82.6621 28.7396 80.032 31.4341 76.3711 31.4341C72.7102 31.4341 70.0801 28.736 70.0801 25.2376ZM79.5273 25.2376C79.5273 23.2471 78.198 21.8356 76.3711 21.8356C74.5407 21.8356 73.215 23.2435 73.215 25.2376C73.215 27.253 74.5442 28.6396 76.3711 28.6396C78.2016 28.6396 79.5273 27.2495 79.5273 25.2376Z" fill="white"/>
<path d="M92.8345 25.2376C92.8345 21.7355 95.4647 19.0661 99.1255 19.0661C102.783 19.0661 105.413 21.7355 105.413 25.2376C105.413 28.7396 102.783 31.4341 99.1255 31.4341C95.4647 31.4341 92.8345 28.736 92.8345 25.2376ZM102.278 25.2376C102.278 23.2471 100.949 21.8356 99.122 21.8356C97.2951 21.8356 95.9658 23.2435 95.9658 25.2376C95.9658 27.253 97.2951 28.6396 99.122 28.6396C100.949 28.6396 102.278 27.2495 102.278 25.2376Z" fill="white"/>
<path d="M107.066 31.1553V24.43C107.066 21.3067 109.045 19.0625 112.578 19.0625C116.086 19.0625 118.066 21.3031 118.066 24.43V31.1553H114.91V24.6801C114.91 22.9434 114.132 21.857 112.578 21.857C111.025 21.857 110.247 22.9398 110.247 24.6801V31.1553H107.066Z" fill="white"/>
<path d="M91.882 21.8604H88.4486V26.2701C88.4486 27.8068 88.9995 28.5107 90.5776 28.5107C90.7268 28.5107 91.1036 28.5107 91.5799 28.4857V31.0801C90.9294 31.2552 90.3536 31.3588 89.7245 31.3588C87.0695 31.3588 85.264 29.7472 85.264 26.699V21.8604H83.1314V19.3161H83.6645C83.8742 19.3161 84.0839 19.2732 84.2759 19.1946C84.4714 19.1124 84.6455 18.9945 84.7948 18.8444C84.9441 18.6943 85.0614 18.5192 85.1431 18.3226C85.2249 18.1261 85.264 17.9188 85.264 17.708V15.3102H88.445V19.3161H91.8784V21.8604H91.882Z" fill="white"/>
<path fill-rule="evenodd" clip-rule="evenodd" d="M14.8087 36.4358C16.1389 38.8271 19.5548 38.9567 21.065 36.673L35.1467 15.3798C36.64 13.1217 35.2112 10.0942 32.507 9.78656L4.82908 6.63731C1.8782 6.30155 -0.222844 9.41307 1.21244 11.9933L1.325 12.1946L13.675 20.6571L13.525 34.1196L14.8087 36.4358Z" fill="url(#paint0_linear_3212_281611)"/>
<path d="M15.6018 34.2055L16.8515 32.3415L26.3443 18.0021C27.1743 16.7484 26.3821 15.0666 24.8804 14.8942L1.32178 12.1895L13.5258 34.1293C13.9712 34.9145 15.0974 34.9577 15.6018 34.2055Z" fill="url(#paint1_radial_3212_281611)"/>
</g>
<defs>
<linearGradient id="paint0_linear_3212_281611" x1="32.4001" y1="36.4342" x2="9.87934" y2="-2.40321" gradientUnits="userSpaceOnUse">
<stop offset="0.0660125" stop-color="#8EFFEE"/>
<stop offset="0.4499" stop-color="#C9C7FF"/>
<stop offset="1" stop-color="#7341FF"/>
</linearGradient>
<radialGradient id="paint1_radial_3212_281611" cx="0" cy="0" r="1" gradientUnits="userSpaceOnUse" gradientTransform="translate(15.6342 2.14558) rotate(93.7553) scale(35.7345 46.0835)">
<stop offset="0.403126" stop-color="#6D4AFF"/>
<stop offset="0.9944" stop-color="#00F0C3"/>
</radialGradient>
<clipPath id="clip0_3212_281611">
<rect width="172.5" height="45" fill="white" transform="translate(0.75)"/>
</clipPath>
</defs>
</svg>
