<svg width="auto" height="auto" viewBox="0 0 30 20" fill="none" xmlns="http://www.w3.org/2000/svg">
<g clip-path="url(#clip0_1318_650)">
<rect x="0.00012207" y="11.0001" width="30" height="9" rx="2" fill="#5C586A"/>
<path d="M3.00012 15.5C3.00012 14.6716 3.67169 14 4.50012 14H10.0001C10.8286 14 11.5001 14.6716 11.5001 15.5C11.5001 16.3284 10.8286 17 10.0001 17H4.50012C3.6717 17 3.00012 16.3284 3.00012 15.5Z" fill="#A3A0AE"/>
<rect x="0.00012207" y="6.10352e-05" width="30" height="9" rx="2" fill="#5C586A"/>
<path d="M3.00018 4.50009C3.00018 3.67166 3.67176 3.00009 4.50018 3.00009H10.0002C10.8286 3.00009 11.5002 3.67166 11.5002 4.50009C11.5002 5.32852 10.8286 6.00009 10.0002 6.00009H4.50018C3.67176 6.00009 3.00018 5.32852 3.00018 4.50009Z" fill="#A3A0AE"/>
<rect x="24.0002" y="3.00009" width="3" height="3" rx="1.5" fill="#A3A0AE"/>
<rect x="3.00012" y="8.99994" width="24" height="2" fill="#43404E"/>
</g>
<defs>
<clipPath id="clip0_1318_650">
<rect width="30" height="20" fill="white"/>
</clipPath>
</defs>
</svg>