<svg width="auto" height="auto" viewBox="0 0 30 20" fill="none" xmlns="http://www.w3.org/2000/svg">
  <g clip-path="url(#clip0_1662_251286)">
    <rect x="0.000244141" y="10.9995" width="30" height="9" rx="2" fill="#7A7689"/>
    <path d="M3.00024 15.4995C3.00024 14.6711 3.67182 13.9995 4.50024 13.9995H10.0002C10.8287 13.9995 11.5002 14.6711 11.5002 15.4995V15.4995C11.5002 16.3279 10.8287 16.9995 10.0002 16.9995H4.50024C3.67182 16.9995 3.00024 16.3279 3.00024 15.4995V15.4995Z" fill="#C5C3CB"/>
    <rect x="0.00012207" width="30" height="9" rx="2" fill="#7A7689"/>
    <path d="M3.00024 4.5C3.00024 3.67157 3.67182 3 4.50024 3H10.0002C10.8287 3 11.5002 3.67157 11.5002 4.5V4.5C11.5002 5.32843 10.8287 6 10.0002 6H4.50024C3.67182 6 3.00024 5.32843 3.00024 4.5V4.5Z" fill="#C5C3CB"/>
    <rect x="24.0002" y="3" width="3" height="3" rx="1.5" fill="#C5C3CB"/>
    <rect x="3.00024" y="9" width="24" height="2" fill="#545061"/>
  </g>
  <defs>
    <clipPath id="clip0_1662_251286">
      <rect width="30" height="20" fill="white"/>
    </clipPath>
  </defs>
</svg>
