<svg width="auto" height="auto" viewBox="0 0 30 20" fill="none" xmlns="http://www.w3.org/2000/svg">
  <rect width="30" height="20" rx="4" fill="white" fill-opacity="0.3"/>
  <path fill-rule="evenodd" clip-rule="evenodd" d="M14.9613 4.5C12.1588 4.5 9.84657 6.5676 9.47709 9.24675L9.99361 8.73328C10.1895 8.5386 10.507 8.5386 10.7028 8.73328C10.8987 8.92797 10.8987 9.24361 10.7028 9.43829L9.42202 10.7115C9.14784 10.9841 8.70332 10.9841 8.42914 10.7115L7.14835 9.43829C6.9525 9.24361 6.9525 8.92797 7.14835 8.73328C7.34419 8.5386 7.66171 8.5386 7.85755 8.73328L8.45967 9.33184C8.79611 6.05368 11.581 3.5 14.9613 3.5C18.5681 3.5 21.497 6.40736 21.497 10C21.497 13.5926 18.5681 16.5 14.9613 16.5C13.1336 16.5 11.4799 15.7532 10.294 14.5501L11.0062 13.8481C12.0112 14.8677 13.4112 15.5 14.9613 15.5C18.0214 15.5 20.497 13.0348 20.497 10C20.497 6.96523 18.0214 4.5 14.9613 4.5ZM16.1156 11.8525C16.3115 12.0472 16.629 12.0472 16.8248 11.8525C17.0207 11.6578 17.0207 11.3422 16.8248 11.1475L15.4628 9.79351V7C15.4628 6.72468 15.2383 6.50149 14.9613 6.50149C14.6843 6.50149 14.4598 6.72468 14.4598 7V10C14.4598 10.1322 14.5127 10.259 14.6067 10.3525L16.1156 11.8525Z" fill="white"/>
</svg>
