<svg width="auto" height="auto" viewBox="0 0 30 20" fill="none" xmlns="http://www.w3.org/2000/svg">
  <rect width="30" height="20" rx="4" fill="white" fill-opacity="0.3"/>
  <path fill-rule="evenodd" clip-rule="evenodd" d="M19.8536 3.14645C19.6583 2.95118 19.3417 2.95118 19.1464 3.14645C18.9512 3.34171 18.9512 3.65829 19.1464 3.85355L20.2929 5H18.6217C17.7508 5 16.9426 5.45324 16.4885 6.19638L14.75 9.04114L13.0115 6.19637C12.5574 5.45324 11.7492 5 10.8783 5H8.5C8.22386 5 8 5.22386 8 5.5C8 5.77614 8.22386 6 8.5 6H10.8783C11.4009 6 11.8858 6.27194 12.1583 6.71782L14.3182 10.2523C14.3217 10.2582 14.3252 10.2641 14.3289 10.2698L16.4885 13.8036C16.9426 14.5468 17.7508 15 18.6217 15H20.2929L19.1464 16.1464C18.9512 16.3417 18.9512 16.6583 19.1464 16.8536C19.3417 17.0488 19.6583 17.0488 19.8536 16.8536L21.8536 14.8536C22.0488 14.6583 22.0488 14.3417 21.8536 14.1464L19.8536 12.1464C19.6583 11.9512 19.3417 11.9512 19.1464 12.1464C18.9512 12.3417 18.9512 12.6583 19.1464 12.8536L20.2929 14H18.6217C18.0991 14 17.6142 13.7281 17.3417 13.2822L15.336 10L17.3417 6.71782C17.6142 6.27194 18.0991 6 18.6217 6H20.2929L19.1464 7.14645C18.9512 7.34171 18.9512 7.65829 19.1464 7.85355C19.3417 8.04882 19.6583 8.04882 19.8536 7.85355L21.8536 5.85355C22.0488 5.65829 22.0488 5.34171 21.8536 5.14645L19.8536 3.14645ZM13.1202 11.708C13.2642 11.4724 13.572 11.3981 13.8076 11.5421C14.0432 11.6861 14.1175 11.9938 13.9735 12.2295L13.8016 12.5107L13.0115 13.8036C12.5574 14.5468 11.7492 15 10.8783 15H8.5C8.22386 15 8 14.7761 8 14.5C8 14.2239 8.22386 14 8.5 14H10.8783C11.4009 14 11.8858 13.7281 12.1583 13.2822L12.9484 11.9893L13.1202 11.708Z" fill="white"/>
</svg>
