<svg width="auto" height="auto" viewBox="0 0 24 16" fill="none" xmlns="http://www.w3.org/2000/svg">
  <g id="Random">
    <rect width="24" height="16" rx="4" fill="#5B5A60"/>
    <path id="Union" d="M16.2469 2.00314C16.076 1.83229 15.799 1.83229 15.6281 2.00314C15.4573 2.174 15.4573 2.451 15.6281 2.62186L16.6313 3.625H15.169C14.4069 3.625 13.6998 4.02158 13.3024 4.67183L11.7812 7.16099L10.2601 4.67183C9.86272 4.02158 9.15559 3.625 8.39354 3.625H6.3125C6.07088 3.625 5.875 3.82088 5.875 4.0625C5.875 4.30412 6.07088 4.5 6.3125 4.5H8.39354C8.85077 4.5 9.27505 4.73795 9.51347 5.1281L11.4034 8.22079C11.4065 8.22594 11.4096 8.23104 11.4128 8.23609L13.3024 11.3282C13.6998 11.9784 14.4069 12.375 15.169 12.375H16.6313L15.6281 13.3781C15.4573 13.549 15.4573 13.826 15.6281 13.9969C15.799 14.1677 16.076 14.1677 16.2469 13.9969L17.9969 12.2469C18.1677 12.076 18.1677 11.799 17.9969 11.6281L16.2469 9.87814C16.076 9.70729 15.799 9.70729 15.6281 9.87814C15.4573 10.049 15.4573 10.326 15.6281 10.4969L16.6313 11.5H15.169C14.7117 11.5 14.2875 11.262 14.049 10.8719L12.294 8L14.049 5.1281C14.2875 4.73795 14.7117 4.5 15.169 4.5H16.6313L15.6281 5.50314C15.4573 5.674 15.4573 5.951 15.6281 6.12186C15.799 6.29271 16.076 6.29271 16.2469 6.12186L17.9969 4.37186C18.1677 4.201 18.1677 3.924 17.9969 3.75314L16.2469 2.00314ZM10.3552 9.49452C10.4812 9.28835 10.7505 9.22335 10.9566 9.34935C11.1628 9.47534 11.2278 9.74462 11.1018 9.95079L10.9514 10.1969L10.2601 11.3282C9.86272 11.9784 9.15559 12.375 8.39354 12.375H6.3125C6.07088 12.375 5.875 12.1791 5.875 11.9375C5.875 11.6959 6.07088 11.5 6.3125 11.5H8.39354C8.85077 11.5 9.27505 11.262 9.51347 10.8719L10.2048 9.74062L10.3552 9.49452Z" fill="#FFFFFF"/>
  </g>
</svg>